<?xml version="1.0" encoding="UTF-8" standalone="no"?>
<svg
   id="Laag_1"
   data-name="Laag 1"
   viewBox="0 0 411.57 531.06"
   version="1.1"
   sodipodi:docname="Binnenkant.svg"
   inkscape:version="1.4.2 (f4327f4, 2025-05-13)"
   xmlns:inkscape="http://www.inkscape.org/namespaces/inkscape"
   xmlns:sodipodi="http://sodipodi.sourceforge.net/DTD/sodipodi-0.dtd"
   xmlns="http://www.w3.org/2000/svg"
   xmlns:svg="http://www.w3.org/2000/svg">
  <sodipodi:namedview
     id="namedview249"
     pagecolor="#ffffff"
     bordercolor="#000000"
     borderopacity="0.25"
     inkscape:showpageshadow="2"
     inkscape:pageopacity="0.0"
     inkscape:pagecheckerboard="0"
     inkscape:deskcolor="#d1d1d1"
     inkscape:zoom="1.5196023"
     inkscape:cx="205.97494"
     inkscape:cy="265.53"
     inkscape:window-width="1920"
     inkscape:window-height="1009"
     inkscape:window-x="-8"
     inkscape:window-y="-8"
     inkscape:window-maximized="1"
     inkscape:current-layer="layer1" />
  <defs
     id="defs1">
    <style
       id="style1">
      .cls-1 {
        fill: #2d6590;
      }

      .cls-2 {
        fill: #2380ad;
      }

      .cls-3 {
        fill: #25356d;
      }

      .cls-4 {
        fill: #1e2145;
      }

      .cls-5 {
        fill: #323e6f;
      }

      .cls-6 {
        fill: #1c3d75;
      }

      .cls-7 {
        fill: #1e2f55;
      }

      .cls-8 {
        fill: #1272aa;
      }

      .cls-9 {
        fill: #41bee0;
      }

      .cls-10 {
        fill: #1c2240;
      }

      .cls-11 {
        fill: #2892bf;
      }

      .cls-12 {
        fill: #84cee0;
      }

      .cls-13 {
        fill: #67c6e0;
      }

      .cls-14 {
        fill: #189dd9;
      }

      .cls-15 {
        fill: #32a2ca;
      }

      .cls-16 {
        fill: #15122a;
      }

      .cls-17 {
        fill: #144f81;
      }
    </style>
  </defs>
  <g
     id="Generatief_object"
     data-name="Generatief object">
    <path
       class="cls-12"
       d="M349.2,362.79c.02.1-.02.22,0,.32.15.63-.05,1.77,0,2.53.5,7.55-.38,15.61,0,23.22.05.99.45,1.53.63.16.01.12,1.29.25.47,1.9-.6-.52-3.01-.54-3.32.16-1.07,2.41.86,16.64,0,20.22.99.21,2.07,1.1,2.21,1.11l-.32,42.01c-.17,1.07.91.38,1.58.79-.58.88-3.39.16-3.47.32-.35.66.26,5.31,0,6.48,0,.37-.13,1.37.16,1.58.55.06,1.21-.09,1.74,0,.15.03.84-.45,1.26.16-.41.25-.78.41-1.26.47-.09.01-1.44-.8-1.9-.16-.22.31-.18,7.25,0,7.58.16.31.68.09.95.16.47.12,2.47-.28,2.53.47.05.63-1.23.25-1.26.32-1.47,3.34,1.49,18.26-.63,23.22-1.9-3.52.48-21.39-.63-23.22-.18-.29-1.15-.02-1.58-.47v-16.43c.01-.6.31-.7.32-.95l1.26-.79v-41.38c-.5-.04-.97-.37-1.26-.47-.58-6.6-.31-13.28-.32-19.9,0-.63,0-1.27,0-1.9.43-.45,1.4-.18,1.58-.47.45-.75.04-15.33,0-17.53,0-.19,0-.39,0-.63-.03-.98.17-6.72-.16-6.95h-176.75c-1.03.22-3.49-.58-3.47.63-.02-.44.02-.93,0-1.26h180.22l1.42-1.26Z"
       id="path1" />
    <path
       class="cls-15"
       d="M331.82,496.41l-149.42-.32c1.17-.42,1.71-.25,2.84-.32,3.5-.21,7.21.04,10.74,0,42.04-.5,84.95,1.42,126.83,0,.58-.02,1.56.32,1.42-.63.5.06.21.6.47.63,2.81.34,5.99-.25,8.85,0l-1.74.63Z"
       id="path2" />
    <path
       class="cls-9"
       d="M164.4,391.85c.02,20.84.05,41.71,0,62.55-.03,11.65.36,23.42,0,35.06h-.95c1.04-32.11,0-65.37,0-97.61h.95Z"
       id="path3" />
    <path
       class="cls-6"
       d="M349.83,412.38l-.95,42.01.32-42.01c.21,0,.43.01.63,0Z"
       id="path4" />
    <path
       class="cls-1"
       d="M349.51,355.84l-.32,7.27c-.02-.1.02-.21,0-.32l-182.27-.32-.79,27.8-.32-34.12c32.69.78,65.41.15,98.09,0,5.47-.03,10.96.03,16.43,0,22.26-.12,47.27,1.11,69.18-.32Z"
       id="path5" />
    <path
       class="cls-6"
       d="M347.93,371.63c-2.99-.58-6.14-.31-9.16-.32,1.18-1.04,8.28.78,7.27-1.42-.51-1.11-22.22-.15-24.32-.16-42.06-.07-85.39-1.24-127.31.32-2.21.08-8.61-.25-9.95,0-.09.02-1.1,1.07-1.42,1.26-4.07-.06-10.15.55-13.9,0,.5-2.51-1.46-6.59,1.9-6.63h176.75c.32.23.13,5.97.16,6.95Z"
       id="path6" />
    <path
       class="cls-2"
       d="M349.2,362.79l-1.42,1.26h-180.22c-.03-.58-.04-1.24-.63-1.58l182.27.32Z"
       id="path7" />
    <path
       class="cls-2"
       d="M171.03,364.68c-3.35.04-1.4,4.13-1.9,6.63-.41-.06-1.35.17-1.58-.16-.05-1.94.07-3.91,0-5.84-.01-1.21,2.44-.41,3.47-.63Z"
       id="path8" />
    <g
       id="g249">
      <path
         class="cls-17"
         d="M324.24,495.15c.14.95-.84.61-1.42.63-41.88,1.42-84.8-.5-126.83,0v-1.26c31.54-1.65,64.12-1.07,95.88-.63,10.84.15,21.89.08,32.38,1.26Z"
         id="path9" />
      <path
         class="cls-1"
         d="M345.41,405.75c.03,1.41-.29,5.53,0,6.48s1.04-.23,1.26-.16c.29.1.77.44,1.26.47v41.38l-1.26.79c0-.36-.63-.66-.63-.79.17-10.21,1.44-29.62,0-38.86-.14-.91-.07-.72-.95-1.11,0-2.68-.31-5.48-.32-8.21h.63Z"
         id="path10" />
      <path
         class="cls-17"
         d="M346.67,454.72c0,.25-.3.34-.32.95-.05,2.18-.14,9.14-.63,11.85-.08.45.17,1.11-.63.63-.75-18.05.03-36.14,0-54.18.88.39.81.2.95,1.11,1.44,9.23.17,28.65,0,38.86,0,.13.64.43.63.79Z"
         id="path11" />
      <path
         class="cls-17"
         d="M348.57,495.78c-2.19-.08-.98-3.46-1.26-5.21-.05-.3-.91-.02-.95-.32-.63-5.07,0-12.78,0-18.16.43.45,1.4.18,1.58.47,1.11,1.83-1.27,19.69.63,23.22Z"
         id="path12" />
      <path
         class="cls-7"
         d="M195.99,494.52v1.26c-3.53.04-7.24-.21-10.74,0-.4-1.35,4.88-1.87,5.84-1.9,1.98-.06,3.59.7,4.9.63Z"
         id="path13" />
      <path
         class="cls-2"
         d="M348.88,464.19c-.33,2.5.85,5.73-.95,7.58-.27-.07-.78.16-.95-.16-.18-.34-.22-7.27,0-7.58.45-.64,1.8.17,1.9.16Z"
         id="path14" />
      <path
         class="cls-2"
         d="M348.88,463.56c-.52-.09-1.18.06-1.74,0-.29-.2-.16-1.21-.16-1.58,0-1.17.01-7.3,1.74-6,.45.34-.01,6.56.16,7.58Z"
         id="path15" />
      <path
         class="cls-7"
         d="M237.37,422.18c17.42-.05,34.86.04,52.28,0v11.69h-34.12l-1.26-5.37-.95,5.37h-51.49v1.9l51.65-.32c.17.49-.37.7-.32.95-2.49,1.46-6.49,1.52-8.21,3.95-1.37,1.93-1.15,5.42-2.37,6.79-2.45.53-14.76,9.14-15.79,9.16-1.98.05-1.31-3.95-1.42-4.26-.06-.16-.83-.22-.95-.63-1.08-3.72-2.76-7.22,3-6.48,3.61-4.64-12.46-2.51-12.95-1.9-.38,1.58,1.43-.29,1.9-.32,1.32-.08,10.68-.09,11.06.32,1.47,1.58-2.64,1.18-2.84,1.26-.8.32-3.04,2.46-3.79,2.53-1.5.13-2.29-2.86-3.79-3.16-.45-.09-1.22.36-2.05.32-5.37-.28-10.74-.57-16.11-.79l.16-21.01c12.79-.03,25.59.04,38.38,0Z"
         id="path16" />
      <path
         class="cls-7"
         d="M289.81,478.72c-1.95-.16-4.59.03-6.63,0l-.47-40.44-.47,40.44c-2.53-.02-5.06.13-7.58,0,6.4-10.87.73-27.52-12.32-30.01-2.22-.42-5.16-.43-7.42-.32-.41.02-2.4.98-2.53.95-.18-.04-1.76-3.13-1.74-3.32.06-.51,2.76-2.21,3.16-2.84.04-1.02-1.17.74-1.26,0-.01-.09,1.01-.92,1.26-1.42.07-.06.26.2.63-.32.87-1.22-.37-2.39-.32-2.69.07-.4,1.26-.85,1.58-1.26.16-.21-.23-1.46.16-1.74,1.4-.99,30.18.65,34.28.16l-.32,42.8Z"
         id="path17" />
      <path
         class="cls-7"
         d="M338.77,371.32c-2.49,0-21.66-.54-22.11.47v35.38c-4.09.26-8.22.2-12.32.16.26-1.14.78-2.12,1.26-3.16.35-.75,1.56-1.58,1.11-2.53-.16-.08-1.8,2.01-2.05,2.21-.32.25-.89.87-1.26.79-.02-3.1,1.32-6.59,3.16-9.16l-3.79,2.84-.47-8.37-2.53,9.16-1.9-11.37-1.11,11.21-3.79-5.69c1.55,3.46.99,7.59,1.58,11.21l-.63.32c-.45-1.34-2.21-3.78-3.47-4.58l2.53,6.95c-.35.48-2.43-.31-2.84.63-.63,1.42.6,13.21-.16,13.74h-10.42c-.93-.37.54-4.12.47-4.9-.02-.29-.93-1.19-.95-1.26-.25-1.36-.26-4.43-1.74-5.21-.48-.25-10.21-.73-10.74-.63-1.88.36-2.88,4.17-3.63,5.53-.24.44-1.81,1.09-1.9,1.26-.48,1,.39,5.09.16,5.21-4.45.37-9.01-.35-13.43-.32-.23-2.29,1.07-4.84-2.21-3.32l-.79-15.01-2.84,5.37-1.58-8.21c-.8.94-1.18,10.54-2.84,10.11l-1.58-8.85-.16,6.79c-5.26,1.75-1.81-4.36-1.42-7.11l.79,4.9-.79-8.37-2.21,10.42c-.65-.01.4-6.66-.95-7.27l-1.26,8.21h-15.32c-.05-.08.04-.37-.32-.32-.09-.59.24-1.13-.47-1.58h-14.37s-.62.1-.63-.16c-.33-11.78.26-23.64,0-35.38-.55-.51-.6.16-.63.16-4.71-.73-10.33-.25-15.16-.32.32-.19,1.33-1.25,1.42-1.26,1.34-.25,7.74.08,9.95,0l127.31-.32c2.1,0,23.81-.95,24.32.16,1.01,2.2-6.08.39-7.27,1.42Z"
         id="path18" />
      <path
         class="cls-2"
         d="M347.93,372.27c.04,2.2.45,16.78,0,17.53-.18.29-1.15.02-1.58.47,0-5.83-.54-12.58.63-18.01h.95Z"
         id="path19" />
      <path
         class="cls-17"
         d="M346.36,392.17c0,6.62-.27,13.3.32,19.9-.22-.08-.96,1.14-1.26.16s.03-5.07,0-6.48c-.09-4.52.07-9.06,0-13.58.26.07.65-.04.95,0Z"
         id="path20" />
      <path
         class="cls-13"
         d="M283.18,478.72c-.29,0-.64,0-.95,0l.47-40.44.47,40.44Z"
         id="path21" />
      <g
         id="g41">
        <path
           class="cls-17"
           d="M179.88,372.27c-.84.06-2.32.35-3.16.63-1.52.06-3.06-.04-4.58,0-.94.59-.11,1.01-.16,1.26-.84,4.07-.27,9.07-.32,13.27v30.33c-.03,12.42,0,24.86,0,37.28l-.63-5.53c-.28,1.54.37,11.17,0,11.69-.24.34-1.42.08-1.9.16,0-2.09-.32-4.29-.32-6.32.03-13.78.31-27.6.32-41.38,0-7.58,0-15.17,0-22.74,0-5.4-.47-11.98,0-17.22.08-.85-.18-.85.63-1.42,3.2-.31,6.85.23,10.11,0Z"
           id="path22" />
        <path
           class="cls-12"
           d="M172.29,374.79v120.67c-.21,0-.43-.02-.63,0v-40.44c0-12.42-.03-24.86,0-37.28.02-10.1-.1-20.23,0-30.33.04-4.19-.52-9.19.32-13.27l.32.63Z"
           id="path23" />
        <path
           class="cls-17"
           d="M167.24,495.78c1.68-5.11-1.16-18.8.32-22.9.19-.53,1.23-.36,1.58-1.11-.02,3.13.5,22.02,0,23.22-.14.34-1.64.87-1.9.79Z"
           id="path24" />
        <path
           class="cls-8"
           d="M168.82,455.03l-1.26-.47v-40.12l1.58-.79c0,13.79-.28,27.6-.32,41.38Z"
           id="path25" />
        <path
           class="cls-2"
           d="M169.77,372.27c-.81.57-.56.58-.63,1.42-.47,5.23,0,11.82,0,17.22-.35-.87-1.43-.5-1.58-.79-.84-1.65.64-14.82,0-17.69.23-.33,1.72-.11,2.21-.16Z"
           id="path26" />
        <path
           class="cls-2"
           d="M176.72,372.9c1.46-.06,2.96.02,4.42,0,1.24,1.86,5.27.64,7.42.95.93.13.43.1.47.95-2.36-.01-4.85-.29-7.27-.32-3.12-.04-6.39-.23-9.48.32l-.32-.63c.05-.25-.78-.67.16-1.26,1.52-.04,3.06.06,4.58,0Z"
           id="path27" />
        <path
           class="cls-7"
           d="M171.66,387.43c-.1,10.1.02,20.22,0,30.33v-30.33Z"
           id="path28" />
        <path
           class="cls-17"
           d="M181.77,374.48v1.26c-.43,0-.31.33-.32.63-1.34.61-.34,3.19-.63,4.26-.09.32-2.81,3.48-3.79,2.69l-.32,108.99c-1.26,1.68,1.21,2.76-2.53,3.47-.88.11-1.64-.33-1.9-.32v-120.67c3.09-.55,6.35-.35,9.48-.32Z"
           id="path29" />
        <g
           id="g40">
          <path
             class="cls-7"
             d="M197.88,372.27l.63.47c-.56,24.05-.33,48.13-.32,72.18,0,12.36.25,24.77-.32,37.12.79,1.18.73-.67,1.11-.79.22-.07,3.11,2,4.11,2.21.81.17,2.5-.31,3.47,0-3.94-2.62-.8-1.24,1.42-1.42-.65-.2-2.66-.48-2.84-1.26-.12-.49,2.51-8.33,2.69-9.63.26,1.48,2.36,10.93,2.05,11.53-.27.53-2.32.53-2.69,1.11,6.25.36,12.56-3.67,14.22-9.79-1.49.83-.31,2.12-2.05,2.21l-7.42-5.05,11.37,2.84c.61.5-.45.9-.47.95.61-2.7-2.07,2.82-2.21,3-1.16,1.54-3.15,2.81-4.42,4.26-1.74.35-3.34,1.52-5.05,1.9-4.52,1-7.68.83-11.85-1.26,2.04,1.98,5.91,2.72,8.69,2.53v.32c-1.17-.23-3.22-.12-4.74-.32-1.17.29-4.98-2.7-5.21-2.53-.66.49.53,1.97-.32,1.9-1.49-.38-.18-1.78-.63-1.9-1.14-.29-17.31,11.61-19.9,12.64-.99.55-2,.19-3,.32,3.74-.71,1.27-1.79,2.53-3.47l.32-108.99c.98.8,3.7-2.37,3.79-2.69.29-1.07-.71-3.66.63-4.26-1.02,28.81-.44,59.41-.32,88.29.03,8.07.37,16.26.63,24.32v-114.51c2.42.03,4.91.3,7.27.32,1.97.01,10.08,1.05,8.69-1.9-5.53.06-11.06-.07-16.58,0-1.47.02-2.96-.06-4.42,0,.84-.28,2.32-.58,3.16-.63,5.85-.39,12.11.29,18.01,0Z"
             id="path30" />
          <g
             id="g39">
            <g
               id="g36">
              <path
                 class="cls-1"
                 d="M185.72,375.42c.05,37.16.68,74.37-.32,111.51-.05-37.16-.68-74.37.32-111.51Z"
                 id="path31" />
              <path
                 class="cls-1"
                 d="M190.14,375.42c.96,36.2.36,72.43.32,108.67-1-36.2-.37-72.46-.32-108.67Z"
                 id="path32" />
              <path
                 class="cls-1"
                 d="M194.57,375.42c.26,35.16.26,70.35,0,105.51-.01-35.16-.88-70.37,0-105.51Z"
                 id="path33" />
              <path
                 class="cls-2"
                 d="M181.46,376.37c.01-.31-.12-.64.32-.63v113.25c-.26-8.06-.6-16.26-.63-24.32-.12-28.88-.7-59.49.32-88.29Z"
                 id="path34" />
              <path
                 class="cls-2"
                 d="M177.03,383.32l-.32,108.99.32-108.99Z"
                 id="path35" />
              <path
                 class="cls-17"
                 d="M189.04,374.79c-.04-.85.46-.81-.47-.95-2.16-.31-6.18.91-7.42-.95,5.52-.07,11.06.06,16.58,0,1.39,2.95-6.72,1.91-8.69,1.9Z"
                 id="path36" />
            </g>
            <g
               id="g38">
              <path
                 class="cls-15"
                 d="M211.15,484.09l.32.32c-.51.07-1.06.22-1.58.32-.6.11-1.57.61-1.9.63-2.78.19-6.64-.54-8.69-2.53,4.16,2.09,7.32,2.26,11.85,1.26Z"
                 id="path37" />
              <path
                 class="cls-15"
                 d="M204.36,483.78c.56.14,2.01-.41,2.05.47-.14.28-2.01-.06-2.05-.47Z"
                 id="path38" />
            </g>
          </g>
        </g>
      </g>
      <path
         class="cls-7"
         d="M214.63,408.91c.81,1.37,12.87.27,15.32.63l.16,11.53c-.36.8-14.3.61-15.79.16-.43-3.85.58-8.94,0-12.64.36-.05.27.23.32.32Z"
         id="path41" />
      <path
         class="cls-1"
         d="M321.72,369.74l-127.31.32c41.92-1.56,85.25-.39,127.31-.32Z"
         id="path42" />
      <g
         id="g55">
        <path
           class="cls-12"
           d="M344.14,478.72h-.63c.25-34.63-.22-69.34,0-103.93-.06-.33.12-.72.32-.95.02-.03-.06-.37.32-.32.78,35.07.03,70.13,0,105.19Z"
           id="path43" />
        <path
           class="cls-1"
           d="M346.99,372.27c-1.17,5.42-.62,12.17-.63,18.01,0,.63,0,1.27,0,1.9-.3-.04-.69.07-.95,0-.03,0,.02-.49-.63-.32-.03-4.7.74-13.39,0-17.53-.09-.51.23-.9-.63-.79-.37-.05-.29.29-.32.32l-16.58-.32-.79,1.26c-2.12-.03-5.53.33-7.42,0-.43-.07-1.96-.37-1.26-1.26l16.9-1.26h12.32Z"
           id="path44" />
        <path
           class="cls-17"
           d="M343.51,374.79c-.22,34.59.25,69.3,0,103.93-.04,5.63.03,11.27,0,16.9-.16.31-.68.09-.95.16-.61-3.89,1.38-12.31.32-15.64-.07-.22-2.87-2.9-3.47-3,.14-33.89.16-67.83-.32-101.72v-.63c1.37-.04,3.01-.85,4.42,0Z"
           id="path45" />
        <path
           class="cls-2"
           d="M343.83,373.85c-.19.23-.37.62-.32.95-1.42-.85-3.05-.04-4.42,0-4.14.13-8.47.07-12.64,0l.79-1.26,16.58.32Z"
           id="path46" />
        <g
           id="g54">
          <path
             class="cls-7"
             d="M334.67,372.27l-16.9,1.26c-.7.89.84,1.19,1.26,1.26,1.89.33,5.3-.03,7.42,0,4.17.07,8.5.13,12.64,0v.63l-.32,116.72c.8.47.55-.18.63-.63.61-3.34-.02-10.55,0-14.37.61.1,3.4,2.78,3.47,3,1.07,3.33-.92,11.75-.32,15.64-.93.23-2.59-.17-3.63,0l-21.48-13.58c-.34-2.61-.09-5.27-.16-7.9-.33-12.81.04-25.72,0-38.54v-12c0-5.05,0-10.11,0-15.16.02-12.04.23-24.15-.32-36.17,5.89-.29,11.8-.16,17.69-.16Z"
             id="path47" />
          <g
             id="g53">
            <path
               class="cls-7"
               d="M317.29,435.76c-.01-4,0-8.01,0-12v12Z"
               id="path48" />
            <path
               class="cls-2"
               d="M339.41,477.14c-.02,3.82.61,11.03,0,14.37-.08.45.17,1.11-.63.63l.32-116.72c.47,33.89.46,67.82.32,101.72Z"
               id="path49" />
            <path
               class="cls-1"
               d="M334.51,375.42c.05,37.89.68,75.84-.32,113.72-.05-37.89-.68-75.84.32-113.72Z"
               id="path50" />
            <path
               class="cls-1"
               d="M325.66,375.42c.79,36.3.79,72.69,0,108.99-.26-36.32-.26-72.66,0-108.99Z"
               id="path51" />
            <path
               class="cls-1"
               d="M321.24,375.42c.05,35.37.68,70.79-.32,106.14.01-35.4-.66-70.76.32-106.14Z"
               id="path52" />
            <path
               class="cls-2"
               d="M330.4,375.42c.26,37.16.26,74.35,0,111.51-1.08-37.15.18-74.35,0-111.51Z"
               id="path53" />
          </g>
        </g>
      </g>
      <g
         id="g72">
        <path
           class="cls-12"
           d="M338.77,371.32c3.03,0,6.17-.26,9.16.32,0,.24,0,.45,0,.63h-13.27c-5.89,0-11.8-.13-17.69.16.55,12.02.34,24.13.32,36.17-.2-.03-.56.05-.63,0-.03-.02-.23-.59-.47-.63-7.03-1.22-17.55.91-24.96,0-.81.36-.43,3.87-.47,4.74-.47,10.07.04,20.81,0,30.96-.04,11.22.95,24.8,0,35.7-.34.02-.89-.63-.95-.63l.32-42.8c-4.09.49-32.88-1.15-34.28-.16-.39.28,0,1.53-.16,1.74-.32.42-1.51.87-1.58,1.26-.05.3,1.18,1.47.32,2.69l-.79-2.53c-.32.25-1.05.54-1.42.63l-.32-.63c1.07-.52,2.79-.65,3.47-2.05l-1.11-3.95.47,3.47-1.26-.95-51.65.32v-1.9h51.49l.95-5.37,1.26,5.37h34.12v-11.69c-17.43.04-34.86-.05-52.28,0v-.63c1.99.03,4.09-.33,6-.32.21,0,.42,0,.63,0,1.08,0,2.08,0,3.16,0,.2,0,.42,0,.63,0,4.41-.04,8.98.68,13.43.32.23-.13-.63-4.21-.16-5.21.08-.18,1.65-.82,1.9-1.26.76-1.36,1.75-5.17,3.63-5.53.53-.1,10.27.38,10.74.63,1.48.78,1.49,3.85,1.74,5.21.01.08.92.98.95,1.26.06.78-1.4,4.52-.47,4.9h10.42c.76-.54-.47-12.32.16-13.74.41-.94,2.5-.15,2.84-.63l-2.53-6.95c1.26.8,3.02,3.24,3.47,4.58.18.53-.26,2.23.16,2.53.34.24,7.2-.02,8.37,0,.11,0,.21,0,.32,0,.42,0,.85,0,1.26,0,.11,0,.21,0,.32,0,4.1.04,8.23.1,12.32-.16v-35.38c.45-1.01,19.63-.48,22.11-.47Z"
           id="path55" />
        <g
           id="g71">
          <path
             class="cls-7"
             d="M292.81,403.86c.41.66.73,1.44.32,2.21-.04-.26-.71-2.14-.32-2.21Z"
             id="path56" />
          <g
             id="g58">
            <path
               class="cls-2"
               d="M254.27,431.02c.24,0,.24,1.58,0,1.58-.27-.26-.22-1.58,0-1.58Z"
               id="path57" />
            <path
               class="cls-14"
               d="M254.43,441.45c-.37.52-.56.25-.63.32.07-.13-.13-.49.16-.63l.47.32Z"
               id="path58" />
          </g>
          <g
             id="g70">
            <path
               class="cls-1"
               d="M269.28,415.54c0,.37-.62.63-.63.79-.06.66.74,4.46.32,5.05-.14.19-4.32.29-4.74.16l-.16-2.21c-.3.03-.09.89-.16.95-3.61,2.92-3.35-5.13.63-4.74-.12.55.03.43.32.63.86.61,2.05.21,3,.32l.47-.47c-.11-.27-.63-.13-.63-.16,0-1.07-.09-2.1,0-3.16.03-.31-.02-.64,0-.95,2.5.32-.27,2.91,1.58,3.79Z"
               id="path59" />
            <path
               class="cls-7"
               d="M269.75,410.49c3.21.45,7.39-1.51,8.69,2.37-2.94.93-7.43-1.52-8.37,2.05l-.32-4.42Z"
               id="path60" />
            <path
               class="cls-7"
               d="M269.43,417.12c.36.46-.18.8.63.95,1.48.27,8.32-.32,8.85,0,3.25,2.02-8.72,1.61-9.16,1.9l-.32-2.84Z"
               id="path61" />
            <path
               class="cls-7"
               d="M269.28,415.54c-1.85-.88.92-3.47-1.58-3.79s-1.89,2.93-2.84,4.42c-.28-.2-.44-.09-.32-.63l1.26-3.63-2.05,3.32c.03-2.15,1.41-4.62,4.11-4.11l-.32-.95c2.56-1.19,1.75,4.48,1.74,5.37Z"
               id="path62" />
            <path
               class="cls-7"
               d="M270.07,420.6c.43-.15,6.79-.17,6.79.47-.59,1.09-9.39.44-6.79-.47Z"
               id="path63" />
            <path
               class="cls-17"
               d="M269.75,416.49l9.63.47c-2.49.57-8.14,1.27-9.63-.47Z"
               id="path64" />
            <path
               class="cls-6"
               d="M270.07,415.54l8.69.47c-2.58-.02-6.58.86-8.69-.47Z"
               id="path65" />
            <path
               class="cls-16"
               d="M264.22,421.55c-.92-.29-.35-.57-.32-1.26.07-.06-.14-.91.16-.95l.16,2.21Z"
               id="path66" />
            <path
               class="cls-6"
               d="M278.28,420.28c.83.4-.01,1.64-.63,1.26l-.16-.79.79-.47Z"
               id="path67" />
            <path
               class="cls-3"
               d="M276.07,414.28c.33-.21,1.08.32,1.42.47-.56.48-2.24.04-1.42-.47Z"
               id="path68" />
            <path
               class="cls-7"
               d="M267.7,412.7c-.09,1.06,0,2.09,0,3.16-2.91,1.05-1.89-4.06,0-3.16Z"
               id="path69" />
            <path
               class="cls-9"
               d="M267.7,411.75c-.02.31.03.64,0,.95-1.89-.9-2.91,4.21,0,3.16,0,.03.52-.11.63.16l-.47.47c-.95-.11-2.14.29-3-.32.95-1.49.39-4.74,2.84-4.42Z"
               id="path70" />
          </g>
        </g>
      </g>
      <g
         id="g87">
        <path
           class="cls-7"
           d="M163.92,496.41c.77-2.26.4-4.63.47-6.95.36-11.64-.03-23.41,0-35.06h.63c.01,13.72-.13,27.48,0,41.22l1.42-22.9c.7,2.63-.66,22.61.79,23.06.25.08,1.75-.45,1.9-.79.5-1.2-.02-20.09,0-23.22.02-3.47,0-6.95,0-10.42.47-.08,1.65.19,1.9-.16.37-.52-.28-10.15,0-11.69l.63,5.53v40.44c-.1.01-2.04.41-1.74.95h6.63c3.03-.98,17.73-12.22,19.27-12.32,3.56-.23,1.12,6.91,2.53,8.85l.63-7.27c6.61,3.59,15.34,2.15,20.85-2.84,1.32-1.19,4.07-5.88,4.42-6,.38-.13,3.24,1.77,5.69,1.26,2.24-.47,3.12-4.63,5.21-.79l-3.47.32c7.72,1.2,2.24-1.72,1.9-2.53-.26-.62.34-1.26.32-1.42-.14-.99.06-1.92-.32-3-.24-.71-1.89-2.37-1.9-2.53,0-1.29,15.44-16.75,17.53-18.8.26-.25.62.54.79.16l-.47-2.37c.44-.11,2.41,6.18,2.69,6.79,1.02,2.22,3.67,5.26,3.16,7.58-.8-1.93-1.4-3.93-2.84-5.53-.21-.43-.07-.7-.63-1.26-.06-.06.2-.77-.47-.63-.81.02-5.41,4.18-6.16,5.05.2-.37.75-1.64.95-1.9.29-.19.48.39.63-.63.72-.76,6.94-4.11,3.95-5.37-.51-.22-1.33.9-1.42.95-10.09,5.14-11.69,18.77-5.05,27.33,8.31,10.71,25.7,8.64,30.33-4.26,1.18-3.28,1.09-5.41,1.74-8.85,2.82,18.54-21.44,28.23-32.7,13.43-7.51-9.88-3.95-23.82,6.95-29.38-21.57,9.53-10.11,42.42,13.11,36.49,3.34-.85,8.69-4.75,10.58-7.58,2.12,1.02,14.76-.3,15.64.32.39.27-.07,1.21.32,1.58.73-.49.41-1.21.47-1.9.95-10.9-.04-24.47,0-35.7v-30.96c.04-.86-.33-4.38.47-4.74,7.41.91,17.92-1.22,24.96,0,.24.04.44.61.47.63-.22,1.03.58,3.49-.63,3.47h-22.59l-.16,10.9,23.06.16c.05,4.6.88,9.3,0,13.9h-21.95l-.63-9.79-.32,10.74c5.32-.88,10.66.16,15.95,0l7.11.32c.34,1.4.23,2.73-.16,4.11l-23.06.16v37.91l.63.32.47-7.74h21.95c.3.6.47.59,0,1.26h-19.43c-.73,2.76.93,6.18-1.26,8.21,3.32.19,1.39-.52,1.42-.79.29-2.34.19-4.5.47-6.79h18.64c1.24.55-.43,5.9,1.26,7.9.81.96,19.95,13.27,21.17,13.58.56.14,5.97.08,6.16-.16-1.14-5.32-.64-11.83-.63-17.53.03-35.07.78-70.13,0-105.19.86-.11.54.28.63.79.74,4.14-.03,12.83,0,17.53s0,9.28,0,13.9c0,2.74.31,5.53.32,8.21.03,18.04-.75,36.12,0,54.18.8.47.55-.18.63-.63.49-2.71.58-9.66.63-11.85v16.43c0,5.39-.63,13.09,0,18.16.04.3.9.01.95.32.28,1.75-.93,5.13,1.26,5.21-.16.37-.16.86-.16,1.26l-16.58-.63,1.74-.63c-2.86-.25-6.04.34-8.85,0-.26-.03.03-.58-.47-.63-10.49-1.18-21.54-1.11-32.38-1.26-31.75-.44-64.34-1.02-95.88.63-1.31.07-2.91-.69-4.9-.63-.96.03-6.25.54-5.84,1.9-1.14.07-1.67-.11-2.84.32-.32.12-.44.39-.79.32l.32.63c-1.14.63-4.17-.64-4.42-.63-.06,0-.89.63-.95.63-3.79.12-7.59-.08-11.37.32l11.37.32-3,.63"
           id="path72" />
        <g
           id="g86">
          <path
             class="cls-13"
             d="M316.35,474.3h.95c.07,2.62-.18,5.28.16,7.9l21.48,13.58c1.05-.17,2.71.23,3.63,0,.27-.07.78.15.95-.16.03-5.63-.04-11.27,0-16.9h.63c0,5.7-.5,12.22.63,17.53-.19.24-5.6.3-6.16.16-1.22-.31-20.35-12.62-21.17-13.58-1.69-1.99-.03-7.35-1.26-7.9h-18.64c-.28,2.29-.18,4.46-.47,6.79-.03.27,1.9.98-1.42.79,2.19-2.04.53-5.45,1.26-8.21h19.43Z"
             id="path73" />
          <path
             class="cls-12"
             d="M282.23,478.72c.31,0,.66,0,.95,0,2.05.03,4.68-.16,6.63,0,.06,0,.6.65.95.63-.06.69.26,1.4-.47,1.9-.38-.37.07-1.31-.32-1.58-.88-.62-13.52.7-15.64-.32.11-.16.21-.46.32-.63,2.52.13,5.05-.02,7.58,0Z"
             id="path74" />
          <path
             class="cls-15"
             d="M345.41,392.17c.07,4.52-.09,9.06,0,13.58h-.63c0-4.62.03-9.26,0-13.9.65-.17.6.31.63.32Z"
             id="path75" />
          <g
             id="g77">
            <path
               class="cls-9"
               d="M274.65,478.72c-.1.17-.21.47-.32.63-1.89,2.84-7.24,6.73-10.58,7.58-23.22,5.94-34.68-26.96-13.11-36.49-10.9,5.56-14.46,19.5-6.95,29.38,11.25,14.8,35.52,5.12,32.7-13.43-.65,3.44-.56,5.57-1.74,8.85-.19.42-1.51.88-1.58.95l1.26-5.53v3.16c.93-1.02,1.2-3.71,1.26-5.21.02-.41.01-.85,0-1.26-.01-.54-.76-5.87-1.42-5.69l.79,3.63c-.37.91-2.37-5.76-2.84-6.48.31.59,1.39,1.76,1.74,2.53-.08-1.57-1.42-3.85-2.69-4.58.45.61.66,1.5.95,2.05-.14-.22-2.86-1.87-3.16-3,.35-1.84.91.24,1.9.32-.3-.72-1.05-1.47-1.58-2.05,3.01,2.17,5.22,5.44,6.48,8.85.63.01-.08-1.83-.16-2.05-2.09-5.88-7.88-10.4-13.9-11.53l.63-.63c13.05,2.49,18.72,19.14,12.32,30.01Z"
               id="path76" />
            <path
               class="cls-9"
               d="M252.53,455.98c-.73-.81-.57-1.23-.63-1.26.56.56.42.83.63,1.26Z"
               id="path77" />
          </g>
          <g
             id="g85">
            <path
               class="cls-12"
               d="M316.35,442.4c-.1.36-.09.32-.32.63l-22.11.47.47,14.06c.97.43,20.29.27,21.32,0,.5.5.42.24.63.95l-21.95-.32c-.67.14-.75,13.11-.47,13.74s2.18.61,2.37.47c.62-.44-.37-11.06.47-12.64-.17.65.31.6.32.63.27,1.66-.39,11.62.16,12,4.79-.84,14.27,1.12,18.48,0,.03.46.39.13.63.63h-21.95l-.47,7.74-.63-.32v-37.91l23.06-.16Z"
               id="path78" />
            <path
               class="cls-12"
               d="M316.03,412.07c.05.22.2.44.32.63l-22.43.16.16,9h21.95c0,.24.3-.03.32,1.26l-23.06-.16.16-10.9h22.59Z"
               id="path79" />
            <path
               class="cls-12"
               d="M316.35,437.03l-.16.63c-2.26-.29-4.58.25-6.79.32-5.29.16-10.64-.88-15.95,0l.32-10.74.63,9.79h21.95Z"
               id="path80" />
            <path
               class="cls-10"
               d="M290.76,443.66c.04-10.15-.47-20.89,0-30.96v30.96Z"
               id="path81" />
            <g
               id="g84">
              <path
                 class="cls-9"
                 d="M296.92,427.23c1.91-.85,12.33.64,15.16,0l.47,8.69-16.9.16c-.23-.16-.24-2.89-.16-3.32.06-.3.91-.01.95-.32.14-1.02-.41-4.82.47-5.21Z"
                 id="path82" />
              <path
                 class="cls-7"
                 d="M297.23,427.86h14.53l.47,7.11c-1.88.46-15.3.94-15.95.47-.26-.18-.26-2.03,0-2.21l2.69-.16-1.9-.63.16-4.58Z"
                 id="path83" />
              <path
                 class="cls-2"
                 d="M311.13,429.13c.62.21.63,1.99.32,2.21-.57.4-13.65.41-14.06-.16-.07-.1-.06-1.58.16-1.74.8-.57,11.7.66,13.58-.32Z"
                 id="path84" />
            </g>
          </g>
        </g>
      </g>
      <g
         id="g106">
        <path
           class="cls-7"
           d="M247.16,421.23c-1.08,0-2.08,0-3.16,0-.56-2.65,4.25-3.38,3.16,0Z"
           id="path87" />
        <g
           id="g105">
          <path
             class="cls-13"
             d="M199.46,407.01c.01.42,0,.85,0,1.26,0,.15-1.23,1.39-.63,2.69l.32-1.58c1.7-1.42,3.04,1,2.21,2.21-.2.3-3.29-.82-2.05.79l2.37-.16.16-3.32.32,3.47c1.92-.59,9.87,1.71,8.06-1.42l.79-.47c1.53-.32.13,1.57,1.26,1.9v-3.47c.7,1.11.29,2.4.47,3.47.09.51.6.21.63.47.31,2.65-.23,5.81,0,8.53.61.57.9-.17.95-.16,1.49.46,15.44.64,15.79-.16l-.16-11.53c-2.45-.36-14.51.74-15.32-.63h15.32l1.26-8.21c1.35.61.29,7.25.95,7.27l2.21-10.42.79,8.37-.79-4.9c-.38,2.75-3.84,8.86,1.42,7.11l.16-6.79,1.58,8.85c1.66.44,2.05-9.17,2.84-10.11l1.58,8.21,2.84-5.37.79,15.01c3.29-1.52,1.98,1.03,2.21,3.32-.21,0-.43,0-.63,0,1.09-3.38-3.72-2.65-3.16,0-.21,0-.42,0-.63,0,.87-2.56-2.96-1.31-3.63-1.9-2.41-2.12,4.27-3.16,4.42-.32,1.26.3,1.02-9.05.32-10.42-.57,1.51.71,5.23.16,6.48-.32.72-5.61.33-5.84.16-.44-.31.11-4.11-.32-4.11l-.63,7.58-5.21-.47,5.37-.32-5.37-.63c.73-.24,5.13-.29,5.37-.63.17-.24-.61-5.03-.79-5.84-.73.77.44,4.18-.63,4.74-.24.12-5.15.16-5.37,0-.61-.43.58-3.87-.79-3.63l.32,9.48c.22.31,5.7.15,6.63.16v.63c-12.79.04-25.59-.03-38.38,0l-.16,21.01c5.38.22,10.74.51,16.11.79v.63c-5.34-.31-10.76.32-16.11.32h-.63c-.01-24.05-.25-48.14.32-72.18l-.63-.47.32-.63s.08-.67.63-.16c.26,11.74-.33,23.6,0,35.38,0,.26.63.13.63.16Z"
             id="path88" />
          <g
             id="g104">
            <g
               id="g96">
              <path
                 class="cls-7"
                 d="M243.37,421.23c-1.91-.02-4.01.34-6,.32-.93-.01-6.41.15-6.63-.16l-.32-9.48c1.37-.23.18,3.2.79,3.63.22.16,5.13.12,5.37,0,1.07-.55-.1-3.97.63-4.74.18.81.96,5.6.79,5.84-.24.34-4.64.39-5.37.63l5.37.63-5.37.32,5.21.47.63-7.58c.43,0-.13,3.79.32,4.11.24.17,5.52.57,5.84-.16.55-1.25-.72-4.96-.16-6.48.71,1.37.94,10.73-.32,10.42-.15-2.85-6.83-1.81-4.42.32.67.59,4.5-.66,3.63,1.9Z"
                 id="path89" />
              <path
                 class="cls-7"
                 d="M232.16,408.59c.28-.13,4.12-.03,4.26.16.03.04-.64.56-.63.63.14,1,1.48,4.94.16,5.53l-4.58-.47c.06-.91.1-5.54.79-5.84Z"
                 id="path90" />
              <path
                 class="cls-7"
                 d="M242.58,408.59c.3.02,1.29.16,1.42.47v5.69c-.13.18-3.98.28-4.26.16-.65-.29-.64-5.6-.47-5.84.1-.14,3.15-.48,3.32-.47Z"
                 id="path91" />
              <path
                 class="cls-10"
                 d="M244.16,405.12l.47,2.37c-1.62,2.26-1.2-1.26-.47-2.37Z"
                 id="path92" />
              <path
                 class="cls-7"
                 d="M240.37,403.22l.32,3.79c-1.14-.24-.57-3.79-.32-3.79Z"
                 id="path93" />
              <path
                 class="cls-7"
                 d="M240.37,418.39c.56-.18,2.31,0,3,.16l-3.32.47c-.31-.16.22-.6.32-.63Z"
                 id="path94" />
              <path
                 class="cls-6"
                 d="M231.21,407.65c.49.08-.13,2.72-.32,3.16-.48-.02.08-3.2.32-3.16Z"
                 id="path95" />
              <path
                 class="cls-4"
                 d="M239.74,407.65c.05-.03,1.39.08,1.11.47l-1.42.16c-.3-.17.17-.54.32-.63Z"
                 id="path96" />
            </g>
            <g
               id="g103">
              <path
                 class="cls-7"
                 d="M211.47,419.97l-6.79-.32-.16,1.58c-1.72-.07-7.43,1.87-5.21-2.21,2.2,1.09,10.59-.41,12,.32.29.15.1.46.16.63Z"
                 id="path97" />
              <path
                 class="cls-1"
                 d="M211.47,419.97c1.02,2.73-5.67,1.31-6.95,1.26l.16-1.58,6.79.32Z"
                 id="path98" />
              <path
                 class="cls-10"
                 d="M200.25,413.96c.3-.02.51,1.4,0,1.26-.66-.17-.47-1.23,0-1.26Z"
                 id="path99" />
              <path
                 class="cls-6"
                 d="M200.25,415.54c.75.09.2,1.42-.32.63-.21-.32.28-.64.32-.63Z"
                 id="path100" />
              <polygon
                 class="cls-17"
                 points="200.57 410.81 201.04 410.96 200.88 411.44 200.73 411.28 200.57 410.81"
                 id="polygon100" />
              <g
                 id="g102">
                <path
                   class="cls-7"
                   d="M198.99,413.02c.11-.08,1.46-.06,1.74.16.02,1.07-1.48-.22-1.58.63-.14,1.24.17,5.31,1.9,3.47.13-.76-.25-3.94.16-4.26.14-.11,2.7.7,1.9,2.21l.32-2.21h9.16c.6.27.7,7.4.47,8.06-.81,2.31-1.44-2.24-1.74-2.37-1.59-.7-10.42.7-12,0-.78-.34-.55-5.52-.32-5.69Z"
                   id="path101" />
                <path
                   class="cls-12"
                   d="M204.99,413.65c1.08-.56,1.41.77.32.63-.07,0-.63-.47-.32-.63Z"
                   id="path102" />
              </g>
            </g>
          </g>
        </g>
      </g>
      <g
         id="g117">
        <path
           class="cls-15"
           d="M214.31,408.59c.58,3.7-.43,8.78,0,12.64-.05-.01-.34.73-.95.16-.23-2.71.31-5.88,0-8.53-.03-.26-.55.04-.63-.47l.79-4.11h-14.06c0-.42.01-.85,0-1.26h14.37c.71.45.38.98.47,1.58Z"
           id="path106" />
        <g
           id="g116">
          <path
             class="cls-7"
             d="M212.73,412.38c-.18-1.07.23-2.36-.47-3.47v3.47c-1.13-.33.26-2.22-1.26-1.9l-.79.47c1.81,3.13-6.14.83-8.06,1.42l-.32-3.47-.16,3.32-2.37.16c-1.24-1.61,1.85-.49,2.05-.79.83-1.21-.51-3.63-2.21-2.21l-.32,1.58c-.59-1.29.64-2.54.63-2.69h14.06l-.79,4.11Z"
             id="path107" />
          <g
             id="g115">
            <path
               class="cls-15"
               d="M204.67,408.91c.36.03-.13,1.42.47,1.11l.63-.32c-.62.82.38,1.71-.16,2.37-1.14,1.39-1.66-3.22-.95-3.16Z"
               id="path108" />
            <polygon
               class="cls-9"
               points="207.2 408.91 208.31 409.38 207.2 412.07 207.2 408.91"
               id="polygon108" />
            <path
               class="cls-15"
               d="M203.73,408.91c.28.01.42,3.43-.95,3.16l.95-3.16Z"
               id="path109" />
            <path
               class="cls-9"
               d="M208.78,408.91c.47,0-.12,2.78-.32,3.16-.77-.77.41-2.15.32-3.16Z"
               id="path110" />
            <path
               class="cls-13"
               d="M210.04,408.91c.43.38.26,2.01-.32,1.58l.32-1.58Z"
               id="path111" />
            <path
               class="cls-9"
               d="M202.78,408.91c1.04.16.04,1.37,0,1.9-.24-.04-.26-1.58,0-1.9Z"
               id="path112" />
            <path
               class="cls-15"
               d="M206.25,408.91c.24,0,.24,1.58,0,1.58-.27-.26-.22-1.58,0-1.58Z"
               id="path113" />
            <path
               class="cls-9"
               d="M209.41,410.81c.29.6.66.83,0,1.26-.26-.29-.26-.96,0-1.26Z"
               id="path114" />
            <path
               class="cls-15"
               d="M206.25,411.12c.15,0,.21.28.16.47-.18,1.18-.56-.45-.16-.47Z"
               id="path115" />
          </g>
        </g>
      </g>
      <g
         id="g230">
        <path
           class="cls-7"
           d="M221.58,447.77c.09.07.61.29.63.32.7.9.5,4,.63,4.58.18.81,1.65,3.89,1.58,4.42-.05.39-2.19,1.5-.47,2.69.28-1.14-.43-.95.63-1.9,1.84-1.65,7.09-3.27,8.69-4.11,3.51-1.83,6.92-3.87,10.42-5.69.66-.34,4.64-2.71,4.9-2.53.49,2.07-1.75,3.13-3,4.11.32-1.07-.47-.17-.95-.16l.47-1.11-19.43,11.69,7.11-5.37c-2.84,2.04-7.99,3.46-8.53,7.27-3.82-10.19-14.98-14.53-24.96-12.64l-.47-4.42c5.35,0,10.77-.63,16.11-.32.81.05,1.67-.42,2.05-.32.6.16,2.09,2.49,2.53,2.84.47.38,1.47.19,2.05.63Z"
           id="path117" />
        <path
           class="cls-7"
           d="M219.05,476.51c.78,1.22-2.03,3.6-3,4.11-.57-.09-5.97-8.82-6.16-9.79,1.31,1.21,8.56,4.75,9.16,5.69Z"
           id="path118" />
        <path
           class="cls-7"
           d="M261.69,449.35c6.02,1.13,11.81,5.65,13.9,11.53.08.23.79,2.07.16,2.05-1.26-3.4-3.47-6.68-6.48-8.85-4.11-4.48-10.52-5.07-16.27-3.79-.73.44-.15.6-.16.63-.05.31-.13.95.32.95-.1.12.11.94,0,1.11-.42.62-3.17-6.05-3-6.79l1.9,3.79c3.13-1.49,6.38-1.24,9.63-.63Z"
           id="path119" />
        <path
           class="cls-7"
           d="M254.43,441.45l-.47-.32c-.29.14-.09.5-.16.63-.06.06-.57-.06-.63,0,.14-.37-.18-2.13-.79-1.9.15.65-.06,1.63.79,1.9-.35.35-2.5,2.9-2.69,2.84l-1.42-3.63c.89-.8,2.03-1.15,3.16-1.42.37-.09,1.11-.38,1.42-.63l.79,2.53Z"
           id="path120" />
        <path
           class="cls-15"
           d="M203.25,485.36c1.52.2,3.57.08,4.74.32.45.09.72.49.63.95-1.79.12-5.38.07-6.63-1.26.78.11,1.2,0,1.26,0Z"
           id="path121" />
        <path
           class="cls-6"
           d="M272.12,458.82c-.29-.55-.5-1.44-.95-2.05,1.26.73,2.6,3.01,2.69,4.58-.34-.77-1.43-1.94-1.74-2.53Z"
           id="path122" />
        <g
           id="g132">
          <path
             class="cls-9"
             d="M224.42,469.25c.3.07.6.31.63.63-4.49,6.41,8.46,9.99,6.95,1.9.67-.13-.04-1.07.63-1.26v3.95c.59.24.57-.46.63-.79h.63c.02.16-.58.81-.32,1.42.34.81,5.83,3.72-1.9,2.53l3.47-.32c-2.09-3.84-2.97.32-5.21.79-2.44.51-5.3-1.39-5.69-1.26-.35.12-3.1,4.81-4.42,6-5.51,4.99-14.23,6.43-20.85,2.84l-.63,7.27c-1.4-1.94,1.04-9.08-2.53-8.85-1.54.1-16.24,11.34-19.27,12.32h-6.63c-.3-.54,1.64-.94,1.74-.95.21-.02.42,0,.63,0,.25-.01,1.01.43,1.9.32,1-.13,2.01.23,3-.32,2.6-1.03,18.76-12.92,19.9-12.64.45.11-.86,1.52.63,1.9.84.07-.34-1.4.32-1.9.23-.17,4.05,2.82,5.21,2.53-.06,0-.49.11-1.26,0-1.25-.18-2.37-.31-3.32-1.26-2.31,1.07,6.36,3.12,6.95,3.16,5.9.38,12.74-2.59,16.27-7.42.84-1.16,2.54-3.52,1.74-4.9l-.16,1.42c-2.47,2.56-4.03,6.22-7.58,7.42.36-.34.88-1.41,1.58-1.74-.09-.31-.95.09-1.26.16,1.27-1.46,3.26-2.72,4.42-4.26.14-.18,2.82-5.7,2.21-3-.01.06-.35.06-.63.95-.36.61-1.48,1.39-1.11,2.53.6-.72.83-1.67,1.11-2.53.13-.23.3-.21.63-.95.02-.05,1.08-.45.47-.95l-11.37-2.84,7.42,5.05s.05.37-.32.32c-.6-.94-7.85-4.47-9.16-5.69-.04-.2.02-.43,0-.63,3.3.7,7.56,1.15,10.58,1.9.27.07-.44.68.32.95,2.97,1.06,3.72-1.99,1.42-2.84l1.58-.47c-.18-.27-.63,0-.63-.47.4.05.89-.09,1.26,0Z"
             id="path123" />
          <g
             id="g131">
            <path
               class="cls-17"
               d="M233.26,473.67c-.06.33-.04,1.03-.63.79v-3.95c.79-.23.74,2.55.63,3.16Z"
               id="path124" />
            <path
               class="cls-10"
               d="M201.99,485.36c1.25,1.34,4.84,1.39,6.63,1.26,2.28-.16,5.57-1.27,7.27-2.84,3.56-1.2,5.11-4.86,7.58-7.42l.16-1.42c.81,1.38-.89,3.74-1.74,4.9-3.52,4.83-10.37,7.8-16.27,7.42-.59-.04-9.26-2.09-6.95-3.16.94.95,2.07,1.09,3.32,1.26Z"
               id="path125" />
            <path
               class="cls-17"
               d="M232.16,475.25c-.59,2.53-4.17,3.15-6.16,1.74,2.5.26,4.46.47,6.16-1.74Z"
               id="path126" />
            <path
               class="cls-7"
               d="M220.47,478.72c.17.98-1.47,2.17-2.21,2.53.32-1.03,1.56-1.7,2.21-2.53Z"
               id="path127" />
            <path
               class="cls-7"
               d="M222.21,475.88c-.28.86-.51,1.81-1.11,2.53-.37-1.14.75-1.91,1.11-2.53Z"
               id="path128" />
            <path
               class="cls-8"
               d="M224.89,475.88c.65-.01,1.1.76.32.63-.06,0-.63-.47-.32-.63Z"
               id="path129" />
            <path
               class="cls-6"
               d="M222.21,475.88c.28-.89.62-.89.63-.95-.33.73-.5.72-.63.95Z"
               id="path130" />
            <path
               class="cls-9"
               d="M214.15,472.09c.64-.05,1.05-.07,1.42.47-.11.24-1.6-.11-1.42-.47Z"
               id="path131" />
          </g>
        </g>
        <g
           id="g138">
          <path
             class="cls-6"
             d="M269.28,454.08c.53.58,1.28,1.33,1.58,2.05-.98-.07-1.55-2.16-1.9-.32.3,1.13,3.02,2.78,3.16,3,.47.72,2.47,7.39,2.84,6.48l-.79-3.63c.67-.19,1.41,5.15,1.42,5.69v1.26c-.07,1.5-.34,4.2-1.26,5.21v-3.16l-1.26,5.53c-.43.4-.1,1.06-1.26,1.11l.63.47c-1,.78-1.68,1.91-2.53,2.84-.14.15-1.9,2.22-2.05,2.21-1.35-.07-.55-.86-.95-.95-.59-.13-8.75,5.17-11.53,2.37,1.39-1.14,3.38-.18,5.21-.47,11.53-1.84,17.07-14.34,11.06-24.32l2.05,7.11h-3.16c-.44-.63.42-5.33.32-6-.04-.26-.62-.44-.63-.47.17-.2.32-.62.63-.79-3.45-5.92-10.55-7.9-17.06-6.32l-.32-.95c3.53-1.03,7.4-.85,10.9.47,1.74.66,1.94,2.35,4.11,2.21-2.1-3.23-12.95-5.54-15.32-2.84-.44,0-.37-.63-.32-.95,5.66-1.57,11.74-.22,16.43,3.16Z"
             id="path132" />
          <g
             id="g137">
            <path
               class="cls-17"
               d="M269.91,480.62c.83-.29.7.61-.16.63-.24-.09.13-.62.16-.63Z"
               id="path133" />
            <path
               class="cls-6"
               d="M272.44,477.78s.54-.4.63-.16c-.03.86-.92.99-.63.16Z"
               id="path134" />
            <path
               class="cls-5"
               d="M275.59,468.62v-1.26c.01.42.02.85,0,1.26Z"
               id="path135" />
            <path
               class="cls-9"
               d="M269.28,454.08c-4.68-3.37-10.77-4.73-16.43-3.16,0-.03-.58-.19.16-.63,5.75-1.28,12.16-.69,16.27,3.79Z"
               id="path136" />
            <path
               class="cls-11"
               d="M274.8,465.77c.23,0,.27,3.92,0,4.42-.25,0-.25-4.42,0-4.42Z"
               id="path137" />
          </g>
        </g>
        <g
           id="g139">
          <path
             class="cls-7"
             d="M222.21,470.19c2.3.86,1.55,3.9-1.42,2.84-.76-.27-.04-.88-.32-.95-3.02-.74-7.28-1.19-10.58-1.9-1.01-.22-3.17.16-3.63-1.26,4.69.57,11.54-.38,15.95,1.26Z"
             id="path138" />
          <path
             class="cls-9"
             d="M221.73,471.46l-.16.79.79.47c-1.67.14-1.63-.09-.63-1.26Z"
             id="path139" />
        </g>
        <path
           class="cls-9"
           d="M253.17,441.76c-.85-.26-.64-1.25-.79-1.9.61-.23.93,1.52.79,1.9Z"
           id="path140" />
        <g
           id="g143">
          <path
             class="cls-2"
             d="M215.89,483.78c-1.69,1.57-4.99,2.68-7.27,2.84.09-.46-.18-.86-.63-.95v-.32c.33-.02,1.3-.52,1.9-.63.32.86,2.92-.19,2.84-.47-.5-.5-.93.11-1.26.16l-.32-.32c1.72-.38,3.32-1.54,5.05-1.9.32-.06,1.17-.47,1.26-.16-.7.32-1.22,1.4-1.58,1.74Z"
             id="path141" />
          <path
             class="cls-10"
             d="M209.89,484.73c.52-.1,1.07-.25,1.58-.32.34-.05.76-.66,1.26-.16.08.29-2.53,1.33-2.84.47Z"
             id="path142" />
          <path
             class="cls-3"
             d="M213.84,483.46c1.11.14-.53,1.06-.79.47l.79-.47Z"
             id="path143" />
        </g>
        <g
           id="g224">
          <path
             class="cls-9"
             d="M254.74,436.39c-4.66,3.77-10.86,2.68-10.27,10.74,1.67-1.71,4.91-1.26,3.79-4.42l1.26,1.9c.33-2.15-1.5-2.29-2.05-3.95,1.6-.42,2.94-1.02,4.42-1.74l.32.63c-1.13.27-2.27.62-3.16,1.42l1.42,3.63c.19.05,2.33-2.5,2.69-2.84.06-.06.57.06.63,0-.25.5-1.28,1.33-1.26,1.42.1.74,1.3-1.02,1.26,0-.4.63-3.1,2.33-3.16,2.84-.02.19,1.56,3.27,1.74,3.32.13.03,2.11-.93,2.53-.95,2.27-.11,5.21-.11,7.42.32l-.63.63c-3.25-.61-6.51-.86-9.63.63l-1.9-3.79c-.17.74,2.58,7.41,3,6.79.11-.16-.1-.99,0-1.11,2.37-2.7,13.22-.38,15.32,2.84-2.16.14-2.37-1.55-4.11-2.21-3.5-1.32-7.37-1.5-10.9-.47l.32.95c6.51-1.58,13.6.4,17.06,6.32-.31.17-.46.59-.63.79-.53-1.98-1.37-2.94-3-4.11-1.35,1.91-6.22,6.25-2.84,7.58,1.14-1.39,4.89-2.36,5.84-3.47.01.04.59.22.63.47.11.67-.76,5.38-.32,6h3.16l-2.05-7.11c6.01,9.99.47,22.49-11.06,24.32-1.83.29-3.82-.67-5.21.47,2.78,2.8,10.94-2.5,11.53-2.37.4.09-.4.87.95.95.15,0,1.92-2.06,2.05-2.21-.03.01-.4.54-.16.63.86-.03.99-.92.16-.63.85-.93,1.52-2.06,2.53-2.84-.29.83.61.7.63-.16-.09-.24-.62.13-.63.16l-.63-.47c1.16-.05.84-.71,1.26-1.11.07-.06,1.39-.53,1.58-.95-4.63,12.91-22.02,14.97-30.33,4.26-6.64-8.56-5.03-22.18,5.05-27.33-.04.02-1.02,1.09-.16.95l1.42-1.11c-.04-.27-1.18.11-1.26.16.09-.05.91-1.16,1.42-.95,2.99,1.26-3.23,4.61-3.95,5.37.03-.2-.73-.97-.79-.95-.63.23-1.12,1.66-1.42,2.21-.47.35-1.13.91-.79,1.58.61-.32.58-1.2.79-1.58.48-.36,1.05-.28,1.58-.63-.2.26-.74,1.53-.95,1.9-5.43,6.28-3.47,17.23,2.84,22.43-.21.01-.59-.08-.63.16,3.21,2.76,7.54,4.16,11.85,3.95l4.26-1.11c-5.86.97-10.77.88-15.48-3,1.97-.12,2.13,1.15,2.37,1.26.32.15,4.33,2.07,3.32.47-.69-1.08-.59.47-1.11.16-.3-.18.48-.5-.32-.95-9.42-5.29-12.7-13.29-7.11-23.38.75-.87,5.35-5.03,6.16-5.05.68-.14.41.57.47.63-.36-.19-1.97.75-1.9,1.42.06.61,6.35,8.59,7.11,9.95-1.73-3.25-2.99-6.8-4.58-10.11,1.44,1.6,2.04,3.6,2.84,5.53.51-2.32-2.14-5.36-3.16-7.58-.28-.61-2.25-6.9-2.69-6.79l.47,2.37c-.17.38-.53-.41-.79-.16-2.09,2.05-17.54,17.51-17.53,18.8,0,.16,1.65,1.82,1.9,2.53.37,1.09.18,2.01.32,3h-.63c.11-.61.15-3.39-.63-3.16-.67.2.04,1.14-.63,1.26-.16-.86-.69-2.44-1.58-2.84.22-.77-1.44-1.21-1.58-.79l1.58.79c-1.9.04-3.96-1.06-5.37.95-.03-.32-.33-.56-.63-.63-.02-.28.28-.32.32-.63,1.17-11.05-10.55-19.72-21.01-18.64-.75.08-5.74,1.05-4.9,2.37.24.38,3.72-1.33,4.26-1.42,12.66-2.03,18.72,6.31,21.01,17.06l-2.53-7.74c-1.52-2.2-3.06-4.08-5.37-5.53-.3-.19-.32-.31-.95-.63-3.59-2.5-7.79-3.37-12.16-2.53-.68.13-5.5,1.74-4.11,2.53,4.86-3.29,11.25-2.57,16.27,0,.25.18.9.6.95.63,4.46,3.64,6.95,8.81,6.95,14.53,0,.47.45.21.63.47l-1.58.47c-4.41-1.64-11.26-.7-15.95-1.26.46,1.42,2.62,1.05,3.63,1.26.02.2-.04.44,0,.63.19.97,5.59,9.71,6.16,9.79.97-.51,3.78-2.89,3-4.11.37.06.29-.31.32-.32,1.74-.09.57-1.38,2.05-2.21-1.66,6.12-7.96,10.15-14.22,9.79.36-.58,2.42-.58,2.69-1.11.31-.6-1.79-10.05-2.05-11.53-.17,1.31-2.8,9.15-2.69,9.63.19.78,2.19,1.07,2.84,1.26-2.23.18-5.36-1.2-1.42,1.42-.98-.31-2.67.17-3.47,0-1-.21-3.88-2.28-4.11-2.21-.38.12-.32,1.97-1.11.79.57-12.35.32-24.76.32-37.12h.63l.47,4.42c9.97-1.89,21.14,2.45,24.96,12.64.54-3.81,5.69-5.23,8.53-7.27l-7.11,5.37c-1.02.37-.61,1.14-.16,1.9l.16-1.9,19.43-11.69-.47,1.11c.47-.01,1.27-.91.95.16-.02.06-.85.5-.95.79.88.58.9-.75.95-.79,1.25-.97,3.49-2.04,3-4.11-.26-.18-4.24,2.19-4.9,2.53-.41-.81-1.53.31-2.21.63-.46-.74-1.72.46-2.21.95-.6.3-.8.55-.95.63-.58.31-1.51.73-1.9.95-.66.38-.88.47-1.58.95-.59.4-1.61.74-1.58,1.58-1.6.83-6.84,2.46-8.69,4.11-1.06.95-.36.76-.63,1.9-1.71-1.18.42-2.29.47-2.69.07-.53-1.4-3.61-1.58-4.42-.13-.58.06-3.68-.63-4.58l.32-.32c.58,1.24.53,4.57,1.9,4.58-.74-1.71-.99-3.22-1.9-4.9-.2-.38.22-1.67-.63-.32-.04,0-.27.49-.32.63-.58-.45-1.58-.25-2.05-.63-.44-.35-1.93-2.69-2.53-2.84-.39-.1-1.25.36-2.05.32v-.63c.84.04,1.6-.41,2.05-.32,1.5.3,2.29,3.29,3.79,3.16.75-.07,2.99-2.21,3.79-2.53.21-.08,4.31.32,2.84-1.26-.38-.4-9.74-.4-11.06-.32-.47.03-2.28,1.89-1.9.32.49-.62,16.56-2.74,12.95,1.9-5.77-.74-4.08,2.76-3,6.48.12.41.89.47.95.63.11.32-.56,4.31,1.42,4.26,1.04-.02,13.34-8.63,15.79-9.16,1.22-1.38,1-4.86,2.37-6.79,1.72-2.43,5.72-2.49,8.21-3.95l-.16.63.79-.47c-.12-.27-.63-.13-.63-.16-.05-.25.49-.46.32-.95l1.26.95Z"
             id="path144" />
          <g
             id="g223">
            <path
               class="cls-9"
               d="M246.22,457.24c.23-.3.41-.4.63-.63-.16,1.02-.35.44-.63.63Z"
               id="path145" />
            <path
               class="cls-7"
               d="M241.48,453.45c-3.72,4.6-8.26,8.8-12.16,13.27-1,.09-3.25-5.14-1.11-5.53-1.2.39-3.36,1.55-1.74-.79s14.34-8.04,17.06-10.74c1.11.21-1.64,3.27-2.05,3.79Z"
               id="path146" />
            <path
               class="cls-7"
               d="M245.11,461.03l10.9,6.48-12.48-1.42c.05-1.79.37-3.63,1.58-5.05Z"
               id="path147" />
            <polygon
               class="cls-7"
               points="248.9 456.29 256.48 466.72 245.58 460.24 248.9 456.29"
               id="polygon147" />
            <path
               class="cls-7"
               d="M208.31,462.93c-.45,1.37-.78,3.49-1.9.95-.41-.93-2.11-9.52-1.42-9.79,1.02.02,4.86-.24,5.21.79.13.39-1.61,7.18-1.9,8.06Z"
               id="path148" />
            <path
               class="cls-7"
               d="M257.75,469.88l-1.74,13.11c-1.93-.21-3.84-.63-5.37-1.9l7.11-11.21Z"
               id="path149" />
            <path
               class="cls-7"
               d="M256.48,452.82c.83-.06,4.3-.02,4.58.79.21.62-2.58,9.68-2.69,11.21-1.39-1.28-2.88-11.57-1.9-12Z"
               id="path150" />
            <polygon
               class="cls-7"
               points="208.78 471.14 215.57 481.09 210.99 483.15 208.78 471.14"
               id="polygon150" />
            <path
               class="cls-7"
               d="M214.31,455.98c.2.13.85.93,1.26,1.11-1.69,1.04-7.16,12.69-6.63,6.16.22-2.7,1.34-5.35,1.58-8.06l.79-.47c.7.72,2.29.8,3,1.26Z"
               id="path151" />
            <path
               class="cls-7"
               d="M256.48,469.88l-5.84,10.58c-.58,1.13-4.11-2.58-4.11-2.84,0-.63,9.11-6.32,9.95-7.74Z"
               id="path152" />
            <path
               class="cls-7"
               d="M255.53,469.25c.29,0,.67-.1.79.16-1.43.7-8.99,7.3-9.63,7.42-1.24.23-3.32-3.69-2.21-4.42.48-.32,10.48-3.16,11.06-3.16Z"
               id="path153" />
            <polygon
               class="cls-7"
               points="243.53 466.72 256.32 468.46 247.01 471.46 250.48 469.56 243.85 471.46 243.53 466.72"
               id="polygon153" />
            <path
               class="cls-7"
               d="M206.89,471.14c.03,1.55-2.71,11.86-3.47,12-.23.04-3.95-2.04-3.95-2.37,0-.61,6.78-8.18,7.42-9.63Z"
               id="path154" />
            <polygon
               class="cls-7"
               points="259.64 469.88 267.22 480.62 262.01 480.15 259.64 469.88"
               id="polygon154" />
            <path
               class="cls-6"
               d="M199.46,472.72c.31-.23,4.03-1.16,4.74-1.58-.67,1.01-1.87,2.04-2.05,3.16.13.08,4.4-5.54,4.26-3.32-.03.49-1.15.42-1.26.63-.02.03.5.33.32.63-1.65,2.74-4.71,5.59-6.48,8.37-.05-1.82-.74-6.98.47-7.9Z"
               id="path155" />
            <path
               class="cls-7"
               d="M269.75,460.72c.26.18.26,5.82,0,6-.38.27-8.08-.04-9.32.47l2.69-2.37.32.63,6.32-4.74Z"
               id="path156" />
            <path
               class="cls-7"
               d="M205.78,463.88c-1.25.88-1.46,0-2.53-1.26-1.15-1.35-5.23-7.15-1.74-7.27l.63,1.9c.45-1.64-.56-2.55,1.58-2.84l2.05,9.48Z"
               id="path157" />
            <path
               class="cls-7"
               d="M265.64,467.35c.65,0,4.06-.13,4.26.16.14.2.2,4.21.16,4.9l-9.95-4.26c.05-.27,4.97-.78,5.53-.79Z"
               id="path158" />
            <path
               class="cls-6"
               d="M270.22,460.09c-.96,1.11-4.71,2.08-5.84,3.47-3.38-1.33,1.49-5.67,2.84-7.58,1.63,1.17,2.47,2.13,3,4.11Z"
               id="path159" />
            <path
               class="cls-10"
               d="M224.73,468.62c-.15-.04-.62-.59-.63-.63-2.29-10.75-8.34-19.09-21.01-17.06-.55.09-4.02,1.8-4.26,1.42-.85-1.32,4.14-2.29,4.9-2.37,10.46-1.08,22.17,7.59,21.01,18.64Z"
               id="path160" />
            <path
               class="cls-7"
               d="M251.9,438.92c-1.48.72-2.82,1.31-4.42,1.74.55,1.66,2.38,1.8,2.05,3.95l-1.26-1.9c1.12,3.17-2.12,2.71-3.79,4.42-.6-8.06,5.61-6.97,10.27-10.74l-.47-3.47,1.11,3.95c-.68,1.4-2.41,1.53-3.47,2.05Z"
               id="path161" />
            <path
               class="cls-7"
               d="M221.89,468.93c.01-3.58-.76-6.24-3.16-8.85-1.13-1.8-2.58-3.35-4.42-4.42-4.68-2.72-11.47-3.24-15.48.79-.59-2.02,1.28-2.83,3-3.32,9.12-2.6,21.19,5.37,21.01,15.32-.16.51-.88.43-.95.47Z"
               id="path162" />
            <path
               class="cls-7"
               d="M245.27,459.14c-5.59,10.08-2.31,18.08,7.11,23.38.8.45.02.76.32.95.51.31.42-1.24,1.11-.16,1.01,1.6-3-.33-3.32-.47-.24-.11-.4-1.39-2.37-1.26-6.31-5.2-8.27-16.15-2.84-22.43Z"
               id="path163" />
            <path
               class="cls-7"
               d="M261.54,471.14l8.69,6.48c-.62.27-1.71,2.32-2.05,2.37-.63.09-5.96-7.69-6.63-8.85Z"
               id="path164" />
            <polygon
               class="cls-10"
               points="248.9 447.45 248.43 449.5 232.16 466.72 248.9 447.45"
               id="polygon164" />
            <path
               class="cls-7"
               d="M260.9,469.25c3.69,2.02,10.04,2.15,9.63,7.42l-9.63-7.42Z"
               id="path165" />
            <path
               class="cls-7"
               d="M261.85,453.45c1.2,5.22,1.21,8.61-2.84,12.32l2.84-12.32Z"
               id="path166" />
            <path
               class="cls-7"
               d="M271.01,467.35c4.13-2.17,2.31,5.69,1.58,6-2.76,1.18-2.34-5.6-1.58-6Z"
               id="path167" />
            <path
               class="cls-7"
               d="M202.94,462.61c.08.17.56,1.53.47,1.58l-4.26-1.26c-.03-1.57-.75-3.66-.16-5.37.25-.19,3.81,4.77,3.95,5.05Z"
               id="path168" />
            <path
               class="cls-7"
               d="M251.9,454.72c.06.03-.1.45.63,1.26,1.6,3.31,2.85,6.85,4.58,10.11-.76-1.36-7.04-9.34-7.11-9.95-.07-.67,1.54-1.62,1.9-1.42Z"
               id="path169" />
            <path
               class="cls-7"
               d="M263.12,453.77c6.18,1.44,1.9,3.12,0,6.63v-6.63Z"
               id="path170" />
            <path
               class="cls-7"
               d="M204.2,470.51c-1.29.67-3.62.97-5.05,1.58-.58-1.15-.36-2.58-.16-3.79l6.32,1.26c.07.25-.96.87-1.11.95Z"
               id="path171" />
            <path
               class="cls-7"
               d="M203.57,465.46l.16,1.26c-1.87.48-2.69,1.48-4.74.95-.65-.46.18-3.57.16-4.11,1.26.81,2.99,1.47,4.42,1.9Z"
               id="path172" />
            <path
               class="cls-7"
               d="M215.26,454.08c-5.01-2.57-11.41-3.29-16.27,0-1.39-.78,3.43-2.4,4.11-2.53,4.37-.84,8.57.02,12.16,2.53Z"
               id="path173" />
            <path
               class="cls-7"
               d="M224.1,467.98s.48.59.63.63c-.03.32-.33.35-.32.63-.38-.09-.87.05-1.26,0,0-5.72-2.49-10.89-6.95-14.53,2.31,1.45,3.85,3.33,5.37,5.53l2.53,7.74Z"
               id="path174" />
            <path
               class="cls-7"
               d="M248.11,481.57c4.71,3.88,9.62,3.97,15.48,3l-4.26,1.11c-4.3.21-8.63-1.19-11.85-3.95.04-.24.42-.15.63-.16Z"
               id="path175" />
            <path
               class="cls-12"
               d="M243.69,448.08c-3.51,1.82-6.91,3.86-10.42,5.69-.03-.84.99-1.18,1.58-1.58l1.58-.95c.39-.22,1.32-.64,1.9-.95.67.19.7-.39.95-.63.68-.34,1.5-.62,2.21-.95s1.8-1.44,2.21-.63Z"
               id="path176" />
            <path
               class="cls-7"
               d="M243.21,460.09c-1.86,4.61-1.65,9.02-.95,13.9-1.59-4.3-1.54-9.98.95-13.9Z"
               id="path177" />
            <path
               class="cls-7"
               d="M226.47,462.61c.52.31,1.75,4.19,1.26,4.42l-1.26-2.53v2.84c-.53-.58-1.46-5.6,0-4.74Z"
               id="path178" />
            <path
               class="cls-7"
               d="M262.48,462.3c2.02.27-1.31,4.13-2.53,3.79-.03-.65,2.3-3.82,2.53-3.79Z"
               id="path179" />
            <path
               class="cls-7"
               d="M204.04,467.04c.88-.13,1.05,1.55.63,1.9-.22.18-5.57-.52-.63-1.9Z"
               id="path180" />
            <path
               class="cls-13"
               d="M204.2,470.51c.5,0,.15.41,0,.63-.71.42-4.43,1.35-4.74,1.58-.04-.24-.21-.42-.32-.63,1.43-.61,3.76-.91,5.05-1.58Z"
               id="path181" />
            <path
               class="cls-7"
               d="M262.48,481.25l3.63.16c-1.35.66-4.18,2.5-3.63-.16Z"
               id="path182" />
            <path
               class="cls-6"
               d="M206.89,467.04l4.58,1.42c-.84.05-4.94.2-4.58-1.42Z"
               id="path183" />
            <path
               class="cls-10"
               d="M224.58,462.3c.9,1.52,1.12,3.91.95,5.69l-.95-5.69Z"
               id="path184" />
            <path
               class="cls-7"
               d="M271.01,473.35c1.93-.11.97,2.26,0,3.16-.09-.41-.56-3.13,0-3.16Z"
               id="path185" />
            <path
               class="cls-10"
               d="M223.94,453.45c.9-.47,1.68,3.32,1.26,3.79l-1.26-3.79Z"
               id="path186" />
            <polygon
               class="cls-6"
               points="258.06 466.09 259.17 468.14 257.75 467.35 257.75 468.62 256.96 467.51 258.06 466.09"
               id="polygon186" />
            <path
               class="cls-10"
               d="M254.59,453.45c.73,1.15,1.1,3.07.95,4.42-.38-1.14-1.6-3.22-.95-4.42Z"
               id="path187" />
            <path
               class="cls-7"
               d="M222.52,447.77c-.04-.09.05-.24,0-.32.91,1.68,1.16,3.18,1.9,4.9-1.37-.01-1.32-3.34-1.9-4.58Z"
               id="path188" />
            <path
               class="cls-7"
               d="M246.85,456.61c-.22.23-.4.33-.63.63-.53.35-1.1.27-1.58.63.3-.55.79-1.98,1.42-2.21.06-.02.82.75.79.95Z"
               id="path189" />
            <path
               class="cls-7"
               d="M247.95,438.6c.17-.04,1.3-.14.95.32l-3.63,2.05c.2-.87,1.98-2.22,2.69-2.37Z"
               id="path190" />
            <path
               class="cls-6"
               d="M242.58,474.3c.56,1.12,1.53,2.52,1.58,3.79-.64-1.01-1.83-2.51-1.58-3.79Z"
               id="path191" />
            <path
               class="cls-7"
               d="M250.48,452.82c1.36.47-1.93,1.78-2.05,1.42l2.05-1.42Z"
               id="path192" />
            <path
               class="cls-7"
               d="M241.48,454.08c.06-.09-.06-.55,0-.63.08-.1,1.97-2.11,2.21-1.42-.62.79-1.52,1.36-2.21,2.05Z"
               id="path193" />
            <path
               class="cls-1"
               d="M201.83,449.35c.31-.03.63.02.95,0,.61.32-1.67,1.26-2.05.47.37-.01,1.05-.47,1.11-.47Z"
               id="path194" />
            <path
               class="cls-17"
               d="M241.48,448.71c-.71.33-1.53.61-2.21.95.49-.48,1.75-1.69,2.21-.95Z"
               id="path195" />
            <path
               class="cls-7"
               d="M225.68,460.09l-.16,1.9c-.45-.75-.86-1.52.16-1.9Z"
               id="path196" />
            <path
               class="cls-7"
               d="M249.37,452.19c.08-.05,1.23-.43,1.26-.16l-1.42,1.11c-.86.14.12-.92.16-.95Z"
               id="path197" />
            <path
               class="cls-7"
               d="M241.48,454.08c-.24.33-.4,1.27-1.11,1.58-.43-.78.75-1.22,1.11-1.58Z"
               id="path198" />
            <path
               class="cls-7"
               d="M239.11,456.61c.65.16-.77,1.43-.95,1.58-.65-.16.77-1.43.95-1.58Z"
               id="path199" />
            <path
               class="cls-17"
               d="M254.27,483.15c1.12-.22,2.06.76.63.63-.04,0-.96-.47-.63-.63Z"
               id="path200" />
            <path
               class="cls-17"
               d="M236.42,451.24l-1.58.95c.7-.48.92-.57,1.58-.95Z"
               id="path201" />
            <path
               class="cls-7"
               d="M244.64,457.87c-.21.38-.18,1.26-.79,1.58-.34-.67.32-1.23.79-1.58Z"
               id="path202" />
            <path
               class="cls-7"
               d="M237.21,458.82c.58.2-.56,1.29-.63,1.26-.58-.2.56-1.29.63-1.26Z"
               id="path203" />
            <path
               class="cls-7"
               d="M245.58,449.66s-.07,1.37-.95.79c.1-.29.93-.73.95-.79Z"
               id="path204" />
            <path
               class="cls-7"
               d="M264.7,483.78c1.11.14-.53,1.06-.79.47l.79-.47Z"
               id="path205" />
            <path
               class="cls-12"
               d="M222.52,447.45c.05.07-.04.23,0,.32l-.32.32s-.54-.25-.63-.32c.05-.14.28-.63.32-.63.3-.01.35.35.63.32Z"
               id="path206" />
            <path
               class="cls-17"
               d="M253.17,436.39s.51-.11.63.16l-.79.47.16-.63Z"
               id="path207" />
            <path
               class="cls-7"
               d="M216.2,454.72s-.69-.45-.95-.63c.63.32.64.44.95.63Z"
               id="path208" />
            <path
               class="cls-17"
               d="M244.79,478.72c.21-.03.76.89.32.95-.21.03-.76-.89-.32-.95Z"
               id="path209" />
            <path
               class="cls-16"
               d="M222.52,447.45c-.29.03-.33-.33-.63-.32.85-1.36.43-.06.63.32Z"
               id="path210" />
            <path
               class="cls-6"
               d="M239.27,449.66c-.25.25-.27.82-.95.63.15-.08.35-.33.95-.63Z"
               id="path211" />
            <path
               class="cls-2"
               d="M207.2,484.09h.32c.62-.05.62.37,0,.32l-.32-.32Z"
               id="path212" />
            <g
               id="g219">
              <path
                 class="cls-9"
                 d="M218.73,460.09c-.8-.87-1.94-1.57-2.69-2.53-3.45,4.38-10.23,12.52.63,5.69l-3.63,3,8.06,2.05c1.26-.84-1.68-7.11-2.37-8.21,2.4,2.61,3.17,5.26,3.16,8.85-.41.29-5.49-1.35-6.63-.95.51-.43-1.09-.94-.63,0-.61-.15-3.11-2.16-3.95-1.26l2.69,1.11c-3.01-.67-6.63-1.42-9.79-2.37-1.43-.43-3.16-1.08-4.42-1.9,0-.21,0-.42,0-.63l4.26,1.26c.09-.05-.39-1.41-.47-1.58h.32c1.07,1.26,1.28,2.14,2.53,1.26.07-.05.43.03.63,0,1.11,2.55,1.44.43,1.9-.95l.63.32c-.53,6.53,4.94-5.12,6.63-6.16-.42-.17-1.06-.98-1.26-1.11v-.32c1.84,1.07,3.29,2.62,4.42,4.42Z"
                 id="path213" />
              <g
                 id="g218">
                <path
                   class="cls-1"
                   d="M215.26,467.98c-.2-.02-.45.04-.63,0-.46-.94,1.14-.43.63,0Z"
                   id="path214" />
                <path
                   class="cls-1"
                   d="M204.67,464.82c.55-.1.96.26,1.42.47-.14.39-1.52.03-1.42-.47Z"
                   id="path215" />
                <path
                   class="cls-2"
                   d="M206.89,465.46c.26.03,1.08-.11,1.11.16.02.2-1.43.38-1.11-.16Z"
                   id="path216" />
                <path
                   class="cls-1"
                   d="M209.26,466.09c-.27-.09-.72.17-.95-.16.57-.56.9.15.95.16Z"
                   id="path217" />
                <path
                   class="cls-1"
                   d="M209.26,466.09c.27.09.72-.17.95.16-.57.56-.9-.15-.95-.16Z"
                   id="path218" />
              </g>
            </g>
            <g
               id="g220">
              <path
                 class="cls-7"
                 d="M258.38,470.51c.72,2.26,3.63,9.31,3.63,11.21,0,2.4-5.14,1.44-5.37.95l1.74-12.16Z"
                 id="path219" />
              <path
                 class="cls-9"
                 d="M257.43,481.25l3.32.47c-.54.08-3.66.7-3.32-.47Z"
                 id="path220" />
            </g>
            <g
               id="g222">
              <path
                 class="cls-7"
                 d="M218.73,460.09c.69,1.1,3.63,7.37,2.37,8.21l-8.06-2.05,3.63-3c-10.86,6.83-4.08-1.3-.63-5.69.75.96,1.88,1.66,2.69,2.53Z"
                 id="path221" />
              <path
                 class="cls-13"
                 d="M214.78,465.14c.79-.11.34.63-.32.63-.32-.16.26-.62.32-.63Z"
                 id="path222" />
            </g>
          </g>
        </g>
        <g
           id="g229">
          <path
             class="cls-17"
             d="M230.42,468.93c.89.41,1.42,1.99,1.58,2.84,1.51,8.1-11.44,4.51-6.95-1.9,1.41-2.01,3.47-.91,5.37-.95Z"
             id="path224" />
          <path
             class="cls-17"
             d="M230.42,468.93l-1.58-.79c.14-.42,1.8.02,1.58.79Z"
             id="path225" />
          <path
             class="cls-7"
             d="M226.63,473.67c5,1.58,3.59-4.95,0-2.21.31-.86.65-1.62,1.74-1.58,4.95,1.32,1.88,7.77-1.58,5.37-.91-.63-.1-1.24-.16-1.58Z"
             id="path226" />
          <g
             id="g228">
            <path
               class="cls-9"
               d="M226.63,473.67c-.14-.85-.31-1.33,0-2.21,3.59-2.74,5,3.79,0,2.21Z"
               id="path227" />
            <path
               class="cls-17"
               d="M227.74,471.14c.95-.11-.66,2.51,1.42.47.22,4.31-3.91-.18-1.42-.47Z"
               id="path228" />
          </g>
        </g>
      </g>
      <g
         id="g248">
        <path
           class="cls-9"
           d="M317.29,408.59c0,5.05,0,10.11,0,15.16,0,4-.01,8.01,0,12,.04,12.82-.33,25.73,0,38.54h-.95c.47-.67.3-.66,0-1.26-.24-.5-.6-.18-.63-.63.38-.1.66.02.95-.47l-.16-11.85-19.43.32s-.49.02-.32-.63c1.17-1.17,16.69.47,19.43-.32.81-.23.21-.78.16-.95-.21-.71-.14-.45-.63-.95.38-.1.66.02.95-.47l-.63-14.06c.22-.31.21-.27.32-.63.39-1.38.5-2.7.16-4.11l-7.11-.32c2.22-.07,4.53-.6,6.79-.32l.16-.63c.88-4.6.05-9.3,0-13.9-.01-1.29-.31-1.03-.32-1.26,0-.03.64.1.63-.16-.03-1.8.35-7.85-.32-9-.11-.2-.27-.41-.32-.63,1.21.01.41-2.44.63-3.47.07.05.43-.03.63,0Z"
           id="path230" />
        <path
           class="cls-7"
           d="M316.35,458.51c.05.16.65.71-.16.95-2.74.79-18.26-.85-19.43.32-.84,1.57.14,12.19-.47,12.64-.19.14-2.1.13-2.37-.47-.28-.63-.2-13.6.47-13.74l21.95.32Z"
           id="path231" />
        <path
           class="cls-7"
           d="M316.35,412.7c.66,1.15.28,7.2.32,9,0,.26-.63.13-.63.16h-21.95l-.16-9,22.43-.16Z"
           id="path232" />
        <path
           class="cls-13"
           d="M305.6,404.17l-.95-.32c.25-.2,1.89-2.29,2.05-2.21.45.94-.76,1.78-1.11,2.53Z"
           id="path233" />
        <g
           id="g237">
          <path
             class="cls-7"
             d="M302.45,407.33c-1.17-.02-8.03.24-8.37,0-.42-.3.02-1.99-.16-2.53l.63-.32c.28,1.73.15,2.35,2.53,1.11l-2.21-.32-.63-9.16c2.25,2.37,1.73,5.76,2.05,8.69l1.42-11.53c.8-.47.55.18.63.63.15.84.15,7.04,1.11,6.79,1.11-1.4,1.06-4.13,1.74-.79l.63-.32.16-6.79c.38,1.67.75,9.88-.95,10.42-.16.05-3.21-.95-3.32-.16,3.08.96,5.28-.19,4.74,4.26Z"
             id="path234" />
          <path
             class="cls-9"
             d="M304.66,403.86l.95.32c-.48,1.04-1,2.02-1.26,3.16-.11,0-.21,0-.32,0l.47-2.84c-1.28.96-1.38,1.31-1.74,2.84-.11,0-.21,0-.32,0,.54-4.46-1.66-3.31-4.74-4.26.11-.8,3.16.21,3.32.16,1.7-.54,1.33-8.75.95-10.42l-.16,6.79-.63.32c-.68-3.35-.62-.61-1.74.79-.96.25-.95-5.96-1.11-6.79-.08-.45.17-1.11-.63-.63l-1.42,11.53c-.33-2.93.2-6.31-2.05-8.69l.63,9.16,2.21.32c-2.38,1.24-2.25.62-2.53-1.11-.59-3.62-.03-7.76-1.58-11.21l3.79,5.69,1.11-11.21,1.9,11.37,2.53-9.16.47,8.37,3.79-2.84c-1.84,2.57-3.17,6.06-3.16,9.16.37.08.94-.54,1.26-.79Z"
             id="path235" />
          <path
             class="cls-7"
             d="M304.02,407.33c-.42,0-.85,0-1.26,0,.36-1.53.46-1.88,1.74-2.84l-.47,2.84Z"
             id="path236" />
          <path
             class="cls-7"
             d="M304.18,397.85l-1.58,6c-1.38-1.85.69-4.35,1.58-6Z"
             id="path237" />
        </g>
        <g
           id="g240">
          <path
             class="cls-7"
             d="M315.71,472.41c-4.21,1.12-13.69-.84-18.48,0-.54-.39.11-10.34-.16-12l19.43-.32.16,11.85c-.29.5-.57.37-.95.47Z"
             id="path238" />
          <path
             class="cls-2"
             d="M301.02,464.19h11.69c.22.15.24,2.26.16,2.37-.34.48-10.4-.04-11.85.16v-2.53Z"
             id="path239" />
          <path
             class="cls-13"
             d="M306.39,461.03c.68.48.59,1.51.32,2.21-.83-.04-.49-1.72-.32-2.21Z"
             id="path240" />
        </g>
        <g
           id="g247">
          <path
             class="cls-7"
             d="M316.03,443.03l.63,14.06c-.29.5-.57.37-.95.47-1.03.27-20.35.43-21.32,0l-.47-14.06,22.11-.47Z"
             id="path241" />
          <g
             id="g246">
            <path
               class="cls-13"
               d="M304.5,443.34c.92,0,7.87.12,8.06.47v11.06l-16.58.47-.16-11.53c2.86.03,5.86-.44,8.69-.47Z"
               id="path242" />
            <path
               class="cls-7"
               d="M311.92,447.77c.05.91.13,6.75-.16,6.95h-15.16l-.47-6.95h15.79Z"
               id="path243" />
            <path
               class="cls-7"
               d="M311.92,444.92c-3.04-1.01-.17,1.83-2.05,2.53-.28.1-5.25.39-5.53-.63.17-.49.08-1.54-.47-1.9l-.16,2.21-7.27.32.16-3.47h14.85c.5.29.37.57.47.95Z"
               id="path244" />
            <path
               class="cls-8"
               d="M311.92,444.92c.17.62-.04,2.04,0,2.84h-15.79l.32-.32,7.27-.32c.14-.05.62-.28.63-.32.28,1.02,5.25.73,5.53.63,1.88-.69-.99-3.54,2.05-2.53Z"
               id="path245" />
            <path
               class="cls-13"
               d="M304.34,446.82s-.49.27-.63.32l.16-2.21c.56.36.65,1.41.47,1.9Z"
               id="path246" />
          </g>
        </g>
      </g>
    </g>
  </g>
  <g
     inkscape:groupmode="layer"
     id="layer1"
     inkscape:label="Layer 1">
    <a
       id="gereed01"
       onclick="&quot;click&quot;"
       onmouseover="&quot;hover&quot;"
       onmouseup="&quot;up&quot;">
      <desc
         id="desc250">Gereedschap beschrijving</desc>
      <title
         id="title250">Gereedschap</title>
      <rect
         style="fill:#ab0000;stroke:#ff0000;fill-opacity:1"
         id="rect249"
         width="17.109739"
         height="19.742008"
         x="198.73621"
         y="404.71115"
         inkscape:label="gereedschap" />
    </a>
    <rect
       style="fill:#ab0000;fill-opacity:1;stroke:#ff0000"
       id="plant01"
       width="30.271078"
       height="18.425873"
       x="288.89139"
       y="409.31763"
       inkscape:label="plant" />
    <ellipse
       style="fill:#ab0000;fill-opacity:1;stroke:#ff0000"
       id="fiets01"
       cx="257.96222"
       cy="468.2146"
       rx="17.109739"
       ry="18.09684"
       inkscape:label="fiets" />
  </g>
</svg>
