<?xml version="1.0" encoding="UTF-8"?>
<svg id="uuid-7624091f-5538-4b2f-87f4-45679a99cc8c" data-name="Laag 2" xmlns="http://www.w3.org/2000/svg" xmlns:xlink="http://www.w3.org/1999/xlink" viewBox="0 0 411.57 531.06">
  <defs>
    <style>
      .uuid-0ec5a616-91a9-48db-86ba-122869aba110 {
        fill: #2782b3;
      }

      .uuid-a8710fae-5e9c-4480-a3c0-ff207e1b4cfe {
        fill: #2c77b1;
      }

      .uuid-8b1c4aad-6767-489a-b411-64f433517830 {
        fill: #1e659e;
      }

      .uuid-6689356e-bcf7-4e6f-a94d-95dd3f7c7c0e {
        fill: #3096c9;
      }

      .uuid-b16b6d0a-889e-4561-b41e-1af953788e20 {
        fill: url(#uuid-341b50d1-17b1-44a1-83ad-bd0c7b18c095);
      }

      .uuid-4214edfa-e21a-4dfc-9b6b-97c04bb11857 {
        fill: #173c6a;
      }

      .uuid-a33f525d-8787-4821-851c-b54fddbcc020 {
        fill: #4aa3ca;
      }

      .uuid-8bf3108d-c403-4117-b21e-e25ecd1481dc {
        fill: #76cae6;
      }

      .uuid-bc4bfd71-5d44-4345-bb62-158e4863055c {
        fill: #56c3e9;
      }

      .uuid-72f442f5-6ca9-4d3e-a28c-8ce4eeecae82 {
        fill: #69c5d6;
      }

      .uuid-ec897aae-0f78-46ff-a140-384b476814a2 {
        fill: #3eb3cd;
      }

      .uuid-08fabfd4-0a2c-4b95-b350-0fea8f39a37d {
        fill: #3cb4e0;
      }

      .uuid-3cf8dd83-5967-49c1-bdbe-9497e806bdc4 {
        fill: #234f82;
      }

      .uuid-b370ea33-1430-45fc-9e18-4a79e4b73bd4 {
        fill: #e1f2f7;
      }

      .uuid-ab47f65f-0775-4520-b815-f46fa0f67a05 {
        fill: url(#uuid-0bde9659-cb47-478c-85d9-5437b114f869);
      }

      .uuid-e1f17f6c-1ef7-45af-ba71-590283e8d9c2 {
        fill: #1b2647;
      }

      .uuid-d14e5bfd-c08a-411f-a11a-91aacea1eb2e {
        fill: #5ac1d4;
      }

      .uuid-61e280b0-67c3-4850-a80d-fa7c7b077842 {
        fill: url(#uuid-a53b796e-583f-404e-8c3d-a7d07b91fdc2);
      }
    </style>
    <linearGradient id="uuid-a53b796e-583f-404e-8c3d-a7d07b91fdc2" data-name="Naamloos verloop 18" x1="394.5" y1="459.36" x2="415.18" y2="483.17" gradientTransform="translate(137.18 210.04) scale(.49)" gradientUnits="userSpaceOnUse">
      <stop offset="0" stop-color="#1e4777"/>
      <stop offset="1" stop-color="#1d2d52"/>
    </linearGradient>
    <linearGradient id="uuid-0bde9659-cb47-478c-85d9-5437b114f869" data-name="Naamloos verloop 6" x1="399.38" y1="460.3" x2="424.94" y2="502.73" gradientTransform="translate(137.18 210.04) scale(.49)" gradientUnits="userSpaceOnUse">
      <stop offset="0" stop-color="#1f4574"/>
      <stop offset=".9" stop-color="#1c2546"/>
    </linearGradient>
    <linearGradient id="uuid-341b50d1-17b1-44a1-83ad-bd0c7b18c095" data-name="Naamloos verloop 19" x1="401.9" y1="431.46" x2="418.7" y2="456.43" gradientTransform="translate(137.18 210.04) scale(.49)" gradientUnits="userSpaceOnUse">
      <stop offset="0" stop-color="#235186"/>
      <stop offset="1" stop-color="#193864"/>
    </linearGradient>
  </defs>
  <g id="uuid-297ef0b5-dd59-4cd9-a8ba-458879d8a665" data-name="Generatief object">
    <g>
      <g>
        <path class="uuid-bc4bfd71-5d44-4345-bb62-158e4863055c" d="M327.58,423.04c-.08.07.1.14.13.17.29.5.18.91-.04,1.4-.03.08-.09.1-.09.2l-.13.07s-.03-.09-.04-.13c0,0,.07-.06.04-.15-.03-.08-.43-1.1-.48-1.03l.35,1.1c-.82-.42-.99-.94-.83-1.68.04-.11.08-.46.28-.47.12,0,.72.43.81.53Z"/>
        <path class="uuid-08fabfd4-0a2c-4b95-b350-0fea8f39a37d" d="M326.27,427.04c.45.08.85.18,1.14.48-.06.07-1.66-.3-1.81-.02.56-.11,1.14-.02,1.68.12-.67.35-1.47.33-2.08-.08-.07.11.38.28.46.3-.11.05.22.16.24.17.63.15,1.11-.03,1.59-.33.1.01.08.03.09.03-.1.13-.27.19-.44.27l-.92.2c-.11,0-.08-.03-.09-.03.07-.05-.22-.11-.22-.03-.08-.02-.08-.03-.09-.03.09-.05-.26-.17-.26-.1-.16-.06-.86-.34-.79-.52.06-.14,1.09-.47,1.31-.48-.02.11.09.05.17.07Z"/>
        <path class="uuid-6689356e-bcf7-4e6f-a94d-95dd3f7c7c0e" d="M327.45,424.87l.13-.07c0,.36.53,1.08.52,1.5-.18-.01-.07.15-.22.13-.11-.3-.39-.57-.66-.8-.35-.3-.61-.47-1.16-.57-.32-.06-.74-.14-.94.03-.02.02-.04,0-.04.07,0,.13.73.37.79.53-.19,0-.37-.1-.57-.1-.28-.12-.49-.27-.7-.45l.17.03c-.22-.22.16-.17.09-.35,1.56-.46,2.04.32,2.86,1.13.08-.36-.18-.76-.28-1.1Z"/>
        <path class="uuid-8bf3108d-c403-4117-b21e-e25ecd1481dc" d="M327.67,427.7s-.07,0-.09,0c0,0,.02-.02-.09-.03-.49-.05-.78.47-1.84.17-.08-.02-.53-.19-.46-.3.61.41,1.41.43,2.08.08-.54-.13-1.13-.23-1.68-.12.15-.29,1.76.08,1.81.02-.29-.3-.68-.41-1.14-.48.73-.05,1,.3,1.4.67Z"/>
        <path class="uuid-08fabfd4-0a2c-4b95-b350-0fea8f39a37d" d="M325.31,425.61c.7.3.92.22,1.66,0,.02,0,.08.05.09.07-.14.04-.25.1-.39.13-.38.02-.7.1-1.09.03-.01,0-.03,0-.04,0,0-.08-.16-.15-.22-.1-.18-.07-.92-.54-.92-.68,0-.12.36-.18.48-.22.08.18-.3.13-.09.35l-.17-.03c.21.18.42.33.7.45Z"/>
        <path class="uuid-a33f525d-8787-4821-851c-b54fddbcc020" d="M327.4,424.74c-1.03-.33-1.18-1-.92-1.77-.16.74,0,1.26.83,1.68l-.35-1.1c.05-.07.45.95.48,1.03.03.09-.05.14-.04.15Z"/>
        <path class="uuid-8bf3108d-c403-4117-b21e-e25ecd1481dc" d="M327.23,425.64s-.13.02-.17.03c0-.02-.07-.06-.09-.07-.07-.04-.84.11-1.09.1-.06-.16-.79-.4-.79-.53.7.37.99.63,1.88.32-.51-.27-1.2-.5-1.84-.38.2-.18.62-.09.94-.03.54.1.81.27,1.16.57Z"/>
        <path class="uuid-4214edfa-e21a-4dfc-9b6b-97c04bb11857" d="M327.14,427.97c-.34.15-.52.21-.92.2l.92-.2Z"/>
        <path class="uuid-3cf8dd83-5967-49c1-bdbe-9497e806bdc4" d="M326.14,428.14c-.09-.01-.13-.01-.22-.03,0-.07.29-.02.22.03Z"/>
        <g>
          <path class="uuid-8bf3108d-c403-4117-b21e-e25ecd1481dc" d="M328.1,426.3s0,.05.09.03c-.05.2-.12-.03-.13.18-.02.41.44,1.21.42,1.68.18.02.12-.12.15-.17.28-.39.41-.96.94-1.2s1.37-.23,1.9-.03l-.26.48-.07-.08-.28.28.22-.07c-.43.44-1.15.65-1.81.38.33.04.7.14,1.01,0-.35.1-1.08-.22-1.2.07-.06,0-.11-.09-.22.02-.06.09-.05.2-.09.28-.12-.07-.32.48-.17.5-.01.18.03.69.22.8-.04,0-.2.03-.28,0-.08-.05-.06-1.05-.17-1.23l.02,1.18c-.05.07-.11.04-.17.05-.06-.41.1-.89-.04-1.3.1-.04.05-.32.04-.38,0-.03-.04-.24-.13-.22-.02-.31-.07-.84-.17-1.13.15.01.04-.14.22-.13Z"/>
          <path class="uuid-a8710fae-5e9c-4480-a3c0-ff207e1b4cfe" d="M329.07,427.87c.12-.29.85.04,1.2-.07-.3.14-.68.04-1.01,0,.66.26,1.38.05,1.81-.38l-.22.07.28-.28.07.08.26-.48c.04.35-.63.98-1.03,1.1-.56.16-.88-.01-1.38-.03Z"/>
          <path class="uuid-a33f525d-8787-4821-851c-b54fddbcc020" d="M328.72,425.97v.03c-.42.05-.46.26-.48.58-.02.27.17,1.13.26,1.4.03.09-.01.12.13.05-.04.05.03.19-.15.17.03-.47-.44-1.27-.42-1.68.01-.21.08.02.13-.18.03-.12.11-.23.13-.33.15-.07.26-.03.39-.03Z"/>
          <path class="uuid-6689356e-bcf7-4e6f-a94d-95dd3f7c7c0e" d="M328.76,428.17c-.05.12-.17.39-.17.5-.14-.02.06-.57.17-.5Z"/>
          <path class="uuid-3cf8dd83-5967-49c1-bdbe-9497e806bdc4" d="M330.75,427.24c.33-.04-.14.33-.15.35-.04.05.09.05.09.07-.01.06-.51,0-.61,0,.2,0,.63-.41.68-.42Z"/>
        </g>
        <g>
          <path class="uuid-8bf3108d-c403-4117-b21e-e25ecd1481dc" d="M330.42,424.47c.02.1-.07.31.09.3-.02.24-.16.46-.31.67-.42.42-.82.5-1.49.53-.13,0-.24-.03-.39.03.06-.24-.05-.48.09-.75.21-.42,1.48-.93,2.01-.78Z"/>
          <path class="uuid-3cf8dd83-5967-49c1-bdbe-9497e806bdc4" d="M328.72,426v-.03c.66-.04,1.07-.11,1.49-.53-.44.6-.74.48-1.49.57Z"/>
          <path class="uuid-8b1c4aad-6767-489a-b411-64f433517830" d="M330.51,424.77c-.16.01-.06-.2-.09-.3.13.04.09.2.09.3Z"/>
          <path class="uuid-a8710fae-5e9c-4480-a3c0-ff207e1b4cfe" d="M330.38,424.84c-.18.14-.25.33-.39.5-.02.03-.59.5-.61.28,0-.06.82-.79.94-.88.06.03.06.05.07.1Z"/>
          <path class="uuid-3cf8dd83-5967-49c1-bdbe-9497e806bdc4" d="M330.38,424.84s-.22.52-.26.58c-.26.35-.88.54-1.4.47.71-.19.84-.05,1.27-.55.14-.16.22-.36.39-.5Z"/>
        </g>
        <path class="uuid-0ec5a616-91a9-48db-86ba-122869aba110" d="M327.49,427.67c-.49.3-.97.48-1.59.33-.02,0-.35-.11-.24-.17,1.05.3,1.34-.22,1.84-.17Z"/>
        <path class="uuid-0ec5a616-91a9-48db-86ba-122869aba110" d="M325.09,425.17c0-.07.02-.05.04-.07.64-.12,1.32.11,1.84.38-.89.32-1.18.05-1.88-.32Z"/>
        <path class="uuid-a8710fae-5e9c-4480-a3c0-ff207e1b4cfe" d="M326.97,425.61c-.74.22-.96.3-1.66,0,.2,0,.38.09.57.1.25.01,1.02-.14,1.09-.1Z"/>
      </g>
      <g>
        <path class="uuid-3cf8dd83-5967-49c1-bdbe-9497e806bdc4" d="M328.8,429.47c.67.04,1.94-.1,2.49,0,.06.12-.07.23-.09.3-.02-.07-.04,0-.04,0-.06,0-.17,0-.22,0-.44-.06-4.73-.15-5.07-.03-.03.01-.11-.02-.13.02.09.67.29,1.35.44,2.02l-.13.1c-.18-.79-.38-1.58-.52-2.38.09-.08,2.32.04,2.67-.02.07-.01.12.02.17-.05l-.02-1.18c.11.19.09,1.18.17,1.23.08.03.24,0,.28,0Z"/>
        <path class="uuid-3cf8dd83-5967-49c1-bdbe-9497e806bdc4" d="M326.75,430.87c-.01.19.01.38.04.57v.52c-.7.2-.47-.75-.66-1.07.04-.04.35,0,.44-.02s.14,0,.17,0Z"/>
        <path class="uuid-4214edfa-e21a-4dfc-9b6b-97c04bb11857" d="M326.88,432.07l.17.93-.09.07c-.08-.01-.18,0-.26,0-.19-.06-.2-.82-.31-.98.12-.12.38,0,.48-.02Z"/>
        <g>
          <path class="uuid-4214edfa-e21a-4dfc-9b6b-97c04bb11857" d="M326.05,431.87l.13-.1c.25,1.15.53,2.29.74,3.45.19.18.16-.04.2-.05.58-.14,2.17.12,2.86-.02l-2.86-.02c-.08-.13-.3-.92-.17-.97l3.12-.05-3.21-.02c-.04-.25-.15-.51-.2-.75-.02-.08-.06-.23.04-.28.08,0,.18-.01.26,0,0,0,.03.06.07.07.9.07,2.16-.12,3.1-.03l-3.08-.1-.17-.93s.18-.07.2-.07c1.19-.06,2.45.06,3.65-.02l-3.82-.05c-.07-.03-.09-.41-.11-.5-.03-.19-.06-.38-.04-.57,1.3-.07,2.61-.01,3.91-.03l.28-1.07c.05,0,.16,0,.22,0l-.98,5.26c.2-1.07.56-2.14.76-3.21.13-.67.1-1.38.26-2.05.02-.07.15-.18.09-.3.04,0,.11-.02.13.02-.26,2-.75,3.97-1.2,5.95l-3.34-.02c-.24-1.19-.56-2.36-.83-3.55Z"/>
          <path class="uuid-8bf3108d-c403-4117-b21e-e25ecd1481dc" d="M325.88,429.74c-.02.07.04.06.04.07.03.13.14.94.17.98s.31,0,.39.02c0,0,.1.03.09.07-.09,0-.39-.02-.44.02.19.31-.04,1.27.66,1.07v-.52c.01.09.04.47.11.5l3.82.05c-1.2.08-2.46-.04-3.65.02-.01,0-.19.07-.2.07-.1,0-.36-.11-.48.02.11.17.11.93.31.98-.11.05-.06.21-.04.28.05.24.16.5.2.75l3.21.02-3.12.05c-.12.04.09.83.17.97l2.86.02c-.69.13-2.28-.12-2.86.02-.04,0-.01.23-.2.05-.21-1.15-.5-2.3-.74-3.45-.14-.67-.35-1.34-.44-2.02.02-.03.1,0,.13-.02Z"/>
          <path class="uuid-a33f525d-8787-4821-851c-b54fddbcc020" d="M331.21,429.77c-.16.67-.13,1.37-.26,2.05-.2,1.07-.56,2.14-.76,3.21l.98-5.26s.02-.07.04,0Z"/>
          <path class="uuid-d14e5bfd-c08a-411f-a11a-91aacea1eb2e" d="M326.97,433.07l.09-.07,3.08.1c-.95-.09-2.2.1-3.1.03-.03,0-.06-.07-.07-.07Z"/>
          <path class="uuid-a8710fae-5e9c-4480-a3c0-ff207e1b4cfe" d="M327.25,434.46s.14.5.09.57c-.08-.04-.13-.56-.09-.57Z"/>
        </g>
        <path class="uuid-3cf8dd83-5967-49c1-bdbe-9497e806bdc4" d="M326.49,430.8c-.08-.01-.36.02-.39-.02s-.15-.86-.17-.98l2.1-.02s-.87.12-.94.15c-.17.07-.64.68-.59.87Z"/>
        <g>
          <path class="uuid-ec897aae-0f78-46ff-a140-384b476814a2" d="M330.94,429.77l-.28,1.07c-1.3.02-2.61-.04-3.91.03-.04,0-.09,0-.17,0,.01-.04-.09-.06-.09-.07-.05-.19.42-.8.59-.87.07-.03.94-.11.94-.15l-2.1.02s-.07,0-.04-.07c.34-.11,4.63-.03,5.07.03Z"/>
          <path class="uuid-4214edfa-e21a-4dfc-9b6b-97c04bb11857" d="M328.34,429.77c.72-.06,1.74.06,2.49,0l-.2.98-4.04.05c-.19-.15.46-.8.57-.83.05-.02,1.09-.19,1.18-.2Z"/>
        </g>
      </g>
    </g>
    <g>
      <path class="uuid-8bf3108d-c403-4117-b21e-e25ecd1481dc" d="M348.82,428.5l-.17-.05c.08.15.31,1.06.15,1.12l-2.53-.07c-.08.06.02.16.02.17-.11.57-.17,1.91.26,2.35.23.23.94.46.96.5.06.11.03,2.22-.04,2.4-.04.1-.21.15-.24.25.17,0,.54-.23.31,0l.42-.02s-.17-.11-.17-.13c-.06-.17-.12-2.42-.04-2.53.02-.03.59-.2.72-.28.58-.38.49-.85.5-1.37.09.03.12-.17.13-.23.02.69.1,1.27-.68,1.73-.1.06-.58.19-.59.22-.17.31.13,1.93.04,2.36.14.29.54.17.79.33h-2.05c.25-.16.6-.02.74-.33.06-.12.11-2.26.04-2.36-.01-.02-.54-.19-.63-.25-.2-.12-.53-.46-.59-.65-.1-.33.05-3.17.24-3.25h2.4s0,.08.02.1Z"/>
      <path class="uuid-b370ea33-1430-45fc-9e18-4a79e4b73bd4" d="M348.82,428.5c.14.25.3,1.8.26,2.1,0,.06-.04.26-.13.23,0-.36-.04-.72-.04-1.08l-.09-.05s-.05.04-.09.03c-.01,0-.03,0-.04,0-.04,0-.09,0-.13,0-.1,0-.19.03-.22.03-.55,0-1.3.03-1.84-.07,0,0-.1-.07-.17-.03h-.04s-.1-.11-.02-.17l2.53.07c.16-.05-.07-.97-.15-1.12l.17.05Z"/>
      <path class="uuid-4214edfa-e21a-4dfc-9b6b-97c04bb11857" d="M346.5,429.7c.53.1,1.28.07,1.84.07l.17,2.03s0,.02,0,.03c0,0-.08.07-.13.13-.41.4-.76.53-1.35.27-.21-.13-.4-.36-.55-.53,0,.23.31.43.55.53.49.3.7.25,1.18-.03.1.06.36-.18.39-.22.55-.62.18-1.58.22-2.28l.09.05c0,.36.05.72.04,1.08,0,.52.07.99-.5,1.37-.13.09-.7.26-.72.28-.07.11-.02,2.36.04,2.53,0,.02.18.13.17.13l-.42.02c.23-.23-.14,0-.31,0,.03-.1.2-.15.24-.25.07-.18.1-2.29.04-2.4-.02-.04-.73-.27-.96-.5-.44-.44-.37-1.78-.26-2.35h.04l.11,2,.07-1.97Z"/>
      <path class="uuid-a8710fae-5e9c-4480-a3c0-ff207e1b4cfe" d="M348.55,429.74c.09.62.28,1.5-.04,2.07l-.17-2.03s.12-.03.22-.03Z"/>
      <path class="uuid-4214edfa-e21a-4dfc-9b6b-97c04bb11857" d="M348.21,432.2c.04-.08.11-.16.17-.23.06-.06.07-.04.13-.13.42-.65.14-1.39.17-2.1.01,0,.03,0,.04,0,0,.82.46,1.89-.52,2.46Z"/>
      <path class="uuid-a33f525d-8787-4821-851c-b54fddbcc020" d="M348.21,432.2c.98-.57.53-1.65.52-2.46.04,0,.06-.04.09-.03-.04.7.34,1.67-.22,2.28-.03.04-.3.28-.39.22Z"/>
      <path class="uuid-ec897aae-0f78-46ff-a140-384b476814a2" d="M346.5,429.7l-.07,1.97-.11-2c.08-.03.17.03.17.03Z"/>
      <path class="uuid-6689356e-bcf7-4e6f-a94d-95dd3f7c7c0e" d="M348.69,429.74c-.04.71.25,1.45-.17,2.1,0,0,0-.02,0-.03.32-.57.13-1.45.04-2.07.04,0,.09,0,.13,0Z"/>
      <path class="uuid-a33f525d-8787-4821-851c-b54fddbcc020" d="M348.21,432.2c-.48.28-.69.34-1.18.03.59.26.95.13,1.35-.27-.06.08-.14.15-.17.23Z"/>
      <path class="uuid-a33f525d-8787-4821-851c-b54fddbcc020" d="M347.03,432.23c-.23-.1-.55-.3-.55-.53.15.17.34.4.55.53Z"/>
      <path class="uuid-6689356e-bcf7-4e6f-a94d-95dd3f7c7c0e" d="M348.38,431.97c.05-.06.13-.13.13-.13-.07.1-.07.08-.13.13Z"/>
    </g>
    <g>
      <g>
        <path class="uuid-61e280b0-67c3-4850-a80d-fa7c7b077842" d="M351.79,437.66s-.17-.03.02-.13l1.38-.03c.13,0,.75.03.79-.05l-.07-1.65h-32.03v1.7h3.34c-.2.01-.41.05-.61.05l.09,1.53,1.81.02.02-1.6c.07,0,.15,0,.22,0,.04.19-.06,1.45,0,1.52.07.08.81-.07.92.08-.26,0-.69-.03-.92,0-.05,0-.15-.02-.17.02v15.87c-.24,0-1.96.03-2.01-.05v-17.32l-2.86-.02v-1.93h32.38l.02,1.92-2.32.08Z"/>
        <path class="uuid-e1f17f6c-1ef7-45af-ba71-590283e8d9c2" d="M351.79,449.39c0,1.85,0,3.7,0,5.55-.07.12-1.72.02-1.97.02l-.04-15.85c.63,0,1.25-.01,1.88.02l.13,10.28Z"/>
        <path class="uuid-e1f17f6c-1ef7-45af-ba71-590283e8d9c2" d="M348.34,449.49h-20.34l-.07,5.48s-1.02.01-1.18.02v-5.53l21.57-.07c.08.04.02.1.02.1Z"/>
        <path class="uuid-a8710fae-5e9c-4480-a3c0-ff207e1b4cfe" d="M349.78,439.09l.04,15.85c-.08,0-.17,0-.26,0v-.03c.09-.01.17.04.22-.05.07-.12.07-2.57,0-2.7-.05-.09-.13-.04-.22-.05,0-4.34.05-8.68.04-13.02.06,0,.12,0,.17,0Z"/>
        <path class="uuid-a33f525d-8787-4821-851c-b54fddbcc020" d="M326.75,439.09v.03c-.02,3.44,0,6.88,0,10.33v5.53c-.06,0-.12,0-.17,0v-15.87s.13,0,.17-.02Z"/>
        <path class="uuid-6689356e-bcf7-4e6f-a94d-95dd3f7c7c0e" d="M349.56,454.92v-2.8c.09.01.17-.04.22.05.07.12.07,2.57,0,2.7-.05.09-.13.04-.22.05Z"/>
        <g>
          <path class="uuid-e1f17f6c-1ef7-45af-ba71-590283e8d9c2" d="M353.19,437.5l-1.38.03c-.19.11-.02.12-.02.13.07,3.9,0,7.82,0,11.72l-.13-10.28c-.62-.03-1.25-.02-1.88-.02-.06,0-.12,0-.17,0-.41,0-.82,0-1.22,0-5.29,0-10.58,0-15.86,0-1.61,0-3.24-.02-4.85,0-.11-.16-.85,0-.92-.08-.06-.06.04-1.32,0-1.52,8.76-.09,17.71.23,26.44,0Z"/>
          <path class="uuid-8b1c4aad-6767-489a-b411-64f433517830" d="M348.38,439.09c-5.29.02-10.58.03-15.86.03v-.03c5.29,0,10.58,0,15.86,0Z"/>
          <path class="uuid-a8710fae-5e9c-4480-a3c0-ff207e1b4cfe" d="M327.67,439.09c1.61-.02,3.24,0,4.85,0v.03h-5.77v-.03c.23-.03.66,0,.92,0Z"/>
          <path class="uuid-4214edfa-e21a-4dfc-9b6b-97c04bb11857" d="M329.09,438.2h19.45c.07.27.04.53,0,.8l-.02-.72c-6.44-.14-12.96.03-19.42-.08Z"/>
        </g>
        <path class="uuid-e1f17f6c-1ef7-45af-ba71-590283e8d9c2" d="M326.53,437.5l-.02,1.6-1.81-.02-.09-1.53c.2,0,.42-.04.61-.05.42-.02.89,0,1.31,0Z"/>
        <g>
          <path class="uuid-ab47f65f-0775-4520-b815-f46fa0f67a05" d="M349.6,439.09c0,4.34-.04,8.68-.04,13.02v2.83c-.16,0-1.06.11-1.14-.02-.13-1.64.17-3.44,0-5.06-.01-.11-.04-.27-.09-.38,0,0,.06-.06-.02-.1l-21.57.07c0-3.44-.02-6.88,0-10.33h5.77c5.29,0,10.58-.01,15.86-.03.41,0,.82,0,1.22,0Z"/>
          <g>
            <path class="uuid-e1f17f6c-1ef7-45af-ba71-590283e8d9c2" d="M340.47,446.66c.05.46-.04.95,0,1.42l-1.2.05-.02-1.97h1.11s.1.44.11.5Z"/>
            <path class="uuid-8b1c4aad-6767-489a-b411-64f433517830" d="M330.55,442.59h.13c-.02,1.84.01,3.68,0,5.51l1.62-.03v-7.33l-1.59-.05s-.02.48-.02.57h-.13c0-.09-.02-.61.02-.63l1.86.02v7.53h-1.88c.01-1.86-.01-3.72,0-5.58Z"/>
            <path class="uuid-3cf8dd83-5967-49c1-bdbe-9497e806bdc4" d="M339.25,446.16l.02,1.97,1.2-.05c-.04-.46.05-.96,0-1.42l.11-6.06.02,7.58h-1.49v-7.56l.79.03-.66.07c-.09,1.81-.02,3.63,0,5.45Z"/>
            <path class="uuid-3cf8dd83-5967-49c1-bdbe-9497e806bdc4" d="M348.01,440.59l.72.05-.11,7.14-.02-7.01c-.07-.14-.35-.08-.52-.07l-.02,7.14-.04-7.26Z"/>
            <path class="uuid-8b1c4aad-6767-489a-b411-64f433517830" d="M327.95,440.63l.02,3.58-.02,3.61c-.11-2.39-.11-4.8,0-7.19Z"/>
            <path class="uuid-a8710fae-5e9c-4480-a3c0-ff207e1b4cfe" d="M330.68,441.26c-.02.44,0,.89,0,1.33h-.13c0-.44-.02-.89,0-1.33h.13Z"/>
            <g>
              <path class="uuid-8b1c4aad-6767-489a-b411-64f433517830" d="M335.34,440.59l.07,7.48c.05.07,1.3.09,1.35,0v-7.43h1.66l-.07,7.58-3.04-.05.02-7.58Z"/>
              <polygon class="uuid-e1f17f6c-1ef7-45af-ba71-590283e8d9c2" points="336.91 440.66 338.29 440.71 338.22 448.12 336.89 448.1 336.91 440.66"/>
            </g>
            <g>
              <polygon class="uuid-3cf8dd83-5967-49c1-bdbe-9497e806bdc4" points="343.64 440.59 345.19 440.61 345.12 448.22 343.57 448.17 343.64 440.59"/>
              <polygon class="uuid-e1f17f6c-1ef7-45af-ba71-590283e8d9c2" points="343.73 440.69 345.06 440.71 345.08 448.09 343.7 448.07 343.73 440.69"/>
            </g>
            <path class="uuid-e1f17f6c-1ef7-45af-ba71-590283e8d9c2" d="M330.68,442.59c0-.44-.02-.89,0-1.33,0-.09-.02-.54.02-.57l1.59.05v7.33l-1.62.03c.01-1.84-.02-3.68,0-5.51Z"/>
            <g>
              <polygon class="uuid-8b1c4aad-6767-489a-b411-64f433517830" points="341.19 440.59 342.92 440.64 342.85 448.22 341.13 448.17 341.19 440.59"/>
              <path class="uuid-e1f17f6c-1ef7-45af-ba71-590283e8d9c2" d="M341.28,440.69h1.49c.14,2.44.05,4.93.04,7.39l-1.55-.02.02-7.38Z"/>
            </g>
            <g>
              <path class="uuid-8b1c4aad-6767-489a-b411-64f433517830" d="M329.96,440.59l.11,7.58c-.05.08-1.74.07-1.79,0l-.04-7.53,1.73-.05Z"/>
              <polygon class="uuid-4214edfa-e21a-4dfc-9b6b-97c04bb11857" points="328.43 440.66 329.94 440.71 329.87 448.12 328.37 448.07 328.43 440.66"/>
            </g>
            <g>
              <polygon class="uuid-3cf8dd83-5967-49c1-bdbe-9497e806bdc4" points="345.82 440.59 347.46 440.64 347.4 448.22 345.76 448.17 345.82 440.59"/>
              <polygon class="uuid-e1f17f6c-1ef7-45af-ba71-590283e8d9c2" points="345.91 440.69 347.33 440.71 347.31 448.09 345.89 448.07 345.91 440.69"/>
            </g>
            <g>
              <path class="uuid-8b1c4aad-6767-489a-b411-64f433517830" d="M334.51,440.59c.07,0,.09.05.2.02v7.59l-1.73.02-.02-7.58c.47.02,1.11-.07,1.55-.05Z"/>
              <polygon class="uuid-e1f17f6c-1ef7-45af-ba71-590283e8d9c2" points="333.06 440.69 334.61 440.71 334.55 448.12 333.04 448.07 333.06 440.69"/>
            </g>
          </g>
        </g>
        <g>
          <path class="uuid-08fabfd4-0a2c-4b95-b350-0fea8f39a37d" d="M353.19,437.5c-8.73.23-17.67-.09-26.44,0-.07,0-.15,0-.22,0-.43,0-.89-.02-1.31,0h-3.34v-1.7h32.03l.07,1.65c-.04.08-.65.05-.79.05Z"/>
          <polygon class="uuid-4214edfa-e21a-4dfc-9b6b-97c04bb11857" points="322.18 436 353.65 436 353.67 437.28 322.14 437.3 322.18 436"/>
        </g>
      </g>
      <g>
        <path class="uuid-3cf8dd83-5967-49c1-bdbe-9497e806bdc4" d="M345.02,422.71c.02,4.2-.01,8.4,0,12.61-.05.09-.84.05-1.01.05v-.1c.13,0,.66.04.7-.05-.07-2.28-.05-4.56-.04-6.84,0-1.6,0-3.2,0-4.8.55.1.06-.67.35-.87Z"/>
        <path class="uuid-a33f525d-8787-4821-851c-b54fddbcc020" d="M344.01,435.26c-3.01.16-8.47.26-11.41,0-.37-.03-.16-.08-.17-.08-.06-.03-.08,0-.13-.05.04,0,.04,0,.04-.03.07.04.17,0,.17,0,3.78.27,7.94-.13,11.75.03h.2s.01-.1.02-.13c.3-1.23,0-4.21,0-5.63.18.02.12-.03.13-.12.04-.29-.07-.6.04-.88,0,2.28-.03,4.56.04,6.84-.04.09-.57.04-.7.05Z"/>
        <path class="uuid-4214edfa-e21a-4dfc-9b6b-97c04bb11857" d="M333.7,421.51c0,1.35,0,2.71,0,4.06.01,2.88-.1,5.75,0,8.63-.18.04-.5.41-.57.45-.04.02-.11.03-.13,0,.02-1.07,0-2.14,0-3.21-.02-3.48.01-6.96,0-10.44l.7.52Z"/>
        <path class="uuid-3cf8dd83-5967-49c1-bdbe-9497e806bdc4" d="M332.91,431.43c0,.69.17,2.69,0,3.21-.03.08-.43.38-.57.42.09-2.03-.02-4.11,0-6.15,0-.03.13,0,.13-.03.03-2.79-.08-5.57-.09-8.36l.52.43c-.02,3.49.02,6.98,0,10.48Z"/>
        <path class="uuid-4214edfa-e21a-4dfc-9b6b-97c04bb11857" d="M344.49,429.37c0,1.42.3,4.4,0,5.63-.19.02-.51-.29-.52-.38.11-2.45.02-4.9,0-7.34-.01-2.07,0-4.14,0-6.21-.07-.08-.1-.02-.17.02l.09-.17c.3.04.38-.22.61-.28,0,2.91,0,5.83,0,8.74Z"/>
        <path class="uuid-3cf8dd83-5967-49c1-bdbe-9497e806bdc4" d="M343.88,420.91l-.09.17c-.22.11-.32.4-.66.4-.03,0-.27-.07-.28-.07-2.7-.03-5.41.05-8.11.07-.25,0-.75-.03-.96,0l-.63-.5.04-.07h10.68Z"/>
        <g>
          <path class="uuid-8bf3108d-c403-4117-b21e-e25ecd1481dc" d="M344.67,423.57c0,1.6,0,3.2,0,4.8-.11.28,0,.59-.04.88-.01.09.04.13-.13.12,0-2.91,0-5.83,0-8.74-.23.06-.31.32-.61.28h-10.68l-.04.07.63.5s0,.05-.09.03l-.7-.52c.01,3.48-.02,6.96,0,10.44h-.09c.02-3.49-.02-6.98,0-10.48l-.52-.43c0,2.79.12,5.57.09,8.36,0,.03-.13,0-.13.03-.02,2.04.09,4.11,0,6.15,0,.01,0,.02,0,.03,0,.02,0,.04-.04.03,0,0-.11.02-.13-.02v-14.89l12.48.02c.17.1.02,2.93.02,3.33Z"/>
          <polygon class="uuid-3cf8dd83-5967-49c1-bdbe-9497e806bdc4" points="332.54 420.41 344.49 420.46 344.03 420.84 332.93 420.88 332.5 420.48 332.54 420.41"/>
        </g>
        <path class="uuid-6689356e-bcf7-4e6f-a94d-95dd3f7c7c0e" d="M343.97,427.27c.02,2.44.11,4.9,0,7.34.02.09.34.4.52.38,0,.04.02.11-.02.13h-.2l-.42-.4-10.79-.03-.55.4s-.1.04-.17,0c0-.01,0-.02,0-.03.14-.04.54-.33.57-.42.17-.52,0-2.53,0-3.21h.09c0,1.07.02,2.15,0,3.21.02.03.09.02.13,0,.06-.04.38-.41.57-.45.04,0,.09,0,.09.03l-.5.4h10.31l-.46-.4s.03-.05.04-.07c0,0,0-.04.04-.03l.57.45.09-.03c-.12-2.42,0-4.85,0-7.28h.09Z"/>
        <path class="uuid-4214edfa-e21a-4dfc-9b6b-97c04bb11857" d="M344.27,435.13c-3.82-.17-7.98.24-11.75-.03l.55-.4,10.79.03.42.4Z"/>
        <path class="uuid-d14e5bfd-c08a-411f-a11a-91aacea1eb2e" d="M343.97,427.27h-.09c0-2.04,0-4.07,0-6.11l-.66.45s-.14-.04-.09-.13c.34,0,.43-.29.66-.4.07-.04.1-.1.17-.02,0,2.07-.01,4.14,0,6.21Z"/>
        <path class="uuid-4214edfa-e21a-4dfc-9b6b-97c04bb11857" d="M343.88,427.27c0,2.42-.12,4.85,0,7.28l-.09.03-.57-.45c0-2.83,0-5.66,0-8.49,0-1.24.11-2.64,0-3.86,0-.05.01-.12,0-.17l.66-.45c0,2.04,0,4.08,0,6.11Z"/>
        <polygon class="uuid-4214edfa-e21a-4dfc-9b6b-97c04bb11857" points="343.14 434.23 343.59 434.63 333.28 434.63 333.78 434.23 343.14 434.23"/>
        <g>
          <path class="uuid-b16b6d0a-889e-4561-b41e-1af953788e20" d="M343.14,421.48c-.05.09.09.13.09.13.01.04,0,.11,0,.17v3.86c0,2.83,0,5.66,0,8.49-.05,0-.04.02-.04.03l-9.44-.05c0-2.85-.01-5.7,0-8.54,0-1.34-.02-2.69.02-4.03l9.33-.02c-2.78-.08-5.57-.06-8.35-.05,2.7-.01,5.41-.1,8.11-.07.02,0,.26.07.28.07Z"/>
          <g>
            <path class="uuid-bc4bfd71-5d44-4345-bb62-158e4863055c" d="M334.75,421.48c2.78,0,5.57-.03,8.35.05l-9.33.02c-.04,1.34-.02,2.69-.02,4.03h-.04c0-1.35,0-2.71,0-4.06.09.02.08-.03.09-.03.21-.03.71,0,.96,0Z"/>
            <path class="uuid-8b1c4aad-6767-489a-b411-64f433517830" d="M343.18,434.17s-.04.04-.04.07h-9.35s-.05-.04-.09-.03c-.1-2.88.01-5.75,0-8.63h.04c-.01,2.85,0,5.7,0,8.54l9.44.05Z"/>
            <path class="uuid-0ec5a616-91a9-48db-86ba-122869aba110" d="M334.7,427.74c0,1.92.05,3.84-.07,5.76-.11-1.92-.08-3.84-.07-5.76h.13Z"/>
            <path class="uuid-6689356e-bcf7-4e6f-a94d-95dd3f7c7c0e" d="M334.66,424.04h-.04c.01-.59-.01-1.19,0-1.78l.11-.05h7.82l-7.82.07c-.11.04-.07,1.56-.07,1.77Z"/>
            <path class="uuid-8bf3108d-c403-4117-b21e-e25ecd1481dc" d="M334.7,427.74h-.13c0-1.23.02-2.46.04-3.7h.04c0,1.23.04,2.46.04,3.7Z"/>
            <path class="uuid-08fabfd4-0a2c-4b95-b350-0fea8f39a37d" d="M343.22,425.64v-3.86c.11,1.22,0,2.62,0,3.86Z"/>
            <g>
              <path class="uuid-4214edfa-e21a-4dfc-9b6b-97c04bb11857" d="M341.91,429.2c-.1-.09-.3-.18-.46-.17-.41.04-1.41,1.67-1.68,2-.38.43-2.58,2.36-3.12,2.4-.09,0-.25-.1-.35-.1-.13,0-.74.05-.79,0-.03-.02-.13-.59-.11-.62.05-.09,1.97-.74,2.1-1.07-.25.14-2,1.09-2.14,1-.01-.05-.09-.25-.09-.27.02-.05.98-.38,1.11-.45,1.09-.52,2.27-1.29,3.08-2.05.19-.18,1.02-1.23,1.11-1.25.12-.03.42.09.55.12-.69,1.05-1.64,1.99-2.8,2.76.02.1.06.04.11.02.34-.14,1.58-1.29,1.86-1.58.37-.4.6-.95,1.09-1.23-.14-.05-.56-.06-.68-.12-.13-.06.03-.16-.04-.17-.02,0-.2.14-.39,0-.01.11.23.06.24.15,0,.06-.68.82-.79.93-1.09,1.15-2.67,2.13-4.35,2.75l-.02-.07c.04-.16-.18-.41-.13-.55.02-.05,1.07-.52,1.25-.62.92-.53,1.77-1.11,2.51-1.78.15-.14.77-.88.87-.92.01,0,.03,0,.04,0,0,0,.1.08.17.02l-.02-.15c.53.23,1.2.25,1.59.62.03.03.24.34.26.38Z"/>
              <path class="uuid-8bf3108d-c403-4117-b21e-e25ecd1481dc" d="M340.95,424.47c-.11-.18-.09-.4-.26-.62-.42-.55-1.75-.75-2.51-.58.1.11.44.08.61.13.55.16,1.03.61,1.11,1.05-.15-.08-.17-.28-.26-.4-.85-1.07-2.7-.75-2.93.47.79-1.02,2.48-.25,3.36.28.14.09.27.24.48.28,0,.08-.19,0-.22-.02-.76-.32-1.44-.98-2.47-1-.5-.01-1.16.33-1.14.73.88-1.01,2.15.1,3.12.45-.61-.09-1.79-.89-2.38-.82-.71.09-1.61,1.51-.85,1.95,0-.77.09-1.83,1.46-1.62.46.07.95.36,1.07.72.08.23-.1.65.33.68.6.05.64-.78.85-1.07,0,.66-.89,1.11.44,1.28-.29.17-.8-.28-.85-.28-.43-.04-.06.73.11.85.2.14.47.06.66.23-.33-.03-.45-.16-.79,0,.25-.2-.02-.26-.13-.47-.07-.13-.09-.32-.2-.45-.05,0-.29.59-.52.57.07-.15.25-.25.33-.4.19-.37-.18-.18-.26-.38-.11-.26.09-.58-.26-.9-.26-.24-1.13-.45-1.51-.32-.21.07-.47.66-.46.82,0,.01.1.02.13.07.01.02-.15.03-.17.1-.05.14-.1.48.17.5-.4,0,0,.87.2.92.1.03.66-.04.79-.07.14-.03.35-.21.5-.18-.26.22-.63.23-.96.33.03.27.14.85-.09,1.07-.11.1-.58.19-.76.28-.89.44-.87,1.15-.85,1.88.05.08,1.41-.78,1.51-.85.26-.18,1.92-1.54,1.94-1.68,0-.03-.31-.35-.35-.47-.03-.07-.15-.68-.13-.72.2.12.11.45.17.62.03.09.28.47.37.48.08.01.05-.09.26-.03.07.02.18.11.15.17-.09.02-.27-.1-.28-.1-.06.01-.63.69-.76.82-.61.54-1.35,1.06-2.08,1.52-.45.29-1.72.69-1.46,1.22.06.06.08.03.15.02.09-.02.7-.33.83-.4,1.44-.73,2.69-1.77,3.65-2.86.01.01.07,0,.04.07-.1.04-.72.78-.87.92-.74.67-1.59,1.26-2.51,1.78-.17.1-1.22.56-1.25.62-.05.14.17.39.13.55-.03.04-.1.08-.13.1-.11-.41-.45-1.06-.02-1.4.07-.05.38-.15.42-.22.07-.16-.03-.76,0-1,.05-.37.26-.8.63-1.05.42-.28,1.1-.27,1.2-.68.02-.09.05-.66-.02-.68-.1-.03-.25.15-.55-.12-.06-.05-.73-1.19-.74-1.27-.07-.53.25-.64.35-.97.12-.41-.09-.68.31-1.13.36-.41,1.54-.8,2.16-.75,1,.08,2.17.54,1.99,1.43Z"/>
              <path class="uuid-4214edfa-e21a-4dfc-9b6b-97c04bb11857" d="M340.34,425.07v.03c-.21.29-.25,1.11-.85,1.07-.43-.03-.25-.45-.33-.68-.12-.35-.61-.64-1.07-.72-1.38-.22-1.47.84-1.46,1.62-.76-.43.14-1.86.85-1.95.59-.07,1.77.72,2.38.82-.97-.35-2.25-1.46-3.12-.45-.02-.4.63-.74,1.14-.73,1.03.02,1.71.68,2.47,1Z"/>
              <path class="uuid-4214edfa-e21a-4dfc-9b6b-97c04bb11857" d="M339.77,428.07c-.08.15-.23-.07-.26.02,0,.02.25.14.31.18-.96,1.09-2.2,2.13-3.65,2.86-.13.07-.74.38-.83.4-.07.02-.1.05-.15-.02-.25-.52,1.01-.93,1.46-1.22.73-.46,1.46-.97,2.08-1.52.14-.12.7-.8.76-.82.02,0,.19.12.28.1Z"/>
              <path class="uuid-d14e5bfd-c08a-411f-a11a-91aacea1eb2e" d="M339.77,431.03c-.57.7-1.37,1.44-2.21,1.97-.68.43-1.11.62-2.05.5-.08-.01-.04-.18-.2-.05-.06-.11.02-.21,0-.33-.05-.26-.3-.63-.09-.82.03-.02.1-.06.13-.1l.02.07c1.67-.62,3.25-1.6,4.35-2.75.1-.11.79-.88.79-.93-.01-.09-.25-.04-.24-.15.19.14.37,0,.39,0,.07,0-.09.11.04.17.12.05.53.07.68.12-.49.28-.72.84-1.09,1.23-.28.29-1.51,1.44-1.86,1.58-.05.02-.09.08-.11-.02,1.15-.78,2.11-1.72,2.8-2.76-.13-.03-.42-.14-.55-.12-.09.02-.93,1.07-1.11,1.25-.81.76-1.99,1.53-3.08,2.05-.14.07-1.1.4-1.11.45,0,.01.08.22.09.27.14.09,1.89-.86,2.14-1-.13.33-2.05.98-2.1,1.07-.02.03.08.59.11.62.05.05.66,0,.79,0,.09,0,.26.11.35.1.55-.04,2.75-1.96,3.12-2.4Z"/>
              <path class="uuid-8bf3108d-c403-4117-b21e-e25ecd1481dc" d="M341.91,429.2c.1.2.15.42.22.63l-.11,3.6c-.08-.04-.17-.08-.2-.15-.11-.33.12-1.35.13-1.77,0-.37.07-2.08-.13-2.3-.08-.09-.28-.14-.42-.12-.18.04-1.37,1.57-1.46,1.78-.07.16-.02.48-.17.57l.09-.43-.09.02c.27-.33,1.27-1.96,1.68-2,.16-.02.36.08.46.17Z"/>
              <path class="uuid-8bf3108d-c403-4117-b21e-e25ecd1481dc" d="M340.99,424.74l.04-.17c.35.42.76.5.57,1.15-.03.1-.26.35-.26.37-.01.09.23.37.26.5.11.42-.07.99-.61,1.2l.26-.23c.26-.4.27-.74.09-1.17-.12-.28-.56-.57-.52-.83l.42.52c.47-.55.23-.89-.24-1.33Z"/>
              <path class="uuid-d14e5bfd-c08a-411f-a11a-91aacea1eb2e" d="M342.17,429.84c-.06-.23-.04-.45-.26-.63-.02-.04-.23-.36-.26-.38-.4-.37-1.07-.39-1.59-.62l.02.15c-.08.06-.17-.02-.17-.02.2-.11,0-.13-.09-.22.3.02.86.11,1.2.22.36.12.72.3.94.55h-.17c.31.31.44.65.48,1.03l-.09-.08Z"/>
              <path class="uuid-d14e5bfd-c08a-411f-a11a-91aacea1eb2e" d="M340.19,431.77l.42,1.62c.06.06.96-.02,1.11.02.09.02.1.08.04.1-.06.02-1.15.04-1.25-.02s-.38-1.51-.33-1.72Z"/>
              <path class="uuid-d14e5bfd-c08a-411f-a11a-91aacea1eb2e" d="M338.31,432.8v.6c.14.02,1.14-.06,1.11.08l-1.25.05.13-.73Z"/>
              <path class="uuid-8bf3108d-c403-4117-b21e-e25ecd1481dc" d="M339.62,432.53l-.13.9c-.16-.29-.03-.63.13-.9Z"/>
              <path class="uuid-4214edfa-e21a-4dfc-9b6b-97c04bb11857" d="M342.17,429.84h-.04c-.07-.21-.12-.43-.22-.63.22.19.2.4.26.63Z"/>
              <path class="uuid-0ec5a616-91a9-48db-86ba-122869aba110" d="M339.49,427.07c0,.14-.05.19.13.3-.21,0-.27-.2-.13-.3Z"/>
              <g>
                <path class="uuid-4214edfa-e21a-4dfc-9b6b-97c04bb11857" d="M339.38,426.44c-.07.06-.55.37-.57.4-.02.03.1.64.13.72.04.11.35.43.35.47-.02.15-1.68,1.5-1.94,1.68-.1.07-1.45.93-1.51.85-.02-.73-.04-1.45.85-1.88.18-.09.66-.18.76-.28.23-.22.12-.79.09-1.07.33-.1.71-.11.96-.33-.16-.03-.36.15-.5.18-.13.03-.69.09-.79.07-.2-.05-.59-.92-.2-.92-.27-.02-.22-.35-.17-.5.02-.07.19-.08.17-.1-.03-.05-.13-.05-.13-.07-.02-.16.25-.74.46-.82.38-.13,1.25.08,1.51.32.35.32.15.64.26.9.08.2.45.01.26.38Z"/>
                <path class="uuid-a8710fae-5e9c-4480-a3c0-ff207e1b4cfe" d="M337.72,429.04c.28-.27.69-.54-.07-.57,0-.16.49.03.5.05.11.19-.29.4-.44.52Z"/>
                <path class="uuid-8bf3108d-c403-4117-b21e-e25ecd1481dc" d="M337.13,426.94c.07-.02.35.03.42.08,0,.11-.7,0-.42-.08Z"/>
                <path class="uuid-8bf3108d-c403-4117-b21e-e25ecd1481dc" d="M337.39,425.17l.63.15c-.13.1-.62,0-.63-.15Z"/>
                <path class="uuid-a8710fae-5e9c-4480-a3c0-ff207e1b4cfe" d="M337.72,429.04c-.1.1-.24.3-.44.32.09-.15.32-.23.44-.32Z"/>
              </g>
              <g>
                <path class="uuid-4214edfa-e21a-4dfc-9b6b-97c04bb11857" d="M340.95,424.47c.04.06.05.05.09.1l-.04.17s-.1-.11-.13-.13c-.11-.09-.13-.29-.5-.17-.13.04-.06.13-.07.13-.07.08-.1.18-.22.23-.89-.53-2.58-1.31-3.36-.28.22-1.22,2.07-1.53,2.93-.47.1.12.11.32.26.4-.09-.44-.57-.89-1.11-1.05-.17-.05-.51-.02-.61-.13.76-.17,2.09.03,2.51.58.17.22.16.44.26.62Z"/>
                <path class="uuid-72f442f5-6ca9-4d3e-a28c-8ce4eeecae82" d="M340.86,424.61c-.21-.12-.34-.22-.57-.03,0,0-.06-.09.07-.13.37-.12.39.08.5.17Z"/>
                <path class="uuid-d14e5bfd-c08a-411f-a11a-91aacea1eb2e" d="M339.79,423.61c.15-.04.51.1.59.22-.24-.02-.48-.28-.68-.05-.05-.04.05-.16.09-.17Z"/>
              </g>
            </g>
          </g>
        </g>
      </g>
    </g>
  </g>
</svg>