<?xml version="1.0" encoding="UTF-8"?>
<svg id="Laag_2" data-name="Laag 2" xmlns="http://www.w3.org/2000/svg" viewBox="0 0 411.57 531.06">
  <defs>
    <style>
      .cls-1 {
        fill: #134b84;
      }

      .cls-2 {
        fill: #3e95c4;
      }

      .cls-3 {
        fill: #94d4ed;
      }

      .cls-4 {
        fill: #cbe8f1;
      }

      .cls-5 {
        fill: #4aaed7;
      }

      .cls-6 {
        fill: #68c7e7;
      }

      .cls-7 {
        fill: #1a3b6c;
      }

      .cls-8 {
        fill: #233260;
      }

      .cls-9 {
        fill: #1479b3;
      }

      .cls-10 {
        fill: #296bb0;
      }

      .cls-11 {
        fill: #fcfcfe;
      }

      .cls-12 {
        fill: #7aabd8;
      }

      .cls-13 {
        fill: #2785c7;
      }

      .cls-14 {
        fill: #2d84b3;
      }
    </style>
  </defs>
  <g id="Generatief_object" data-name="Generatief object">
    <g>
      <path class="cls-7" d="M433.39,482.44l30.61.64-1.29,1.29c-66.02-1.14-132.12-.7-198.16-.64-37.77.03-75.62.68-113.42.64-66.01-.06-132.11-1.3-198.16-.64-.97-1.63.36-1.12,1.29-1.29,13.03-2.37,42.74.02,57.67,0,141.1-.21,280.55-1.08,421.45,0Z"/>
      <path class="cls-6" d="M292.26,513.37c-57.71-.6-115.75,1.47-173.35-1.29,1.82-.6,3.46-.62,4.51-2.58,54.44-.62,108.93.55,163.36.64.51,0,4.18-.2,3.54-1.93.6.81.71,3.84,1.93,5.16Z"/>
      <path class="cls-7" d="M268.42,494.03c1.7.01,6.34,1.27,8.06,1.29,46.45.41,92.78.37,139.19.64-45.8.6-91.77,1.13-137.58,1.29-47.03.16-94.12.3-141.13-.64-13.63-.27-27.35.18-40.92-1.29,15.39,1.09,30.84-.99,46.08-1.29,41.98-.83,84.3-.29,126.3,0Z"/>
      <path class="cls-7" d="M148.56,488.24c39.73-.02,79.47-.16,119.22,0,31.78.12,63.63-.66,95.37-.64v1.29c-30.9.44-61.9.94-92.8,1.29-40.99.47-82.07.21-123.08,0-30.02-.15-60.19-1.22-90.22-1.29v-1.29c30.47-.06,61.11.66,91.51.64Z"/>
      <path class="cls-7" d="M292.26,513.37c14.29.15,39.01-1.23,51.88.64.74.11,2.35-.13,1.93,1.29-93.31.31-186.74,2.1-280-.97,0-2.56,46.5.78,51.23-.32.8-.19.74-1.65,1.61-1.93,57.6,2.76,115.64.69,173.35,1.29Z"/>
      <path class="cls-5" d="M127.93,502.41c54.29.19,108.69.11,163.04.64-1.87,1.35-3.09-.19-2.58,3.22l-164.33.64c.34-1.31.25-2.61,1.29-3.87.13,0,2.21-.65,2.58-.64Z"/>
      <path class="cls-7" d="M288.39,506.28c1.01.23,1.4,1.21,1.93,1.93.63,1.74-3.04,1.93-3.54,1.93-54.42-.1-108.92-1.27-163.36-.64-.37-1.22.43-1.77.64-2.58l164.33-.64Z"/>
      <path class="cls-3" d="M433.39,482.44c-140.89-1.08-280.34-.21-421.45,0l245.84-3.22,175.6,3.22Z"/>
      <path class="cls-6" d="M278.08,497.26l-.64,3.22c-47.55-.86-95.53-.42-143.06,0l2.58-3.87c47.01.94,94.1.8,141.13.64Z"/>
      <path class="cls-6" d="M270.35,490.17c-2.32,1.09-2.09,1.19-1.93,3.87-42-.29-84.32-.83-126.3,0l5.16-3.87c41.01.21,82.09.47,123.08,0Z"/>
      <path class="cls-6" d="M264.55,483.72l3.22,4.51c-39.74-.16-79.48-.02-119.22,0l2.58-3.87c37.79.03,75.65-.61,113.42-.64Z"/>
      <path class="cls-8" d="M134.38,500.48c47.53-.42,95.51-.86,143.06,0,.08,0,.5,1.28.97,1.29,13.1.25,26.22-.22,39.31-.64.97,1.63-.36,1.12-1.29,1.29-7.39,1.34-17.7-1.41-25.45.64-54.35-.53-108.74-.46-163.04-.64v-.64c1.33-.01,4.95-1.28,6.44-1.29Z"/>
      <path class="cls-7" d="M16.13,495.32c13.94,2.04,28.32-.98,42.21,1.61l-20.94.32-21.27-1.93Z"/>
      <path class="cls-1" d="M93.78,501.77v.64l-67.02-.32c22.32-.76,44.69-.09,67.02-.32Z"/>
      <path class="cls-12" d="M57.05,487.59v1.29c-11.58-.03-23.22-.17-34.8,0v-.64c11.54-1.11,23.22-.62,34.8-.64Z"/>
      <path class="cls-10" d="M22.25,488.24v.64c-9.35.14-18.99,1.59-28.35.32l28.35-.97Z"/>
      <path class="cls-12" d="M127.93,501.77v.64c-.37,0-2.44.64-2.58.64-10.46-.04-21.06-.59-31.58-.64v-.64c11.37-.12,22.78.11,34.15,0Z"/>
      <path class="cls-12" d="M351.22,501.77c5.46.19,10.99-.41,16.43.32-5.17.61-11.32.75-16.43-.32Z"/>
      <path class="cls-12" d="M363.14,488.88v-1.29c3.08,0,6.02.29,9.02.97,0,.54-8,.31-9.02.32Z"/>
    </g>
    <path class="cls-11" d="M23.54,391.57c3.52,8.75,14.63,48.33,16.11,57.67,2.26,14.26-3.81,15.86-16.11,19.98-1.64-7.41,5.35-11.25,9.67-16.11-2.37-1.46-9,8.68-10.31,5.16-1.34-7.02,2.86-10.1,5.8-15.47l-6.44,5.16c.7-6.23.22-10.47,4.51-15.47l-1.29-.64c-3.52,10.82-4.56-.87-6.12-.32,1.14,4.99,3.13,9.16,2.26,14.5l-5.16-3.22c4.94,5.22,5.95,8.83,5.16,16.11l-8.38-5.16c4.7,5.5,10.13,6.72,8.38,15.47-6.57-2.4-16.88-7.27-16.75-16.11.05-3.22,15.29-59.32,16.75-62.19.04-.07.88-.49.97-1.29,0,.84.91,1.8.97,1.93Z"/>
    <g>
      <path class="cls-7" d="M383.77,247.87c-7.57.46-12.04-2.65-18.37-6.44-31.1-18.65-62.84-43.98-93.44-64.44-20.5-13.71-41.19-27.16-61.86-40.6-55.21,31.68-106.16,70.17-158.85,105.68-1.98-4.01-8.65.97-12.24.64,56.01-40.24,113.21-78.81,170.45-117.28l173.35,120.51c.49-2.42-2.66-3.56-3.87-5.16l-169.48-116.64L36.43,242.07c-4.77,1.39-8.02,15.68-7.73,1.93l181.4-121.79,170.12,117.28c3.01,2.91,4.22,3.65,3.54,8.38Z"/>
      <path class="cls-7" d="M116.98,176.98l-1.93-30.61-22.23-.97-.64,50.91c9.43-5.21,17.89-12.03,26.74-18.04,29.84-20.26,60-40.1,89.25-61.22,4.64-.76,65.4,47.01,69.6,47.04,3.49.02.1-5.35,2.58-6.44,1.67-.74,9.27.74,10.96,0,2.05-.9-.11-5.55,1.93-6.44,4.15-1.82,8.06-.53,8.06,4.51-2.42,1.54-.33-2.34-2.26-3.22-2.95-1.36-6.49.3-5.48,4.19,1.29,1.68,5.68.85,7.73.97,4.29.24,20.21-1.11,21.91,1.29l-42.53.32,38.99.97.64,1.93c-8.31-1.17-3.16,4.96-4.51,9.67-3.04-.61-.82-7.43-2.58-8.38-1.57-.85-31.65-.13-32.54,2.26l38.99,27.39c1.54-8.22-1.18-17.65.97-25.78,2.49,6.54-1.15,20.41.64,26.1,1.2,3.8,58.75,38.47,65.41,45.43,1.15,1.22.45,10.15-.32,10.96-1.64-5.02,1.15-8.9-4.19-12.24l-172.06-118.57L28.69,242.07c.21-.95-.35-1.81.97-2.58l60.25-40.92c-2.51-9.71,3.57-45.54.64-52.2-1.24-2.82-6.42,2.81-5.16-6.77l35.44-.32-34.15-1.61c2.12-6.04,10.94-20.91,14.82-26.42l-11.6,24.17,28.35.64-15.47-26.74c.1-.09-.23-1.25.32-1.29l20.3,31.25v3.22l-36.73,1.29,34.8.64c-.38,2.1-3.54-.06-4.51,1.93-1.58,3.26,1.2,25.32,0,30.61Z"/>
      <path class="cls-3" d="M386.34,249.8c-.72,1.78-3.06,0-3.22,0,.96.26,1.75-.35,1.29-1.29-.11-.23.08-.75-.64-.64.67-4.72-.54-5.47-3.54-8.38l-170.12-117.28L28.69,244c.01-.61-.12-1.39,0-1.93l181.4-123.08,172.06,118.57c5.33,3.34,2.55,7.23,4.19,12.24Z"/>
      <path class="cls-5" d="M383.77,247.87c.72-.1.53.42.64.64l-30.29.97v87.64l6.44.97c.07.64.68.72.64,1.29-8.67-.35-17.76-.56-26.42-.64.58.08.7-.71,1.29-.64.67.07,1.56,1.36,2.58.32l.32-20.94,1.29,20.62,12.57-.97c-.11-4.4.15-8.83,0-13.21l.64-74.43c-.45-1.2-5.61-.27-7.09-.32v-1.29c9.19-.04,18.46.16,27.71-.32l-21.59-13.85-285.15.64c.07-.03.4-1.13.97-1.29h282.9c-2.95-2.82-6.66-4.77-9.99-7.09-31.28-21.83-62.84-43.5-94.73-64.44-10-6.57-21.93-15.91-32.22-21.27-1.2-.62-2.55-1.64-3.54-2.58-3.88-.67-46.45,28.06-52.52,32.87-34.92,20.17-71.52,47.82-104.39,71.53-2.17,1.56-7.01,2.9-8.06,5.8h17.08s.01.28,0,.64h-22.88c4.18-1.4,7.68-4.02,11.28-6.44,52.69-35.51,103.64-74,158.85-105.68,20.68,13.44,41.36,26.89,61.86,40.6,30.6,20.46,62.34,45.79,93.44,64.44,6.32,3.79,10.8,6.9,18.37,6.44Z"/>
      <path class="cls-7" d="M384.41,248.51c.46.94-.33,1.55-1.29,1.29-3.22.09-22.4-.75-23.2.97,3.32,28.01-2.25,59.79.64,87.32l-6.44-.97v-87.64l30.29-.97Z"/>
      <path class="cls-7" d="M334.79,338.73c8.66.09,17.75.3,26.42.64,3.18.13,10.78-.63,13.21.64,1.46.77,13.73,17.81,13.85,19.98l-15.79-18.69-90.22-.64c-.64-.3-.17-1.42-.32-1.93l21.91.32-.32-6.77c-.95-.57-1.45,9.33-2.9,4.83-1.26-3.91.94-14.92,0-19.65,2.62-.03,19.69-1.63,20.62-.32v20.62c-.34.49-11.4.6-11.92.32-.31-.17,1.55-5.31-.64-5.8l-1.61,6.12-.97-17.72v18.69c9.5.76,19.25-.74,28.68-.64Z"/>
      <path class="cls-5" d="M39.01,242.71c-.96.7-.88,5.14-.64,5.8l-1.93-6.44,173.02-117.93,169.48,116.64c1.21,1.6,4.36,2.74,3.87,5.16l-173.35-120.51c-57.24,38.48-114.44,77.04-170.45,117.28Z"/>
      <path class="cls-7" d="M352.83,323.91c-.12-3.53-1.24-7.31-.64-10.96l-.97-1.29-16.43.97-.97-42.85h-52.2l-2.58,42.53-.64-43.82-.32,42.85-4.19.97-12.57-1.93c.37.59,10.86,1.52,12.24-.32.16-.95-10.54-7.93-12.24-6.12-.9-18.24-1.42-36.52-1.61-54.78,28.83.79,57.87-1.06,86.67,0,1.48.05,6.64-.87,7.09.32l-.64,74.43Z"/>
      <path class="cls-7" d="M114.4,312.31c.21.11.75-.08.64.64-1.51,2.84,7.99.28,9.67,1.61,1.46,1.15.11,9.99.64,12.24.13.57,1.23.23,1.29.32.25.38-1.14,1.03-.32,1.29.52.17,8.62.21,9.02,0,.59-.29.2-.94.32-1.29.85-2.41-.49-9.86,1.61-13.53h38.02l-37.05.97,36.41.97.64,22.55-1.29-18.69-1.29,18.69-8.06-.32-.97-19.65-.32,19.65c-1.61.3-11.44.67-11.92.32-.82-.58-.74-17.62-1.29-19.98l-1.29,19.98h-37.38l-1.93-22.55-26.42-.64,25.78,1.93c1.26.59.02,18.31,0,21.27h-26.42l-.64-26.42c5.58,1.69,29.46-.94,32.54.64Z"/>
      <path class="cls-7" d="M352.83,323.91c.15,4.38-.11,8.82,0,13.21l-12.57.97-1.29-20.62-.32,20.94c-1.02,1.04-1.91-.25-2.58-.32l-13.53-.32v-20.62c5.59-.22,11.15-1.17,16.75-.97,1.36.05,7.92-.33,8.38.32l.97,20.3c1.48-3.78-.9-17.86.32-20.3.36-.73,1.14.66,2.58-1.61.1-.17-.07-.88,0-1.29.08-.47.06-.72.64-.64-.59,3.64.52,7.42.64,10.96Z"/>
      <path class="cls-7" d="M261.33,310.38c-.23-.36.06-5.23,0-6.44,1.71-1.81,12.4,5.17,12.24,6.12-1.39,1.84-11.88.91-12.24.32Z"/>
      <path class="cls-10" d="M351.55,314.89c-1.44,2.27-2.21.88-2.58,1.61-1.22,2.44,1.16,16.52-.32,20.3l-.97-20.3c-.46-.65-7.02-.27-8.38-.32v-1.29c4.06.15,8.18-.11,12.24,0Z"/>
      <g>
        <path class="cls-6" d="M101.51,111.25c.49-.7.5-1.24,1.29-1.93l15.47,26.74-28.35-.64,11.6-24.17Z"/>
        <path class="cls-3" d="M85.4,139.61c.39-2.93,1.22-1.73,1.29-1.93l34.15,1.61-35.44.32Z"/>
        <g>
          <path class="cls-3" d="M116.98,176.98l1.93,1.29c-8.85,6.01-17.31,12.84-26.74,18.04l.64-50.91,22.23.97,1.93,30.61Z"/>
          <path class="cls-13" d="M105.7,156.36c2.25-.03,6.21-.8,7.73,1.29l-19.65-.32c3.86.07,8.15-.92,11.92-.97Z"/>
          <path class="cls-13" d="M94.75,149.92c2.22-.8,15.7,1.62,19.01.97l-19.65.32c-.63-.32.43-1.21.64-1.29Z"/>
        </g>
      </g>
      <path class="cls-7" d="M214.29,140.25c-1.25,1.61-.19,2.22.97,3.22,3.79,3.28,14.83,7.96,16.43,12.24-14.28,1.83-35.16-2.45-48.65,0-1.1.2-2.37,1.33-2.9,2.58-.59,1.39.25-.03.64,1.29-.42.04-.87-.05-1.29,0-5.56.7-13.7,8.58-19.01,11.6-.61.35-1.43-1.12-2.26-.64,6.07-4.8,48.63-33.54,52.52-32.87,1,.94,2.34,1.95,3.54,2.58Z"/>
      <g>
        <path class="cls-3" d="M301.28,155.72v1.93c-2.06-.12-6.44.72-7.73-.97-1.01-3.89,2.52-5.54,5.48-4.19,1.93.89-.16,4.76,2.26,3.22Z"/>
        <g>
          <path class="cls-6" d="M323.19,158.94c2.16,3.42-2.23,7.05-2.58,8.38-2.15,8.13.57,17.55-.97,25.78l-38.99-27.39c.9-2.38,30.97-3.1,32.54-2.26,1.76.95-.46,7.77,2.58,8.38,1.35-4.7-3.8-10.84,4.51-9.67l-.64-1.93-38.99-.97,42.53-.32Z"/>
          <path class="cls-9" d="M316.42,186.65c.98-.35,1.42.95.64,1.29-.94.41-1.42-1.01-.64-1.29Z"/>
        </g>
      </g>
      <g>
        <path class="cls-1" d="M51.25,242.07c-3.6,2.42-7.1,5.05-11.28,6.44h22.88c-.44,15.2.1,30.54,0,45.75-.07,10.7.38,21.54,0,32.22-.12,3.53.09,7.09,0,10.63-1.27,2.26-4.62.23-5.16.32v-87.32c-3.81-1.39-18.29,1.33-19.33-1.61-.23-.66-.31-5.1.64-5.8,3.6.32,10.26-4.65,12.24-.64Z"/>
        <path class="cls-4" d="M64.78,294.27c.14,10.71-.37,21.52,0,32.22h-1.93c.38-10.69-.07-21.52,0-32.22h1.93Z"/>
        <path class="cls-6" d="M61.24,272.36l.97,63.47-2.26.97-.97-60.9c2.89-.31,1.47-1.44,2.26-3.54Z"/>
      </g>
      <g>
        <path class="cls-7" d="M346.39,247.87c-93.75.36-187.53-.27-281.29,0l-1.29-7.09c-1.78,1.18-.89,5.17-.97,7.09h-17.08c1.04-2.9,5.89-4.23,8.06-5.8l.32,2.58c5.65-1.45,8.59-8.21,13.21-10.31l285.15-.64,21.59,13.85c-9.25.48-18.52.29-27.71.32Z"/>
        <path class="cls-9" d="M353.16,236.91l11.92,8.06c-3.89-1.47-9.91-4.48-11.92-8.06Z"/>
      </g>
      <g>
        <path class="cls-7" d="M115.05,312.95c.1-.72-.43-.54-.64-.64l.32-4.51c-2.77.61.56,2.41-3.22,3.22-5.37,1.15-30.52-2.6-31.9.97-1.17,3.01,1.15,25.05-.32,26.1h-14.18c-.66-.47-.26-9.86-.32-11.6-.37-10.7.14-21.51,0-32.22,0-.64,0-1.29,0-1.93,3.54,1.03,7.31,1.54,10.96,1.93,26.39,2.82,55.44-.71,82.16,1.29l-.32-44.46c.07-.97.22-1.15.64-1.93,6.43.11,12.92-.35,19.33.32l.64,65.09-1.61-2.26-61.54.64Z"/>
        <path class="cls-6" d="M75.74,294.27h80.87c.64-14.4-.01-28.79.97-43.18l.32,44.46c-26.72-1.99-55.78,1.53-82.16-1.29Z"/>
        <polygon class="cls-6" points="77.99 307.8 78.96 308.12 78.64 309.09 78.31 308.77 77.99 307.8"/>
      </g>
      <g>
        <path class="cls-7" d="M299.35,317.47c-.51,2.74.68,19.34,0,20.3-.38.53-4.14.53-4.51,0-.84-1.19,1.09-17.17-.97-20.3-2.59,11.75,6.56,23.88-11.92,20.62-.99-6.06.73-14.58,0-20.94.97-1.36,15.1.36,17.4.32Z"/>
        <path class="cls-5" d="M299.35,317.47c.43,0,.86,0,1.29,0,.94,4.74-1.26,15.75,0,19.65,1.45,4.49,1.95-5.4,2.9-4.83l.32,6.77-21.91-.32c-.06-.19.03-.43,0-.64,18.48,3.26,9.33-8.87,11.92-20.62,2.05,3.12.12,19.11.97,20.3.38.53,4.14.53,4.51,0,.68-.96-.51-17.55,0-20.3Z"/>
        <path class="cls-10" d="M287.43,317.47c.52,0,1.07,9.15,0,10.31-.64-.8-.62-10.31,0-10.31Z"/>
      </g>
      <g>
        <path class="cls-7" d="M179.49,159.58v1.29c0,21.79.02,43.64,0,65.41,5.99.81,52.89,2.41,54.13,0-.59-19.61.79-39.38,0-58.96,4.3,2.88,9.7.3,14.18.64.92.07,2.1-.17,2.9,0,.55.12,9.87,6.05,7.73,7.09l-22.55.64c7.72,1.55,16.85-1.22,24.49,0,.33.05,5.49,1.8,5.8,1.93,3.73,1.57,10.33,8.01,14.5,9.99l-45.43,1.61,47.04-.64,6.77,4.83-53.16,2.26c17.82.26,35.67-.35,53.49,0,.45,0-.3-1.51,1.93-1.29,1.2.12,16.43,12.96,19.65,13.85l-75.72,1.61h77.97l5.48,4.19-82.81,2.26h87c5.56,3.45,11.78,11.75,18.37,9.67,3.33,2.32,7.04,4.27,9.99,7.09H68.33c-.57.15-.89,1.26-.97,1.29-4.62,2.1-7.56,8.86-13.21,10.31l-.32-2.58c32.87-23.71,69.48-51.36,104.39-71.53.82-.48,1.65.99,2.26.64,5.31-3.02,13.45-10.9,19.01-11.6Z"/>
        <path class="cls-1" d="M246.51,161.52c31.89,20.94,63.44,42.61,94.73,64.44-6.58,2.08-12.81-6.22-18.37-9.67h-87l82.81-2.26-5.48-4.19h-77.97l75.72-1.61c-3.22-.89-18.46-13.74-19.65-13.85-2.23-.22-1.48,1.3-1.93,1.29-17.81-.35-35.67.26-53.49,0l53.16-2.26-6.77-4.83-47.04.64,45.43-1.61c-4.17-1.97-10.77-8.42-14.5-9.99-.31-.13-5.47-1.88-5.8-1.93-7.63-1.22-16.77,1.55-24.49,0l22.55-.64c2.14-1.04-7.18-6.97-7.73-7.09-.8-.17-1.98.07-2.9,0-.92-4.34-7.54-5.73-10.31-8.7,3.11-1.5,6.51,5.88,9.02,2.26Z"/>
        <path class="cls-6" d="M233.62,167.32c.79,19.58-.59,39.36,0,58.96-1.24,2.41-48.14.81-54.13,0,.02-21.76,0-43.62,0-65.41,1.4-1.09,1.22,0,1.29,0l.97,65.09,49.94-.32c2-2.82-2.41-61.91,0-66.37,2.24-4.14,1.91,7.42,1.93,8.06Z"/>
        <path class="cls-10" d="M72.19,229.83c37.09.2,74.16-.47,111.16,1.61l-56.39-.32-54.78-1.29Z"/>
        <polygon class="cls-10" points="193.99 230.47 303.86 230.79 195.28 231.76 193.99 230.47"/>
      </g>
      <g>
        <path class="cls-6" d="M346.39,247.87v1.29c-28.8-1.06-57.84.79-86.67,0,.19,18.26.71,36.54,1.61,54.78.06,1.21-.23,6.08,0,6.44l12.57,1.93,4.19-.97.32-42.85.64,43.82,2.58-42.53h52.2l.97,42.85,16.43-.97.97,1.29c-.58-.07-.56.18-.64.64l-18.04.32-.32-42.85h-50.91l50.26,1.29-.97,42.21c2.54,1.02,5.11.23,7.73.32v1.29c-5.61-.2-11.16.75-16.75.97v20.62l13.53.32c-.59-.07-.71.72-1.29.64-9.42-.09-19.17,1.41-28.68.64v-18.69l.97,17.72,1.61-6.12c2.2.49.33,5.63.64,5.8.53.28,11.58.16,11.92-.32v-20.62c-.93-1.31-18,.3-20.62.32-.43,0-.86,0-1.29,0-2.3.04-16.43-1.69-17.4-.32.73,6.36-.99,14.88,0,20.94.03.21-.06.46,0,.64.15.52-.32,1.63.32,1.93l90.22.64,15.79,18.69c.03.47-.45.65-.64,1.29h-.64c-3.86-3.58-7.76-11.76-12.24-12.24l-332.84-.64-12.57,12.89c-.23-.6-.68-.87-.64-1.29,6.19-5.25,11.09-11.74,15.14-18.69l133.07-.97-133.39-.97c4.32-1.55,9.42-.14,13.85-.64.54-.06.26-1.28.32-1.29.54-.09,3.88,1.93,5.16-.32.09-3.54-.12-7.11,0-10.63h1.93c.06,1.74-.34,11.13.32,11.6h14.18c1.48-1.05-.84-23.09.32-26.1,1.38-3.56,26.53.18,31.9-.97,3.78-.81.45-2.61,3.22-3.22l-.32,4.51c-3.08-1.58-26.97,1.04-32.54-.64l.64,26.42h26.42c.02-2.96,1.26-20.68,0-21.27l-25.78-1.93,26.42.64,1.93,22.55h37.38l1.29-19.98c.54,2.36.47,19.4,1.29,19.98.49.34,10.31-.02,11.92-.32l.32-19.65.97,19.65,8.06.32,1.29-18.69,1.29,18.69-.64-22.55-36.41-.97,37.05-.97h-38.02c-2.1,3.68-.76,11.12-1.61,13.53h-9.02c-.06-.09-1.16.24-1.29-.32-.53-2.26.81-11.09-.64-12.24-1.68-1.33-11.17,1.23-9.67-1.61l61.54-.64,1.61,2.26-.64-65.09c-6.42-.67-12.9-.21-19.33-.32-31.03-.55-62.05-.56-93.12-.64-2.1.93-.35,38.66-.32,43.82,0,.64,0,1.29,0,1.93h-1.93c.1-15.21-.44-30.55,0-45.75.01-.37,0-.61,0-.64.07-1.91-.82-5.91.97-7.09l1.29,7.09c93.76-.27,187.54.36,281.29,0Z"/>
        <g>
          <g>
            <path class="cls-7" d="M28.69,360c.43-5.09,12.29-14.79,14.82-20.62l133.39.97-133.07.97c-4.06,6.95-8.96,13.44-15.14,18.69Z"/>
            <polygon class="cls-9" points="178.52 344.53 368.3 346.79 178.52 347.11 178.52 344.53"/>
            <path class="cls-9" d="M112.79,345.18c19.21-.27,38.48-.07,57.67.32l-104.72,1.61c-.97-1.63.36-1.12,1.29-1.29,8.38-1.52,35.33-.5,45.75-.64Z"/>
          </g>
          <g>
            <path class="cls-7" d="M290.33,281.38c.12,2.62-.47,18.77.32,19.33,6.93-1.4,23.97,1.86,29.64,0,6.76-2.21-4.75-23.3,10.31-18.69l.32,32.54c-2.05,1.54-45.1,1.17-51.23.97-4.95-.16-11.33.05-16.11-.64-.74-.11-2.35.13-1.93-1.29l67.99.32-6.44-1.29-.32-6.77-1.29,7.09h-39.31c-1.51-.67-1.13-27.97-.97-31.58h9.02Z"/>
            <path class="cls-7" d="M293.87,282.02c1.27-.37,25.21-.54,26.42,0,1.19,2.41,1.62,14.11.97,15.79-1.28,3.29-24.69.84-29.32,1.61.2-4.37-2.31-16.15,1.93-17.4Z"/>
            <path class="cls-7" d="M261.65,316.82c2.58.5,16.82-1.06,17.72.97,1.34,3.02-1.88,15.76-.64,19.98l-12.89,1.29,14.18-.64.32-16.43.64,18.69-18.37-.32-.97-23.52Z"/>
            <path class="cls-7" d="M291.94,273.65h38.66c5.2,6.51-4.28,10.17-7.73,7.73-1.19-.84.93-6.28-1.29-7.09-.98,1.55.65,6.23-1.29,7.09-1.27.56-26.44.56-27.71,0-1.91-.85-.54-5.97-.64-7.73Z"/>
            <path class="cls-8" d="M351.55,313.6c-.07.41.1,1.12,0,1.29-4.06-.11-8.18.15-12.24,0-2.62-.09-5.19.7-7.73-.32l.97-42.21-50.26-1.29h50.91l.32,42.85,18.04-.32Z"/>
            <polygon class="cls-7" points="126.97 315.53 134.38 315.85 134.06 325.84 126.65 325.52 126.97 315.53"/>
            <path class="cls-7" d="M290.33,281.38h-9.02c.06-1.3-.33-7.27.32-7.73h8.38c.65.46.26,6.43.32,7.73Z"/>
            <path class="cls-7" d="M135.67,327.13c-.12.35.26,1-.32,1.29-.4.21-8.5.17-9.02,0-.82-.26.58-.91.32-1.29h9.02Z"/>
            <g>
              <path class="cls-7" d="M256.17,278.16c0-9.88-.42-19.77,0-29.64l2.58.97-.32,91.18h-77.97v-25.13l26.1.32v21.91h-11.6l-.32-20.94-.97,20.94-9.34,1.61h59.29c-.18-2.95-9.65-.22-10.63-1.61l-.32-19.65-1.29,19.98-10.63-.32-.97-17.08-.32,17.08-11.28.32-.32-21.59,48.01-.97c-1.19,9.88,6.53,27.08-9.99,22.23l-.32-20.94c.28,3.19-2.03,21.49,0,22.55,2.25-.27,11.03.73,11.92-.97,1.16-2.21-.87-19.31,0-23.2l-78.62-1.29,78.3-.97-.97-34.8Z"/>
              <path class="cls-6" d="M181.74,316.82c2.01,7.22.77,15.78.64,23.2-2.37-7.33-.21-15.74-.64-23.2Z"/>
            </g>
            <g>
              <path class="cls-7" d="M256.17,248.51c-.42,9.88,0,19.76,0,29.64,0,11.16-.24,22.38.32,33.51l-73.46.64-1.29-19.98-1.93,19.98-.97-62.83,77.33-.97Z"/>
              <path class="cls-10" d="M187.54,278.16c5.6,4.22,10.08,9.71,15.14,14.5-5.51-3.41-11.47-9.16-15.14-14.5Z"/>
              <path class="cls-1" d="M186.25,292.33c3.53,3.93,8,7.17,10.96,11.6-3.77-3.09-8.93-7.05-10.96-11.6Z"/>
              <path class="cls-2" d="M246.18,302c.51.08.52,7.9,0,9.02-2.07-.92-.52-9.1,0-9.02Z"/>
              <g>
                <path class="cls-6" d="M244.25,269.13l-.32,41.56-37.05-.32-.32-39.63c2.57-.79.23,3.22,2.26,4.19,1.52.72,12.32.97,10.31-3.87,1.97.07.31,3.19,1.29,3.87,1.12.77,14.79,1.31,11.6-5.16-1.81,7.89,14.77,7.62,12.24-.64Z"/>
                <g>
                  <path class="cls-7" d="M221.05,289.76c.58-.26,9.7-.09,9.99.32l-.32,19.01-9.99-.32c-1.72-4.28,7.29-1.2,9.67-2.58-1.4-2.32-9.39.01-10.31-1.29-.44-.62-.3-14.58.97-15.14Z"/>
                  <path class="cls-7" d="M208.81,289.76c13.69-2.71,10.47,6.21,9.02,16.11-8.19-2.93-12.78-6.82-9.02-16.11Z"/>
                  <path class="cls-7" d="M233.3,289.76c.58-.26,9.7-.09,9.99.32-.46,2.01.62,9.11,0,10.31-.28.54-10.16,5.68-10.96,4.51.47-2.34-1.03-14.26.97-15.14Z"/>
                  <path class="cls-7" d="M208.16,276.22l10.63.32c-.45,2.21,1,11.6-.97,12.57-.46.22-9.49.15-9.99-.97-.25-.56-.16-11.58.32-11.92Z"/>
                  <path class="cls-7" d="M232.65,276.22l10.63.32c.58,10.54,1.32,14.59-10.96,11.6l.32-11.92Z"/>
                  <polygon class="cls-7" points="220.41 276.22 231.04 276.55 230.72 288.47 220.09 288.15 220.41 276.22"/>
                  <path class="cls-7" d="M242.96,301.36c2.16,9.71-3.3,8.08-10.63,7.41-1.5-1.78,9.57-5.87,10.63-7.41Z"/>
                  <path class="cls-7" d="M208.16,301.36l10.63,6.77c-7.43,1.86-14,3.28-10.63-6.77Z"/>
                </g>
              </g>
            </g>
          </g>
        </g>
      </g>
      <g>
        <path class="cls-8" d="M246.51,161.52c-2.51,3.62-5.92-3.76-9.02-2.26,2.77,2.97,9.39,4.36,10.31,8.7-4.48-.34-9.88,2.23-14.18-.64-.03-.64.3-12.2-1.93-8.06-2.41,4.47,2,63.56,0,66.37l-49.94.32-.97-65.09c.65.03,1.1-1.32,1.93-.32v63.15h48.33v-63.8c-16.14.45-34.35-1.72-50.26-.32-.39-1.32-1.23.1-.64-1.29l51.88-.64c1.17-.99-.29-1.84-.32-1.93-1.61-4.29-12.64-8.96-16.43-12.24-1.15-1-2.21-1.61-.97-3.22,10.29,5.35,22.22,14.7,32.22,21.27Z"/>
        <path class="cls-6" d="M231.68,155.72c.03.09,1.49.94.32,1.93l-51.88.64c.53-1.24,1.8-2.38,2.9-2.58,13.49-2.45,34.37,1.83,48.65,0Z"/>
        <g>
          <path class="cls-6" d="M180.78,159.58c15.91-1.39,34.13.78,50.26.32v63.8h-48.33v-63.15c-.83-.99-1.29.35-1.93.32-.06,0,.11-1.09-1.29,0v-1.29c.42-.05.87.04,1.29,0Z"/>
          <g>
            <polygon class="cls-7" points="198.82 193.74 199.46 193.09 214.29 193.42 213.96 208.56 199.14 208.56 198.82 193.74"/>
            <path class="cls-7" d="M214.29,177.63c-.58,2.28,1.04,13.84-.32,14.82-.59.42-12.52-.34-14.5,0l.32-15.47c4.77-.71,9.86.68,14.5.64Z"/>
            <path class="cls-7" d="M199.14,160.87h15.47l-.32,14.5c-15.7,1.4-17.07,2.01-15.14-14.5Z"/>
            <path class="cls-7" d="M216.22,207.92c-1.18-1.19-.6-12.27-.64-14.82l14.18.97v13.53c-.66,1.48-12.47,1.39-13.53.32Z"/>
            <path class="cls-7" d="M215.9,160.87l13.85.32c.72,14.16,1.41,17.12-14.18,13.53l.32-13.85Z"/>
            <path class="cls-7" d="M216.22,191.81c0-4.55-1.33-9.51-.64-14.18,14.61.39,14.95-5.76,14.18,13.85l-13.53.32Z"/>
            <path class="cls-7" d="M198.18,193.74l-.64,14.5-12.89-.32c.03-4.42-1.35-9.31-.64-13.85l14.18-.32Z"/>
            <path class="cls-7" d="M214.29,209.85c-.51,1.87,1.32,11.93-.32,12.89-13.81-.16-16.67,3.45-15.14-12.89h15.47Z"/>
            <polygon class="cls-7" points="184.32 160.87 197.53 161.2 197.21 175.7 184 175.37 184.32 160.87"/>
            <path class="cls-7" d="M184.96,176.98c.57-.26,12.2-.19,12.57.32l-.32,14.5-13.21-.32c.46-2.28-1.02-13.62.97-14.5Z"/>
            <path class="cls-7" d="M216.54,209.2l13.21.97c1.07,14.26.03,13.46-13.53,12.24l.32-13.21Z"/>
            <path class="cls-7" d="M197.53,209.85c.21,1.79.2,12.52-.32,12.89-.73.52-10.94-.39-12.89,0-1.37-.97.38-11.07.32-12.89,4.29,0,8.6,0,12.89,0Z"/>
            <path class="cls-6" d="M215.57,177.63c-.69,4.66.65,9.62.64,14.18,0,.61-.66.68-.64,1.29.05,2.55-.54,13.63.64,14.82-.3,1.65-1.9,1.8-1.93,1.93h-15.47c-.42,0-.86,0-1.29,0-4.29,0-8.6,0-12.89,0-.02-.64,0-1.29,0-1.93l12.89.32.64-14.5h.64l.32,14.82h14.82l.32-15.14-14.82-.32v-.64c1.98-.34,13.91.42,14.5,0,1.36-.98-.26-12.54.32-14.82.43,0,.86-.01,1.29,0Z"/>
          </g>
        </g>
      </g>
      <g>
        <path class="cls-7" d="M158.22,249.16c-.42.79-.58.96-.64,1.93-.98,14.39-.33,28.78-.97,43.18h-80.87c-3.65-.39-7.41-.9-10.96-1.93-.02-5.16-1.78-42.89.32-43.82,31.07.09,62.09.09,93.12.64Z"/>
        <path class="cls-7" d="M116.98,288.47c.07.66,1.36,1.56.32,2.58l-15.79-.97c-1.3-2.92.77-23.22.64-28.03,2.02.76,13.11.37,13.53.97.74,1.04.93,22.12,1.29,25.45Z"/>
        <g>
          <path class="cls-6" d="M102.16,262.05c.13,4.81-1.94,25.11-.64,28.03l15.79.97c1.04-1.02-.25-1.91-.32-2.58l.97-35.44,1.29,2.58,1.29-3.87c1.97.07.31,3.19,1.29,3.87.48.33,11.09.27,11.6,0,1.45-.77-1.33-5.01,2.26.32l-14.18,1.93.64,29.64,12.24-11.6c-.2,2.17-14.14,13.9-11.92,15.14l30.61.97c.44-1.07-15.37-14.81-16.11-16.75-1.91-5.02.16-16.83-.64-22.55,2.25-1.14.73,2.32,1.61,2.9,1.46.96,17.34-1.23,18.37.32l-1.61,37.7-74.75-1.29-.97-39.63,1.61,22.23c1.58,0,8.69.24,9.34-.97.5-.92-.85-20.94.32-20.94l.32,17.72c.81,2.57,3.1-3.3,5.16-3.22-6.44,6.11-5.61,12.59-4.83,20.94l9.34-.32v-35.44c1.58.02,1.89,7.79,1.93,9.34Z"/>
          <g>
            <path class="cls-7" d="M138.57,256.89c.57-.26,12.2-.19,12.57.32l-.32,14.5c-2.09-1.5-12.45.11-13.21-.97-.4-.57-.32-13.28.97-13.85Z"/>
            <path class="cls-7" d="M149.2,285.89c1.9,2.43,3.02-11.12.97-12.24l-.97,12.24c-3.53-3.63-6.8-7.65-10.96-10.63v-2.58h13.53c.22,5.11-.17,10.88,1.29,15.47l.97-31.25.32,34.48c-1.94-1.55-3.45-3.72-5.16-5.48Z"/>
            <path class="cls-7" d="M88.95,275.58l.97,12.57-9.34.32c-.3-10.19-3.5-12.77,8.38-12.89Z"/>
            <path class="cls-8" d="M119.23,256.89c1.14,11.17,2.49,22.99.64,34.15-2.02-11.16-.77-22.9-.64-34.15Z"/>
            <path class="cls-14" d="M149.2,285.89l.97-12.24c2.05,1.12.94,14.67-.97,12.24Z"/>
          </g>
        </g>
      </g>
    </g>
    <g>
      <path class="cls-7" d="M386.99,361.29c-.21.04-.44-.05-.64,0-108-.17-216.12.38-324.14-.64l-26.1-1.29c1.35-2.59,3.08-5.41,4.83-7.73,111.34-1.88,222.86.34,334.13-.64l-.32-1.29v-.64c4.49.48,8.38,8.66,12.24,12.24Z"/>
      <path class="cls-7" d="M349.61,362.57c1.15,6.21.09,12.51,0,18.69-1.24.78-1.52-2.38-1.93-.32-2.61,13.06.86,46.16,0,62.83l-14.18-.64c-1.21-20.71,1.26-41.78-.64-62.51l-1.29-1.29-50.91.64-1.29,68.31c1.28.06,2.6-.09,3.87,0-.28,1.93,1.72,1.25,2.9,1.29,6.74.2,13.56,0,20.3,0v1.93c-7.59-.02-16.03-.47-23.52,0-1.23.08-2.42-.36-2.9,1.29-2.06.02-4.41.87-6.44,1.29-.92-14.73.43-30.52,0-45.43-.03-1.18.65-3.18-1.29-2.9-.02-4.87-1.01-42.3.97-43.18h76.36Z"/>
      <path class="cls-7" d="M151.78,475.99c-1.02.23-1.92-1.08-3.22-.64l-.64-83.77h-.64c.11-4.11-.7-26.46,0-28.03s8.69-1.11,9.02-.64v111.48c-1.16,1.52-2.92,1.25-4.51,1.61Z"/>
      <path class="cls-1" d="M349.61,381.26c-.44,30.98,1.51,61.85,0,92.8-.42-.03-.87-.01-1.29,0-.29-1.84.52-11.65-.32-12.24-3.06-2.17-66.1,1.67-75.07,0,.6-18.67-.55-37.46-.64-56.06,1.93-.28,1.25,1.72,1.29,2.9.43,14.91-.92,30.7,0,45.43.09,1.51-.62,5.74.97,6.44l73.46-.64v-6.44c-22.62.85-45.42-.85-67.99-.64.48-1.65,1.67-1.21,2.9-1.29,7.49-.47,15.93-.02,23.52,0,5.14.02,40.7,1.42,41.89-.32-.02-2.21-.75-5.32-.64-7.41.86-16.67-2.61-49.77,0-62.83.41-2.06.69,1.1,1.93.32Z"/>
      <g>
        <path class="cls-7" d="M145.98,387.71l-2.26,5.16-.97-5.48-.64,65.09c-10.98-1.46-22.15-.4-33.19-.97-.59-.03-.05-1.9-.64-1.93-4.75-.27-10.21,1.02-15.47.64-.72-.05-5.77-.49-5.48-1.93,15.64.73,32.07.26,47.69-.97l-52.2-1.29,48.33-1.29.32-63.47-47.36.97c1.89,3.46-.41,22.36.64,23.84.94,1.32,3.52-1.63,3.87,2.58.08.95-.29,13.56-.64,14.18-.6,1.03-3.92-.87-3.87.64s1.25.75,1.29,1.29c.49,6.12-1.96,12.53,0,18.69l-1.93.64-.64-62.51,42.85-1.61-44.14.32-.64,66.7c-3.37-6.52-1.26-1.67-6.12-1.29-10.08.78-4.05-5.61-5.48-8.06-.52-.89-2.52,1.32-3.22-.64-.5-1.4.03-10.13,0-12.57,2.26-.22,1.19-4.59,1.29-6.12.04-.66,1.93-1.07,1.93-1.29,0-.2-1.93-.66-1.93-1.29-.07-6.01.05-12.03,0-18.04l-1.29,14.5-1.29,1.93c-.05-17.18-1.39-34.35-.32-51.55h81.2c.65,8.35.24,16.77.32,25.13Z"/>
        <path class="cls-1" d="M66.07,424.44c-.05-4.07.04-8.17,0-12.24l1.29-14.5c.05,6.01-.07,12.03,0,18.04,0,.63,1.93,1.09,1.93,1.29,0,.22-1.89.63-1.93,1.29-.1,1.53.97,5.9-1.29,6.12Z"/>
        <path class="cls-13" d="M134.7,444.41l2.26.97c-.12.66-3.7.64-2.26-.97Z"/>
      </g>
      <path class="cls-7" d="M280.02,452.79c22.57-.21,45.36,1.49,67.99.64v6.44l-73.46.64c-1.58-.7-.87-4.94-.97-6.44,2.04-.42,4.38-1.27,6.44-1.29Z"/>
      <path class="cls-7" d="M347.68,443.77c-.11,2.09.62,5.2.64,7.41-1.18,1.74-36.74.34-41.89.32v-1.93c6.52,0,13.13.22,19.65,0,1.18-.04,3.18.65,2.9-1.29,1.08-.05,6.48.45,6.44-.97-2.54-.73-1.81-2.1-1.93-4.19l14.18.64Z"/>
      <path class="cls-6" d="M333.5,443.13c.12,2.09-.61,3.45,1.93,4.19.04,1.42-5.36.91-6.44.97-13.6.65-32.3.94-45.75,0-1.27-.09-2.59.06-3.87,0l52.84-2.26.64-65.41c1.9,20.73-.56,41.79.64,62.51Z"/>
      <path class="cls-8" d="M328.99,448.28c.28,1.94-1.72,1.25-2.9,1.29-6.52.22-13.13,0-19.65,0s-13.56.2-20.3,0c-1.18-.03-3.18.65-2.9-1.29,13.46.94,32.16.65,45.75,0Z"/>
      <g>
        <path class="cls-7" d="M374.74,349.04v.64H41.91c-2.78,1.23-.88,1.81-.97,1.93-1.75,2.32-3.48,5.15-4.83,7.73l26.1,1.29c-10.42-.1-21.26-.73-31.58.97l32.22.64v113.42h1.93c-.05-20.51.07-41.04,0-61.54l1.29-1.93c.04,4.07-.05,8.17,0,12.24.03,2.44-.5,11.16,0,12.57.7,1.96,2.7-.25,3.22.64,1.42,2.45-4.6,8.84,5.48,8.06,4.86-.38,2.75-5.23,6.12,1.29.03.06-1.68.77-.32,1.29.92.35,5.2-.07,6.77,0-.29,1.44,4.75,1.88,5.48,1.93,5.26.37,10.71-.91,15.47-.64.59.03.05,1.9.64,1.93,11.04.56,22.21-.5,33.19.97l.64-65.09.97,5.48,2.26-5.16c.27,29.1.07,58.24-.64,87.32-2.21,1.38-1.83-.97-1.93-.97l.97-49.62-2.26,49.62-74.75,2.26h79.26c.3-28.27-.08-56.49.64-84.74h.64l.64,83.77c1.3-.44,2.2.88,3.22.64l107.94.64-.32-91.51c.03-.99,1.27-.46,1.29-.97.2-6.98-1.8-14.43,0-21.59l.64,114.38,1.29-114.06h6.44l.97,114.38,1.61-114.38v113.42l1.29-14.5c8.97,1.67,72.01-2.17,75.07,0,.84.6.04,10.4.32,12.24-.07,0,.2,1.28-.32,1.29-24.7.57-49.38.83-74.11.64,25.74,1.75,51.54,1.26,77.33.64,0-.41-1.46-2.57-1.61-2.58,1.51-30.95-.44-61.82,0-92.8.09-6.18,1.15-12.48,0-18.69l3.22.32.32,114.38.97-114.38c.79-1.78,27.69-.54,32.22-1.61.2-.05.44.04.64,0h.64c-.31,1.01.99,1.62.32,1.93l-28.03.97v111.48c.61,1.37,4.73,1.24,5.16.64,2.05-2.91-1.25-56.17,2.26-64.12l1.61,64.12c3.07.17,22.37,1.22,23.2-.64,3.11-7.02-10.61-9.6-14.18-14.82-1.73-2.53-2.69-6.61-2.58-9.67s15.75-57.9,17.4-61.22c.39-.78,1.02-2.14,2.26-1.61,2.95,1.26,15.07,54.81,18.37,61.54,4.4,16.86-19.81,13.59-17.4,26.42l68.63,1.61H-45.09l66.05-2.26c2.42-5.41-8.21-8.11-11.28-10.63-4.8-3.95-6.39-6.75-6.12-13.21.15-3.6,15.75-58.7,17.4-61.54l.64.64c-1.46,2.87-16.71,58.97-16.75,62.19-.12,8.84,10.19,13.71,16.75,16.11,1.76-8.74-3.68-9.97-8.38-15.47l8.38,5.16c.79-7.28-.22-10.89-5.16-16.11l5.16,3.22c.88-5.33-1.11-9.51-2.26-14.5,1.56-.55,2.6,11.14,6.12.32l1.29.64c-4.29,4.99-3.81,9.24-4.51,15.47l6.44-5.16c-2.94,5.37-7.14,8.45-5.8,15.47,1.31,3.52,7.94-6.62,10.31-5.16-4.31,4.86-11.31,8.7-9.67,16.11,12.3-4.11,18.37-5.72,16.11-19.98-1.48-9.34-12.59-48.92-16.11-57.67l.64-.64c3.47,6.78,13.48,42.93,15.47,51.88.98,4.4,2.86,13.22,1.93,17.4-1.72,7.79-20.68,8.13-17.4,15.47.68,1.52,24.46,1.52,25.13,0l.97-61.54.97,62.19h7.09l-.64-112.77-28.03-.32c-1.64-.99-.15-1.49-.32-1.93l12.57-12.89,332.84.64Z"/>
        <g>
          <g>
            <path class="cls-6" d="M62.2,360.64c108.02,1.03,216.14.47,324.14.64-4.53,1.07-31.43-.17-32.22,1.61l-.97,114.38-.32-114.38-3.22-.32h-76.36c-1.97.88-.99,38.31-.97,43.18.09,18.61,1.25,37.39.64,56.06l-1.29,14.5v-113.42l-1.61,114.38-.97-114.38h-6.44l-1.29,114.06-.64-114.38-103.11.97-.32,111.81,101.17.64c1.46-.67,1.26-30.15.32-31.9-.22-.42-5.95.55-6.44,1.93-.51,3.13.94,3.78,2.9,5.48-4.84,1.38-3.01-3.12-5.16-4.51-2.8-1.82-6.74-.7-5.48,3.54l2.58-3.22,1.29,13.53-5.8-.64c6.63.24,4.12-2.58,4.51-7.73h-3.87l.64-16.11,1.61,8.7c3.37-4.21,4.02-8.56,3.54-13.85,4.83,1.69-3.3,14.28.32,14.5,2,.12,4.19-12.87,7.73-14.82-.62,5.44-10.85,16.67,1.61,11.28,1.33-18.98.15-38.04.64-57.03l.32,91.51-107.94-.64c1.59-.36,3.35-.09,4.51-1.61v-111.48c-.33-.46-8.33-.92-9.02.64s.11,23.92,0,28.03c-.72,28.25-.34,56.47-.64,84.74h-79.26l74.75-2.26c.43,0,.86,0,1.29,0,.11,0-.27,2.34,1.93.97.71-29.08.92-58.22.64-87.32-.08-8.36.32-16.78-.32-25.13h-81.2c-1.07,17.21.27,34.38.32,51.55.07,20.5-.05,41.03,0,61.54h-1.93v-113.42l-32.22-.64c10.32-1.7,21.16-1.07,31.58-.97Z"/>
            <path class="cls-2" d="M374.74,349.69l.32,1.29c-111.26.98-222.79-1.24-334.13.64.09-.12-1.81-.7.97-1.93h332.84Z"/>
            <path class="cls-3" d="M62.2,409.62c.08,6.28,2.23,66.02-.97,67.02-1.95.61-2.11-6.19-2.26-8.06-1.37-17.54-.07-39.66,0-57.67l3.22-1.29Z"/>
            <path class="cls-1" d="M62.2,409.62l-3.22,1.29c.02-6.21-1.56-46.23.32-47.69.21-.17,1.98-.1,2.26.32,1.1,1.67-.73,29.11-.64,33.51.06,3.28,1.23,8.14,1.29,12.57Z"/>
            <path class="cls-2" d="M349.61,474.06c.15.01,1.62,2.17,1.61,2.58-25.79.62-51.59,1.1-77.33-.64,24.72.19,49.4-.08,74.11-.64.53-.01.26-1.29.32-1.29.42-.01.87-.03,1.29,0Z"/>
            <path class="cls-2" d="M143.4,474.06c-.43,0-.86,0-1.29,0l2.26-49.62-.97,49.62Z"/>
            <path class="cls-5" d="M148.56,475.35l-.64-83.77.64,83.77Z"/>
          </g>
          <g>
            <path class="cls-11" d="M401.17,452.79c.26-.29,1.63-.57,1.29-1.61-.46-.69-1.78.88-1.93.97-.59.34-4.23,3.5-4.51,3.54l-1.29-.64c-.73-6.47.19-8.93,5.16-12.89l-5.16,1.93c-1.32-6.23,1.8-8.64,3.54-13.85-3.64,3.68-3.45,6.89-8.06,1.61,2.45,4.55,4.03,7.41,3.22,12.89l-4.51-2.58c3.89,4.55,5.36,7.28,4.51,13.53-.87,2.62-4.45-3.68-6.44-2.58,6.11,4.74,6.44,7.81,5.8,15.47-11.77-6.42-17.38-8.41-14.82-23.2l16.43-55.74,17.72,62.19c.96,10.26-10.09,12.24-16.43,17.08-2.83-10.44-.04-9.91,5.48-16.11Z"/>
            <path class="cls-12" d="M401.17,452.79l-.64-.64c.15-.09,1.47-1.66,1.93-.97.34,1.04-1.03,1.32-1.29,1.61Z"/>
            <path class="cls-10" d="M392.47,421.86c2.11,2.55.38,7.19,1.29,10.31-1.58-2.54-1.79-7.45-1.29-10.31Z"/>
          </g>
        </g>
      </g>
      <g>
        <path class="cls-6" d="M331.57,379.33l-49.62,1.61.32,64.12.97-51.23c2.9.51.46,8.44,1.29,10.31,12.96,6.06,6.02-13.74,7.73-20.62l-9.67-1.29h48.33v62.51c-1.02,2.3-44.66.51-50.26.64v-65.41l50.91-.64Z"/>
        <g>
          <path class="cls-7" d="M332.86,380.62l-.64,65.41-52.84,2.26,1.29-68.31v65.41c5.6-.14,49.24,1.66,50.26-.64v-62.51h-48.33l9.67,1.29c-1.71,6.89,5.23,26.68-7.73,20.62-.83-1.87,1.61-9.8-1.29-10.31l-.97,51.23-.32-64.12,49.62-1.61,1.29,1.29Z"/>
          <polygon class="cls-7" points="300.31 405.75 328.67 405.75 328.99 422.83 316.1 422.18 315.14 406.39 314.81 422.83 299.67 423.15 300.31 405.75"/>
          <path class="cls-7" d="M319,382.55c1.72-.2,7.3,1.17,9.99.32-1.78,8.59,5.91,27.77-9.67,21.27l-.32-12.57-.32,12.57c-1.61.3-11.43.67-11.92.32-.56-.4-.78-5.17.64-5.8,1.53-.68,7.77,1.12,8.7-.97,1.67-3.76-3.13-14.45,2.9-15.14Z"/>
          <path class="cls-7" d="M285.49,424.44c.6-.27,12.83-.22,13.21.32-.8,2.77,0,18.18-1.61,19.01-.72.37-10.59.14-12.57.32.57-2.5-.95-18.8.97-19.65Z"/>
          <path class="cls-7" d="M304.83,424.44l9.99.32c-.51,2.83,1.07,18.75-.97,19.65-.78.35-8.78.31-9.34-.97-.39-.87-.45-18.46.32-19.01Z"/>
          <path class="cls-7" d="M293.87,383.2c2.51.48,10.38-1.06,11.92.97,1.27,1.67,1.25,18.93-7.09,12.89v-12.24c-2.86.39-.27,19.01-1.61,19.01l-.97-19.01c-2.21,1.37.62,18.35-.97,19.65-1.47,1.22-1.44-.84-1.61-1.61-.34-1.51-.48-19.09.32-19.65Z"/>
          <path class="cls-7" d="M323.84,424.44c-.14,2.18-.76,17.61-1.29,18.37-.11.17-2.19.56-3.22.97-6.3,2.47-1.91-15.38-3.22-19.01.38-.54,6.65-.41,7.73-.32Z"/>
          <path class="cls-7" d="M292.58,405.75c.83-.37,5.34-.25,6.12.97.45.69.23,15.9-.97,16.43-.51.23-5.84.08-6.12-.32.49-2.46-1.05-16.17.97-17.08Z"/>
          <path class="cls-7" d="M307.4,383.2c.86-.34,6.86-.28,7.41.97-.45,2.15,1,12.34-.97,13.21-.53.24-6.49.07-6.77-.32-.4-.57-.57-13.5.32-13.85Z"/>
          <path class="cls-7" d="M319.32,443.77c1.03-.4,3.11-.8,3.22-.97.52-.76,1.15-16.19,1.29-18.37,1.08.09,4.65-.35,5.16.32l-.64,19.33-9.02-.32Z"/>
          <path class="cls-7" d="M285.49,405.75c7.81-3.5,4.22,13.45,4.51,17.4l-5.48-.32.97-17.08Z"/>
          <path class="cls-7" d="M300.31,424.44c.1-.08,2.33-.1,2.58,0,.94.37.81,19.37,0,19.98-5.39,4.07-3.49-19.3-2.58-19.98Z"/>
          <path class="cls-7" d="M299.03,398.66c9.23-4.1,9.2,10.55,0,6.44-1.46-.65-1.46-5.8,0-6.44Z"/>
        </g>
      </g>
      <g>
        <path class="cls-6" d="M87.34,448.28c-1.56-.07-5.85.35-6.77,0-1.35-.52.35-1.23.32-1.29l.64-66.7,44.14-.32-42.85,1.61.64,62.51,1.93-.64c-1.96-6.16.49-12.57,0-18.69-.04-.54-1.24.22-1.29-1.29s3.27.38,3.87-.64c.36-.61.72-13.23.64-14.18-.35-4.2-2.93-1.25-3.87-2.58-1.05-1.49,1.24-20.38-.64-23.84l47.36-.97-.32,63.47-48.33,1.29,52.2,1.29c-15.62,1.23-32.04,1.69-47.69.97Z"/>
        <g>
          <path class="cls-7" d="M119.88,382.55c.5-.08,9.7.56,9.99.97.62.88-.24,18.84-.32,21.59l-12.57-.97.64-20.62c.74-.02,2.13-.95,2.26-.97Z"/>
          <polygon class="cls-7" points="117.3 424.44 129.87 424.76 129.55 443.77 116.98 443.45 117.3 424.44"/>
          <path class="cls-7" d="M86.37,424.44c2.75-2.27,1.01,11.13,1.93,11.6l.97-11.28h8.38l-.32,19.01c-3.9-.47-8.51,1.87-9.02-3.22l-1.61,2.9c.1-2.77-1.61-17.95-.32-19.01Z"/>
          <path class="cls-7" d="M104.41,383.2l11.92.32c-.13,12.68,3.23,16.58-12.24,14.18l.32-14.5Z"/>
          <path class="cls-7" d="M97.97,399.31c.49-.22,5.19-.08,5.48.32l.32,6.77.97-6.77c.49-.7,3.34-.55,3.87.64.47,1.07.25,22.33-.97,22.88-8.86,3.94-3.92-15.52-5.48-17.72-.61-.86-3.43.21-4.51-.64-.72-.57-1.24-4.78.32-5.48Z"/>
          <path class="cls-7" d="M91.53,405.75c10.2-2.99,5.13,10.99,5.8,17.4-1.7-.33-7.25.84-8.06-.97-.31-.71-.37-14.79,0-15.47.06-.11,1.94-.87,2.26-.97Z"/>
          <path class="cls-7" d="M110.21,399.31c.49-.22,5.19-.08,5.48.32-.1,4.46,1.35,5.71-3.87,5.8,6.95.95,3.05,11.9,3.54,17.72l-5.48-.32c.99-3.21-2.27-22.37.32-23.52Z"/>
          <path class="cls-7" d="M103.12,424.44c9.31-.88,5.51,3.57,1.29,7.73,7.9-1.61,2.46-9.65,10.96-7.73,3.23,9.05-8.14,6.8-12.89,11.6l.64-11.6Z"/>
          <path class="cls-8" d="M99.9,406.39l.64,16.75c-2.1,1.3-2.21-15.14-.64-16.75Z"/>
          <g>
            <path class="cls-7" d="M86.37,383.2l16.43.32-.32,14.5-5.48-.32c-1.01-1.42,1.7-12.18-1.29-13.53l-.32,20.94c-15.22,3.77-7.87-12.65-9.02-21.91Z"/>
            <path class="cls-7" d="M90.24,385.13l2.58,10.96c-.73.26-5.47-9.11-2.58-10.96Z"/>
          </g>
          <g>
            <path class="cls-7" d="M123.1,405.75c1.08-.07,6.38-.23,6.77.32l-.32,17.08c-17.17,2.04-11.89-3.2-12.57-16.43,1.83.03,4.65-.87,6.12-.97Z"/>
            <polygon class="cls-2" points="127.61 410.91 118.59 422.5 120.85 416.38 127.61 410.91"/>
          </g>
          <g>
            <path class="cls-7" d="M99.9,424.44c2.86-2.36.93,13.48,1.93,14.18,3.75-3.77,8.82-5.64,13.85-6.77l-.32,11.92-16.43-.32c.28-2.35.23-18.4.97-19.01Z"/>
            <path class="cls-5" d="M101.84,441.19c.8-.55.85,2.47,0,1.93-.49-.31-.55-1.55,0-1.93Z"/>
          </g>
        </g>
      </g>
      <g>
        <path class="cls-7" d="M260.68,362.57c-1.8,7.16.2,14.61,0,21.59-.01.51-1.26-.03-1.29.97-.49,18.99.68,38.05-.64,57.03-12.46,5.39-2.24-5.84-1.61-11.28-3.55,1.96-5.73,14.94-7.73,14.82-3.62-.22,4.51-12.81-.32-14.5.48,5.29-.17,9.64-3.54,13.85l-1.61-8.7-.64,16.11h3.87c-.39,5.16,2.12,7.97-4.51,7.73l5.8.64-1.29-13.53-2.58,3.22c-1.27-4.25,2.68-5.37,5.48-3.54,2.14,1.4.32,5.89,5.16,4.51-1.96-1.69-3.41-2.35-2.9-5.48.5-1.38,6.22-2.35,6.44-1.93.93,1.75,1.14,31.23-.32,31.9l-101.17-.64.32-111.81,103.11-.97Z"/>
        <g>
          <path class="cls-5" d="M191.09,460.53c.22-.84,1.83-.89,1.93-1.61.84-6.06-.13-15.08,0-21.59.35-17.05-.26-34.17,0-51.23l41.56-.97,2.26,88.61-2.9-87.32-39.63.32v85.71l-1.29.64c-.87-3.19,2.02-11.33-1.93-12.57Z"/>
          <path class="cls-6" d="M198.82,432.82v38.34h33.51c-.97-26.28.55-52.63,0-78.94l1.93,80.87-38.66-.64.64-71.53.64,70.89c1.63.97,1.12-.36,1.29-1.29,1.49-8.2.39-27.91.64-37.7Z"/>
          <path class="cls-6" d="M172.4,456.66c-2.5.18-6.89.58-9.02-.97,4.79-1.22,2.12-10.88,4.19-15.14.42.07-1.23,20.31,2.26,14.5.6-1-2.06-15.7-.64-18.37,3.03,7.52-3.3,21.82,9.67,18.37-1.18,1.88-4.66,1.48-6.44,1.61Z"/>
          <path class="cls-6" d="M232.33,389.64c-11.07-2-22.47.18-33.51,0-.63-.01-6.16-1.01-2.9-1.93,1.77-.5,34.96-.47,36.73,0,2,1.22-.32,1.84-.32,1.93Z"/>
          <path class="cls-10" d="M162.41,392.86c9.21,5.56,18.01,12.54,24.81,20.94-8.53-6.7-16.25-14.26-24.81-20.94Z"/>
          <path class="cls-2" d="M162.41,414.13c1.88.25,12.71,12.08,10.31,12.89l-10.31-12.89Z"/>
          <path class="cls-10" d="M250.05,410.91l7.41,5.48c-1.61-.34-9.47-3.41-7.41-5.48Z"/>
          <path class="cls-7" d="M250.05,395.44l4.83,3.54c-.35,1.05-5.51-2.09-4.83-3.54Z"/>
          <path class="cls-5" d="M237.81,447.64c.89-.41,2.61,2.44,2.58,3.22-1.13.35-3.21-2.93-2.58-3.22Z"/>
          <path class="cls-6" d="M184.64,421.86c.38-1.07-.72-2.89.97-3.87.99,1.28-.59,2.86-.97,3.87Z"/>
          <path class="cls-1" d="M190.12,432.17c.31-.02.43.56.32.97-.37,2.4-1.15-.92-.32-.97Z"/>
          <g>
            <path class="cls-7" d="M180.13,434.75c4.56,3.01,7.98.64,12.89,2.58-.13,6.51.84,15.53,0,21.59-.1.72-1.72.77-1.93,1.61-.2.79,1.45,4.37-.97,5.8l-15.79-.64c.07-1.33.7-6.13.64-6.44-.47-2.62-2.67-.05-2.58-2.58,1.78-.13,5.26.27,6.44-1.61-12.97,3.46-6.64-10.85-9.67-18.37-.14-.36-.46-1.05-.64-1.29,4-5.64,7.3,9.8,11.92,7.73,1.07-.48-.72-1.81-.32-2.26.83-.92,5.3-2.76,5.16-3.22-.24-.76-4.02,1.38-4.19-2.26l-1.93,5.16c-1.78-2.71.39-3.64.97-5.8Z"/>
            <path class="cls-6" d="M185.61,438.62c1.37-.32,4.47,2.77,4.83,3.54,2.76,5.79-10.44,1.54-5.48-2.26,2.42,7.17,5.39,3.61.64-1.29Z"/>
            <path class="cls-1" d="M182.07,451.5c5.47.05,4.59-4.24,8.38,2.9l-2.9-2.26c-1.78,1.52-3.84-.05-5.48-.64Z"/>
            <path class="cls-1" d="M182.07,451.5c-.54-.2-1.46.35-1.93-.32,1.22-1.14,1.84.32,1.93.32Z"/>
          </g>
          <g>
            <path class="cls-6" d="M184.64,421.86c-1.69,4.45-3.26,8.22-4.51,12.89-.58,2.16-2.74,3.08-.97,5.8l1.93-5.16c.17,3.64,3.95,1.5,4.19,2.26.15.46-4.32,2.3-5.16,3.22-.4.44,1.4,1.77.32,2.26-4.63,2.07-7.92-13.37-11.92-7.73-1.92-2.45-8.39-2.94-5.16-9.34,4.48-1.77,7.21,2.17,10.63,4.19,2.71-8.76-2.23-11.83-7.73-17.4,2.92-.2,8.4,8.31,9.02,8.38s7.31-7.47,10.63-4.83c-3.26,1.31-11.32,3.63-9.34,8.06l6.44-5.8c.66-.2.52,6.32,1.61,3.22Z"/>
            <g>
              <path class="cls-7" d="M179.17,429.59c1.76.52-2.2,8.77-2.58,10.31-3.26-3.87-4.94-7.26,1.61-8.06l-2.26-1.61,3.22-.64Z"/>
              <path class="cls-7" d="M164.99,426.37c.79-.3,5.82,2.7,6.77,3.54-2.89,1.18-4.36-.18-6.12-2.26,7.01,13.02-5.69.66-.64-1.29Z"/>
              <path class="cls-7" d="M176.59,425.73c.89-.39,5.11-.32,4.83,1.61-.48,3.42-9.68.51-4.83-1.61Z"/>
              <polygon class="cls-7" points="169.5 431.53 174.33 431.85 170.14 433.46 169.5 431.53"/>
              <path class="cls-7" d="M180.45,423.15c3.5-.76.06,3.34-2.26,1.61.99-.08,1.95-1.55,2.26-1.61Z"/>
            </g>
          </g>
          <g>
            <path class="cls-6" d="M174.98,459.24c.06.32-.57,5.11-.64,6.44s.23,7.73,0,8.06c-.21.3-6.87.98-7.41.32-1.84-2.26.19-12.52-3.54-14.5l11.6-.32Z"/>
            <path class="cls-7" d="M166.92,459.88c.57-.23,5.84-.08,6.12.32.75,30.53-10.17,1.29-6.12-.32Z"/>
          </g>
          <g>
            <path class="cls-7" d="M232.33,389.64c-.04,1.01-.02,1.56,0,2.58.55,26.31-.97,52.66,0,78.94h-33.51v-38.34c.37-14.36,1.6-28.82,0-43.18,11.04.18,22.44-2,33.51,0Z"/>
            <path class="cls-7" d="M225.24,445.7c2.33,2.1,6.21,4.97,5.8,8.06-1.12,1.6-1.15.34-1.93.32-3.75-4.39-7.98-8.37-12.24-12.24v-1.93c2.07,1.89,7.97,5.43,8.38,5.8Z"/>
            <path class="cls-10" d="M216.86,441.84c4.26,3.88,8.49,7.85,12.24,12.24-2.24-.06-20.64-19.45-24.49-21.59,1.27-1.59.96-.61,1.93,0,2.43,1.51,7.8,7.06,10.31,9.34Z"/>
            <path class="cls-1" d="M225.24,445.7c-.41-.37-6.3-3.91-8.38-5.8-1.25-1.14-2.14-2.76-3.87-3.54.86-1.83,11.09,7.79,12.24,9.34Z"/>
            <path class="cls-7" d="M217.83,430.24c3.56,1.31,6.7,4.82,9.34,7.41-3.45-1.11-7.05-4.69-9.34-7.41Z"/>
            <g>
              <path class="cls-6" d="M217.19,405.75c.84.58.04,15.72.32,18.37.12,1.1,1.94,1.8,1.93,1.93-.07,1.86-8.88,1.72-10.63,1.61-1.22-.54-1.44-18.58-.97-19.65,1.1-2.49,8.05.78,9.34-2.26Z"/>
              <g>
                <path class="cls-7" d="M209.45,408.33l7.41.97c-3.27,7.47,5.77,20.29-7.73,16.75l.32-17.72Z"/>
                <path class="cls-10" d="M211.39,423.79l4.19.32c-1.05,2.16-5.92.21-4.19-.32Z"/>
              </g>
            </g>
          </g>
        </g>
      </g>
    </g>
  </g>
</svg>