<?xml version="1.0" encoding="UTF-8"?>
<svg id="uuid-8fd09a2e-8b3c-4849-ba28-22f8aa2b5d36" data-name="Laag 2" xmlns="http://www.w3.org/2000/svg" viewBox="0 0 512 569.61">
  <defs>
    <style>
      .uuid-c43120f2-7809-411f-97d8-587c1bce6e87 {
        fill: #224771;
      }

      .uuid-9c97fd7f-0c3e-4daf-995e-586a92fb199f {
        fill: #252959;
      }

      .uuid-702f18e9-004e-47ee-84bd-2233f93269c4 {
        fill: #3b284f;
      }

      .uuid-80003db4-4d2b-459b-956e-fe14942e3e46 {
        fill: #38bcdb;
      }

      .uuid-8d054777-ee41-4454-8aac-6b1f20552df8 {
        fill: #5ac4ea;
      }

      .uuid-bd122fa8-94c8-4555-8c1d-817ce57273e0 {
        fill: #215f8d;
      }

      .uuid-6301692d-dd6f-4e2b-8c1b-c09842672746 {
        fill: #2768b1;
      }

      .uuid-ebb8bf50-69d1-4691-8346-48acad481b57 {
        fill: #282d4f;
      }

      .uuid-5fd14f1a-d417-4768-86ee-d3136a8f6807 {
        fill: #2b88c7;
      }

      .uuid-c905ab06-98f3-4208-b035-81e116746e99 {
        fill: #2b9ad1;
      }

      .uuid-767590a7-c131-4d52-a826-abb7ea521c09 {
        fill: #6fc8e2;
      }

      .uuid-3b1c3255-01b9-4491-b84f-e7a2ec92a226 {
        fill: #22548f;
      }

      .uuid-35c680d2-d4cd-4f71-89fa-aae9e786c266 {
        fill: #30bdeb;
      }

      .uuid-050b7bd7-bcce-474a-a824-4e0d032bd21f {
        fill: #2dacd3;
      }

      .uuid-7067d55f-569b-4e8b-97a0-fd85a7c5048c {
        fill: #2d73a1;
      }

      .uuid-89959dce-36fc-4fb8-bed0-fadfa98bb72a {
        fill: #1e365f;
      }

      .uuid-2de965ee-3231-4725-a745-389faeefb845 {
        fill: #2cace3;
      }
    </style>
  </defs>
  <g id="uuid-db0ef9ad-c036-48d1-bbf4-b390216b1e00" data-name="Generatief object">
    <path class="uuid-89959dce-36fc-4fb8-bed0-fadfa98bb72a" d="M194.09,423.24v93.63c.17.41.54.59.81.87-2.36,0-4.74,0-7.1,0-.01-.05-.1-.22-.12-.23.31-.6.31-1.49.35-2.15.87-13.46,1.48-26.93,2.33-40.38l-6.28-5.7-.35-14.43,4.54-.35-.12-30.61c2.06-.32,4.15.49,5.94-.64Z"/>
    <g>
      <path class="uuid-89959dce-36fc-4fb8-bed0-fadfa98bb72a" d="M196.66,419.98l-38.58-.23c-.14.06-.44.84-.52,1.05-.28.68-1.66,5.32-2.04,5.47-1.9-.36-5.16.48-6.87.12-.27-.06-1.26-.86-1.63-.93-.46-.09-5.49-.18-5.64.06-.06.09.07,1.21-.99.76-.44-.19-1.68-5.62-1.4-6.4l-29.15-.35c-.24-4.17.13-8.61.06-12.8h86.7c-.13,4.3.38,9.01.06,13.27Z"/>
      <path class="uuid-2de965ee-3231-4725-a745-389faeefb845" d="M142.13,414.39c11.35-.08,22.7,0,34.04.29-12.74.13-25.49.28-38.23.17-2.76-.02-8.71.31-11.06-.12-.17-.03-.41.06-.23-.23,5.15.14,10.32-.08,15.48-.12Z"/>
    </g>
    <g>
      <path class="uuid-35c680d2-d4cd-4f71-89fa-aae9e786c266" d="M196.66,419.98c-.01.15.02.32,0,.47l-38.46-.35-.29.41,38.52.52c-.15.26-2.05,2.04-2.33,2.21-1.78,1.13-3.87.32-5.94.64l.12,30.61-4.54.35.35,14.43,6.28,5.7c-.84,13.46-1.46,26.93-2.33,40.38-.04.66-.04,1.55-.35,2.15-.02-.02-.2-.09-.23-.12l2.44-41.84c-5.69-.02-11.53-.52-17.22-.17-.04-.42-1.23-.3-1.51,0v5.47c-.01.2.01.29-.12.47-.1-.14-.25-.25-.35-.35-.46-.76-.81-1.57-1.45-2.21.31.76.9,1.62,1.45,2.21.17.27.28.36.35.47.11.16.32.31.35.52-.49-.28-.19.02-.58.06l-2.97-5h-23.16c-.14.17-.23.03-.29.29-.1.43,1.15,3.8.93,4.19-9.66.39-19.54.04-29.27.29-.28-.19.74-1.36.47-.35.26.14,3.37-3.95,3.96-4.31h22.23l.52,2.97c-.13.38-7.52.37-8.09.29-.14-.02-.79-.52-.93-.47.07.97-.38,0-.7-.12-1.25-.47-5.48-.88-6.17.58l.12-.58c-1.81,1.1-4.33.32-6.4.35,1.21-1.85,4.34-2.15,6.4-2.56.17-.29-.07-.2-.23-.23-.39-.07-6.2.03-6.52.12-.36.11-2.31,2.56-2.68,3.03.46-.1,1.64.13,1.98,0,.12-.05,1.15-1.47,1.86-1.86,1.03-.57,3.05-1.16,4.19-.93-2.05.31-4.55.8-5.64,2.73.16,0,.47.17.52.17,3.36.52,10.43-.05,14.08-.12,1.05-.02,8.23.18,8.44-.29l-.52-3.32h-22.58l-5.06,4.89s-.18-.22-.23-.23c.02-.02-.02-.09,0-.12.03-.02.38.05.17-.23-.1.05-.13.18-.17.23-.13.11-.7.49-.58.7l2.21.35c-1.03.02-2.06-.01-3.08,0l-.23,1.98-.06-2.04c2.56-1.65,4.92-4.81,7.45-6.34.08-.05.4.07.47-.06l-.12-21.18-.47-.41c.11.01.23,0,.35,0,11.5.83,24.85-.18,36.54-.23,10.09-.05,20.18.07,30.26.06l-.17-32.88-.76.17.06,32.06-17.86-.06-.17-32.3-11.11.06v22.4l-.23-22.93c.09-.21.38-.99.52-1.05l38.58.23Z"/>
      <g>
        <path class="uuid-c43120f2-7809-411f-97d8-587c1bce6e87" d="M183.21,454.66l.35,8.26c-.83-2.49-.27-5.59-.35-8.26Z"/>
        <g>
          <path class="uuid-c43120f2-7809-411f-97d8-587c1bce6e87" d="M121.47,475.96c.12-.25.36,0,.58-.23.63-.67-.24-16.31.12-18.45l-.23,1.34v-3.84l60.81-.12.29,7.16c-2.05-1.85-2.45,3.17-1.8,3.55.47.28,2.69.36,2.33-.81.67,1.5-1.43,1.12-2.44,1.05-.05,0-.35-.58-.81,0-.32-.95-1.18-4.3-2.68-3.72-.18.07-1.23,3.13-1.22,3.32.02.35,1.09,1.04,1.16,1.28.09.3-.08,1.7-.29,1.8-.23.12-4.52-.51-5.24-.35l-.12-2.68-3.26-.12-.06,3.08c-1.54.51-.58-1.04-1.98-.47l.23,8.26c-6.15.12-12.47.07-18.68.06-.09,0-.15,0-.23,0-4.27,0-8.68.04-12.86-.06-.45-.56,1.47-.48,1.8-.64l-.41.41c.7.15.43-.71.87.17l.06-.64c-1.47-.68-2.14-.89-3.72-.35.43-.9-.18-4.16.12-4.77.07-.14.63-.15.7-.35.04-.13-.18-2.6-.23-2.79-.33-1.23-1.7-1.92-2.85-1.34-1.26.64-.6,3.04-.76,4.25-.01.09-.95,1.07-.29,1.69l.29-.76-.06,5.3c-1.23-.07-1.75.44-1.86-1.05l-.12,1.05c.63-1.4-2.74-1.48-2.5-.64.06.21,1.72-.03,2.04.06l-.12.58-6.58-.23Z"/>
          <path class="uuid-7067d55f-569b-4e8b-97a0-fd85a7c5048c" d="M160.87,457.8c.37,6.04.14,12.11.12,18.16-.37-6.04-.14-12.11-.12-18.16Z"/>
          <path class="uuid-7067d55f-569b-4e8b-97a0-fd85a7c5048c" d="M122.05,475.73l-.12-17.11.23-1.34c-.36,2.13.52,17.78-.12,18.45Z"/>
          <path class="uuid-7067d55f-569b-4e8b-97a0-fd85a7c5048c" d="M125.37,465.14c.1,3.6.1,7.22,0,10.82l-.17-5.3.17-5.53Z"/>
        </g>
        <g>
          <path class="uuid-89959dce-36fc-4fb8-bed0-fadfa98bb72a" d="M196.66,420.45c-.1.69-.13.4-.23.58l-38.52-.52.29-.41,38.46.35Z"/>
          <path class="uuid-89959dce-36fc-4fb8-bed0-fadfa98bb72a" d="M188.22,421.49l6.92.06c-.33.25-1.82,1.86-2.04,1.92s-4.55.1-4.77,0c-.31-.14-.17-1.64-.12-1.98Z"/>
          <g>
            <polygon class="uuid-c43120f2-7809-411f-97d8-587c1bce6e87" points="169.6 421.38 186.65 421.55 186.59 453.27 169.54 453.09 169.6 421.38"/>
            <path class="uuid-767590a7-c131-4d52-a826-abb7ea521c09" d="M183.91,444.42c.22,2.04.3,4.13,0,6.17-.3-2-.28-4.17,0-6.17Z"/>
            <path class="uuid-8d054777-ee41-4454-8aac-6b1f20552df8" d="M183.33,444.42c.53.74.29,2.2.29,3.08,0,1.03.22,2.4-.29,3.32.18-2.13-.06-4.27,0-6.4Z"/>
            <g>
              <path class="uuid-8d054777-ee41-4454-8aac-6b1f20552df8" d="M181.93,445.23l.52.17c-.08.58.13,4.58-.06,4.71-.04.03-.58.02-.64-.06-.14-.2-.04-4.73.17-4.83Z"/>
              <path class="uuid-89959dce-36fc-4fb8-bed0-fadfa98bb72a" d="M182.05,445.47c.36,1.39.14,3,.12,4.42-.36-1.42-.14-2.98-.12-4.42Z"/>
            </g>
          </g>
        </g>
        <g>
          <path class="uuid-c43120f2-7809-411f-97d8-587c1bce6e87" d="M121.94,454.78v3.84l.12,17.11c-.22.24-.46-.01-.58.23-.1-7.03-.47-14.23-.06-21.18h.52Z"/>
          <g>
            <path class="uuid-c43120f2-7809-411f-97d8-587c1bce6e87" d="M131.07,477.47c3.41.39,8.22-.83,10.42,2.5-1.4.52-1.46-.4-2.5-.99-2.52-1.44-3.28-.21-5.59-.12-1.19.05-2.54-.54-3.84-.12-.22.07-.14.42-.23.47-.18.09-3.36-1.04-3.96-.81.39-.51,1.89-.65,2.56-.7,3.12-.21,6.39.67,9.43.23l-6.28-.47Z"/>
            <path class="uuid-89959dce-36fc-4fb8-bed0-fadfa98bb72a" d="M142.94,480.61c.72.01,1.06-.15.93.81l-26.71-.17c.43-.39,1.41-.37,2.04-.41,7-.45,16.64-.37,23.74-.23Z"/>
            <path class="uuid-c43120f2-7809-411f-97d8-587c1bce6e87" d="M120.83,476.31l46.73.29-23.33-.06c-.51.2,1.19,4.68.7,4.89-.14.06-.69-.05-.76-.17-.05-.69-.63-4.57-.99-4.71l-22.35-.23Z"/>
            <path class="uuid-c43120f2-7809-411f-97d8-587c1bce6e87" d="M185.25,471.3c.5.75.41,2.93-.41,2.68-.29-.09-3.37-4.12-3.78-4.71l2.73.06c.43.2-.01,1.59-.17,1.92.05.07,1.65.41,1.63.06Z"/>
            <path class="uuid-c43120f2-7809-411f-97d8-587c1bce6e87" d="M136.78,478.4c.84.01,2.59.87,3.03,1.63-2.5.17-4.61.33-6.92-.76-.02-.2,3.59-.88,3.9-.87Z"/>
            <path class="uuid-c43120f2-7809-411f-97d8-587c1bce6e87" d="M181,465.72c.41.27,1.99-.02,2.27.29.23.26.18,2.81-.29,2.97-2.7.15-2.35-1.04-1.98-3.26Z"/>
            <path class="uuid-c43120f2-7809-411f-97d8-587c1bce6e87" d="M124.09,478.52c.47-.06,4.43.43,4.36.76-2.16,1.1-4.76.85-7.1.58-.04-.16,2.43-1.3,2.73-1.34Z"/>
            <path class="uuid-c43120f2-7809-411f-97d8-587c1bce6e87" d="M169.01,465.72c.11-.05,2.34.05,2.44.12.15.11,0,1.72.06,2.04-.54.61-1.05-.21-1.11-.17-.08.06.15,1.37-1.28.81-.46-.18-.38-2.68-.12-2.79Z"/>
            <path class="uuid-c43120f2-7809-411f-97d8-587c1bce6e87" d="M172.16,468.63l4.07.23c.6,1.31-.14,2.14-.7,3.03-1.03-1.16-1.87-2.67-3.38-3.26Z"/>
            <path class="uuid-c43120f2-7809-411f-97d8-587c1bce6e87" d="M137.94,477.47c.59.11,4.34-.14,4.54,0,.1.07.4,2.18.41,2.5-1.26.4-1.54-.92-2.62-1.57-.72-.43-1.57-.6-2.33-.93Z"/>
            <path class="uuid-c43120f2-7809-411f-97d8-587c1bce6e87" d="M177.51,462.69c.15-.08,1.54.26,1.69.41s.73,1.96.41,2.15l-2.73-.17c.09-.36.38-2.25.64-2.39Z"/>
            <path class="uuid-c43120f2-7809-411f-97d8-587c1bce6e87" d="M167.85,469.44c1.36,1.45,3.02,2.98,3.96,4.66l17.52.29-17.52-.06c-.98-1.39-2.88-2.8-3.78-4.13-.17-.26-.51-.55-.17-.76Z"/>
            <path class="uuid-c43120f2-7809-411f-97d8-587c1bce6e87" d="M178.21,465.72l1.92.06-.06,2.62-2.62-.17c1.61-.66.44-1.23.76-2.5Z"/>
            <polygon class="uuid-89959dce-36fc-4fb8-bed0-fadfa98bb72a" points="171.23 474.56 180.54 474.68 189.79 474.97 180.3 474.91 171.23 474.56"/>
            <path class="uuid-c43120f2-7809-411f-97d8-587c1bce6e87" d="M181.35,463.16l1.92.17c.67,2.83-2.82,2.7-1.92-.17Z"/>
            <path class="uuid-89959dce-36fc-4fb8-bed0-fadfa98bb72a" d="M132.24,465.72c1.87-.1,1.96,2.23,1.8,3.55-.3.17-.2-.07-.23-.23-.17-.93.2-2.67-1.22-2.85-2.48-.31-.98,2.96-1.34,4.36-1.48.03-.37-.17-.35-.23.42-1.25-.93-4.48,1.34-4.6Z"/>
            <path class="uuid-89959dce-36fc-4fb8-bed0-fadfa98bb72a" d="M180.83,470.02c-.27-.34-.35-.67-.52-1.05l-8.32-.76,8.44.41c-.08.59,2.02,2.49,1.92,2.62-.39.51-1.3-.95-1.51-1.22Z"/>
            <polygon class="uuid-c43120f2-7809-411f-97d8-587c1bce6e87" points="185.89 471.77 187.98 473.86 187.87 474.1 185.48 473.92 185.89 471.77"/>
            <path class="uuid-c43120f2-7809-411f-97d8-587c1bce6e87" d="M176.81,468.98l1.75,2.21c-1.22.36-2.4-1.06-1.75-2.21Z"/>
            <polygon class="uuid-89959dce-36fc-4fb8-bed0-fadfa98bb72a" points="167.15 469.44 167.56 469.85 167.27 476.19 167.15 469.44"/>
            <path class="uuid-89959dce-36fc-4fb8-bed0-fadfa98bb72a" d="M131.07,470.84c.35,1.74.15,3.6.12,5.35l-.29-2.5.17-2.85Z"/>
            <path class="uuid-3b1c3255-01b9-4491-b84f-e7a2ec92a226" d="M171.17,475.38c-.08,1.81.11,3.66,0,5.47v-5.47Z"/>
            <path class="uuid-c43120f2-7809-411f-97d8-587c1bce6e87" d="M168.26,470.84c1.04,1.03,2.33,2.21,2.97,3.49-.34.18-2.65-3.08-2.97-3.49Z"/>
            <path class="uuid-c43120f2-7809-411f-97d8-587c1bce6e87" d="M130.14,478.87c.25-.08,2.52,0,2.62.17-.02.45-3.53.12-2.62-.17Z"/>
            <path class="uuid-89959dce-36fc-4fb8-bed0-fadfa98bb72a" d="M181.47,462.58c.19-.08,1.85-.05,1.8.29-.56.44-1.31,0-1.92.06-.07-.04.09-.34.12-.35Z"/>
            <path class="uuid-c43120f2-7809-411f-97d8-587c1bce6e87" d="M185.25,471.3l-1.28-.29.29-.87c.16.55.73.76.99,1.16Z"/>
            <path class="uuid-89959dce-36fc-4fb8-bed0-fadfa98bb72a" d="M183.68,465.83c-.07.44.23,2.94.17,3.08-.02.06-.41.21-.52.17l.35-3.26Z"/>
            <path class="uuid-89959dce-36fc-4fb8-bed0-fadfa98bb72a" d="M180.54,465.72c.13,0,.15,2.49-.12,2.68-.14-.25-.06-2.68.12-2.68Z"/>
            <path class="uuid-89959dce-36fc-4fb8-bed0-fadfa98bb72a" d="M186.36,471.77c.28.31,2.37,1.99,2.39,2.15,0,.06-.16.21-.35.12s-1.73-1.96-2.04-2.27Z"/>
            <path class="uuid-89959dce-36fc-4fb8-bed0-fadfa98bb72a" d="M133.75,475.61c.11-.07,1.38.21,1.11.52-.39.34-1.61-.19-1.11-.52Z"/>
            <path class="uuid-c43120f2-7809-411f-97d8-587c1bce6e87" d="M180.83,470.02l.52,1.16c-.95-.03-1.16-.39-.52-1.16Z"/>
            <path class="uuid-c43120f2-7809-411f-97d8-587c1bce6e87" d="M135.73,474.8c.13-.02.51.33.58.47-.85-.44-.21.1-.58.12-.51.02-.79-.29-1.34-.29.57-.42.86.05,1.11.06.11,0,.19-.34.23-.35Z"/>
            <path class="uuid-c43120f2-7809-411f-97d8-587c1bce6e87" d="M170.7,480.96c-.56-.59-1.14-1.45-1.45-2.21.64.64,1,1.45,1.45,2.21Z"/>
            <path class="uuid-c43120f2-7809-411f-97d8-587c1bce6e87" d="M177.86,462.11c.21-.06,1.15.47,1.11.64l-1.34-.17c-.02-.08.21-.46.23-.47Z"/>
            <path class="uuid-89959dce-36fc-4fb8-bed0-fadfa98bb72a" d="M131.66,470.84c.08-.03.24.02.35,0l.06.29-.52.76c-.09-.04-.15-.94.12-1.05Z"/>
            <path class="uuid-c43120f2-7809-411f-97d8-587c1bce6e87" d="M176.58,470.61c.11-.04.67.49.64.52-.34.44-1.26-.28-.64-.52Z"/>
            <path class="uuid-c43120f2-7809-411f-97d8-587c1bce6e87" d="M181.93,461.76c.21-.05.72-.05.87.17l-1.11.06c-.12-.06.22-.23.23-.23Z"/>
            <path class="uuid-3b1c3255-01b9-4491-b84f-e7a2ec92a226" d="M126.42,475.26c.32.08,1.05-.2,1.22.17-.24.03-1.08.11-1.22-.17Z"/>
            <path class="uuid-89959dce-36fc-4fb8-bed0-fadfa98bb72a" d="M133.87,475.14l.99.41c-.01.06-1.14-.07-.99-.41Z"/>
            <path class="uuid-89959dce-36fc-4fb8-bed0-fadfa98bb72a" d="M170.53,468.28l.99.06c-.15.24-.99.32-.99-.06Z"/>
            <path class="uuid-89959dce-36fc-4fb8-bed0-fadfa98bb72a" d="M177.39,465.83c.07-.04.47-.05.41.17.44,1.14-.54-.11-.41-.17Z"/>
            <path class="uuid-c43120f2-7809-411f-97d8-587c1bce6e87" d="M177.98,466.88c.17,0,.26.6.12.7-.43.29-.28-.69-.12-.7Z"/>
            <path class="uuid-c43120f2-7809-411f-97d8-587c1bce6e87" d="M181.7,462.23c.44.03.91-.07,1.34.06,0,.07-1.24.16-1.34-.06Z"/>
            <path class="uuid-c43120f2-7809-411f-97d8-587c1bce6e87" d="M168.26,470.84c-.12-.12-.68-.38-.52-.7.28.17.36.49.52.7Z"/>
            <path class="uuid-3b1c3255-01b9-4491-b84f-e7a2ec92a226" d="M115.07,481.55c-.17.21-.32.46-.58.58-.12-.21.46-.59.58-.7-.02.02.02.09,0,.12Z"/>
            <path class="uuid-ebb8bf50-69d1-4691-8346-48acad481b57" d="M133.87,469.56c.09-.02.36-.02.41.06-.35.51-.79.04-.41-.06Z"/>
            <path class="uuid-3b1c3255-01b9-4491-b84f-e7a2ec92a226" d="M171.69,465.49c.22.07.23.68.12.7-.03-.09-.28-.66-.12-.7Z"/>
            <path class="uuid-89959dce-36fc-4fb8-bed0-fadfa98bb72a" d="M166.92,467.93c.09-.05.51-.02.41.17-.11.2-.58-.08-.41-.17Z"/>
            <path class="uuid-c43120f2-7809-411f-97d8-587c1bce6e87" d="M171.05,481.31v.12c-.07-.1-.18-.19-.35-.47.09.1.25.21.35.35Z"/>
            <path class="uuid-3b1c3255-01b9-4491-b84f-e7a2ec92a226" d="M185.42,470.84s.33.27.23.35c-.17.07-.41-.3-.23-.35Z"/>
            <path class="uuid-3b1c3255-01b9-4491-b84f-e7a2ec92a226" d="M115.07,481.43c.04-.05.08-.18.17-.23.21.28-.15.21-.17.23Z"/>
            <g>
              <path class="uuid-c43120f2-7809-411f-97d8-587c1bce6e87" d="M172.68,469.21c-1.07.01-.41.64-.58,1.22-.08.26-.85.48-.64.87l2.5-.17c-1.75.27-.67-1.76-1.28-1.92,1.19.65,3.82,4.63,4.13,4.66,1.12.1-1.67-2.16-.7-2.44.13-.04,2.55-.04,2.68,0,.18.06,1.85,1.99.76,2.27.21.17.8-.39.81-.47.07-.48-3.28-4.08-2.97-4.25,1.74.17,4.15-.18,2.5,2.27,2.47-.17,3.26.93,4.66,2.68-4.05.16-8.2.07-12.28-.06-1.47-1.34-2.64-3.31-4.19-4.54-.31-.24-1.01-.11-1.11-.76.08-.24,1.61-.08,1.92-.06.09,0,.03.23.12.23.54.04,2.52-.11,2.79,0,.09.04-.1.52.12.47.48-.12-.25-.55.76,0Z"/>
              <polygon class="uuid-35c680d2-d4cd-4f71-89fa-aae9e786c266" points="179.61 471.65 182.11 472.18 180.89 472.12 179.61 471.65"/>
              <path class="uuid-c905ab06-98f3-4208-b035-81e116746e99" d="M171.11,471.3c.04.09.27.44.12.47-.24.04-.23-.29-.12-.47Z"/>
            </g>
            <g>
              <path class="uuid-c43120f2-7809-411f-97d8-587c1bce6e87" d="M131.89,466.42c.71-.23,1.34.23,1.57.87l.06,8.9-2.04-.06c.19-.9-.25-3.25,0-3.96.02-.06.77-.48.81-.93.1-1.02-.66-.47-.81-.7-.11-.16-.07-3.66,0-3.84.03-.06.35-.27.41-.29Z"/>
              <path class="uuid-7067d55f-569b-4e8b-97a0-fd85a7c5048c" d="M132,472.35c.1,1.19.1,2.41,0,3.61-.1-1.19-.1-2.41,0-3.61Z"/>
            </g>
            <g>
              <path class="uuid-8d054777-ee41-4454-8aac-6b1f20552df8" d="M172.68,469.21c.61.16-.47,2.19,1.28,1.92l-2.5.17c-.21-.39.56-.62.64-.87.17-.58-.48-1.21.58-1.22Z"/>
              <path class="uuid-c43120f2-7809-411f-97d8-587c1bce6e87" d="M172.51,470.26c.62.78.27.9-.58.81l.58-.81Z"/>
              <path class="uuid-89959dce-36fc-4fb8-bed0-fadfa98bb72a" d="M172.51,469.44c.39,0,.09.73-.12.58-.16-.11-.03-.58.12-.58Z"/>
            </g>
            <g>
              <path class="uuid-c43120f2-7809-411f-97d8-587c1bce6e87" d="M167.73,470.96c.5.71,2.93,3.02,3.08,3.67.33,1.42-.31,3.99-.17,5.53-.41-.79-2.7-3.29-2.85-3.9-.09-.37-.27-5.13-.06-5.3Z"/>
              <path class="uuid-050b7bd7-bcce-474a-a824-4e0d032bd21f" d="M167.97,471.42c.36,1.56.15,3.3.12,4.89l-.17-2.27.06-2.62Z"/>
              <g>
                <path class="uuid-8d054777-ee41-4454-8aac-6b1f20552df8" d="M169.25,473.63c1.17.89.97,2.84.23,3.96l-.23-3.96Z"/>
                <path class="uuid-bd122fa8-94c8-4555-8c1d-817ce57273e0" d="M169.6,474.45c.28-.17.27,2.29,0,2.56v-2.56Z"/>
              </g>
            </g>
          </g>
        </g>
      </g>
    </g>
    <g>
      <path class="uuid-89959dce-36fc-4fb8-bed0-fadfa98bb72a" d="M138,420.91c-5.23.65-14.56-.09-20.25-.12-.19,0-.39,0-.58,0-2.41-.01-4.81.04-7.22-.12-.17-.37-.08-.48-.12-.81l28.8.35c.22.8-.09.63-.64.7Z"/>
      <path class="uuid-5fd14f1a-d417-4768-86ee-d3136a8f6807" d="M117.17,420.79c.21.27.01.32,0,.58l-5.82-.06c.33.26,1.95,1.98,2.15,2.04.77.23,2.65-.17,3.55,0,0,.11,0,.24,0,.35-1.53-.14-3.33.38-4.66-.47-.17-.11-2.35-2.37-2.44-2.56,2.4.15,4.81.11,7.22.12Z"/>
      <path class="uuid-89959dce-36fc-4fb8-bed0-fadfa98bb72a" d="M157.55,454.2v-.12l.23-5.18c.23-.39.66-.05.7-.06-.19,1.28.21,3.05.12,4.25-.01.15-.56.16-.29.52.95-.21,10.45.34,10.53-.17.05-.28-.53-.26-.58-.35v-31.19l-9.6-.06c-.37.17-.05,6.67-.06,7.56-.04,4.85-.31,9.74,0,14.61l-.81-.29v-22.4l11.11-.06.17,32.3,17.86.06-.06-32.06.76-.17.17,32.88c-10.08.01-20.17-.1-30.26-.06Z"/>
      <path class="uuid-89959dce-36fc-4fb8-bed0-fadfa98bb72a" d="M138.58,448.73c0,.61-.11,4.88.17,5h18.1l.29.35c-1.98-.1-3.96.08-5.94.12-9.88.17-19.81-.29-29.68,0-.21,0-.57-.12-.52.23-.11,0-.24.01-.35,0-.41-.04-1.05-.14-1.34-.47l18.91-.17-.17-32.53c.61-.24.57.21.64.76.83,7.02-.17,17.38-.23,24.44,0,.76.13,1.49.12,2.27Z"/>
      <path class="uuid-c43120f2-7809-411f-97d8-587c1bce6e87" d="M139.16,450.82v-1.98c1.76-.02,7.48-.5,8.79-.12.26.08,1.54,1.68,1.92,1.92l-10.71.17Z"/>
      <path class="uuid-35c680d2-d4cd-4f71-89fa-aae9e786c266" d="M139.16,448.84v1.98c0,.08,0,.16,0,.23,0,.32-.05,2.13.06,2.21h17.69l-.06.47h-18.1c-.29-.13-.18-4.39-.17-5,.22-.1.49.12.58.12Z"/>
      <path class="uuid-35c680d2-d4cd-4f71-89fa-aae9e786c266" d="M138,420.91l-.35,8.03c0-.88.18-7.53-.17-7.68-4.25.02-8.5-.03-12.74,0l-6.98-.47c5.69.02,15.02.77,20.25.12Z"/>
      <path class="uuid-89959dce-36fc-4fb8-bed0-fadfa98bb72a" d="M117.17,421.38c-.03.63-.11,1.36-.12,1.98-.9-.17-2.78.23-3.55,0-.2-.06-1.82-1.78-2.15-2.04l5.82.06Z"/>
      <g>
        <path class="uuid-c43120f2-7809-411f-97d8-587c1bce6e87" d="M157.55,454.08v.12c-11.69.05-25.04,1.07-36.54.23-.05-.35.31-.23.52-.23,9.87-.29,19.8.17,29.68,0,1.97-.03,3.96-.22,5.94-.12l-.29-.35.06-.47h-17.69c-.11-.08-.06-1.89-.06-2.21h15.19l.12-.23-3.67-.17c.35-.17,1.68-1.88,1.8-1.92.21-.08,4.33-.09,4.54,0l.41,5.35Z"/>
        <path class="uuid-3b1c3255-01b9-4491-b84f-e7a2ec92a226" d="M155.86,448.84c.36.57.14,1.57.12,2.21-.39-.59-.1-1.56-.12-2.21Z"/>
      </g>
      <g>
        <path class="uuid-c43120f2-7809-411f-97d8-587c1bce6e87" d="M161.86,446.28c-.05-.12-1.06-.78-1.28-.93l-.17-20.25.06,20.25c-.28-.2-1.56-.89-1.63-1.11.02-4.95-.03-9.89,0-14.84.01-2.4-.06-4.81.06-7.22l9.14.17v30.72h-9.19c.1-.59-.2-4.2.17-4.36.1-.05,1.98-.02,2.04.06.12.17-.17,2.32.17,2.5.23.12,5.07.06,5.18-.17l-.17-5.18-.17,5.06h-4.77c.13-1.17-.18-2.72,0-3.84.06-.39.6-.82.58-.87Z"/>
        <g>
          <path class="uuid-2de965ee-3231-4725-a745-389faeefb845" d="M158.48,448.84c.86-.22,1.52-.32,2.5-.23-.19-.26,0-.42-.41-.35.01-.08.1-.45.12-.47.05-.07.32-.11.35-.17.16-.31.05-1.45.81-1.34.02.05-.52.48-.58.87-.18,1.12.13,2.67,0,3.84h4.77l.17-5.06.17,5.18c-.11.24-4.95.3-5.18.17-.34-.18-.05-2.33-.17-2.5-.06-.08-1.93-.1-2.04-.06-.37.17-.08,3.77-.17,4.36h9.19v-30.72l-9.14-.17c-.12,2.4-.04,4.81-.06,7.22h-.23c0-.9-.32-7.4.06-7.56l9.6.06v31.19c.05.09.63.07.58.35-.09.52-9.59-.04-10.53.17-.26-.36.28-.38.29-.52.09-1.2-.31-2.96-.12-4.25Z"/>
          <path class="uuid-5fd14f1a-d417-4768-86ee-d3136a8f6807" d="M160.58,445.35s-.09.02-.12,0l-.06-20.25.17,20.25Z"/>
          <path class="uuid-35c680d2-d4cd-4f71-89fa-aae9e786c266" d="M166.1,424.64c.37,2.84.14,5.76.12,8.61-.71-2.76,0-5.8-.12-8.61Z"/>
          <path class="uuid-35c680d2-d4cd-4f71-89fa-aae9e786c266" d="M166.57,425.8c.37,2.41.14,4.91.12,7.33-.37-2.41-.14-4.91-.12-7.33Z"/>
          <path class="uuid-8d054777-ee41-4454-8aac-6b1f20552df8" d="M166.69,445.82c.36,1.7.14,3.52.12,5.24l-.17-2.39.06-2.85Z"/>
          <path class="uuid-35c680d2-d4cd-4f71-89fa-aae9e786c266" d="M165.29,428.24c.32,1.59.21,3.29.12,4.89-.32,0-.16-4.47-.12-4.89Z"/>
          <path class="uuid-8d054777-ee41-4454-8aac-6b1f20552df8" d="M165.29,445.93c.36,1.51.14,3.23.12,4.77-.34-1.55-.18-3.21-.12-4.77Z"/>
          <path class="uuid-35c680d2-d4cd-4f71-89fa-aae9e786c266" d="M164.94,428.36c.1,1.54.1,3.11,0,4.66-.29-1.43-.29-3.23,0-4.66Z"/>
        </g>
      </g>
      <g>
        <path class="uuid-35c680d2-d4cd-4f71-89fa-aae9e786c266" d="M157.55,420.79l.23,22.93.81.29c-.31-4.86-.04-9.75,0-14.61h.23c-.03,4.94.02,9.89,0,14.84.07.22,1.35.91,1.63,1.11.03.02.09-.02.12,0,.22.15,1.24.81,1.28.93-.77-.11-.65,1.02-.81,1.34-.03.06-.3.11-.35.17l-.35.06c-.1-.23.62-1.4.52-1.45-.67-.37-.38.37-.41.41-1.03,1.36-2.59.55-1.92.17.51-.29,1.12.3,1.45-.17-.4-.41-.92-.05-1.34.06l.76-.52c-2.02-1.06-4.48-.92-6.69-.87l-10.01-7.33-3.67,3.67c1.22-.41,1.92-1.89,3.03-2.56-.1.78-2.8,2.7-2.91,3.03-.06.18-.1,3.67.06,3.78l19.26.17c-.23.15-.51,1.07-.64,1.11-.66.2.13-.79-.23-.93h-6.63l-.87.99c.34.43.38-.38.64-.52.37-.21,1.57-.1,1.45.52-.13.71-2.6.47-2.68.23l.64-1.11c-.12-.07-1.9,2.55-.81,0h-10.36c-.51.69.12,1.31.87.99l-.7-.47c.58-.64,1,.11,1.45.52.46-.07-.17-.41-.06-.52.26-.27,1.29.14,1.4.58-.19.58-3.1-.09-2.73.64h21.36c.4-.07.22.09.41.35-.98-.08-1.64.01-2.5.23-.03,0-.47-.33-.7.06l-.23,5.18-.41-5.35c-.21-.09-4.32-.08-4.54,0-.12.04-1.45,1.75-1.8,1.92l3.67.17-.12.23h-15.19c0-.08,0-.16,0-.23l10.71-.17c-.38-.24-1.66-1.84-1.92-1.92-1.31-.38-7.03.1-8.79.12-.09,0-.36-.22-.58-.12.01-.78-.12-1.51-.12-2.27.06-7.06,1.07-17.42.23-24.44-.07-.55-.03-.99-.64-.76l.17,32.53-18.91.17c.29.32.93.42,1.34.47l.47.41.12,21.18c-.07.13-.39.01-.47.06v-20.89l-3.61-1.4c.15-10.03-.14-20.07-.12-30.08,0-.11,0-.24,0-.35,0-.62.09-1.34.12-1.98.01-.26.21-.32,0-.58.19,0,.39,0,.58,0l6.98.47c-2.33.01-4.66-.06-6.98.06l.06,32.06,19.84-.17c-.04-8.09.06-16.18,0-24.27l.35-8.03c.55-.07.86.1.64-.7l-28.8-.35c-.03-.25,0-.33,0-.35l29.15.35c-.28.78.96,6.22,1.4,6.4,1.06.45.93-.67.99-.76.16-.24,5.18-.15,5.64-.06.37.07,1.36.87,1.63.93,1.71.36,4.97-.48,6.87-.12.37-.15,1.76-4.79,2.04-5.47Z"/>
        <g>
          <path class="uuid-89959dce-36fc-4fb8-bed0-fadfa98bb72a" d="M139.98,440.23l-.23-10.77-.12,11.11c-.09.07-.26.48-.47.41l-.06-16.93c.22-.05.65,2.44.93,2.56.3.13,1.42-.14,1.51-.12.06.01,1.08.58,1.11.64.23.45.14,9.42,0,10.13-.14.75-2.04,2.37-2.68,2.97Z"/>
          <path class="uuid-89959dce-36fc-4fb8-bed0-fadfa98bb72a" d="M143,426.96c.37,3.22-.27,7.01,0,10.3.14.24.49.24.58,0,.13-.31,0-4,0-4.71s-.16-5.41,0-5.64c.15-.22.6.04.7.23l.35,10.01v-10.24c.96-.28.61.2.76.87.32-.8.07-1.31,1.22-.76l.23,10.01c.34-1.35-.17-9.6.12-10.01.07-.1.51-.1.58,0,.4.56-.07,9.13.12,10.47l-4.83.17.17-10.71Z"/>
          <path class="uuid-89959dce-36fc-4fb8-bed0-fadfa98bb72a" d="M143.41,438.02l1.51.12,9.95,6.92c-.41-.06-1.79.22-2.04.17-.31-.06-4.52-3.15-5.12-3.61-1.48-1.12-2.92-2.36-4.31-3.61Z"/>
          <path class="uuid-89959dce-36fc-4fb8-bed0-fadfa98bb72a" d="M145.51,438.14c.65-.05,1.03-.02,1.63.23,1.57.65,5.69,4.06,7.45,5.24.91.61,1.88,1.18,2.85,1.69-.05.1-2.03-.09-2.27-.17-.74-.26-6.83-4.67-7.91-5.47-.59-.44-1.28-.93-1.75-1.51Z"/>
          <path class="uuid-89959dce-36fc-4fb8-bed0-fadfa98bb72a" d="M147.37,438.14h.81l12.16,7.86c-.93.13-2.12-.54-2.97-.99-3.37-1.78-6.83-4.72-10.01-6.87Z"/>
          <path class="uuid-8d054777-ee41-4454-8aac-6b1f20552df8" d="M143.58,432.55c0,.71.13,4.4,0,4.71-.1.24-.44.24-.58,0-.27-3.29.37-7.08,0-10.3-.03-.25-.2-.01-.23-.23.04,0,.08,0,.12,0,.12,0,.61-.37.7-.06v5.88Z"/>
          <path class="uuid-5fd14f1a-d417-4768-86ee-d3136a8f6807" d="M139.98,440.23c-.12.11-.2.23-.35.35l.12-11.11.23,10.77Z"/>
          <path class="uuid-89959dce-36fc-4fb8-bed0-fadfa98bb72a" d="M148.88,448.73c1.7-.06,2.09-.22,1.51,1.63-.16.07-1.51-1.26-1.51-1.63Z"/>
          <path class="uuid-89959dce-36fc-4fb8-bed0-fadfa98bb72a" d="M142.13,425.68l5.41.52c-1.29-.35-3.74.26-4.83.06-.04,0-.59-.46-.58-.58Z"/>
          <path class="uuid-89959dce-36fc-4fb8-bed0-fadfa98bb72a" d="M151.32,448.73c1.3-.58-.11.89-.35,1.16-.04-.24.16-1.08.35-1.16Z"/>
          <path class="uuid-c43120f2-7809-411f-97d8-587c1bce6e87" d="M144.11,426.26c.69-.06,1.85.23,2.62.17l-3.08.06c-.07-.08.44-.23.47-.23Z"/>
          <path class="uuid-6301692d-dd6f-4e2b-8c1b-c09842672746" d="M142.89,426.73s-.08,0-.12,0c-.13,0-.27,0-.41,0v-.23c.27.17.56-.18.52.23Z"/>
          <path class="uuid-702f18e9-004e-47ee-84bd-2233f93269c4" d="M151.09,447.21c.1.01.4-.04.41.06,0,.07-.53.14-.41-.06Z"/>
          <g>
            <path class="uuid-89959dce-36fc-4fb8-bed0-fadfa98bb72a" d="M157.14,423.59l.12,19.67-9.37-5.88c.23-1.24-.3-9.82,0-10.24.05-.07,1.07-.04,1.22-.52.86.05,6.4.32,6.75.12.31-.18.96-2.69,1.28-3.14Z"/>
            <path class="uuid-7067d55f-569b-4e8b-97a0-fd85a7c5048c" d="M156.1,428.48c.02,3.44.25,6.93-.12,10.36-.18-3.45.08-6.91.12-10.36Z"/>
          </g>
        </g>
      </g>
      <g>
        <path class="uuid-89959dce-36fc-4fb8-bed0-fadfa98bb72a" d="M124.73,421.26c4.25-.03,8.5.02,12.74,0,.35.16.17,6.8.17,7.68.06,8.09-.04,16.18,0,24.27l-19.84.17-.06-32.06c2.32-.12,4.66-.04,6.98-.06Z"/>
        <g>
          <polygon class="uuid-5fd14f1a-d417-4768-86ee-d3136a8f6807" points="136.08 424.64 136.37 434.12 136.19 443.84 136.02 434.47 136.08 424.64"/>
          <path class="uuid-c905ab06-98f3-4208-b035-81e116746e99" d="M119.44,423.35l13.91.17c-3.96-.08-7.98.26-11.93.17-.41,0-1.82-.06-1.98-.35Z"/>
          <path class="uuid-7067d55f-569b-4e8b-97a0-fd85a7c5048c" d="M133.52,451.52c.52,0,1.68-.17,1.98.23-4.13.07-8.26.22-12.39.06,3.47-.1,6.95-.24,10.42-.29Z"/>
          <path class="uuid-8d054777-ee41-4454-8aac-6b1f20552df8" d="M122.11,443.26c0,.59.27,7.68-.12,7.68-.06-2.54-.22-5.15.12-7.68Z"/>
          <path class="uuid-8d054777-ee41-4454-8aac-6b1f20552df8" d="M121.53,443.37c.27,2.43.36,5.04-.12,7.45.01-2.48.05-4.97.12-7.45Z"/>
          <path class="uuid-767590a7-c131-4d52-a826-abb7ea521c09" d="M133.98,444.19c.25,1.94.39,4.26-.12,6.17-.15-2.06.11-4.11.12-6.17Z"/>
          <path class="uuid-7067d55f-569b-4e8b-97a0-fd85a7c5048c" d="M135.73,443.49l-3.14.35-3.9-.06c0-.35,6.49,0,7.04-.29Z"/>
          <path class="uuid-35c680d2-d4cd-4f71-89fa-aae9e786c266" d="M134.45,444.3c.29,1.96.29,4.09,0,6.05-.1-2.01-.1-4.04,0-6.05Z"/>
          <path class="uuid-8d054777-ee41-4454-8aac-6b1f20552df8" d="M135.73,444.89c.05,1.71.26,3.78-.12,5.35l.12-5.35Z"/>
          <path class="uuid-7067d55f-569b-4e8b-97a0-fd85a7c5048c" d="M136.08,445.35c.29,1.22.29,2.86,0,4.07-.1-1.35-.1-2.72,0-4.07Z"/>
          <g>
            <path class="uuid-8d054777-ee41-4454-8aac-6b1f20552df8" d="M123.39,443.72s.58-.02.64.06c.16.22.16,5.25-.06,5.41-.04.03-.58.02-.64-.06-.16-.22-.16-5.25.06-5.41Z"/>
            <polygon class="uuid-c43120f2-7809-411f-97d8-587c1bce6e87" points="123.63 443.84 123.8 446.34 123.74 449.08 123.57 446.57 123.63 443.84"/>
          </g>
        </g>
      </g>
      <g>
        <path class="uuid-c43120f2-7809-411f-97d8-587c1bce6e87" d="M160.69,447.8s-.1.38-.12.47h-21.36c-.36-.73,2.54-.06,2.73-.64-.11-.44-1.13-.86-1.4-.58-.11.11.51.45.06.52-.45-.41-.87-1.17-1.45-.52l.7.47c-.75.32-1.38-.3-.87-.99h10.36c-1.08,2.55.69-.07.81,0l-.64,1.11c.08.24,2.55.48,2.68-.23.11-.63-1.08-.73-1.45-.52-.26.14-.3.96-.64.52l.87-.99h6.63c.36.14-.43,1.13.23.93.13-.04.41-.96.64-1.11l-19.26-.17c-.15-.11-.12-3.6-.06-3.78.11-.32,2.81-2.24,2.91-3.03-1.11.67-1.81,2.15-3.03,2.56l3.67-3.67,10.01,7.33c2.22-.05,4.67-.19,6.69.87l-.76.52c.42-.11.94-.46,1.34-.06-.33.47-.95-.11-1.45.17-.67.37.89,1.19,1.92-.17.03-.04-.26-.78.41-.41.1.05-.63,1.23-.52,1.45l.35-.06Z"/>
        <g>
          <path class="uuid-8d054777-ee41-4454-8aac-6b1f20552df8" d="M144.46,446.63c.37-.14,3.17-.01,2.97.64-.16.53-2.86.25-3.38,0,.17-.13.22-.57.41-.64Z"/>
          <path class="uuid-89959dce-36fc-4fb8-bed0-fadfa98bb72a" d="M146.55,446.98c.15-.07.48.12.41.29s-.49-.13-.41-.29Z"/>
          <path class="uuid-9c97fd7f-0c3e-4daf-995e-586a92fb199f" d="M144.92,446.98c.2-.01.3-.04.29.17,0,.07-.41-.07-.29-.17Z"/>
        </g>
        <g>
          <path class="uuid-8d054777-ee41-4454-8aac-6b1f20552df8" d="M154.35,446.98c1.65-.51,2.25,1.29-.23.81-.37-.16-.09-.72.23-.81Z"/>
          <path class="uuid-c43120f2-7809-411f-97d8-587c1bce6e87" d="M154.58,447.21c.11-.08.33.05.41.17-.2.18-.67,0-.41-.17Z"/>
        </g>
      </g>
    </g>
    <g>
      <path class="uuid-89959dce-36fc-4fb8-bed0-fadfa98bb72a" d="M117.05,423.7c-.03,10.02.26,20.06.12,30.08l3.61,1.4v20.89c-2.52,1.53-4.88,4.7-7.45,6.34l.06,2.04.23-1.98c1.03-.01,2.06.02,3.08,0,18.3-.31,36.63.23,54.93,0,.01.09.02.13.12.12v2.09l-.23.12-57.9-.12c-.07.79,2.39,0,2.62.52v29.56c1.62-.26.7,1.77.93,2.85-1.79,0-3.68.15-5.47.23.22-.26.44-.53.7-.76v-93.86c1.32.85,3.12.32,4.66.47Z"/>
      <g>
        <path class="uuid-c43120f2-7809-411f-97d8-587c1bce6e87" d="M131.48,529.61c-.13.52-.39,1.03-.47,1.57.43-.33.44-.99.58-1.45.29-.94,2.12-7.76,2.5-7.91.23-.09.97.07,1.28,0,.41.29-2.72,8.55-2.56,9.78l2.85-9.6,5.64-.17-2.15,9.49c.74-.44.87-4.03,1.34-4.25.1-.05,1.64-.01,1.69.06l-.87,4.48,1.28-4.54h6.52c.36.16-.35,4.15-.41,4.77-8.96,0-17.93.03-26.88,0,.5-.83,3.26-7.46,3.67-7.56.08-.02,1.31.21,1.57.17l-2.79,7.1c.38-.84,2.68-7.03,3.03-7.22.08-.05,1.05.19,1.28,0-.1-.39-.88-.03-1.05-.23-.1-.13.78-2.19.99-2.27.24-.09,5.01-.14,5.18.06-.13.62-.29,1.26-.47,1.86-.09.31-.46.43-.47.47-.06.22.25.17.23.23-.5,1.74-1.07,3.42-1.51,5.18Z"/>
        <path class="uuid-c43120f2-7809-411f-97d8-587c1bce6e87" d="M113.56,518.67l6.63.17-6.46,12.86c1.09-1.33,6.17-12.8,6.87-13.03.09-.03,1.28-.03,1.4,0,.1.02.05.72.23,0l5.53.17-6.4,12.98c-3.84-.01-7.68.06-11.52-.06v-12.34c.09-.3,1.17-.87,1.4-1.11.85-.11,1.04.56,1.11.58.04.01.57-.3.76-.06.1.13-2.39,1.82-2.27,2.39.63-.48,2.12-2.3,2.73-2.56Z"/>
        <path class="uuid-c43120f2-7809-411f-97d8-587c1bce6e87" d="M178.5,531.82c-5.93.01-11.87,0-17.81,0-.16-2.46-.28-4.93-.35-7.39,0-.03,0-.29,0-.35-.01-.71-.16-1.39-.12-2.09.16-.37,4.94-.14,5.59-.06l.47,2.04-2.79.35,2.91.12,1.69,6.69-1.45-6.69c.08-.09,1.29-.1,1.4,0,.27.25,1.16,6.4,1.92,7.16l-1.8-7.16,2.09-.23c-.73-.01-1.49-.13-2.21-.17l-1.16-5.18,5.06-.06,4.31,11.99c-.98-4.09-2.85-8.01-3.96-11.99h1.51l4.71,13.03Z"/>
        <path class="uuid-c43120f2-7809-411f-97d8-587c1bce6e87" d="M152.31,518.79l-1.22,12.92,1.11-9.83c1.98-.19,3.96,0,5.94.06l.41,8.5-.17-8.5c.24,0,1.46-.3,1.63-.06l.23,9.95c-3.76,0-7.53,0-11.29,0l1.63-12.98,1.75-.06Z"/>
        <path class="uuid-2de965ee-3231-4725-a745-389faeefb845" d="M117.63,517.62c5.34,0,10.71.12,16.06.12l.47.81c-2.01,0-4.05-.07-6.05.12,0,0-.07.08-.12.12-.09-.3-.3-.22-.52-.23-1.53-.1-13.22-.17-13.91.12-.61.26-2.1,2.08-2.73,2.56-.12-.56,2.37-2.25,2.27-2.39-.18-.24-.72.07-.76.06-.07-.02-.25-.7-1.11-.58.14-.15.36-.35.47-.47,1.79-.09,3.68-.23,5.47-.23.15,0,.31,0,.47,0Z"/>
        <path class="uuid-2de965ee-3231-4725-a745-389faeefb845" d="M184.55,517.74c.26.39,1.89.37,2.09,0,.39,0,.78,0,1.16,0,2.36,0,4.74,0,7.1,0,.27.28.6.46.93.81-1.03.4-7.73-.17-7.91.29.21.13.18.24.23.41-.7-.65-1.21-.66-2.21-.29l5.06,7.62-5.41-7.91c-.89-.37-7.12.13-7.33-.17-.05-.07.04-.59,0-.76,2.09.01,4.19,0,6.28,0Z"/>
        <g>
          <path class="uuid-c43120f2-7809-411f-97d8-587c1bce6e87" d="M195.84,518.56c.13.14.79.58.81.64l-.06,12.63c-5.92,0-11.83-.01-17.75,0l-2.73-7.45c.22-.12,4.66-.08,4.89,0,.38.13,3.78,5.94,4.48,6.81.02.03.54.69.58.35l-8.38-12.69c.06-.07,1.1-.1,1.22-.06.5.17,4.1,6.81,5,7.56l-4.71-7.51,6.4-.17,5.41,7.91-5.06-7.62c1.01-.37,1.51-.36,2.21.29.21.65.72,1.2,1.11,1.75-.13-.57-.69-1.36-1.11-1.75-.05-.17-.03-.28-.23-.41.18-.46,6.89.11,7.91-.29Z"/>
          <path class="uuid-2de965ee-3231-4725-a745-389faeefb845" d="M188.16,519.25c.42.39.98,1.18,1.11,1.75-.39-.55-.9-1.09-1.11-1.75Z"/>
          <path class="uuid-2de965ee-3231-4725-a745-389faeefb845" d="M189.5,521.12c.23.2.44.5.47.81-.19-.08-.53-.59-.47-.81Z"/>
        </g>
        <path class="uuid-c43120f2-7809-411f-97d8-587c1bce6e87" d="M134.62,518.67s-.05.06.12.12l-.99,2.79-5.18-.17c.28-.41,1.1-2.62,1.45-2.73.23-.08,4.14-.05,4.6,0Z"/>
        <path class="uuid-c43120f2-7809-411f-97d8-587c1bce6e87" d="M167.91,524.03c-.24-.01-1.11.3-1.4.06-.08-.07-.39-1.86-.47-2.15,0-.01.25-.11.23-.17-.04-.15-.34-.18-.35-.23-.08-.35-.66-2.57-.58-2.68.07-.09,1.15-.1,1.28,0,.21.17.93,4.58,1.28,5.18Z"/>
        <path class="uuid-35c680d2-d4cd-4f71-89fa-aae9e786c266" d="M166.05,521.93c.07.29.38,2.08.47,2.15.28.24,1.16-.07,1.4-.06.1,0,.11,0,.12,0,.72.04,1.48.16,2.21.17l-2.09.23,1.8,7.16c-.76-.76-1.65-6.91-1.92-7.16-.11-.1-1.32-.09-1.4,0l1.45,6.69-1.69-6.69-2.91-.12,2.79-.35-.47-2.04c.11.01.2-.24.23,0Z"/>
        <path class="uuid-c43120f2-7809-411f-97d8-587c1bce6e87" d="M134.97,518.79s-.02-.11,0-.12c.22-.09,1.03.07,1.34,0,.22.09-.52,2.75-.64,2.85-.19.16-1.14,0-1.45.06-.19-.13.58-2.64.76-2.79Z"/>
        <path class="uuid-35c680d2-d4cd-4f71-89fa-aae9e786c266" d="M158.37,521.93l.17,8.5-.41-8.5c.07,0,.15,0,.23,0Z"/>
        <path class="uuid-7067d55f-569b-4e8b-97a0-fd85a7c5048c" d="M131.6,529.73c-.14.47-.15,1.13-.58,1.45.07-.54.33-1.05.47-1.57l.12.12Z"/>
        <g>
          <path class="uuid-35c680d2-d4cd-4f71-89fa-aae9e786c266" d="M127.99,518.79c-.21.19-2.46,4.78-2.44,5.06,0,.16.07.19.17.29.06.03,1.33.03,1.4,0,.27-.12,2-4.74,2.5-5.3-.07-.19-1.35-.24-1.51-.17,2-.19,4.04-.12,6.05-.12.03,0,.73-.06.47.12-.45-.05-4.37-.08-4.6,0-.35.12-1.18,2.33-1.45,2.73l5.18.17.99-2.79c.05.02.16,0,.23,0-.17.15-.95,2.66-.76,2.79.31-.06,1.26.1,1.45-.06.12-.1.86-2.76.64-2.85-.31.07-1.12-.09-1.34,0l17.34.12-1.75.06-1.63,12.98c-.08,0-.16,0-.23,0,.05-.62.77-4.61.41-4.77h-6.52l-1.28,4.54.87-4.48c-.05-.07-1.59-.1-1.69-.06-.46.22-.6,3.81-1.34,4.25l2.15-9.49-5.64.17-2.85,9.6c-.16-1.22,2.97-9.48,2.56-9.78-.31.07-1.05-.09-1.28,0-.39.15-2.22,6.98-2.5,7.91l-.12-.12c.45-1.76,1.01-3.44,1.51-5.18.02-.07-.3-.01-.23-.23,0-.03.38-.15.47-.47.17-.61.33-1.24.47-1.86-.16-.2-4.94-.15-5.18-.06-.21.08-1.09,2.14-.99,2.27.16.2.94-.16,1.05.23-.23.19-1.2-.05-1.28,0-.34.19-2.65,6.37-3.03,7.22l2.79-7.1c-.26.04-1.49-.19-1.57-.17-.41.1-3.16,6.74-3.67,7.56-.15,0-.31,0-.47,0l6.4-12.98-5.53-.17c-.19.72-.13.02-.23,0-.11-.03-1.31-.03-1.4,0-.7.23-5.78,11.71-6.87,13.03l6.46-12.86-6.63-.17c.68-.29,12.38-.21,13.91-.12.22.01.44-.07.52.23Z"/>
          <polygon class="uuid-c43120f2-7809-411f-97d8-587c1bce6e87" points="144.57 518.67 150.34 518.73 149.23 526.82 142.54 526.64 144.57 518.67"/>
          <path class="uuid-c43120f2-7809-411f-97d8-587c1bce6e87" d="M136.89,518.67h5.24c.12.07-.44,2.62-.52,2.73-.29.4-4.88.06-5.64.17-.18-.11.67-2.82.93-2.91Z"/>
          <path class="uuid-c43120f2-7809-411f-97d8-587c1bce6e87" d="M142.6,518.67c.27-.11,1.15.08,1.51,0,.11.07.05.29.06.41.01.36-1.43,6.56-1.63,7.1-.41,1.11-.87.5-1.92.64.04-.95,1.59-7.99,1.98-8.15Z"/>
        </g>
        <path class="uuid-c43120f2-7809-411f-97d8-587c1bce6e87" d="M127.99,518.79s.11-.11.12-.12c.17-.06,1.45-.02,1.51.17-.5.56-2.23,5.18-2.5,5.3-.06.03-1.33.03-1.4,0-.11-.1-.17-.13-.17-.29-.02-.28,2.24-4.87,2.44-5.06Z"/>
      </g>
      <g>
        <path class="uuid-8d054777-ee41-4454-8aac-6b1f20552df8" d="M172.68,475.38c-.26.02-.89-.07-1.05.06.02,1.29,0,2.6,0,3.9,0,.96-.11,2.24,0,3.14-18.3.23-36.63-.31-54.93,0l-2.21-.35c.26-.12.41-.37.58-.58.05.01.23.22.23.23.03.09-.21.18-.06.23h55.57c.39-.04.09-.34.58-.06-.02-.22-.24-.36-.35-.52v-.12c.13-.18.1-.27.12-.47.11-1.81-.08-3.66,0-5.47.29-.3,1.47-.42,1.51,0Z"/>
        <path class="uuid-c43120f2-7809-411f-97d8-587c1bce6e87" d="M171.75,509.48c.02,1.63.15,3.29.23,4.77.02.35.13.33,0,.7l-.58-.41.12-29.74.23-.12c.15,8.26-.08,16.53,0,24.79Z"/>
        <path class="uuid-c43120f2-7809-411f-97d8-587c1bce6e87" d="M170.82,482.01h-55.57c-.15-.05.09-.14.06-.23l5.06-4.89h22.58l.52,3.32c-.21.47-7.38.27-8.44.29-3.65.07-10.72.63-14.08.12-.05,0-.36-.18-.52-.17,1.1-1.94,3.59-2.43,5.64-2.73-1.14-.23-3.16.36-4.19.93-.72.39-1.74,1.81-1.86,1.86-.34.13-1.52-.1-1.98,0,.37-.47,2.31-2.92,2.68-3.03.31-.09,6.12-.19,6.52-.12.17.03.41-.06.23.23-2.06.41-5.19.71-6.4,2.56,2.07-.03,4.59.76,6.4-.35l-.12.58c.69-1.46,4.92-1.05,6.17-.58.31.12.77,1.08.7.12.14-.05.79.45.93.47.57.08,7.96.09,8.09-.29l-.52-2.97h-22.23c-.59.36-3.7,4.45-3.96,4.31.28-1.01-.74.16-.47.35,9.73-.25,19.61.1,29.27-.29.22-.39-1.03-3.76-.93-4.19.06-.26.15-.12.29-.29h23.16l2.97,5Z"/>
        <path class="uuid-89959dce-36fc-4fb8-bed0-fadfa98bb72a" d="M172.68,475.38c5.69-.34,11.53.16,17.22.17l-2.44,41.84c-.42-.33-.39-.92-.35-1.51.01-.18.23-.08.23-.17.74-13.31,1.51-26.61,2.33-39.92l-17.63-.17-.06,3.14c-.04.18-.1.64-.35.58,0-1.3.02-2.61,0-3.9.16-.13.79-.04,1.05-.06Z"/>
        <path class="uuid-89959dce-36fc-4fb8-bed0-fadfa98bb72a" d="M133.69,517.74c-5.35,0-10.72-.12-16.06-.12l.06-2.79h51.21v2.91h-35.21Z"/>
        <path class="uuid-35c680d2-d4cd-4f71-89fa-aae9e786c266" d="M187.11,515.88l-15.48-.17,15.48-.35,1.28-22.64c.31-5.45.6-10.91,1.05-16.35l-.17-.41h-16.99c-.17.12-.13,2.21-.17,2.56-.04.29-.11.22-.12.23l.06-3.14,17.63.17c-.82,13.3-1.58,26.61-2.33,39.92,0,.09-.22,0-.23.17Z"/>
        <g>
          <path class="uuid-89959dce-36fc-4fb8-bed0-fadfa98bb72a" d="M187.23,483.29l-1.51,30.32-13.44.17c-.11.03-.04.21-.06.23,0,.01-.18.1-.23.12v-4.66c0-9.52-.08-19.05.12-28.57l-.35,1.69c-.1.01-.11-.03-.12-.12-.11-.91,0-2.19,0-3.14.25.06.3-.4.35-.58,0-.01.08.05.12-.23.1-.01.11.03.12.12.07.82.35.69.47,0,.14,0,.34.02.47-.12.04-.05-.09-.46.17-.58,4.55.24,9.12.09,13.67.12.18,0,.08-.32.23-.17.19,1.81.01,3.6,0,5.41Z"/>
          <path class="uuid-2de965ee-3231-4725-a745-389faeefb845" d="M171.98,509.48h-.23c-.08-8.26.15-16.53,0-24.79v-2.09l.35-1.69c-.2,9.52-.12,19.05-.12,28.57Z"/>
          <path class="uuid-8d054777-ee41-4454-8aac-6b1f20552df8" d="M173.2,488.06s.58-.02.64.06c.23.32-.05,6.93-.17,7.86l-.12-7.68-.41,7.39c.17-.91-.25-7.4.06-7.62Z"/>
          <path class="uuid-80003db4-4d2b-459b-956e-fe14942e3e46" d="M172.27,490.97c.41,1.45.43,3.3.12,4.77-.01-1.59-.26-3.18-.12-4.77Z"/>
        </g>
        <path class="uuid-7067d55f-569b-4e8b-97a0-fd85a7c5048c" d="M171.98,509.48v4.77c-.09-1.48-.22-3.14-.23-4.77h.23Z"/>
        <g>
          <path class="uuid-89959dce-36fc-4fb8-bed0-fadfa98bb72a" d="M171.98,514.95c.13-.37.02-.35,0-.7v-.12c.05-.01.22-.11.23-.12l13.73-.29c.31-6.73.67-13.46.93-20.19.23-.12,1.17.15,1.22.12.21-.17-.19-.93.29-.93l-1.28,22.64-15.48.35,15.48.17c-.04.59-.07,1.18.35,1.51.03.03.21.1.23.12.01.01.1.18.12.23-.39,0-.78,0-1.16,0-.7,0-1.4,0-2.09,0-2.09,0-4.19.01-6.28,0-.99,0-8.67.23-8.85-.17.21-.89-.58-2.96.7-2.79v-29.56l.64-.17.17,30.43-.47.23c.74.46,1.05.36.93-.58.27-.41.35.17.41.17.19-.1.13-.23.17-.35Z"/>
          <path class="uuid-35c680d2-d4cd-4f71-89fa-aae9e786c266" d="M186.65,517.74c-.21.37-1.84.39-2.09,0,.7,0,1.4,0,2.09,0Z"/>
          <path class="uuid-c905ab06-98f3-4208-b035-81e116746e99" d="M186.88,493.53c-.26,6.73-.62,13.46-.93,20.19l-13.73.29s-.05-.2.06-.23l13.44-.17,1.51-30.32c-.03,3.42-.21,6.82-.35,10.24Z"/>
          <polygon class="uuid-5fd14f1a-d417-4768-86ee-d3136a8f6807" points="172.39 514.95 181.87 515.12 172.16 515.3 172.39 514.95"/>
        </g>
        <g>
          <path class="uuid-c43120f2-7809-411f-97d8-587c1bce6e87" d="M188.39,492.72c-.48,0-.09.77-.29.93-.05.04-.99-.24-1.22-.12.13-3.42.32-6.83.35-10.24.01-1.81.19-3.6,0-5.41-.16-.15-.05.18-.23.17l-14.14-.35.29.81c-.12.14-.33.12-.47.12-.14,0-.19-.24-.47,0,0-.09-.02-.13-.12-.12.04-.35,0-2.44.17-2.56h16.99l.17.41c-.45,5.44-.74,10.9-1.05,16.35Z"/>
          <path class="uuid-35c680d2-d4cd-4f71-89fa-aae9e786c266" d="M187,478.05c-4.56-.03-9.12.12-13.67-.12-.27.12-.13.53-.17.58l-.29-.81,14.14.35Z"/>
          <path class="uuid-2de965ee-3231-4725-a745-389faeefb845" d="M172.68,478.64c-.12.69-.4.82-.47,0,.27-.24.32,0,.47,0Z"/>
          <path class="uuid-2de965ee-3231-4725-a745-389faeefb845" d="M172.51,476.19c5.56.11,11.15-.23,16.7.17l-8.55.17-8.15-.35Z"/>
          <path class="uuid-c905ab06-98f3-4208-b035-81e116746e99" d="M187.17,477.59h.12c.23-.02.23.13,0,.12l-.12-.12Z"/>
        </g>
        <g>
          <path class="uuid-35c680d2-d4cd-4f71-89fa-aae9e786c266" d="M171.52,484.8l-.12,29.74.58.41c-.04.12.01.25-.17.35-.06,0-.14-.58-.41-.17.12.94-.19,1.04-.93.58l.47-.23-.17-30.43-.64.17v29.56c-1.28-.16-.49,1.9-.7,2.79.18.4,7.85.17,8.85.17.04.16-.05.68,0,.76.21.3,6.44-.19,7.33.17l-6.4.17,4.71,7.51c-.91-.75-4.5-7.4-5-7.56-.12-.04-1.16-.02-1.22.06l8.38,12.69c-.04.34-.56-.32-.58-.35-.7-.86-4.1-6.67-4.48-6.81-.23-.08-4.67-.12-4.89,0l2.73,7.45c-.11,0-.24,0-.35,0l-4.71-13.03h-1.51c1.11,3.98,2.98,7.89,3.96,11.99l-4.31-11.99-5.06.06,1.16,5.18s-.02,0-.12,0c-.35-.6-1.07-5.01-1.28-5.18-.13-.1-1.21-.09-1.28,0-.08.11.51,2.32.58,2.68.01.05.31.09.35.23.02.07-.24.16-.23.17-.03-.24-.12.01-.23,0-.65-.08-5.42-.31-5.59.06-.05.71.1,1.39.12,2.09,0,.06,0,.32,0,.35.07,2.46.19,4.93.35,7.39-.15,0-.31,0-.47,0l-.23-9.95c-.17-.24-1.39.07-1.63.06-.08,0-.17,0-.23,0-1.97-.05-3.96-.25-5.94-.06l-1.11,9.83,1.22-12.92-17.34-.12s.02.1,0,.12c-.07,0-.18.02-.23,0-.16-.05-.11-.12-.12-.12.27-.18-.44-.12-.47-.12l-.47-.81h35.21v-2.91h-51.21l-.06,2.79c-.15,0-.31,0-.47,0-.23-1.08.69-3.11-.93-2.85v-29.56c-.23-.52-2.69.27-2.62-.52l57.9.12Z"/>
          <g>
            <g>
              <path class="uuid-c43120f2-7809-411f-97d8-587c1bce6e87" d="M174.14,518.79c.14-.08,3.1-.05,3.26,0,.35.12,2.84,4.63,3.43,5.18l-4.83.17-1.86-5.35Z"/>
              <path class="uuid-c43120f2-7809-411f-97d8-587c1bce6e87" d="M152.6,518.67h5.35l.17,2.85-5.76.06c-.28-.13.09-2.83.23-2.91Z"/>
              <polygon class="uuid-c43120f2-7809-411f-97d8-587c1bce6e87" points="160.29 518.67 165.06 518.79 165.81 521.52 160.29 521.58 160.29 518.67"/>
              <path class="uuid-c43120f2-7809-411f-97d8-587c1bce6e87" d="M158.42,518.67c.07-.03,1.42,0,1.45.06.07.13.18,2.77.06,2.85-.32-.06-1.39.1-1.57-.06-.12-.11-.25-2.71.06-2.85Z"/>
            </g>
            <g>
              <polygon class="uuid-89959dce-36fc-4fb8-bed0-fadfa98bb72a" points="169.6 485.04 169.77 514.31 169.01 514.37 168.96 485.21 169.6 485.04"/>
              <path class="uuid-89959dce-36fc-4fb8-bed0-fadfa98bb72a" d="M116.76,485.04s.5.09.52.17l-.06,29.15-.64-.06.17-29.27Z"/>
              <path class="uuid-89959dce-36fc-4fb8-bed0-fadfa98bb72a" d="M162.09,485.39l.23.58c-1.14.26-5.34-.34-6.11,0-.26.11-.16.49-.17.7-.01,0-.08.21-.23-.06-.17-.84.6-.6.7-1.22,1.89.06,3.7.03,5.59,0Z"/>
              <path class="uuid-89959dce-36fc-4fb8-bed0-fadfa98bb72a" d="M135.03,484.92c5.02.24,10.05.07,15.07.06l-7.51.17-7.56-.23Z"/>
              <path class="uuid-89959dce-36fc-4fb8-bed0-fadfa98bb72a" d="M127.52,485.39c-.23.64,1.07.12.81.58h-1.63l-3.43-.12.41-.35c1.28,0,2.56-.08,3.84-.12Z"/>
              <path class="uuid-89959dce-36fc-4fb8-bed0-fadfa98bb72a" d="M155.28,484.92c3.78.33,7.57-.04,11.35.06l-5.76.17-5.59-.23Z"/>
              <path class="uuid-89959dce-36fc-4fb8-bed0-fadfa98bb72a" d="M119.78,484.92c3.23.3,6.49-.03,9.72.17l-4.95.17-4.77-.35Z"/>
              <g>
                <polygon class="uuid-89959dce-36fc-4fb8-bed0-fadfa98bb72a" points="133.63 504.59 151.44 504.59 151.62 514.31 133.63 514.37 133.63 504.59"/>
                <path class="uuid-2de965ee-3231-4725-a745-389faeefb845" d="M136.72,505.87h.12l.12.23c.02,1.27-.41,4.2-.12,5.3.07.25.32.4.52.52h11.29l.29-6.34v6.4c-1.71-.05-11.03.62-11.93.06-.07-.04-.28-.35-.29-.41-.12-.45-.09-5.14,0-5.76Z"/>
                <polygon class="uuid-767590a7-c131-4d52-a826-abb7ea521c09" points="136.95 506.1 136.83 505.87 148.47 505.93 136.95 506.1"/>
                <path class="uuid-8d054777-ee41-4454-8aac-6b1f20552df8" d="M136.83,505.87h-.12s-.1-.38.06-.47h11.52l-11.46.47Z"/>
              </g>
              <g>
                <path class="uuid-89959dce-36fc-4fb8-bed0-fadfa98bb72a" d="M156.5,485.39c-.1.62-.87.39-.7,1.22.15.27.22.05.23.06,1.3.51,4.7-.14,6.23.12l-5.99-.52,6.05-.29-.23-.58c.77-.01,6.39-.36,6.52-.06v28.86l-15.54.17-.06-29.04c.11-.23,2.96.04,3.49.06Z"/>
                <path class="uuid-8d054777-ee41-4454-8aac-6b1f20552df8" d="M162.32,485.97l-6.05.29,5.99.52c-1.52-.26-4.93.39-6.23-.12.01-.2-.09-.58.17-.7.77-.34,4.97.26,6.11,0Z"/>
                <path class="uuid-8d054777-ee41-4454-8aac-6b1f20552df8" d="M163.2,485.97c.34-.22.34.84.12.81l-.12-.81Z"/>
                <g>
                  <path class="uuid-8d054777-ee41-4454-8aac-6b1f20552df8" d="M165.41,487.48c.13-.06.45.01.52.17l-.06,7.97c-.22-.02-.64.09-.76-.17-.16-.36-.07-7.8.29-7.97Z"/>
                  <path class="uuid-89959dce-36fc-4fb8-bed0-fadfa98bb72a" d="M165.52,487.83c.19.55.38,7.56,0,7.56-.1-2.52-.1-5.05,0-7.56Z"/>
                </g>
                <g>
                  <path class="uuid-8d054777-ee41-4454-8aac-6b1f20552df8" d="M155.28,488.76s.5.05.52.17c-.3.88.41,9.51-.06,9.6-.1.02-.62-.14-.64-.17-.23-.42-.19-9.29.17-9.6Z"/>
                  <path class="uuid-89959dce-36fc-4fb8-bed0-fadfa98bb72a" d="M155.4,489.11c.37,3,.14,6.07.12,9.08-.37-3-.14-6.07-.12-9.08Z"/>
                </g>
                <g>
                  <path class="uuid-8d054777-ee41-4454-8aac-6b1f20552df8" d="M163.89,490.39c.22.02.64-.09.76.17s.06,5.81-.17,5.99c-.05.04-.62-.14-.64-.17-.24-.45.14-5.11.06-5.99Z"/>
                  <path class="uuid-9c97fd7f-0c3e-4daf-995e-586a92fb199f" d="M164.24,490.62c.02,1.84.25,3.77-.12,5.59l-.06-2.73.17-2.85Z"/>
                </g>
              </g>
              <g>
                <path class="uuid-89959dce-36fc-4fb8-bed0-fadfa98bb72a" d="M123.68,485.5l-.41.35,3.43.12c-.73,0-6.4-.13-6.52.17,0,.03.15.51.17.52.73.37,6.78-.21,8.03,0l-.12-.23-7.68-.23,7.74-.23c.25-.46-1.05.05-.81-.58.63-.02,4.4-.38,4.54-.06l-.17,29.04-14.26-.17v-28.86c1.95-.12,4.03.17,6.05.17Z"/>
                <path class="uuid-8d054777-ee41-4454-8aac-6b1f20552df8" d="M126.71,485.97h1.63l-7.74.23,7.68.23.12.23c-1.25-.21-7.3.37-8.03,0-.02-.01-.18-.5-.17-.52.12-.3,5.79-.17,6.52-.17Z"/>
                <path class="uuid-8d054777-ee41-4454-8aac-6b1f20552df8" d="M129.1,485.97c.3.01.18.63.12.81-.25-.18-.22-.56-.12-.81Z"/>
                <g>
                  <path class="uuid-8d054777-ee41-4454-8aac-6b1f20552df8" d="M128.28,488.65c.09-.07.56,0,.64.17.16.36.11,7.36,0,7.8,0,.03-.35.42-.41.52l-.23-8.5Z"/>
                  <path class="uuid-89959dce-36fc-4fb8-bed0-fadfa98bb72a" d="M128.51,488.99c.37,2.49.14,5.06.12,7.56-.37-2.49-.14-5.06-.12-7.56Z"/>
                </g>
                <g>
                  <path class="uuid-8d054777-ee41-4454-8aac-6b1f20552df8" d="M127.12,491.79l.87.06c-.64.9.1,5.1-.29,5.64-.02.03-.6-.05-.64-.17-.09-.26-.17-5.37.06-5.53Z"/>
                  <path class="uuid-c43120f2-7809-411f-97d8-587c1bce6e87" d="M127.47,492.02c.02,1.68.25,3.46-.12,5.12-.02-1.67-.25-3.48.12-5.12Z"/>
                </g>
                <g>
                  <path class="uuid-8d054777-ee41-4454-8aac-6b1f20552df8" d="M119.78,488.65l.52.06c-.1.66.16,5.25-.06,5.41-.03.02-.62-.15-.64-.17-.14-.23-.07-5.18.17-5.3Z"/>
                  <path class="uuid-89959dce-36fc-4fb8-bed0-fadfa98bb72a" d="M120.02,488.88c.02,1.6.25,3.31-.12,4.89-.02-1.58-.25-3.34.12-4.89Z"/>
                </g>
              </g>
              <g>
                <path class="uuid-89959dce-36fc-4fb8-bed0-fadfa98bb72a" d="M151.09,485.15c.13,0,.45-.05.52.06l-.06,7.86-18.1-.17.06-7.62c3.91.22,7.83.3,11.75.23,1.86-.03,4.02-.38,5.82-.35Z"/>
                <g>
                  <path class="uuid-35c680d2-d4cd-4f71-89fa-aae9e786c266" d="M136.54,486.08h11.29v.7h-10.94c-.18.13-.14,4.27-.06,4.48.23.62,9.63.13,10.88.29.33-1.09.41-.14.29.06-.29.47-9.72,0-11,.17-.66-.22-.39-4.1-.41-4.95,0-.04-.36-.38-.06-.76Z"/>
                  <polygon class="uuid-c43120f2-7809-411f-97d8-587c1bce6e87" points="136.66 486.32 142.25 486.32 147.77 486.38 142.25 486.55 136.66 486.32"/>
                </g>
              </g>
              <g>
                <path class="uuid-89959dce-36fc-4fb8-bed0-fadfa98bb72a" d="M132.47,485.15s.58-.02.64.06c.24.34-.23,7.19.06,8.2h18.74c.29-1.01-.18-7.86.06-8.2.07-.1.63-.1.7,0l-.06,29.15c-.16-.03-.55.07-.64-.06-.34-.48.39-8.7-.17-9.95h-18.62c-.32,1.21.23,9.54-.06,9.95-.07.1-.63.1-.7,0l.06-29.15Z"/>
                <path class="uuid-35c680d2-d4cd-4f71-89fa-aae9e786c266" d="M136.19,503.77c5.27-.19,10.62.08,15.89.29l-18.8.06c-.17-.3.07-.2.23-.23.75-.14,1.88-.09,2.68-.12Z"/>
                <path class="uuid-8d054777-ee41-4454-8aac-6b1f20552df8" d="M138.99,494.12c4.32-.08,8.68-.06,12.98.29l-18.68.06c-.17-.3.07-.2.23-.23,1.13-.21,4.11-.09,5.47-.12Z"/>
                <g>
                  <polygon class="uuid-35c680d2-d4cd-4f71-89fa-aae9e786c266" points="133.17 494.7 151.79 494.7 151.96 502.9 133.17 502.96 133.17 494.7"/>
                  <polygon class="uuid-89959dce-36fc-4fb8-bed0-fadfa98bb72a" points="133.63 494.93 151.44 494.93 151.62 502.44 133.63 502.61 133.63 494.93"/>
                  <path class="uuid-2de965ee-3231-4725-a745-389faeefb845" d="M136.83,496.33c.17.9-.43,4.26.52,4.54l10.65.06-10.65.17c-1.04-.25-.91-3.89-.76-4.77.07,0,.17.02.23,0Z"/>
                  <g>
                    <path class="uuid-8d054777-ee41-4454-8aac-6b1f20552df8" d="M136.83,496.33c-.06.02-.16,0-.23,0,.05-.3-.07-.47.29-.7,1.36.3,10.98-.45,11.23.06.03.06.02.47-.06.52-.46.32-9.56-.37-11.23.12Z"/>
                    <path class="uuid-ebb8bf50-69d1-4691-8346-48acad481b57" d="M142.6,495.74c1.67-.02,3.72-.18,5.24.23l-11-.06c1.91,0,3.85-.16,5.76-.17Z"/>
                  </g>
                </g>
              </g>
            </g>
          </g>
        </g>
      </g>
    </g>
  </g>
</svg>