<?xml version="1.0" encoding="UTF-8"?>
<svg id="Laag_1" data-name="Laag 1" xmlns="http://www.w3.org/2000/svg" viewBox="0 0 411.57 531.06">
  <defs>
    <style>
      .cls-1 {
        fill: #125284;
      }

      .cls-2 {
        fill: #9ed7e9;
      }

      .cls-3 {
        fill: #173b67;
      }

      .cls-4 {
        fill: #196396;
      }

      .cls-5 {
        fill: #269acb;
      }

      .cls-6 {
        fill: #408dbd;
      }

      .cls-7 {
        fill: #4aadd4;
      }

      .cls-8 {
        fill: #63c6e8;
      }

      .cls-9 {
        fill: #79cbe5;
      }

      .cls-10 {
        fill: #297aae;
      }

      .cls-11 {
        fill: #bae1ef;
      }
    </style>
  </defs>
  <g id="Generatief_object" data-name="Generatief object">
    <g>
      <path class="cls-1" d="M370.47,490.36c-1.36,1.1-3.09,3.54-4.61,3.07.49-.59,0-.59,0-.61.65-1.91-.39-.7,0-2.46.72-.2,6.68-2.97,7.22-3.38.92-.69.78-.72.15-1.54.04-.04.13-.41.61-.92l4-.77c-1.94,2.77-4.79,4.52-7.38,6.61Z"/>
      <g>
        <path class="cls-1" d="M159.29,479.91c.18.26.22,1.4.31,1.54l.31,6.92-3.38-1.84c.82,1.09,1.28,2.31,1.84,3.54.46,1.01.93,2.48,1.54,3.38l-1.23-.31c-.46-.73-.93-2.37-1.23-2.77.46-.7-.71-2.49-1.23-3.38-1.26-2.15-2.84-3.95-4.61-5.69.72-1.21,5.25,3.58,6.15,2.46l-5.53-4c.39-.8,4.88,2.97,5.38,3.23,1.49.06-3.13-4.98-2.92-5.38,1.61.35,3.66.95,4.61,2.31Z"/>
        <path class="cls-10" d="M153.14,485.13c1.13.87,1.91,3.08,3.07,1.84.52.89,1.69,2.68,1.23,3.38-.39-.52-2.49-2.52-3.38-2.31,1.15,1.01,1.9,2.31,2.77,3.54-.86,1.3-.15,3.09-1.38,4-2.25-2.11-4.2-4.41-6.92-5.84,3.15-1.37,4.24,3.11,6.76,3.23l-4-5.53c-.39-1.79,1.85.79,2.46-.31-.5-.85-2.69-1.22-3.07-1.69.38-1.23,1.5.45,2.46-.31Z"/>
        <path class="cls-4" d="M153.14,495.28c.04.08,1.03.39.46.92-.91.47-2.26-.61-2.46-.61-.63-.02-.72.89-.77.92-1.47-1.82-5.15-2.01-5.69-4.3l8.45,3.07Z"/>
        <path class="cls-2" d="M162.05,483.29c-.22.24-.86.26-1.08.61-.6-.75-.9-1.63-1.38-2.46-.08-.14-.12-1.28-.31-1.54l.92-.31c.55,1.2,1.36,2.43,1.84,3.69Z"/>
        <path class="cls-8" d="M171.89,476.22c-.57,2.6-1.34,3.85-.92,7.07-1.08-.76-1.93-7.27-2.31-7.38-1.25-.37.04,5.99.15,6.46-1.55-.02-.6,3.57-1.38,3.69-.72-.69-.28-1.33-1.54-2.46l-1.08,2.31-.15-3.54c-1.58,1.09-1.63,2.43-2,4-.16.69-.7,6.45-1.38,6.46-.91-1.34-.67-5.38-2.92-2.77-.56-1.22-1.02-2.45-1.84-3.54l3.38,1.84-.31-6.92c.48.83.78,1.71,1.38,2.46.21-.35.86-.37,1.08-.61.81-.9,1.09-4.85,1.69-6.15l1.54,3.69,3.38-6.15,1.08,2.31.92.31,2-5.07c.13,1.37-.48,2.67-.77,4Z"/>
        <path class="cls-6" d="M168.82,482.37c.2.8,2.25,3.64,1.08,4-.6.18-1.72-1.74-.15,2.15-.49-.32-1.27-1.26-1.84-.46,1.75,3.56,4.59,6.45,7.68,8.91-3.1-.43-5.42-4.01-7.22-6.3-.66,1.81.92,3.3,1.08,5.07l2.92,3.84c-2.19-1.75-3.48-3.94-5.07-6.15s-3.28-4.64-4.61-7.07c.37-1.56.42-2.91,2-4l.15,3.54,1.08-2.31c1.26,1.13.82,1.77,1.54,2.46.79-.12-.17-3.71,1.38-3.69Z"/>
        <path class="cls-10" d="M177.42,483.9c-.96-.11-.66,1.83-.61,2.31.1,1,.78,7.32.92,7.68.09.24,3,3.08,3.23,2.92.22-1.55.86-2.71,1.69-4,.52.15.73.82.92,1.23.43.94.77,1.98,1.23,2.92l-2-2.61-1.84,3.38c-2.04-1.08-2.89-2.92-4.15-4.61-1.14-1.53-3.83-5.22-4.61-6.76l3.07,1.08c.03-1.31-1.71-3.63-1.84-4.61-.31-2.36,2.2-2.84,3.23-5.07.64.05.54,5.14.77,6.15Z"/>
        <path class="cls-7" d="M177.12,473.76c-.13.62-.32,1.03,0,1.69.6.31.56-.67.61-.77,1.06,1.55-.19,5.64,1.84,6.46-.43,1.61-1.2,6.89-2.15,2.77-.23-1.01-.13-6.1-.77-6.15-1.02,2.24-3.54,2.71-3.23,5.07.13.98,1.87,3.31,1.84,4.61l-3.07-1.08c-.29-.57-1.15-1.99-1.23-2.46l4.92-11.37c.58.41.41,1.33,1.23,1.23Z"/>
        <path class="cls-4" d="M170.97,483.29c.03.2-.03.42,0,.61.08.46.94,1.89,1.23,2.46.78,1.54,3.47,5.23,4.61,6.76-2.7-.36-4.99-3.27-7.07-4.61-1.57-3.9-.44-1.97.15-2.15,1.17-.36-.88-3.2-1.08-4-.12-.46-1.4-6.82-.15-6.46.37.11,1.23,6.62,2.31,7.38Z"/>
        <path class="cls-4" d="M167.28,493.43c-2.9.74-.5-1.91-3.54-.31-.04.02-.57-.6-.92-.31-.46.39.15,3.46-.31,3.69-.23-1.5-1.92-2.06-2.61-3.07-.61-.9-1.07-2.37-1.54-3.38,2.25-2.62,2.01,1.43,2.92,2.77.68,0,1.22-5.76,1.38-6.46,1.33,2.43,3,4.83,4.61,7.07Z"/>
        <path class="cls-9" d="M175.89,472.53l-4.92,11.37c-.03-.19.03-.42,0-.61-.42-3.22.36-4.47.92-7.07.78-1.73,1.87-3.36,3.54-4.3.24.08.43.59.46.61Z"/>
        <path class="cls-8" d="M180.19,470.69c1.62,4.59.61,5.9-.61,10.45-2.03-.81-.79-4.91-1.84-6.46.73-1.16,1.18-3.19,2.46-4Z"/>
      </g>
    </g>
    <g>
      <path class="cls-8" d="M322.52,327.13c.19,9.41-.52,18.9.46,28.28l5.38-.46.31-25.98c.04.19-.03.42,0,.61,1.38,7.67-.39,17.46.31,25.36.5,1.13,4.67.12,5.53.15.22,0,.34-.29.92-.31.04,0,.24.62.46.61.75-.02,4.85.15,5.07-.15l.46-14.6.46,14.6c.46.65,5.01-.17,5.84-.15.3,0,.62,0,.92,0,1.72.05,3.44.34,5.23.31.23,0,.36,0,.61,0,.71-.03,4.39.16,4.61-.15.38-6.88-.79-14.37.61-20.9l.31,137.25-1.38-112.82c-29.92.12-59.85-.52-89.76-.61-32.47-.1-65.75,1.32-98.06.31-2.13-.07-4.66-.08-6.76-.31-.83-.09-1.22.31-1.08-.92,65.3-.14,130.66-.32,195.97.61v-1.23c-14.19-.25-28.39-.25-42.57-.31-.05-.26.08-.79,0-.92.82-.13,4.94.24,5.23-.15.81-1.15.17-24.29.31-28.13h.61Z"/>
      <g>
        <path class="cls-3" d="M162.36,333.89c-1.61.9-.91,5.49-.92,7.38s.03,3.69,0,5.53c-.79,44.35.58,88.86,0,133.26.88,1.63,1.2-3.9,1.23-4.3,2.71-37.44-.51-80.42-.31-118.5h.61c-.14,1.23.25.83,1.08.92,2.1.23,4.63.24,6.76.31,32.31,1.02,65.59-.41,98.06-.31,29.91.09,59.84.74,89.76.61l1.38,112.82,1.08-63.02.77,62.71,4.92-1.38c.31.61-5.19,5.23-4.15,5.69l7.38-4c-3.64,7.52.99,1.66,1.69,2.92-.14,1.07-.96,2.06-1.54,2.92-1.34,1.98-3.55,3.56-4.3,5.99,1.81-.82,3.09-3.71,4.61-4.76.43-.29,1.84-.6,2.31-1.23l-.31,2.15,2.92-.77c.3.41-2.19,1.99-2.46,2.31-2.67,2.1-6.38,3.08-8.3,5.99-.04.67.16.42.61.31,1.32-.33,5.66-3.56,7.38-4.46.45-.23,3.1-1.86,3.38-1.38-.49,1.09-1.35,2.07-2.15,2.92-.49.52-.57.89-.61.92-1.86,1.66-6.36,3.58-8.76,4.61-.23.78,1.19.36,1.38.31-.39,1.76.65.55,0,2.46l-6.46,4.76c1.54-.51,5.55-3.06,6.46-4.15,1.53.47,3.25-1.97,4.61-3.07l7.53-4c1.07.53-2.81,3.86-2.61,4.76l3.38-.31-5.23,4.92,6.61-4.76c.8.79-.55,1.98-.77,2.77l-4.3,4.15c.41.96,4.15-1.8,4.61-2,4.35-1.86.6,1.12-.15,2.46h19.52v3.07H123.63v-3.07l21.36.31.31-.61-3.38-1.84c1.22-.47,5.46,2.26,5.99,1.38l-3.23-2c1.63-.49,4.37,1.51,5.53,1.54.81.02.13-.6.15-.61.05-.03.14-.94.77-.92.2,0,1.55,1.09,2.46.61.57-.53-.42-.84-.46-.92-.95-1.67-4.22-3.35-5.23-5.38,0-.89.4-.06.61-.15,2.72,1.43,4.67,3.74,6.92,5.84,1.23-.91.53-2.69,1.38-4,1.32,1.88,2.68,3.76,4.15,5.53.13-1.34-1.59-2.87-2.31-4l1.23.31c.69,1.02,2.39,1.58,2.61,3.07.46-.23-.16-3.3.31-3.69.35-.3.88.33.92.31,3.04-1.6.64,1.05,3.54.31,1.59,2.21,2.88,4.39,5.07,6.15l-2.92-3.84c-.15-1.77-1.73-3.27-1.08-5.07,1.8,2.29,4.12,5.87,7.22,6.3-3.1-2.46-5.94-5.35-7.68-8.91.57-.8,1.35.14,1.84.46,2.09,1.34,4.37,4.25,7.07,4.61,1.26,1.69,2.11,3.53,4.15,4.61l1.84-3.38,2,2.61c-.46-.94-.8-1.98-1.23-2.92.81-1.76,3.02-3.34,4-4.92l-.61,2.31c.45,1.13,4.32-7.22,4.61-7.68,1.42-2.25,5.73-4.33,2.77-6.76,1.26,3.4-2.01,3.83-3.69,5.84-1.54,1.84-1.59,3.73-2.46,5.07-2.06-.52-4.49,3.3-5.53,4.92-.83,1.28-1.47,2.45-1.69,4-.23.16-3.13-2.68-3.23-2.92-.14-.36-.82-6.68-.92-7.68-.05-.47-.34-2.42.61-2.31.95,4.13,1.72-1.15,2.15-2.77,1.22-4.55,2.24-5.86.61-10.45-.13-.38.21-1.26-.15-1.54-1.58,1.39-2.49,2.5-2.92,4.61-.82.1-.65-.82-1.23-1.23-.03-.02-.22-.53-.46-.61-1.66.94-2.76,2.57-3.54,4.3.29-1.33.9-2.63.77-4l-2,5.07-.92-.31-1.08-2.31-3.38,6.15-1.54-3.69c-.6,1.3-.88,5.25-1.69,6.15-.48-1.26-1.29-2.48-1.84-3.69-.1-.22-.22-.39-.31-.61l-.92-128.19c.02-2.87.1-5.74.15-8.61-.72,1.53-.27,3.15-2.15,4l-4.3-5.53c-.46.43-4.39,3.56-4.61,3.38-.21-.16-.4-2.09-.15-2.46.45-.68,12-7.4,13.83-8.61.91-.12.51.45.61.92Z"/>
        <g>
          <path class="cls-6" d="M159.9,478.98c-.03-.07-.82-.58-.92-1.08.2-42.37-.27-84.75,0-127.11l.92,128.19Z"/>
          <g>
            <path class="cls-3" d="M202.94,439.02h-35.35c-.17-3.53-.21-8.16,0-11.68l35.35-.92c0,4.2,0,8.41,0,12.6Z"/>
            <path class="cls-3" d="M356.02,378.47c.25-.04,1.61-.04,1.69,0,1.57.89.21,16.55.77,19.21-.71.62-3.15-.15-4-.15-.92-1.38-27.2-.22-30.74-.61-.17-2.1-.12-3.45,0-5.53h30.89c.18-.13.27-3.07.15-3.38-.1-.28-.24-.43-.46-.61-9.24.34-18.6-.46-27.82,0-4.35-.01-3.04-1.9-3.07-5.53,3.75-.69,29.93.9,31.2,0,.93-.66-1.23-2.9,1.38-3.38Z"/>
            <path class="cls-3" d="M202.94,391.68c.03.33-.08.87,0,1.08.2.51.81.39.92.46.29.18,1.64.36,1.84.31.42.69-.02,1.83,0,2.15l-.61,61.17c-.25-.09-.59-.03-.92-.31v-60.4c-.24-.82-1.32.06-1.54.15-.39.17-.29.65-1.54.92l-33.51-.31c-.14-1.79-.11-4.03,0-5.84l35.35.61Z"/>
            <path class="cls-3" d="M354.79,442.1c-.11-.8-.23-1.74-.61-2.46-.01-.03.66-.08.15-.61l-30.89.31.31-6.46,31.05-.31c.91.09,2.62.65,3.69.77.06,1.17-.23,8.88-.77,9.07-.68-.19-2.28-.36-2.92-.31Z"/>
            <path class="cls-3" d="M202.94,372.32c-.04,1.84,0,3.7,0,5.53h-.92c-11.28,0-23.24-.7-34.43.31-.41.04-.62.73-1.23-.15,2-.18,1.15-3.92,1.23-5.69h35.35Z"/>
            <path class="cls-3" d="M202.94,424.27c-.47-.34-.71-.28-1.23-.31-11.06-.52-22.27.39-33.35,0l-.77.61c-.04.07.03.2,0,.31-.11-2.13,0-4.31,0-6.46l35.35-.31c0,2.05,0,4.1,0,6.15Z"/>
            <path class="cls-3" d="M202.94,381.54v5.23c-.42.14-.76.39-1.54.61h-32.89c-1.54-.76-.92-4.19-.92-5.84h35.35Z"/>
            <path class="cls-3" d="M355.1,415.97c-.57.15-.45-.12-.61-.31-.08-.09-.24-.56-.46-.61-4.65-1.12-24.48-.13-30.59,0-.2,0-.41,0-.61,0,.07-1.79.73-3.92.92-5.53l30.59.31c.22,0,.42-.62.46-.61.19,0,3.02.76,3.69.77-.32,1.04.41,4.67-.31,5.23-.42.33-2.48-1.18-3.07.77Z"/>
            <path class="cls-3" d="M202.94,415.05h-3.07c-10.14,0-20.3-.12-30.43,0-.92.01-1.85-.03-2.77,0,1.1-.3,1.29-4.56,1.23-5.53l35.04-.31c0,1.94,0,3.9,0,5.84Z"/>
            <path class="cls-8" d="M162.67,346.8c-.02,3.49-.29,6.95-.31,10.45-.2,38.08,3.02,81.06.31,118.5-.03.4-.35,5.94-1.23,4.3.58-44.4-.79-88.91,0-133.26h1.23Z"/>
            <path class="cls-1" d="M205.09,456.85c.33.12.5.42.92.31,0,.92,0,1.85,0,2.77l-.92,34.43s-.89-.06-1.23.31c1.22-5.75.72-25.25.31-31.82-.04-.59.17-1.16-.61-1.38,0-.36.74-.62-.15-1.23-4.27-.79-34.2,1.03-35.66,0-.16-.12-.34-2.9-.15-3.07l32.28-.31c.98.03,2.16-.12,3.07,0,.28.04.76,2.34,1.23-.31.33.28.67.22.92.31Z"/>
            <path class="cls-1" d="M202.94,406.13c0,1.02,0,2.05,0,3.07l-35.04.31c-.04-.7-.6-1.98-.31-2.92l-1.69-.46h37.04Z"/>
            <path class="cls-1" d="M203.86,386.77c0,.61,0,1.23,0,1.84-1.09.58-1.02,2.02-.92,3.07l-35.35-.61c.06-.99-.28-2.62.31-3.38l33.35.31c.26-.05.12-.61.15-.61.77-.22,1.11-.48,1.54-.61.23-.07.63.04.92,0Z"/>
            <polygon class="cls-1" points="202.94 377.85 202.94 381.54 167.59 381.54 167.59 378.47 202.02 377.85 202.94 377.85"/>
            <path class="cls-1" d="M202.94,439.02c0,.91,0,1.84,0,2.77l-35.2.61c-.56-1.14-.1-2.31-.15-3.38h35.35Z"/>
            <path class="cls-1" d="M202.94,399.68l-.77,1.23-33.81-.31c-1.2-.77-.63-1.88-.77-3.07,9.79-1.2,24.25,1.74,33.51-.31,1.24-.27,1.15-.75,1.54-.92.59.88.26,2.34.31,3.38Z"/>
            <path class="cls-1" d="M354.79,387.99c.12.31.03,3.25-.15,3.38h-30.89c.04-.68-.86-2.41,0-3.38h31.05Z"/>
            <path class="cls-1" d="M167.9,447.94h35.04c0,1.04.01,2.02,0,3.07l-33.66.31c-2.86-.51-1.3-1.37-2.61-3.23.23-.3.88-.12,1.23-.15Z"/>
            <path class="cls-4" d="M202.94,368.63c-.07,1.22.03,2.47,0,3.69h-35.35c.05-1.02-.03-2.06,0-3.07l32.58-.61h2.77Z"/>
            <path class="cls-1" d="M354.49,377.85c.73.03,1.7-.3,1.54.61-2.61.48-.45,2.72-1.38,3.38-1.27.9-27.45-.69-31.2,0,0-1.13-.89-2.83.31-4h30.74Z"/>
            <path class="cls-1" d="M326.82,406.13c9.4.01,18.88,1.03,28.28.31.25.45-.14,2.16-.31,2.77-.04,0-.24.62-.46.61l-30.59-.31c.38-3.12-2.02-3.39,3.07-3.38Z"/>
            <path class="cls-1" d="M202.94,415.05c0,1.02,0,2.05,0,3.07l-35.35.31v-2.46c.09,0,1.11-.32,1.84-.31,9.6.22,20.09.35,29.66,0,.56-.02,1.38.27.77-.61h3.07Z"/>
            <path class="cls-1" d="M354.49,397.52c.29.43.51,2.82.15,3.07-10.24-.08-20.52.73-30.74-.31-.87-.95-.1-2.58-.15-3.07,10.22.58,20.5.29,30.74.31Z"/>
            <path class="cls-4" d="M354.49,369.24l.31,2.77c-10.27.03-20.6.62-30.89.31-.83-.37-.43-2.44-.15-3.07,9.69-.83,21.28,1.11,30.74,0Z"/>
            <path class="cls-1" d="M354.49,457.16l.15,3.07c-4.58-.99-28.63,1.3-31.05,0-.42-.22-.58-2.1-.15-2.77l31.05-.31Z"/>
            <path class="cls-1" d="M202.94,424.27c0,.71,0,1.44,0,2.15l-35.35.92c.04-.72-.14-1.88,0-2.46.03-.11-.04-.24,0-.31l34.12-.61c.52.02.76-.03,1.23.31Z"/>
            <path class="cls-1" d="M322.82,415.05c.2,0,.41,0,.61,0l31.05.61c.16.19.05.46.61.31-.12.4-.17,2.28-.46,2.46-3.74-.68-29.78.89-31.05,0-.59-.41,1-3.96-5.07-2.92.95-.86,3.07-.43,4.3-.46Z"/>
            <path class="cls-1" d="M324.05,424.27l29.51-.31,1.23.15c.68,3.78-2.92,3.04-5.99,3.23-2.79.17-23.76.5-24.9,0-.8-.35-.69-2.5.15-3.07Z"/>
            <path class="cls-1" d="M354.79,448.25l-.46,2.77h-30.74c-.18-.77-.42-2.5.15-3.07l31.05.31Z"/>
            <path class="cls-1" d="M354.18,439.64c.38.72.51,1.66.61,2.46-10.36.81-20.82.03-31.2.31l.15-2.77h30.43Z"/>
            <path class="cls-8" d="M204.17,456.54c-.47,2.64-.95.34-1.23.31.02-1.94-.02-3.9,0-5.84.01-1.05,0-2.03,0-3.07,0-2.05,0-4.1,0-6.15,0-.92,0-1.86,0-2.77,0-4.2,0-8.41,0-12.6,0-.71,0-1.44,0-2.15,0-2.05,0-4.1,0-6.15,0-1.02,0-2.05,0-3.07,0-1.94,0-3.9,0-5.84,0-1.02,0-2.06,0-3.07,0-2.2.11-4.24,0-6.46-.05-1.04.29-2.5-.31-3.38.21-.09,1.29-.98,1.54-.15v60.4Z"/>
            <path class="cls-3" d="M202.63,466.38c-.03.97.29,2.66-.77,3.07-.59.23-11.39.12-12.6,0-1.48-.14-7.68-1.46-7.84-3.07,7.06.03,14.15-.02,21.21,0Z"/>
            <path class="cls-2" d="M203.86,494.66c-.25,1.17-1.89,2.74-2.77,3.54,1.32-2.93,1.9-5.71,2.15-8.91.68-8.57.15-18.97.31-27.82.79.23.58.8.61,1.38.41,6.56.91,26.06-.31,31.82Z"/>
            <path class="cls-7" d="M354.18,439.64h-30.43l-.31-.31,30.89-.31c.5.54-.17.59-.15.61Z"/>
            <path class="cls-6" d="M202.63,466.38c-7.06-.02-14.15.03-21.21,0-4.56-.02-9.12.01-13.68,0l.31-.61h34.12l.46.61Z"/>
            <path class="cls-5" d="M202.02,377.85l-34.43.61v-.31c11.19-1.01,23.15-.31,34.43-.31Z"/>
            <path class="cls-5" d="M168.51,387.38h32.89s.11.57-.15.61l-33.35-.31.61-.31Z"/>
            <path class="cls-7" d="M201.09,397.22c-9.26,2.05-23.71-.9-33.51.31-.02-.2.02-.41,0-.61l33.51.31Z"/>
            <path class="cls-6" d="M200.17,368.63l-32.58.61.46-.61h32.12Z"/>
            <path class="cls-7" d="M199.86,456.85l-32.28.31c10.71-.32,21.56-.64,32.28-.31Z"/>
            <path class="cls-7" d="M354.79,448.25l-31.05-.31,31.05.31Z"/>
            <path class="cls-5" d="M354.79,432.57l-31.05.31c9.81.15,21.4-1.26,31.05-.31Z"/>
            <path class="cls-5" d="M354.49,377.85h-30.74c10.21.35,20.54-.47,30.74,0Z"/>
            <path class="cls-7" d="M354.49,397.52c-10.24-.02-20.52.27-30.74-.31-.01-.1,0-.21,0-.31,3.54.39,29.82-.76,30.74.61Z"/>
            <path class="cls-5" d="M326.51,387.38c9.22-.46,18.58.34,27.82,0,.22.18.36.34.46.61h-31.05l.15-.61c.87-.03,1.75.04,2.61,0Z"/>
            <path class="cls-6" d="M354.79,368.94c.03.27-.08.28-.31.31-9.46,1.11-21.05-.83-30.74,0,.01-.03-.56-.22.15-.61,10.23.49,20.71-.79,30.89.31Z"/>
            <path class="cls-5" d="M354.49,457.16l-31.05.31c.83-1.31,27.7-1.09,31.05-.31Z"/>
            <path class="cls-7" d="M353.56,423.96l-29.51.31c2.04-1.39,25.35.42,29.51-.31Z"/>
            <path class="cls-3" d="M354.79,372.01l-.31-2.77c.23-.03.34-.04.31-.31.75.08,3.13-.2,3.54.31.19.24.27,2.7.15,2.92-.7,1.35-3.49-.15-3.69-.15Z"/>
            <path class="cls-7" d="M355.1,406.44c-9.41.72-18.88-.29-28.28-.31,3.36.59,27.6-.93,28.28.31Z"/>
            <path class="cls-7" d="M198.33,447.94h-30.43c9.09-.87,21.02,0,30.43,0Z"/>
            <path class="cls-4" d="M166.67,415.05c.92-.03,1.85.01,2.77,0v.61c-.73-.02-1.75.31-1.84.31-.21-.01-3.41-.6-3.38-.77.76-.3,1.66-.13,2.46-.15Z"/>
            <g>
              <path class="cls-8" d="M259.81,495.89v-129.11l.46-1.54c19.19-.45,38.45-.43,57.64-.15l-.46,22.59-.92-21.52-55.79.15v129.41c-.46.78-.72.07-.92.15Z"/>
              <path class="cls-1" d="M259.81,366.78v129.11c-.67.29-1.18.2-1.84.31l1.23-130.34c.52.44.1.83.61.92Z"/>
              <path class="cls-8" d="M317.44,461.16c.7-.58.69.4.77.77.16.7.19,8.49-.15,8.76-.11.08-.92.04-1.08-.15-.29-.37.1-9.08.46-9.38Z"/>
              <path class="cls-2" d="M204.17,389.22c.03,1.2.23,2.91-.31,4-.11-.07-.72.05-.92-.46-.08-.21.03-.75,0-1.08-.1-1.06-.17-2.5.92-3.07,0,.29.3.32.31.61Z"/>
              <g>
                <path class="cls-9" d="M259.19,365.86l-1.23,130.34c-.29.05-.63-.04-.92,0-.03-.13-.28-.6-.31-.61l-.31-57.64c-3.78-.28-7.59-.15-11.37-.15h-.92l.15-.61h11.99c1.11-.49.16-6.24.15-7.38,0-.2,0-.41,0-.61-.04-8.29.16-16.61-.15-24.9-16.41.26-33.09,1.16-49.34-.77l49.34-.15.46-34.27-50.57-.46-.61,18.44-.46-19.52,52.41.15.31-1.23-53.49-.61c-.97.38-.47,18.6-.46,20.9-.29.04-.7-.07-.92,0v-8.91c0-1.84-.04-3.7,0-5.53.03-1.22-.07-2.47,0-3.69.03-.59-.16-3.16.15-3.38h55.95c.28.11.1.57.15.61Z"/>
                <path class="cls-2" d="M205.71,395.68c1.24,19.8.45,41.51.31,61.48-.42.11-.59-.19-.92-.31l.61-61.17Z"/>
                <path class="cls-2" d="M210.78,481.44c7.22-.52,37.64-1.27,43.34,0,.28.06,1.25.31,1.08.77-16.01.96-32.1.43-48.11.15.03-.79,3.11-.88,3.69-.92Z"/>
                <path class="cls-7" d="M249.36,494.66v.61c-10.85-.12-23.92.96-34.43,0-.47-.04-1.24.19-.77-.61l5.99.15.46-11.22.61,11.37,4.76-.15.46-10.61.15,10.3,5.38.15.31-11.37c.49,1.43-.2,11.01.31,11.37.34.24,5.08.25,5.38-.15.33-.45-.77-9.62.15-11.22l.15,11.22,5.69.15.61-11.68.15,11.53c.5,1.13,3.9.12,4.61.15Z"/>
                <polygon class="cls-10" points="245.05 437.79 244.28 481.14 244.13 437.79 245.05 437.79"/>
                <path class="cls-4" d="M250.43,441.48c.95,13.07.38,26.25.31,39.35-.97-13.07-.36-26.25-.31-39.35Z"/>
                <path class="cls-4" d="M250.43,373.24c.74,8.88.52,17.84.31,26.74l-.77-13.37.46-13.37Z"/>
                <path class="cls-8" d="M205.09,494.35l.92-34.43c-.09,11.18-.57,22.44-.31,33.66-.29.28-.28.47-.61.77Z"/>
                <path class="cls-9" d="M253.51,430.11c.21-.03,1.71-.2,1.54.31-1.06-.28-9.38,3.69-8.76,4.46,3.2.62,6.8-.68,9.68,1.08l-12.45-.46c3.26-1.49,6.3-4.9,9.99-5.38Z"/>
                <path class="cls-8" d="M256.43,429.19c0,.21,0,.42,0,.61-5.75-2.22-9.41,2.86-13.83,5.38,2.13-3.03,5.52-4.74,8.76-6.3.31-.15-.5-.73,0-.92.46-.18,4.2,1.19,5.07,1.23Z"/>
                <path class="cls-10" d="M206.01,389.22v4.3c-.08.03-.21-.02-.31,0-.2.05-1.55-.13-1.84-.31.54-1.08.34-2.79.31-4,.8-.64,1.16-.2,1.84,0Z"/>
                <path class="cls-9" d="M206.01,393.53v-4.3c.24.07.44-.63.92.15v3.69c-.26.51-.64.35-.92.46Z"/>
                <path class="cls-10" d="M256.12,495.28c-1.73-.29-4.83.02-6.76,0v-.61c2.21.11,4.56.28,6.76.61Z"/>
              </g>
              <g>
                <path class="cls-2" d="M267.18,429.8c.06.36-.31.29-.31.31-.41-.55-3.49-2.49-4-1.69.06,2.51-.08,5.03,0,7.53.16,4.79-.31,8.81,6.15,7.84-2.5,1.91-4.01.03-6.15-.92v52.87l-1.23-.31v-127.88l52.72.15c.35,2.12,1.09,19.07.31,19.67-.1.08-.94.05-1.08-.15-.64-.98.59-17.76-.15-18.29l-50.57.15v58.1c1.18.42,3.77,1.45,4.3,2.61Z"/>
                <path class="cls-1" d="M316.98,397.83v61.17c-.3.07-2.16.07-2.46,0l.31-61.17c.44-.19,1.43.4,1.23-.61.28.19.61.52.92.61Z"/>
                <path class="cls-3" d="M282.55,482.67c1.18,3.46.65,8.26.31,11.99-2.03,0-4.11-.03-6.15,0,.02-3.99.61-8.29-.31-11.99,2.04.02,4.1-.01,6.15,0Z"/>
                <path class="cls-1" d="M273.95,496.51c-.26-.26-.27-.89-.31-.92l31.66-.61,1.23-.46.46-11.22.15,11.22,5.84.61c0,.12-1.99.32-2.31.46-6.51,2.94-29.04,1.56-36.73.92Z"/>
                <path class="cls-9" d="M313.29,403.67c0,.2,0,.41,0,.61-4.01-.02-7.98.25-11.99.31-.2,0-.41,0-.61,0-3.78.05-7.59,0-11.37,0-.2,0-.41,0-.61,0-1.84,0-3.69.02-5.53,0-.2,0-.41,0-.61,0-6.14-.07-12.39.4-18.44-.77,0-.91,16.7-.45,18.14-.46.5,0,1.03,0,1.54,0,7.69-.03,15.37.11,23.05-.15l.15-30.28c.98,3.73-.72,29.04.15,30.28.29.41,5.3.52,6.15.46Z"/>
                <path class="cls-8" d="M314.83,397.83l-.31,61.17c-.26-.07-.76.15-.92-.15.82-17.95-.96-36.73-.31-54.56,0-.2,0-.41,0-.61.03-.62.48-5.43.61-5.69.17-.32.7-.06.92-.15Z"/>
                <path class="cls-10" d="M283.17,404.59l-.46,76.54-.15-76.54c.2,0,.41,0,.61,0Z"/>
                <path class="cls-10" d="M301.31,404.59l-.15,76.54-.46-76.54c.2,0,.41,0,.61,0Z"/>
                <path class="cls-2" d="M317.91,397.83c-.02,20.33.02,40.68,0,61.02-.16.3-.66.09-.92.15v-61.17c.25.07.63-.04.92,0Z"/>
                <path class="cls-2" d="M282.55,482.67c-2.04-.01-4.1.02-6.15,0-.81,0-12.08.38-11.37-.77.62,0,1.57-.4,2-.46,4.1-.55,43.48-.75,45.5.31.52.27.8.66.31.92-1.33.72-26.49.02-30.28,0Z"/>
                <path class="cls-10" d="M289.32,404.59l-.15,76.54-.46-76.54c.2,0,.41,0,.61,0Z"/>
                <path class="cls-8" d="M314.83,472.22c1.21,4.7-1.3,16.4,0,20.75.02.07,1.06.7,1.23.77l2.92,4.61c-2.63.03-3.25-2.17-3.69-4.3-1.33.93.37,2.91.61,4l-4.46-.46,2.46-1.23-.31-24.59.61-.31c.23.25.52.41.61.77Z"/>
                <path class="cls-1" d="M316.68,493.74c-.51-.48-.59.01-.61,0-.16-.07-1.21-.7-1.23-.77-1.3-4.34,1.21-16.05,0-20.75.55.29,1.71-.33,1.84-.31.93,6.01-1.24,16.34,0,21.83Z"/>
                <path class="cls-6" d="M307.15,468.23h-.61c-.13-18.22-.29-36.51.46-54.72.39,18.23.01,36.48.15,54.72Z"/>
                <path class="cls-7" d="M317.91,397.83c-.29-.04-.68.07-.92,0-.32-.09-.64-.42-.92-.61-.11-.08-.98.18-1.23-.46-.16-.4-.45-6.75-.31-7.07.28-.63,3.07-.57,3.23-.46.92.66.16,7.27.15,8.61Z"/>
                <path class="cls-3" d="M266.88,430.11c-.04,1.76-.09,2.88-.61,4.61-.32,1.05,1.03.99-1.84,1.54-.24.01-.34.05-.31.31-.4-.21-.82-.41-1.23-.61-.08-2.5.06-5.03,0-7.53.5-.8,3.59,1.14,4,1.69Z"/>
                <path class="cls-7" d="M305.3,494.97l-31.66.61s.11-.2-.31-.31c-.07-1.02,2.38-.6,3.38-.61,2.04-.03,4.12,0,6.15,0,5.98-.01,12.01-.21,17.98.31l.31-11.68.15,11.22,4,.46Z"/>
                <path class="cls-6" d="M283.78,403.36c-.51,0-1.04,0-1.54,0l.77-30.13.77,30.13Z"/>
                <path class="cls-8" d="M315.29,461.16c.09-.06,1.24-.06,1.38.15.26.39-.1,9.07-.46,9.38-1.53,1.29-1.33-9.22-.92-9.53Z"/>
                <path class="cls-1" d="M270.72,447.94c.26,10.85.26,21.73,0,32.58-.53-10.84-.1-21.73,0-32.58Z"/>
                <path class="cls-10" d="M307.15,468.23c.03,4.25.9,8.72-.15,12.91-.73,0-.45-11.58-.46-12.91h.61Z"/>
                <path class="cls-3" d="M273.33,495.28c.42.1.29.29.31.31.04.03.04.66.31.92-2.02-.17-5.03.69-6.76-.77-.1-.82,5.39-.65,6.15-.46Z"/>
                <path class="cls-8" d="M264.11,436.56c-.03-.26.07-.3.31-.31,1.52-.07,1.7.12,3.38-.77-1.71,1.24.18,3.02-.15,4.76-.91-2.54-1.35-2.53-3.54-3.69Z"/>
                <path class="cls-8" d="M270.11,425.19c.77.56-2.29,2.42-2.46,2.46-.65.17-2.19,0-2.92-.15,1.93-.69,3.78-.83,5.38-2.31Z"/>
                <path class="cls-10" d="M266.26,434.72c.53-1.73.58-2.85.61-4.61,0-.02.36.05.31-.31.55,1.2.27,4.03-.92,4.92Z"/>
              </g>
            </g>
            <path class="cls-7" d="M201.71,423.96l-34.12.61.77-.61c11.08.39,22.29-.52,33.35,0Z"/>
            <path class="cls-7" d="M354.49,415.66l-31.05-.61c6.11-.13,25.93-1.12,30.59,0,.23.05.38.52.46.61Z"/>
            <path class="cls-7" d="M199.86,415.05c.61.89-.21.59-.77.61-9.57.35-20.07.22-29.66,0v-.61c10.13-.12,20.3,0,30.43,0Z"/>
          </g>
          <g>
            <path class="cls-1" d="M249.36,495.28c1.93.02,5.03-.29,6.76,0,.03,0,.59.29.61.31s.28.49.31.61c-9.5,1.41-31.21,2.42-40.42.92-1.17-.19-2.47-.33-1.69-1.84,10.51.96,23.58-.12,34.43,0Z"/>
            <g>
              <g>
                <path class="cls-8" d="M187.26,476.22c-1.93,3.05-4.35,6.06-5.38,9.53,1.56-2.14,7.55-8.03,9.99-8.3l-10.76,9.84c-.59-4.48-.58-6.9.92-11.07,2.19,4.96,2.28.59,5.23,0Z"/>
                <path class="cls-8" d="M187.26,476.22c-2.95.59-3.04,4.96-5.23,0,.73-2.03,1.34-3.94,3.23-5.23l-1.23,6.15,5.99-5.69c-.26,2.01-1.79,3.22-2.77,4.76Z"/>
                <path class="cls-10" d="M181.11,487.28l10.76-9.84c.4-.05,1.32-.2,1.23.46l-11.53,11.22c-.73-.48-.37-1.19-.46-1.84Z"/>
                <path class="cls-8" d="M187.57,489.13c.29-.47.49-1.03.61-1.23.87-1.34.92-3.23,2.46-5.07,1.68-2.01,4.95-2.44,3.69-5.84,2.96,2.44-1.35,4.51-2.77,6.76-.29.46-4.16,8.82-4.61,7.68l.61-2.31Z"/>
                <path class="cls-7" d="M201.25,487.59c1.25-.11-1.51,3.61-1.69,3.84-1.7,2.14-4.06,3.6-6.3,5.07-1.38-.71,7.04-8.26,7.99-8.91Z"/>
                <path class="cls-8" d="M199.1,481.44c1.58.84-5.69,6.32-6.46,6.76-1.03-1.87,6.03-6.99,6.46-6.76Z"/>
                <path class="cls-2" d="M208.01,493.43c.58.9-1.49,3.09-1.38,3.23.23.32,3.38.28,3.38.92l-6.3.46,4.3-4.61Z"/>
                <path class="cls-10" d="M188.18,487.9c-.13.2-.33.76-.61,1.23-.98,1.58-3.19,3.16-4,4.92-.19-.41-.41-1.08-.92-1.23,1.04-1.61,3.48-5.44,5.53-4.92Z"/>
                <path class="cls-7" d="M199.1,485.13c-.83,3.43-4.32,5.26-6.76,7.38-1.33-.62,6.44-6.67,6.76-7.38Z"/>
                <path class="cls-7" d="M157.44,490.36c.3.4.77,2.04,1.23,2.77.71,1.12,2.44,2.65,2.31,4-1.47-1.77-2.83-3.66-4.15-5.53-.86-1.23-1.62-2.53-2.77-3.54.89-.22,2.99,1.79,3.38,2.31Z"/>
                <path class="cls-9" d="M180.19,470.69c-1.28.8-1.73,2.84-2.46,4-.06.09-.01,1.08-.61.77-.32-.66-.13-1.07,0-1.69.43-2.11,1.34-3.23,2.92-4.61.36.28.02,1.16.15,1.54Z"/>
                <path class="cls-8" d="M201.56,491.28c1.06.6-2.92,6.47-4,6.76l4-6.76Z"/>
                <path class="cls-7" d="M167.13,472.22c.36.64-.31,5.09-.92,4.92l.92-4.92Z"/>
              </g>
              <g>
                <path class="cls-10" d="M372.93,481.14c-.58.68-1.2,1.38-.31,1.84-1.72.89-6.05,4.13-7.38,4.46-.45.11-.65.37-.61-.31,1.92-2.91,5.63-3.89,8.3-5.99Z"/>
                <path class="cls-7" d="M379.69,495.89c-.46.2-4.2,2.96-4.61,2l4.3-4.15c-.16.59-.58,2.5.31,2.15Z"/>
                <path class="cls-8" d="M370.47,478.68c-1.52,1.05-2.8,3.95-4.61,4.76.76-2.43,2.97-4.01,4.3-5.99l.31,1.23Z"/>
                <path class="cls-10" d="M346.8,473.76c-2.89,1.12-2.34,4.94-1.23,7.22.18.37.46-.3.61-.15.05.04.18.93.92.92-.38.93-.94,3.64-.31,4.61-.03.02-.22.53-.46.61-.78-.19-.84-3.46-2-4.3.67-1.48.64-2.39,0-3.69-.12-.24-.9-.57-.77-1.54-.58-.39-1.75,3.25-2,3.84-.5,1.2-1.32-.79-.61,2.92.27,1.42-.09,1.39.92,2.77.07.1.85.33.92,1.23-.29.54-.05,1.96-1.08,2.46-1.27-.02-2.44-6.7-3.84-7.38.09-.71,1.28-2.52,0-2.46-.48-1.64-2.49,3.62-2.77,4.3-.57,1.43-.99,1.6-1.23,3.38-2.11-.62-1.73-3.78-1.84-4.92,1.4-1.36,3.98-10.19,5.38-10.45.41-.08.86-.09.77.46-2.67,2.38-3.1,5.87-3.38,9.22.98-.45,1.06-2.9,1.54-4,1.11-2.52,3.08-4.44,3.38-7.22.37.43.54,1.02,1.23.92-.11.54-.05,1.84,0,2.46.04.56-.33,2.11.46,2.15l4.92-6.76c.75.04.49,2.8.46,3.38Z"/>
                <path class="cls-7" d="M353.87,489.13c-.07-.78-.07-.97.46-1.54,1.84-1.95,6.19-4.12,8.15-6.3-.32-1.07-15.73,11.52-16.91,12.14.78-2.63,3.03-3.6,4.61-5.23,2.32-2.39,1.19-7.09,2.77-10.3.81-1.65,4.4-4.55,5.99-5.69l-5.99,9.68,6.92-6.3c1.96,1.04-8.07,9.11-7.38,11.07.47.24,7.2-5.76,8.3-6.46.35-.22,5.11-3,5.07-2-2.81,4.7-7.27,7.81-11.07,11.68-1.71,1.74-2.88,4.08-4.76,5.69-.16.13-2.11,1.88-2.31,1.08l7.38-7.99c-.46-.4-.8.23-1.23.46Z"/>
                <path class="cls-5" d="M347.11,481.75c-.74,0-.87-.88-.92-.92-.49-2.29.5-4.58.61-6.76h.61c.02.25-.19,1.38.31,1.08.35-4.05,1.55-9.85,5.84-11.07l-2.31,5.07,4.15-2.61c-.94,4.73-6.38,6.21-6.61,10.61,3.36-3.09,6.32-6.44,8.91-10.14,2.18,1.12-9.97,13.21-10.61,14.76Z"/>
                <path class="cls-3" d="M342.8,488.21c.39-.72.97-1.73,1.54-2.31v5.23c.47,2.12,2.21-2.43,2.46-2.77.52-.7,2.13-1.93,2.46-2.61,1.43.06-.3,1.94.92,2.46-1.58,1.62-3.83,2.6-4.61,5.23-.08.03-.21-.03-.31,0-3.05.86-2.75-1.06-4.46-2.15-.8-.51-.11.44-1.08.31.02-.59.37-1.79.31-2-.13-.42-2.62-2.84-2.77-4-.12-.99.5-1.44.61-2.31,1.41.68,2.57,7.36,3.84,7.38,1.03-.5.79-1.92,1.08-2.46Z"/>
                <path class="cls-8" d="M339.73,471.61c-.3,2.79-2.28,4.71-3.38,7.22-.48,1.09-.56,3.55-1.54,4,.28-3.35.71-6.85,3.38-9.22.09-.55-.36-.54-.77-.46-1.39.26-3.98,9.09-5.38,10.45-.28-2.86-.3-3.25.31-5.84.13-.54.14-2.15,1.23-2.77.03.04-.05.36.31.31,1.3.3,3.57-4.18,4.3-5.23,1.06.65.93.83,1.54,1.54Z"/>
                <path class="cls-8" d="M316.68,493.74c-1.24-5.48.93-15.82,0-21.83.51.07.85-.14,1.23.46.37.93-.35,2.97-.31,3.69.19,3.49-.41,10.39.31,14.14.41,2.13,3.66,5.16,4.3,7.38l-3.84-4.15.61,3.38c-.2.04-2.24-2.78-2.31-3.07Z"/>
                <path class="cls-8" d="M333.58,474.99c-1.09.62-1.1,2.22-1.23,2.77-2.36,1.24-2.24,4.24-2.15,6.46-.01-.03-.52.12-.61-.15-.41-1.14-.6-3.52-1.54-4.3l-.92,7.84c-2.19-5.21-.65-6.82,1.23-11.83l1.38,2.92,2.77-6.15c.8.19.77,2.07,1.08,2.46Z"/>
                <path class="cls-8" d="M347.42,474.07h-.61c0-.1,0-.21,0-.31.03-.59.28-3.34-.46-3.38l-4.92,6.76c-.79-.04-.42-1.59-.46-2.15.64-.72,2.19-2.25,2.46-3.07,1.11-.02,3.51-5.19,2.92-5.53l-21.06-.46,21.67-.15c.7.31.38,7.19.46,8.3Z"/>
                <path class="cls-6" d="M324.98,488.51c.48,1.17-.11,3.13,0,3.54.34,1.29,2.86,3.07,2.61,4.76l-4.3-5.53c2.97,7.97-.47,5.24-2.61.31.83-.34.44-1.85.77-2.15.31-.29,1.19,1.36,1.38.15l-2.46-3.54c.13-.41.1-1.02.61-1.23-.07.67,2.03,3.03,2.31,3.07.15.02.64-1.98,1.69.61Z"/>
                <path class="cls-10" d="M349.26,485.75c-.33.69-1.94,1.91-2.46,2.61-.25.33-1.99,4.88-2.46,2.77v-5.23c-.57.58-1.15,1.58-1.54,2.31-.07-.9-.85-1.13-.92-1.23-.19-1.92,2.17-3.67,2.46-4.3,1.16.84,1.22,4.12,2,4.3.24-.08.43-.59.46-.61,1.34-.99,2.02-2.97,2.92-4.3.55.33-.19,3.12-.46,3.69Z"/>
                <path class="cls-4" d="M353.87,489.13c-3.51,1.92-6.88,5.17-9.68,7.99l1.08-3.69c.1-.03.22.03.31,0,1.18-.63,16.59-13.21,16.91-12.14-1.95,2.19-6.31,4.35-8.15,6.3-.53.57-.54.76-.46,1.54Z"/>
                <path class="cls-4" d="M335.12,493.74c-.46.18-.94,1.15-1.69.92l-2.15-3.38c-.82.4,2.85,4.87,0,4.3-1.87-.37-1.08-2.76-1.38-3.38,1.9-.81-.27-2.31,0-3.84l1.23.46c.34.87,1.41,2.7,2.61,2.15,1-.46.06-1.75.15-2.46.24-1.78.65-1.95,1.23-3.38v8.61Z"/>
                <path class="cls-6" d="M330.2,484.21c.45,1.31.5,3.53.92,4.61l-1.23-.46c-.27,1.53,1.9,3.03,0,3.84-.78-1.59-2.05-2.91-2.77-4.61l.92-7.84c.94.78,1.13,3.16,1.54,4.3.1.27.6.12.61.15Z"/>
                <path class="cls-10" d="M337.89,483.29c-.11.87-.74,1.32-.61,2.31.14,1.15,2.64,3.57,2.77,4,.06.2-.29,1.41-.31,2,0,.25.61,1.38.31,2-1.27,1.87-2.69-4.1-3.54-4.46-1.49,2.53,1.08,6.14-.46,7.84.25-1.12-.21-2.26-.31-3.23-.47-4.48,1.13-8.55,2.15-12.91,1.28-.06.09,1.74,0,2.46Z"/>
                <path class="cls-8" d="M325.59,487.9c-.22-.26-.41-.4-.61-.61.17-1.04-5.85-5.59-3.23-5.53,2.83.06,5.81,8.88,7.53,10.91-.1.91-1.48-.85-1.54-.92-.93-1.12-1.36-2.91-2.15-3.84Z"/>
                <path class="cls-1" d="M337.89,480.83c-1.02,4.36-2.62,8.43-2.15,12.91-.19.03-.49-.05-.61,0v-8.61c.28-.69,2.29-5.94,2.77-4.3Z"/>
                <path class="cls-10" d="M362.94,487.28l-9.07,7.53c1.35-3.65,6.05-5.49,9.07-7.53Z"/>
                <path class="cls-10" d="M361.4,489.74c.21-.05.65-.06.77.15-1.48,2.81-3.44,5.28-5.99,7.22-.56-.37-.34-.58-.15-1.08.15-.39,4.98-6.2,5.38-6.3Z"/>
                <path class="cls-9" d="M338.19,470.07c-.73,1.04-3.01,5.53-4.3,5.23-.1-1.17,2.8-6.09,3.54-6.15.28.11.72.89.77.92Z"/>
                <path class="cls-8" d="M320.67,491.59c-.94-2.16-1.06-3.23-.31-5.53l2.46,3.54c-.19,1.2-1.07-.44-1.38-.15-.33.3.06,1.81-.77,2.15Z"/>
                <path class="cls-7" d="M365.86,490.36c-.19.05-1.62.47-1.38-.31,2.4-1.03,6.9-2.95,8.76-4.61.62.82.76.84-.15,1.54-.55.41-6.51,3.18-7.22,3.38Z"/>
                <path class="cls-9" d="M343.42,471.91c-.27.83-1.82,2.35-2.46,3.07-.05-.62-.11-1.92,0-2.46.26-1.32,1.34-2.77,2.31-3.69.59.12.23,2.84.15,3.07Z"/>
                <path class="cls-7" d="M365.71,479.29c.69,2.61-1.55,6.05-3.69,7.38l3.69-7.38Z"/>
                <path class="cls-8" d="M324.98,487.28c.21.22.39.36.61.61.02.85.12,1.1-.61.61-1.05-2.6-1.54-.59-1.69-.61-.28-.04-2.37-2.4-2.31-3.07l.15-.61c.75,1.26,3.03,2.21,3.84,3.07Z"/>
                <path class="cls-10" d="M365.86,492.82s.49.03,0,.61c-.9,1.09-4.91,3.64-6.46,4.15l6.46-4.76Z"/>
                <path class="cls-4" d="M324.21,497.43c.13-.04,1.07,1.36.61,1.54-.4-.4-1.12-.85-.61-1.54Z"/>
                <path class="cls-10" d="M332.35,477.76c-.61,2.59-.58,2.98-.31,5.84.11,1.14-.27,4.3,1.84,4.92-.1.71.85,2-.15,2.46-1.2.55-2.27-1.28-2.61-2.15-.42-1.08-.47-3.3-.92-4.61-.09-2.22-.21-5.21,2.15-6.46Z"/>
                <path class="cls-8" d="M344.34,482.67c-.28.63-2.65,2.38-2.46,4.3-1.01-1.38-.65-1.35-.92-2.77l3.38-5.23c.64,1.3.67,2.21,0,3.69Z"/>
                <path class="cls-1" d="M344.34,478.98l-3.38,5.23c-.7-3.71.11-1.72.61-2.92.25-.6,1.42-4.23,2-3.84-.13.97.65,1.29.77,1.54Z"/>
                <path class="cls-1" d="M346.8,473.76c0,.1,0,.21,0,.31-.12,2.19-1.11,4.47-.61,6.76-.16-.15-.44.52-.61.15-1.11-2.28-1.66-6.11,1.23-7.22Z"/>
              </g>
            </g>
          </g>
        </g>
      </g>
    </g>
    <g>
      <path class="cls-3" d="M371.39,338.81c1.53,1.14,4.4,2.87,3.23,5.23-4.56-6.73-7.13,2.63-8.91,2.46-.24-.02-2.64-3.21-3.07-3.69l-.46.46-.31,128.03-.77-62.71-1.08,63.02-.31-137.25c-1.4,6.54-.23,14.02-.61,20.9-.22.31-3.9.13-4.61.15v-.61l4,.15c-.1-3.66-.71-4.23-4-5.69-.05-.82.12-1.5-.31-2.31-.17-.26-.61.72-.61.77l-4.92-3.69c-.14-4.23-.74-8.5-.61-12.76-.88,3.59-.31,7.33-.31,10.91-2.18-1.58-6.16-2.73-6.61-5.53l-6.3-3.38c-.1-.37-.19-.71-.31-1.08-.43-.4-.28.48-.31.46-1.79-1.04-3.64-2.39-5.53-3.07-.03-.19.04-.43,0-.61-.4-1.96-.79-.2-1.08-.31-1.51-.59-3.11-3.16-5.07-3.07-.04-1.07.03-2.15,0-3.23-1.02-.41-.59,1.88-.61,2.31l-6.46-3.69c-.1-.56-.21-1.13-.31-1.69-.95-.12-.3.55-.31.77-1.44-.55-5.05-2.54-5.84-3.69-.26-.37-.2-.41-.31-.61-.09-.18-.08-1.44-.15-1.84-1.11,4.01-4.02-1.78-6.61-1.84-.04-.59-.19-.98-.31-1.54,0-1.16.29-13.49-.46-13.53-.07.68-.72.6-.77.77-.34,1.26.61,11.73,0,12.3l-4.92-2.31c-.03-.6.1-1-.31-1.54.04-3.03.35-6.6-.46-9.53l-.46,8.76c-.24.44-5.38-2.2-5.53-2.46-1.12-1.85.42-10.82-.46-13.37l-.15,12.76c-.56,1-4.98-3.09-5.84-3.23-.27-3.22-1.09-1.2-1.23-1.23-1.93-.41-4.37-2.12-6.15-3.07-.04-.02.23-.14-.61-.61-1.79-.99-3.9-2.13-5.84-2.77-.06-2.2.02-6.97-.31-8.76-.08-.44.17-1.08-.61-.61v21.06c-.21-2.07-.02-11.9-.31-12.45-.13-.25-4.67-2.14-5.23-2.31-.04-.01-.24-.61-.46-.61-.21,0-.42.6-.46.61-1.61.49-2.78,1.62-4.3,2.15l-.77-15.68c-.4-.09-.91.08-1.08.46-.73,1.67-.06,12.45-.31,15.22-.08.9.43,1.1-.15,1.84-.19.25-4.67,2.7-5.38,3.07-.08.04.39-.8-1.23,0s-3.41,2.36-5.23,3.07c-.04-3.02.03-6.05,0-9.07-.15-.3-.58.21-.61.31-.15.48-.3,8.69-.31,9.99-2.3,1.38-4.79,2.59-7.07,4-.1.06-.74-.26-1.23,1.23-1.67,1.06-3.61,1.97-5.23,3.07-.13.09-.64-.73-.92,1.23-1.72,1.16-3.81,1.96-5.53,3.07-.38.25-.34.55-.92.92-2.44,1.57-4.82,3.24-7.38,4.61l-.31.61c-2.05.72-3.75,2.2-5.53,3.38-.06.04-.28.09-.61.31-.6.38-5.4,4.16-5.84,3.23l-.46-12.45c-.18,1.98.34,12.03-.15,13.06-.16.34-5.46,3.51-6.15,4.46,0-.26.58-1.08.31-1.69h-.61c-.06.3.09.89,0,1.08-.41.8-1.63,2.77-2.31,3.38s-2.58,1.55-3.54,1.84c0-1.48.11-2.98.31-4.46-.98-.54-.47.75-.61,1.08-.02.03-.56-.11-.61.15-.3,1.37.35,2.86-.31,4.3-.34.73-4.02,3.17-4.76,2.61-.58-.69.52-2.44.15-2.92-1.81-2.4-1.52,3.6-1.54,4.15-.01.3.01.62,0,.92-1.97.93-10.9,6.41-11.68,7.68l-.92-.15c-.15,1.3.13,5.48-.31,6.46-.54,1.21-5.78-.59-4.15,1.69,50.86-.41,101.78-.5,152.62-.31,14.18.05,28.38.06,42.57.31v1.23c-65.31-.93-130.67-.76-195.97-.61h-.61c.02-3.5.29-6.96.31-10.45,0-1.84.01-3.69,0-5.53-.02-2.46.23-4.95-.31-7.38-.1-.47.3-1.05-.61-.92,33.12-21.91,66.98-42.73,99.75-65.17,36.16,24.38,72.79,48.08,109.9,71.01Z"/>
      <path class="cls-10" d="M373.54,338.81l.61-1.23c1.75.74,5.17-3.32,4.61-5.38-38.61-26.39-79.21-50.28-117.27-77.62l-50.11,34.43c.49-2.65-2.8,1.32-4,2.15-20.66,14.38-42.78,26.77-63.63,40.88-3.13,1.89,1.47,6.24,3.23,6.46.2.02.41-.01.61,0l.61,1.54c-.32.17-.86.9-.92.92-.52.22-1.16.37-1.69.61-.29-1.22-4.35-4.64-4.46-5.07-.2-.82.62-5.89,1.69-6.3,39.82-25.52,79.69-50.97,118.66-77.77,38.8,27.26,79.35,52.06,118.81,78.23-.34,1.62.77,4.04.31,5.53-.1.31-4.44,4.44-4.76,4.46-.28.01-2.06-1.7-2.31-1.84Z"/>
      <path class="cls-3" d="M374.16,337.58l-.61,1.23c-.25-.15-1.3-.47-1.54-.61-37.37-23.27-73.99-47.82-110.82-71.93-6.11,4.32-12.19,8.81-18.44,12.91-29.53,19.37-64.04,44.4-94.53,60.86l-.61-1.54,113.12-74.39c4.06.99,24.56,16.16,29.97,19.67,27.75,18.04,55.79,35.63,83.46,53.79Z"/>
      <path class="cls-8" d="M372.01,338.2l-.61.61c-37.1-22.93-73.74-46.63-109.9-71.01-32.77,22.44-66.63,43.26-99.75,65.17-1.83,1.21-13.39,7.93-13.83,8.61l-.61-.61c.06-.03.6-.75.92-.92,30.49-16.47,65-41.49,94.53-60.86,6.26-4.1,12.33-8.59,18.44-12.91,36.82,24.11,73.45,48.66,110.82,71.93Z"/>
      <path class="cls-4" d="M162.36,333.89c.53,2.43.29,4.91.31,7.38h-1.23c.02-1.89-.69-6.47.92-7.38Z"/>
      <path class="cls-6" d="M162.67,341.27c.01,1.84,0,3.69,0,5.53h-1.23c.03-1.84-.01-3.69,0-5.53h1.23Z"/>
      <path class="cls-1" d="M295.16,306.23c-.22,16.23-.48,32.48-.31,48.72l-5.84.31-.31-50.41-.92,50.41h-6.15c-.05-6.72.29-13.42.31-20.13.04-10.87,1.18-25.63.31-35.97.86.14,5.28,4.23,5.84,3.23l.15-12.76c.88,2.56-.66,11.52.46,13.37.16.26,5.3,2.89,5.53,2.46l.46-8.76c.81,2.92.5,6.5.46,9.53Z"/>
      <path class="cls-1" d="M227.22,343.42c-.04,3.99.15,8-.15,11.99l-13.37-.15-.31-37.35c2.56-1.38,4.94-3.04,7.38-4.61l.31,34.58.61-35.5c1.72-1.11,3.82-1.91,5.53-3.07-1.31,8.98.09,24.36,0,34.12Z"/>
      <path class="cls-1" d="M241.67,299.77c-.07,10.91-.13,25.4.61,36.12.07.99.14,1,.61.15.49,4.33,2.29,2.74,5.38,2.46l-.15.61-.61,16.14c-4.52.59-9.02-.01-13.53-.15l.61-51.34c2.28-1.41,4.77-2.61,7.07-4Z"/>
      <path class="cls-7" d="M295.16,306.23c.41.54.28.94.31,1.54.76,15.89-.72,31.77.46,47.65l5.38-.46c-.24-14.81.19-29.63.31-44.42.12.55.27.94.31,1.54.99,14.23-.1,28.62.31,42.88l6.15.31v-23.82h.61c0,2.91-.38,22.85.31,23.82.18.25,5.35.25,5.53,0,.3-11.7-.37-23.52,0-35.2,0-.21-.65-.88.31-.77.1.57.2,1.13.31,1.69,1.3,7.01-1.11,30.88.92,34.43.08.13-.05.66,0,.92-50.85-.19-101.77-.1-152.62.31-1.63-2.28,3.61-.48,4.15-1.69.43-.98.16-5.16.31-6.46l.92.15c-.45.73-.44,6.56-.15,6.76.79-.16,4.61.22,4.92,0,.39-.28-.31-5.32.92-4.3.48.4-.17,3.96.31,4.3.3.21,4.85-.04,5.69,0,.39.02.56,0,.92,0,.76,0,5.61.47,5.84-.15l.31-23.52c.15-.33-.37-1.61.61-1.08-.2,1.48-.3,2.98-.31,4.46-.03,6.72.26,13.41.31,20.13l5.53-.31c-.55-4.31-.32-8.73-.31-13.06h.92c.07,4.45-.06,8.92,0,13.37h5.23l.92-28.59v28.59h5.84l.31-33.05c.34-.22.55-.27.61-.31v33.35l5.38-.15.15-36.58.31-.61.31,37.35,13.37.15c.31-3.98.12-8,.15-11.99h.92c.05,3.94-.04,7.89,0,11.83.22.31,4.43.13,5.23.15.58.02.19-.32.61-.31,4.51.14,9.01.74,13.53.15l.61-16.14.31,16.14c.46.65,5.28-.17,6.15-.15.34,0,.59,0,.92,0,.78-.02,4.77.8,5.23.15l.31-15.52c.24-.91.58-.3.61-.31v15.83c.46.65,4.99-.17,5.84-.15.32,0,.59,0,.92,0,.83-.02,5.38.8,5.84.15v-16.75c.9-.25.4.63.92.61l-.31,15.83,5.69.46c.63-6.71.63-13.55.77-20.29h.61c-.02,6.72-.36,13.41-.31,20.13h6.15l.92-50.41.31,50.41,5.84-.31c-.17-16.24.09-32.49.31-48.72Z"/>
      <path class="cls-1" d="M206.93,322.21l-.31,33.05h-5.84v-28.59l-.92,28.59h-5.23c-.06-4.45.07-8.92,0-13.37-.06-3.78-.34-7.62-.31-11.37.68-.95,5.98-4.11,6.15-4.46.49-1.03-.03-11.08.15-13.06l.46,12.45c.44.93,5.24-2.85,5.84-3.23Z"/>
      <path class="cls-3" d="M301.61,310.53c-.12,14.79-.55,29.61-.31,44.42l-5.38.46c-1.18-15.88.3-31.75-.46-47.65l4.92,2.31c.61-.57-.34-11.03,0-12.3.04-.16.7-.09.77-.77.75.04.47,12.36.46,13.53Z"/>
      <path class="cls-1" d="M233.37,305v50.41c-.8-.03-5,.16-5.23-.15-.04-3.94.05-7.9,0-11.83-.14-11.77-.68-23.58,0-35.35,1.62-1.1,3.56-2.01,5.23-3.07Z"/>
      <path class="cls-1" d="M308.68,315.76l-.31,15.68v23.82l-6.15-.31c-.41-14.26.69-28.65-.31-42.88,2.59.07,5.5,5.85,6.61,1.84.07.4.06,1.66.15,1.84Z"/>
      <path class="cls-1" d="M281.02,297.93c.83,12.3.55,24.81.31,37.2-.13,6.73-.14,13.58-.77,20.29l-5.69-.46.31-15.83c1.42-.05,2.97.43,3.69-1.08l-.61-31.97c-.11-.28-.56-.1-.61-.15-1.03-1.01-1.12-.48-2.46-.61l-.31-10.45c1.78.95,4.21,2.67,6.15,3.07Z"/>
      <path class="cls-1" d="M314.83,320.06c-.37,11.68.3,23.49,0,35.2-.18.25-5.35.25-5.53,0-.69-.97-.31-20.92-.31-23.82v-15.06c.79,1.14,4.4,3.14,5.84,3.69Z"/>
      <path class="cls-1" d="M347.72,342.19c0,4.3,0,8.61,0,12.91-.83-.02-5.38.8-5.84.15l-.46-14.6-.46,14.6c-.22.31-4.32.13-5.07.15-.22,0-.42-.62-.46-.61-.61-6.27.95-15.57-.61-21.52l6.3,3.38c.45,2.81,4.43,3.95,6.61,5.53Z"/>
      <path class="cls-1" d="M321.9,324.67c-.05.81.03,1.65,0,2.46-.14,3.83.51,26.98-.31,28.13-.28.4-4.4.02-5.23.15-2.03-3.55.37-27.42-.92-34.43l6.46,3.69Z"/>
      <path class="cls-1" d="M213.08,318.52l-.15,36.58-5.38.15v-33.35c1.78-1.18,3.49-2.66,5.53-3.38Z"/>
      <path class="cls-1" d="M261.04,288.4v16.91c-3.94.04-8.46-.31-12.3,0l.31-9.84c.71-.37,5.19-2.83,5.38-3.07.58-.75.07-.94.15-1.84,1.73.71,1.01.4,2.15,0,1.53-.53,2.69-1.66,4.3-2.15Z"/>
      <path class="cls-1" d="M328.66,328.97l-.31,25.98-5.38.46c-.99-9.38-.27-18.87-.46-28.28-.01-.51.02-1.03,0-1.54,1.96-.08,3.56,2.48,5.07,3.07.29.11.68-1.65,1.08.31Z"/>
      <path class="cls-1" d="M334.2,332.66l.31,22.44c-.86-.03-5.03.98-5.53-.15-.7-7.9,1.07-17.69-.31-25.36,1.89.69,3.75,2.03,5.53,3.07Z"/>
      <path class="cls-1" d="M180.81,340.96c-.16,4.8.12,9.64,0,14.45-.84-.04-5.39.21-5.69,0-.48-.34.17-3.91-.31-4.3-1.24-1.02-.53,4.03-.92,4.3-.31.22-4.13-.16-4.92,0-.29-.2-.3-6.03.15-6.76.78-1.27,9.71-6.76,11.68-7.68Z"/>
      <path class="cls-1" d="M194.02,329.9c-.54,3.96-.3,8.01-.31,11.99-.01,4.33-.25,8.76.31,13.06l-5.53.31c-.04-6.72-.33-13.41-.31-20.13.96-.29,2.85-1.21,3.54-1.84s1.89-2.58,2.31-3.38Z"/>
      <path class="cls-1" d="M187.88,331.74l-.31,23.52c-.23.62-5.08.15-5.84.15l-.92-15.37c.02-.55-.27-6.55,1.54-4.15.36.48-.74,2.23-.15,2.92.74.56,4.43-1.88,4.76-2.61.66-1.44,0-2.94.31-4.3.06-.26.6-.12.61-.15Z"/>
      <path class="cls-1" d="M267.49,303.15c.07.7-.05,1.45,0,2.15-1.84-.03-3.69,0-5.53,0v-16.91c.55.17,5.09,2.05,5.23,2.31.29.55.1,10.38.31,12.45Z"/>
      <path class="cls-1" d="M274.25,294.24v11.07c-1.92-.13-3.91.04-5.84,0-.1-4.6.13-9.25,0-13.83,1.94.64,4.05,1.77,5.84,2.77Z"/>
      <path class="cls-1" d="M247.82,305c-5.24-.91-1.17,3.69-4.92,4.61-.08-3.68-.26-7.37-.31-11.07,1.82-.72,3.54-2.24,5.23-3.07v9.53Z"/>
      <path class="cls-3" d="M353.56,347.73c-.17,1.95.76,5.47.31,7.68-1.78.03-3.5-.26-5.23-.31-.09-3.68.12-7.41,0-11.07l4.92,3.69Z"/>
      <path class="cls-6" d="M242.59,298.54c.05,3.7.22,7.38.31,11.07.18,7.68-.78,19.6,0,26.44-.47.85-.55.83-.61-.15-.74-10.72-.69-25.21-.61-36.12,0-1.3.15-9.51.31-9.99.03-.09.46-.61.61-.31.03,3.02-.04,6.05,0,9.07Z"/>
      <path class="cls-10" d="M234.6,303.77l-.61,51.34c-.43-.01-.03.33-.61.31v-50.41c.49-1.49,1.13-1.17,1.23-1.23Z"/>
      <path class="cls-6" d="M228.15,308.07c-.68,11.78-.14,23.58,0,35.35h-.92c.09-9.77-1.31-25.14,0-34.12.29-1.96.8-1.14.92-1.23Z"/>
      <path class="cls-1" d="M256.73,290.55c-1.15.4-.42.71-2.15,0,.25-2.76-.42-13.55.31-15.22.17-.38.67-.55,1.08-.46l.77,15.68Z"/>
      <path class="cls-10" d="M282.25,299.16c.87,10.34-.27,25.09-.31,35.97h-.61c.25-12.38.52-24.9-.31-37.2.14.03.96-1.99,1.23,1.23Z"/>
      <path class="cls-7" d="M334.81,333.28c1.56,5.95,0,15.25.61,21.52-.58.01-.7.32-.92.31l-.31-22.44s-.12-.86.31-.46c.12.36.21.71.31,1.08Z"/>
      <path class="cls-6" d="M348.65,344.04c.12,3.66-.09,7.39,0,11.07-.3,0-.62,0-.92,0,0-4.3,0-8.61,0-12.91,0-3.59-.57-7.33.31-10.91-.13,4.26.48,8.52.61,12.76Z"/>
      <path class="cls-3" d="M354.49,354.8c0-1.82.12-3.72,0-5.53,3.29,1.46,3.9,2.03,4,5.69l-4-.15Z"/>
      <path class="cls-6" d="M268.41,291.47c.13,4.58-.1,9.24,0,13.83-.3,0-.62,0-.92,0-.05-.71.07-1.45,0-2.15v-21.06c.78-.46.53.17.61.61.33,1.79.24,6.56.31,8.76Z"/>
      <path class="cls-10" d="M261.96,288.4v16.91c-.31,0-.62,0-.92,0v-16.91s.25-.62.46-.61c.22,0,.42.6.46.61Z"/>
      <path class="cls-6" d="M220.77,313.3c.58-.38.54-.67.92-.92l-.61,35.5-.31-34.58Z"/>
      <path class="cls-6" d="M181.73,355.41c-.36,0-.53.02-.92,0,.12-4.8-.16-9.65,0-14.45.01-.3-.01-.62,0-.92l.92,15.37Z"/>
      <path class="cls-6" d="M194.33,330.51c-.03,3.76.24,7.6.31,11.37h-.92c.01-3.98-.23-8.03.31-11.99.09-.18-.06-.77,0-1.08h.61c.28.61-.31,1.43-.31,1.69Z"/>
      <path class="cls-6" d="M308.68,315.76c.1.2.05.24.31.61v15.06h-.61l.31-15.68Z"/>
      <path class="cls-10" d="M249.05,295.47l-.31,9.84c-.3.02-.63-.04-.92,0v-9.84c1.62-.8,1.15.04,1.23,0Z"/>
      <path class="cls-6" d="M274.87,294.85l.31,10.45c-.3-.03-.62.02-.92,0v-11.07c.85.47.58.59.61.61Z"/>
      <path class="cls-10" d="M354.49,349.26c.12,1.81,0,3.71,0,5.53v.61c-.25,0-.39,0-.61,0,.45-2.21-.48-5.74-.31-7.68,0-.05.45-1.03.61-.77.43.8.25,1.48.31,2.31Z"/>
      <path class="cls-10" d="M322.52,325.59c.02.51-.01,1.03,0,1.54h-.61c.03-.81-.05-1.65,0-2.46.02-.42-.41-2.72.61-2.31.03,1.07-.04,2.16,0,3.23Z"/>
      <path class="cls-7" d="M260.11,263.81c.26,0,.3.23.61.31l-113.12,74.39c-.2-.01-.42.02-.61,0,.02-.2-.04-.44,0-.61.22-.88.65-.46.61-1.23,25.11-16.29,50.31-32.42,75.31-48.88,9.25-6.09,18.69-11.93,27.67-18.44,1.77-.97,8.66-5.55,9.53-5.53Z"/>
      <path class="cls-3" d="M247.82,305v.31c-.71.1-1.33.49-2.15.31l-.61,30.59c.22.31,3.07.13,3.69.15,9.55.43,19.35.06,28.9-.46v-29.97c.06.05.51-.13.61.15l.61,31.97c-.72,1.51-2.27,1.03-3.69,1.08-.52.02-.02-.86-.92-.61-.47.13-1.16,1.14-1.69,1.23-1.54.27-3.22-.7-4.15-.31-.22.09-.78-.17-.92.15-.04.76.06,1.55,0,2.31.32-3.32-3.16-2.74-5.84-2.46-.03,0-.37-.6-.61.31l-.46-.61c-1.58-.08-3.2.11-4.76,0-.06,0,.44-.59-.92-.61-1.97-.04-4.49,1.18-6.76.61l.15-.61c-3.09.28-4.89,1.87-5.38-2.46-.78-6.84.18-18.76,0-26.44,3.75-.92-.33-5.52,4.92-4.61Z"/>
      <path class="cls-1" d="M254.89,338.5l-.31,16.6c-.87-.02-5.69.8-6.15.15l-.31-16.14c2.27.56,4.79-.65,6.76-.61Z"/>
      <path class="cls-1" d="M268.41,355.1v-15.68c.93-.4,2.61.58,4.15.31.53-.09,1.22-1.1,1.69-1.23v16.75c-.46.65-5.01-.17-5.84-.15Z"/>
      <path class="cls-1" d="M267.49,341.89c-.32,4.27.24,8.91,0,13.22-.85-.02-5.38.8-5.84.15v-15.83c2.68-.28,6.16-.86,5.84,2.46Z"/>
      <path class="cls-1" d="M261.04,339.73l-.31,15.52c-.46.65-4.45-.18-5.23-.15l.31-15.98c1.57.11,3.19-.08,4.76,0l.46.61Z"/>
      <path class="cls-6" d="M255.81,339.12l-.31,15.98c-.33,0-.58,0-.92,0l.31-16.6c1.37.03.87.61.92.61Z"/>
      <path class="cls-6" d="M268.41,339.43v15.68c-.34,0-.6,0-.92,0,.24-4.31-.32-8.95,0-13.22.06-.76-.04-1.54,0-2.31.14-.32.7-.06.92-.15Z"/>
      <path class="cls-1" d="M260.73,259.19c-.16,1.52-.23,3.14-.61,4.61-.87-.02-7.76,4.56-9.53,5.53-7.69,4.24-19.85,10.96-26.59,16.6-.56.47-1.03,1.08-1.08,1.84-25,16.45-50.21,32.59-75.31,48.88-3.56-1.68-.6-2.96,1.08-4.61,37.69-23.77,75.19-47.84,112.05-72.85Z"/>
      <path class="cls-7" d="M260.73,259.19c-36.86,25.02-74.36,49.08-112.05,72.85-1.68,1.65-4.64,2.93-1.08,4.61.03.77-.4.35-.61,1.23l-3.07-3.84c38.48-26.35,79.04-49.99,116.97-77.31.84.26-.11,2.06-.15,2.46Z"/>
      <g>
        <path class="cls-2" d="M374.16,337.58c-27.66-18.16-55.71-35.75-83.46-53.79-5.41-3.52-25.91-18.68-29.97-19.67-.31-.08-.36-.3-.61-.31.38-1.47.45-3.09.61-4.61.04-.39.99-2.2.15-2.46-37.93,27.33-78.49,50.96-116.97,77.31l3.07,3.84c-.04.17.02.42,0,.61-1.76-.21-6.36-4.57-3.23-6.46,20.85-14.11,42.97-26.51,63.63-40.88,1.2-.83,4.49-4.8,4-2.15l50.11-34.43c38.06,27.34,78.66,51.23,117.27,77.62.56,2.06-2.86,6.12-4.61,5.38Z"/>
        <path class="cls-1" d="M377.23,333.59c-.14.98-1.62,2.06-2.31,2.77-11.11-7.43-22.56-14.31-33.81-21.52-26.4-16.91-52.65-34.81-79-51.34.2-1.33.1-2.66.15-4l114.97,74.08Z"/>
        <path class="cls-5" d="M377.23,333.59l-114.97-74.08c.02-.44-.72-2.7.46-2.77.34-.02,4.28,3.66,5.23,4.3,35.8,24.6,72.98,47.37,109.28,71.16-.04.45.06.95,0,1.38Z"/>
      </g>
      <path class="cls-3" d="M250.59,269.34c-8.97,6.51-18.41,12.35-27.67,18.44.05-.77.51-1.37,1.08-1.84,6.74-5.64,18.9-12.36,26.59-16.6Z"/>
      <g>
        <path class="cls-2" d="M247.82,305.3c.3-.04.62.02.92,0,3.84-.31,8.36.04,12.3,0,.31,0,.62,0,.92,0,1.84,0,3.7-.03,5.53,0,.3,0,.62,0,.92,0,1.93.04,3.92-.13,5.84,0,.3.02.62-.03.92,0,1.34.14,1.42-.39,2.46.61v29.97c-9.54.52-19.35.89-28.9.46v-.92c8.93.61,18.66-.33,27.67-.15l.31-28.59c-9.54-.97-20.43.86-29.82-.15-.81-.09-1.47-.04-1.23-.92.82.18,1.44-.21,2.15-.31Z"/>
        <path class="cls-8" d="M246.9,306.53c-2.07.94-.74,1.32.61,1.54.01.27-.26.31-.31.61l-1.23.77v25.82c.22.31,2.23.12,2.77.15v.92c-.62-.03-3.47.16-3.69-.15l.61-30.59c-.24.88.42.84,1.23.92Z"/>
        <path class="cls-3" d="M246.9,306.53c9.39,1.01,20.28-.82,29.82.15l-.31,28.59c-9-.18-18.74.77-27.67.15-.53-.04-2.54.16-2.77-.15v-25.82l1.23-.77c-.9,6.38,1.54,17.31.31,23.82-.03.15-1.71.45-.46,1.38l27.82-.46-.46-25.36c-8.12-.92-19.12,1.23-26.9,0-1.35-.21-2.68-.6-.61-1.54Z"/>
        <g>
          <path class="cls-11" d="M247.2,308.69c.04-.31.32-.34.31-.61,7.77,1.23,18.78-.92,26.9,0l.46,25.36-27.82.46c-1.25-.94.43-1.23.46-1.38,1.24-6.51-1.21-17.44-.31-23.82Z"/>
          <g>
            <polygon class="cls-3" points="263.34 320.98 273.64 321.14 273.49 332.66 263.19 332.51 263.34 320.98"/>
            <polygon class="cls-3" points="248.89 320.98 259.19 321.14 258.73 332.66 248.74 332.51 248.89 320.98"/>
            <polygon class="cls-3" points="263.34 308.69 273.95 308.84 273.49 320.06 263.19 319.91 263.34 308.69"/>
            <polygon class="cls-3" points="248.89 308.69 259.19 308.84 258.73 320.06 248.74 319.91 248.89 308.69"/>
            <path class="cls-3" d="M260.58,308.69c1.12-.87,1.29,2.11,1.38,2.92.2,1.86.54,20.98-.46,21.36-.19.07-.95.06-1.08-.15-.74-1.21.46-21.06.15-24.13Z"/>
          </g>
        </g>
      </g>
    </g>
  </g>
</svg>