<?xml version="1.0" encoding="UTF-8"?>
<svg id="Laag_1" data-name="Laag 1" xmlns="http://www.w3.org/2000/svg" xmlns:xlink="http://www.w3.org/1999/xlink" viewBox="0 0 411.57 531.06">
  <defs>
    <style>
      .cls-1 {
        fill: #3eb6da;
      }

      .cls-2 {
        fill: #fefeff;
      }

      .cls-3 {
        fill: #233567;
      }

      .cls-4 {
        fill: #1774a7;
      }

      .cls-5 {
        fill: #c4e6f2;
      }

      .cls-6 {
        fill: #1d95c2;
      }

      .cls-7 {
        fill: #196496;
      }

      .cls-8 {
        fill: #193d65;
      }

      .cls-9 {
        fill: #3ebdde;
      }

      .cls-10 {
        fill: #7ccce6;
      }

      .cls-11 {
        fill: url(#Naamloos_verloop_183);
      }

      .cls-12 {
        fill: #78cbe5;
      }

      .cls-13 {
        fill: #e5f3fa;
      }

      .cls-14 {
        fill: #31a6d1;
      }

      .cls-15 {
        fill: #20527e;
      }

      .cls-16 {
        fill: #1382ba;
      }

      .cls-17 {
        fill: #aadbeb;
      }
    </style>
    <linearGradient id="Naamloos_verloop_183" data-name="Naamloos verloop 183" x1="230.37" y1="-44.18" x2="419.49" y2="454.14" gradientTransform="translate(21.52 60.68) scale(.52)" gradientUnits="userSpaceOnUse">
      <stop offset="0" stop-color="#266a94"/>
      <stop offset=".83" stop-color="#183a62"/>
    </linearGradient>
  </defs>
  <g id="Generatief_object" data-name="Generatief object">
    <path class="cls-1" d="M83.86,383.88c-2.05-.1-.12,2.9-2.07,1.55.7-5.5-1.44-8.16-6.98-7.75-.34.03-.74,1.48-2.58,1.55-2.39.09-19.18-5.24-11.11-7.75,1.52,1.49,4.94.29,7.23,1.03,4.6,1.48,3.89,6.26,8.27,2.84-3.65-3.33-6.49-6.41-7.75-11.37.99-1.58,1.38.37,2.07.26l6.46,8.27-4.39-6.98c3.38-.65,7.65,12.42,8.53,12.14.43-9.7-1.44-9.83-8.01-14.47-7.07-4.99-9.99-5.59-18.6-7.49l11.88-.52c-7.02-3.61-13.75-5.49-14.98-14.47l27.39,22.74c1.8-6.72-4-6.08-7.23-10.33-2.03-2.67-3.26-6.45-3.1-9.82.7-2.17,7.78,5.58,8.27,6.2.96,1.2,1.51,3.07,2.33,4.39,1.38-3.87-1.2-6.2-2.33-9.56l2.84,1.81c2.59-4.84-4.52-4.82-7.23-6.72-2.47-1.72-5.13-5.81-4.91-9.04,1.03-3.3,11.88,8.24,12.14,10.08,2.15-.7-4.7-8.79-4.91-9.56-.54-2.03,1.17-1.64,1.03-2.58-.1-.72-8.9-3-11.88-7.75-8.39-13.34,8.41-3.02,10.59,2.84l.26-6.98c2.42,6.15-.14,12.15,5.43,16.79.63-.48,1.49-14.86,1.29-15.76-.34-1.53-5.15-5.63-5.17-8.27l6.46,5.43c1-7.74,3.93-14.9,9.3-20.67,3.28,3.07,1.85,9.64-.26,13.18-1.4,2.34-7.82,6.27-8.27,7.23-.99,2.12-2.09,25.56-1.55,28.42.62,3.31,3.46,4.22,4.65,6.72.72,1.52,3.02,9.21.26,9.04-2.19.67-3.43-14.5-5.94-10.08-.58,1.03.08,14.5-.52,17.05,1.62-1.53,2.11-5.05,5.17-4.13l-3.62,8.27c.95,3.87,3.69-9.3,5.68-9.3.2,9.75-5.28,12.71-4.13,23.51Z"/>
    <path class="cls-7" d="M192.37,286.74c1.54,1.21,2.19.41,3.1,1.29,1.62,1.58,1.72,4.4,2.58,6.2.1.21,2.6,5.03,3.1,3.36,0,1.21.51,1.7.52,2.58.1,16.22,3.45,65.29-1.55,78.02-.03.09-1.44.52-1.03,1.55-1.86-2.22-2.44-1.44-2.58-1.55-.68-.52-.79-.38-1.03-.52l1.55-75.7c-1.18-2.02-1.04,2.11-2.07,0-7.35-15.13-5.48-16.92-23.51-23.51-2.67-.98-7.97-3.18-10.08-1.55-12.58-4.63-10.95-2.53-21.7-11.37,1.31-2.28,5.36,2.75,6.98,3.62,16.05,8.61,27.12,2.98,45.73,17.57Z"/>
    <path class="cls-1" d="M99.88,345.13c-.43-.12-.91,1.1-1.55.26,1.32-3.05.22-6.24-.52-9.04,1.7-.87,1.04-4.68,1.03-6.72,0-2.55.32-2.47-1.03-5.17-2.33-6.74-1.03-10.72,4.39-14.98,5.94,7.29-.72,13.62-1.81,19.89-.65,3.76.28,10.07-.26,14.21l3.36-3.36c-.26-2.07-2.16,1.19-2.58,0-.87-2.46,12.54-16.02,17.05-13.43-4.03,9.32-11.14,11.97-18.08,18.34Z"/>
    <path class="cls-1" d="M195.47,377.68c-.13-.07-.39.08-.52,0-3.12-23.02,2.46-49.49,0-72.08-.22-2.03-1.28-5.01-2.07-6.98-1.12-4.89-3.63-9.02-7.75-11.88-.62-.43-1.27-1-1.81-1.55l-.26,1.03c-6.91-4.97-13.98-6.46-21.7-9.3,2.11-1.63,7.4.57,10.08,1.55,18.03,6.59,16.16,8.38,23.51,23.51,1.03,2.11.89-2.02,2.07,0l-1.55,75.7Z"/>
    <path class="cls-1" d="M68.36,372.51c-2.29-.74-5.71.45-7.23-1.03-.07-.07.04-.7,0-1.03.8.07,2.43,1.19,3.62.26-1.83-2.69-3.65-.69-3.88-.78-2.06-.79-4.17-3.81-5.68-4.65-2.03-1.12-5.37-1.28-7.23-3.1-1.73.68,5.63,5.71,5.43,6.72-7.4-2.61-17.55-14.39-4.39-10.33,3.35,1.03,7.2,5.97,9.82,8.27,3.72.49-5.03-6.04-2.58-7.75,7.6-.17,9.36,8.02,12.14,13.43Z"/>
    <path class="cls-1" d="M118.22,313.61c1.16.78-.34,3.02-.78,3.88-3.16,6.28-9.43,9.01-15.5,11.88,2.18-7.74,8.76-13.41,16.28-15.76Z"/>
    <path class="cls-15" d="M95.23,254.7c-1.65.94-1.28,7.17-1.03,8.53,1.22,6.8,7.55,13,14.47,13.69.07,1.82-3.68,1.39-5.17,1.03-11.72-2.77-13.63-17.29-9.82-26.87,1.96.81,1.4,2,1.55,3.62Z"/>
    <path class="cls-1" d="M52.6,331.69c5.56,3.7,11.55,6.58,12.92,13.95-6.55-.1-14.86-6.92-12.92-13.95Z"/>
    <path class="cls-1" d="M97.81,324.46c1.35,2.7,1.03,2.62,1.03,5.17l-3.36,3.62c-4.34-4.03-6.56-10.03-3.1-15.5.42-.1,5.23,6.33,5.43,6.72Z"/>
    <path class="cls-2" d="M70.94,364.24c.71-.11,2.18-.26,2.58-1.03,6.57,4.64,8.44,4.77,8.01,14.47-.88.28-5.15-12.79-8.53-12.14l4.39,6.98-6.46-8.27Z"/>
    <path class="cls-1" d="M61.13,370.44c-3-.25-4.9-.55-7.75-1.55.21-1.01-7.16-6.04-5.43-6.72,1.86,1.82,5.2,1.98,7.23,3.1,1.51.84,3.62,3.86,5.68,4.65.22.09,2.05-1.92,3.88.78-1.19.93-2.81-.19-3.62-.26Z"/>
    <path class="cls-15" d="M192.89,298.62c-1.52-3.8-4.65-8.16-7.75-10.85-.04-.33.07-.97,0-1.03,4.12,2.86,6.63,6.99,7.75,11.88Z"/>
    <path class="cls-15" d="M185.14,286.74c-.07-.07-.7.04-1.03,0-.17-.13-.84-.38-1.03-.52l.26-1.03c.53.55,1.19,1.12,1.81,1.55Z"/>
    <path class="cls-8" d="M245.07,160.14c-2.3,10.07-2.26,16.93-11.63,23.77-1.88-.25-.36-17.26.78-19.38-.57-.48-1.45,1.28-1.55,1.55-2,5.51-.38,20.85-1.55,28.16-.15.94-.29,3.8-.52,4.39-1.89,4.84-18,6.99-22.22,10.59-.38-1.46-2.39-1.15-2.58-1.81-.85-2.87-.76-18.56,0-21.7,1.37-5.67,12.31-15.13,16.02-20.93l2.07,1.03c-.69.19-1.46-.3-2.07.78,7.36.12,15.92-5.1,22.22-9.04l1.03,2.58Z"/>
    <path class="cls-2" d="M160.85,249.02c8.18,4.78,27.35,25.63,30.49,34.62-4.53-1.98-8.07-5.81-12.66-7.75-14.5-6.12-24.8-2.59-37.46-14.98,3.73-6.49,11.85-16.44,19.63-11.88Z"/>
    <path class="cls-8" d="M233.19,214.92c-1.32,1.77-.17,3.58-2.07,6.72-2.24,3.71-8.53,8.4-11.88,11.37-1.92-1.26-8.47-1.75-10.33,0-.12-2.93-.6-5.76-.52-8.78.06-2.26-.29-5.12,0-7.23.81-6.01,11.11-8.88,16.79-10.85.99-.34.55,1.36,1.55,1.03,2.16-.71,1.54-3.66,1.81-4.13.94-1.68,1.78-1.8,2.58-4.13l2.07,16.02Z"/>
    <path class="cls-2" d="M198.05,234.03c.08,4.38,1.63,38.35-1.29,39.27-1.84-1.87-11.64-9.4-12.14-11.11-1.87-6.42,2.2-19.07.52-26.09,3.71-3.62,8.39-4.92,12.92-2.07Z"/>
    <path class="cls-7" d="M196.5,276.92c.7,1.13,2.06,4.1,2.58,5.43.91,2.31-1.09,5.23,2.58,4.39.04,3.6-.54,7.37-.52,10.85-.5,1.67-3-3.15-3.1-3.36-.86-1.8-.96-4.62-2.58-6.2-.91-.89-1.56-.08-3.1-1.29-.1-1.08-.69-2.1-1.03-3.1-3.14-8.99-22.3-29.84-30.49-34.62l1.03-.52c8.67,7.58,29.22,19.63,34.62,28.42Z"/>
    <path class="cls-15" d="M284.86,156.01c-1.23.92-3.88,1.25-5.17,2.07,12.11-7.39,10.37-26.73-6.2-25.58-.92-1.12,5.25-9.19-2.33-13.18-2.6-1.37-3.69-.89-6.46-.78,2.25-1.77.17-6.38-1.03-8.01s-3.51-3.57-5.43-4.13c-3.9-1.14-8,1.04-10.08-1.55,7.49-4.13,15.78-.2,20.67,5.94,1.49,1.87,1.89,4.92,2.07,5.17,1.14,1.58,4.12,2.24,5.68,5.17,2.01,3.77,1.57,7.2,1.55,11.37,1.46-3.31,3.43-2.73,6.46-.78,7.67,4.95,7.4,18.91.26,24.29Z"/>
    <path class="cls-10" d="M191.34,25.8c-1.81,2.36-5.07,4.67-6.46,7.75-1.32-.48,3.31-8.17,3.88-9.04-22.76-11.48-53.97,11.22-45.99,36.69-.62,2.91-2.98-3.97-3.1-4.39-4.01-27.46,30.45-48.19,53.22-32.81-.66.5-1.06,1.17-1.55,1.81Z"/>
    <path class="cls-8" d="M208.39,138.96l-2.07,21.44c-2.78-1.74-6.01-7.56-6.72-10.59-.16-.69-.47-1.21-.52-1.55-1-7.16,1.59-13.96,3.62-20.67,4.93,3.23,3.68,6.48,5.68,11.37Z"/>
    <path class="cls-8" d="M177.9,175.65l-1.29,4.13-3.36-3.36c3.96,4.82,5.11,9.37,4.39,15.76-3.69-1.1-9.46-5.47-10.59-9.3-.92-3.1-1.1-11.33,3.1-9.56-.55-1.61-1.6-3.05-2.58-4.39,2.48.06,3.83-6.24,4.91-5.68,2.98,6.04,4.7,5.09,5.43,12.4Z"/>
    <path class="cls-8" d="M284.86,158.59c-.36.98,6.22,14.06-.26,18.08l.52-4.13c-1.6,4.75-5.22,7.24-9.3,9.82l-.78-3.62c.6-3.34.17-7,.52-10.08.28-2.55.62-6,2.07-8.53,2.88-.74,4.83-1.93,7.23-3.62,1.67-1.17,2.79-2.12,4.13-3.62-.05.11.27.96-.52,2.33-.72,1.24-2.99,1.67-3.62,3.36Z"/>
    <path class="cls-8" d="M234.22,133.79c-.41,7.25-3.78,14.78-10.33,18.6-1.21-1.29-2.04-14.47-1.55-16.79.51-2.44,5.47-7.07,6.72-10.08,3.23,2.86,2.04,5.8,5.17,8.27Z"/>
    <path class="cls-8" d="M109.7,218.02l4.13,9.56,8.01,8.01c-6.25-2.38-13.29-4.86-17.83-10.08-2.29-2.63-3.17-7.04-6.2-9.56l2.33-7.75c3.05,3.38,4.73,8.28,9.56,9.82Z"/>
    <path class="cls-10" d="M379.94,205.1l-2.07.52c4.11-21.56-18.64-50.19-41.59-46.5-.84-.89.26-.98.26-1.03,17.28-7,38.74,15.92,42.89,31.26,1.59,5.87,1.51,9.89.52,15.76Z"/>
    <path class="cls-5" d="M356.68,228.35c14.43,16.88-10.72,44.81-32.29,28.94-1.62-1.19-3.14-3.6-4.39-4.65,20.43,18.31,51.12-3.96,32.04-26.61.51-1.73,4.4,2.03,4.65,2.33Z"/>
    <path class="cls-7" d="M264.71,195.28c-9.06,9.6-18.65,19.4-28.42,28.42-3.39,3.13-6.87,6.24-10.33,9.3l-1.55-2.58c2.73-2.57,5.13-5.86,7.75-8.27,10.38-9.51,22.12-17.73,32.55-26.87Z"/>
    <path class="cls-10" d="M337.05,156.01c1.11-3.21,3.02-3.58,4.65-6.46,8.26-14.62,1.58-29.15-11.63-37.46-1.99-1.25-8.21-2.96-9.04-3.62,23.33-.89,37.12,34.16,16.02,47.54Z"/>
    <path class="cls-8" d="M320,185.46c-.8,1.29.02,1.35-1.29,1.03-6.02-1.47-8.42-3.37-15.24-2.07-2.35-1.82-5.31,1.09-7.23,2.58-3.51,1.9-2.58,1.71-4.65,4.65-1.19,1.4-2.42,2.15-2.07,4.65-.11.16-1.75-.3-2.07.26-.38.66.3,5.11,0,6.46-.33.03-.98-.06-1.03,0,.08-2.54.09-7.01.52-9.3,1.81-2.21,2.7-5.24,4.91-7.23,7.89-7.12,19.72-6.17,28.16-1.03Z"/>
    <path class="cls-8" d="M234.74,228.87s-1.22.28-.26,1.03c1.9,1.48,7.9,2.85,9.04,6.2l-6.72,5.68c-.59-2.28-4.42-6.23-6.72-6.72-2.63-2.1,3.34-7.99,4.65-6.2Z"/>
    <path class="cls-5" d="M379.94,205.1c-.52,3.07-1.1,6.28-2.58,9.04-2.8,5.22-13.59,15.7-19.63,12.66-.43-.22-2.55-1.38-2.33-2.07,10.94.5,20.49-8.71,22.48-19.12l2.07-.52Z"/>
    <path class="cls-2" d="M257.48,237.65v.52c-6.07,2.85-12.1,12.22-17.31,16.53-1.16-.13-.16-6.83.26-7.75,2.12-4.69,12.77-7.66,17.05-9.3Z"/>
    <path class="cls-8" d="M288.99,234.55c-.73-.13-.56-.5-.52-1.03,1.98-.55,7.44-4.39,9.04-4.65,2.85-.47,7.36.82,10.59.26l-5.43,4.91-13.69.52Z"/>
    <path class="cls-1" d="M239.39,246.43c-.85,3.8.6,10.52-3.1,11.88.41-1.32.92-14.99.52-16.53l6.72-5.68,6.2-3.36c-4.27,5.59-8.66,6.22-10.33,13.69Z"/>
    <path class="cls-8" d="M263.68,110.54c-1.37,2.89-6.84-2.23-10.59-2.58-1.63-.16-4.9,1.57-5.17,1.55-1.84-.17-2.67-2.5-.78-4.13.14-.12.79-.38,1.03-.52,2.08,2.59,6.18.41,10.08,1.55,1.91.56,4.21,2.49,5.43,4.13Z"/>
    <path class="cls-14" d="M232.67,193.73c-.47,1.76-.96,3.44-1.55,5.17-.8,2.33-1.64,2.46-2.58,4.13l-20.93,8.78c-.77-1.41-.16-1.78.78-2.58,4.22-3.6,20.32-5.76,22.22-10.59.23-.59.37-3.45.52-4.39l1.55-.52Z"/>
    <path class="cls-2" d="M230.09,235.07c2.3.49,6.12,4.44,6.72,6.72.4,1.54-.11,15.22-.52,16.53-2.45,7.84-18.94,15.01-25.32,19.38l-1.03-.52c-.49-1.47-.08-21.83.52-23.77.7-2.28,17.17-18.69,18.86-18.86.05,0,.27.41.78.52Z"/>
    <path class="cls-15" d="M209.42,318.77c.9,20.46,2.53,48.45,1.03,68.46-.06.84-.18,1.88-1.03,2.33-2.86-3.99-5.97-7.77-9.3-11.37,5-12.73,1.65-61.8,1.55-78.02,1.42-2.24,4.38,1.88,5.68,3.36.23.26-1.65-.32-.26,1.29,1.26,1.46,2.28.1,2.33.26.34,1.18-.12,10.94,0,13.69Z"/>
    <path class="cls-2" d="M219.24,233s.46.81.52,1.03c-3.29,2.96-6.4,7.05-10.33,9.3-.3-3.54-.37-6.82-.52-10.33,1.87-1.75,8.41-1.26,10.33,0Z"/>
    <path class="cls-16" d="M225.96,233c-2.25,1.99-15.2,14.14-16.79,13.43-.65-1.09.37-1.78.26-3.1,3.93-2.25,7.05-6.34,10.33-9.3,1.35-1.21,3.25-2.3,4.65-3.62l1.55,2.58Z"/>
    <g>
      <path class="cls-15" d="M229.06,151.36c-3.86,3.54-4.88,9.75-7.23,13.43-3.71,5.8-14.65,15.26-16.02,20.93-.76,3.14-.85,18.84,0,21.7.2.66,2.21.35,2.58,1.81-.94.8-1.54,1.17-.78,2.58l20.93-8.78c-.27.47.35,3.42-1.81,4.13-1,.33-.56-1.37-1.55-1.03-5.69,1.97-15.98,4.84-16.79,10.85-1.63-.14-1.63,7.38,0,7.23-.08,3.02.4,5.85.52,8.78.14,3.51.21,6.79.52,10.33.11,1.32-.91,2.01-.26,3.1,1.59.7,14.54-11.44,16.79-13.43,3.46-3.06,6.94-6.17,10.33-9.3,1.19,1.59-.5,3.75-1.55,5.17-1.31-1.79-7.28,4.1-4.65,6.2-.51-.11-.73-.52-.78-.52-1.69.17-18.16,16.58-18.86,18.86-.6,1.94-1.01,22.29-.52,23.77l1.03.52c6.38-4.37,22.87-11.53,25.32-19.38,3.7-1.36,2.25-8.08,3.1-11.88l1.03.52c-.42.92-1.42,7.62-.26,7.75,5.2-4.32,11.24-13.69,17.31-16.53,3.32-1.56,5.42-.69,7.75-1.03-5.5.91-8.73,6.13-12.4,9.82-7.73,7.77-14.59,18.79-22.48,25.32-5.2,4.3-14.61,7.89-17.83,14.21-3.34,6.58-2.5,19.71-2.58,27.13-.02,1.71.35,3.62-.52,5.17-.12-2.75.34-12.51,0-13.69-.04-.16-1.06,1.2-2.33-.26-1.4-1.61.49-1.03.26-1.29-1.31-1.48-4.26-5.59-5.68-3.36,0-.88-.51-1.37-.52-2.58-.03-3.49.55-7.25.52-10.85-.13-13.32.29-26.77,0-40.04-.26-11.58.25-50.25-2.07-58.65,2.41-1.21-.83-2.41,0-3.36.49-.56,1.57.23,2.58-1.03,1.3-1.63,2.07-3.59,3.62-5.43,4.04-1.65,8.28-5.97,10.85-9.56,2.82-3.93,5.79-13.74,7.75-15.76,1.83-1.88,4.27-1.38,4.65-1.55Z"/>
      <path class="cls-7" d="M225.44,271.75c1.74.62.42,1.57-.26,2.07-6.45,4.72-14.75,6.48-17.05,16.02-1.11-2.4-.24-5.64.78-7.75,4.58-4.38,11.83-6.93,16.53-10.33Z"/>
      <path class="cls-14" d="M225.44,271.75c-4.7,3.4-11.96,5.95-16.53,10.33,2.42-5.04,15.23-10.28,19.89-13.95,1.88-1.48,8.71-11,10.59-8.53.56.74-12.84,11.34-13.95,12.14Z"/>
      <path class="cls-16" d="M208.39,216.98c-.29,2.11.06,4.97,0,7.23-1.63.14-1.63-7.38,0-7.23Z"/>
    </g>
    <g>
      <path class="cls-14" d="M97.81,336.34c.74,2.8,1.84,6,.52,9.04.64.84,1.12-.38,1.55-.26.06.02-.3,1.32.78,1.03s5.33-4.48,6.72-5.17c5.07-2.52,9.83-2.83,14.73.26-12.07.93-23.69.32-21.96,16.28,2.55-7.17,8.37-14.24,16.53-14.47,3.56,10.09-14.78,13-17.83,16.28-.49.53-5.16,12.34-4.39,12.66.75-.91,1.22-3.11,1.81-3.88,2.77-3.58,16.69-12.44,11.37-2.07-3.6,7.01-12.87,6.85-13.95,8.27-1.78,2.34-.96,11.87,1.03,14.73,1.29,3.1,4.83,4.95,4.13,8.78-.42.01-.6.02-1.03,0,.7-3.51-1.17-4.17-3.1-6.2-1.42-1.49-2.28-4.04-4.65-2.58-1.69-12.45,2.25-31.47,0-43.14-.82-4.23-6.62-9.16-2.33-15.24,4.75,2.19,2.48,29.02,4.13,28.94.12-2.84,5.33-12.07,5.43-13.69.05-.86-2.82-7.88-2.58-8.78.06-.24,2.62-1.84,2.33-3.88,1.44.08.53,2.19.78,3.1Z"/>
      <path class="cls-2" d="M98.59,346.68c1.28,10.2-5.92,18.45-6.72,28.42-2.2-10.49,3.44-18.87,6.72-28.42Z"/>
    </g>
    <g>
      <path class="cls-6" d="M199.6,188.05c2.31,8.39,1.81,47.07,2.07,58.65.29,13.27-.13,26.73,0,40.04-3.67.83-1.67-2.09-2.58-4.39-.53-1.32-1.89-4.29-2.58-5.43-5.72-10.79-18.72-16.75-28.16-24.29-5.18-4.13-10.04-8.76-14.73-13.43-4.89-6.4-9.92-15.69-11.88-23.51-.24-.97-1.01-1.49.26-2.33,3.96,10.42,5.94,18.62,14.47,26.35,1.4,1.27,9.4,7.87,10.08,5.94.32-3.72-.4-8.29,0-11.88.15-1.35,3.23-1.8,1.55-8.27s-18.69-17.89-23.77-24.29c-.65-.82-.91-3.96-1.03-4.13-1.21-1.67-4.69-2.69-4.91-5.43,5.22,3.54,6.57,9.04,11.37,12.92.36-.11-2.04-5.57.52-6.2-2.05,8.19,7.97,10.57,12.4,14.47,2.44,2.15,4.2,5.57,6.72,7.75,3.81,3.31,9.71,5.26,12.66,9.56,1.26,1.84.93,5.37,3.1,5.94,1.68,7.03-2.39,19.67-.52,26.09.5,1.71,10.31,9.24,12.14,11.11,2.92-.92,1.37-34.89,1.29-39.27s1.13-9.54.52-14.21c-3.48-1.45-11.29-4.69-13.43-7.75-2.28-3.25-1.26-7.82-2.58-11.37-.74-1.97-3.97-3.49-3.1-5.43.35,1.01,1.33,1.44,2.07,2.07,4.62,7.89.37,13.21,10.08,18.6,5.64,3.14,10.07,3.54,7.49-4.91-.64-2.09-10.5-6.28-12.66-8.01-1.69-1.35-2.65-3.78-4.91-5.68-.48-.82-.7-1.72-1.55-2.58-3.52-3.57-11.78-5.05-14.47-11.37.86.07.92-.29,1.55-.52,1.13,3.83,6.9,8.2,10.59,9.3.72-6.39-.43-10.94-4.39-15.76l3.36,3.36,1.29-4.13c1.14,11.46-.88,18.38,9.56,26.87,1,.82,10.57,6.35,11.11,4.91.03-3.49.6-6.83.52-10.33-.33-13.61-9-18.55-15.5-30.23l11.37,13.18c-.68,2.06,3.92,5.37,4.65,8.01Z"/>
      <path class="cls-14" d="M153.62,239.2c4.69,4.67,9.55,9.3,14.73,13.43,9.44,7.53,22.44,13.5,28.16,24.29-5.4-8.78-25.95-20.84-34.62-28.42-2.76-2.41-7.05-6.08-9.3-8.78-.82-.99-1.36-2.11-2.07-3.1,1,.8,2.2,1.69,3.1,2.58Z"/>
      <path class="cls-8" d="M181.52,197.35c-.74-.62-1.72-1.06-2.07-2.07.09-.21-.05-.6.52-.52.85.86,1.07,1.77,1.55,2.58Z"/>
      <path class="cls-8" d="M150.78,205.1c2.3,3.83,7.53,5.3,10.33,7.75,2.08,1.82,19.17,19.58,19.89,20.93,4.05,7.5,1.58,17.07.26,25.06-3.03-2.77-12.85-8.25-13.69-12.14-.3-1.38-.13-12.11.52-12.92,2.13-2.65,7.49,1.27,9.82,0-10.68-2.51-6.2-1.47-8.78-8.27-3.76-9.91-13.93-11.47-18.34-20.41Z"/>
    </g>
    <path class="cls-8" d="M181.52,197.35c2.26,1.91,3.22,4.33,4.91,5.68,2.16,1.73,12.02,5.92,12.66,8.01,2.57,8.45-1.85,8.05-7.49,4.91-9.7-5.4-5.46-10.71-10.08-18.6Z"/>
    <path class="cls-1" d="M232.16,222.15c-2.62,2.4-5.02,5.7-7.75,8.27-1.4,1.31-3.3,2.4-4.65,3.62-.05-.22-.47-1-.52-1.03,3.35-2.96,9.65-7.66,11.88-11.37l1.03.52Z"/>
    <g>
      <path class="cls-11" d="M234.22,16.5c12.37,5.64,20.21,15.31,25.06,27.9,28.29-20.67,70.8,12.66,56.06,44.7,4.46,1.17,9.86,3.08,12.4,7.23,1.39,2.27,3.91,10.37-.52,8.01,1.48-7.58-9.95-16.51-15.5-10.08,5.84.4,8.92.66,12.92,5.17.61.69,1.27,3.55,2.07,4.39-2.35-.34-12.9.13-6.72,1.55.95.9.49,2.67,1.03,3.1.83.66,7.05,2.36,9.04,3.62,13.21,8.31,19.88,22.84,11.63,37.46-1.63,2.88-3.54,3.24-4.65,6.46-.2.57-.48,1.48-.52,2.07,0,.05-1.1.14-.26,1.03,22.96-3.68,45.7,24.94,41.59,46.5-1.98,10.41-11.53,19.62-22.48,19.12-.22.69,1.9,1.85,2.33,2.07l-1.03,1.55c-.25-.3-4.14-4.06-4.65-2.33,19.09,22.66-11.6,44.92-32.04,26.61-.6-.5-1.04-1.63-1.81-2.07-1.93-.61-8.72,6.79-11.63,7.75-.87-.05-2.48-1.9-3.62-1.29,10.86,4.6,8.22,24.01-2.33,27.64-19.65,6.78-32.04-21.64-16.28-33.33-4.55-5.88-9.95-5.58-16.79-5.43-.48.01-3.47,1.67-4.13,1.55-1.92-.34-5.26-6.17-10.59-.52,3.67-3.69,6.9-8.91,12.4-9.82,7.43-1.1,16.06-1.6,23.25-3.62-.04.53-.21.9.52,1.03,8.41,1.56,16.78,1.33,21.7-6.46l-12.14-.26c.5-1.36,5-4.28,3.1-5.68-6.26,11.21-21.28,12.32-32.81,13.18,6.71-1.43,9.54-9.9,13.18-13.18,4.42-3.99,15.13-5.85,15.5-14.98l-2.84,4.91c-3.5,4.06-7.27,6.81-12.14,9.04-.54-.42,1.05-13.05,1.29-13.69.52-1.36,3.12-2.14,3.62-4.39.3-1.35-.38-5.8,0-6.46.32-.56,1.96-.1,2.07-.26.89-1.31,1.45-3.78,2.07-4.65.59-.7,4.02-4.16,4.65-4.65,1.62-.87,5.44-2.24,7.23-2.58,6.83-1.3,9.22.59,15.24,2.07,1.31.32.49.26,1.29-1.03,10.72,6.53,15.77,19.9,9.3,31.26-.19.34-5.4,4.73-2.84,4.39,12.31-10.03,8.04-29.06-4.13-37.2-11.66-7.8-32.47-5.99-35.39,9.82-.42,2.29-.44,6.76-.52,9.3-.45.52-1.1,2.6-2.33,3.1l-1.29-1.29c.17,7.5-.23,15.47-4.65,21.7-5.6,7.9-12.6,8.02-20.67,11.11-4.28,1.64-14.93,4.61-17.05,9.3l-1.03-.52c1.68-7.48,6.06-8.1,10.33-13.69l-6.2,3.36c-1.14-3.35-7.14-4.72-9.04-6.2-.96-.75.29-.99.26-1.03,1.05-1.42,2.74-3.58,1.55-5.17,9.76-9.02,19.36-18.82,28.42-28.42,4.94-4.33,7.69-8.7,11.63-12.4,2.54-2.39,8.3-5.02,10.59-7.49.14-.15.9-3.53,1.29-3.88,1.67-1.47,12.51-2.14,11.37-7.75-2.23,4.12-6.51,5.72-10.85,6.72-.4-4.55-.76-8.34-3.88-11.88.62-1.69,2.89-2.12,3.62-3.36.79-1.36.46-2.22.52-2.33,3.56-7.28,5.02-15.97-2.33-21.7-1.46-1.14-6.23-2.58-6.46-2.84-.3-.35-1.2-6.57-2.58-8.78-1.23-1.97-4.39-3.54-5.68-5.17-4.01-5.05-5.37-10.96-13.69-12.14-2.03-.29-11.01-.35-11.11,3.1-1.9,1.63-1.06,3.97.78,4.13.27.02,3.54-1.71,5.17-1.55,3.75.36,9.22,5.48,10.59,2.58,1.2,1.63,3.28,6.24,1.03,8.01,2.77-.12,3.86-.59,6.46.78,7.57,3.99,1.41,12.05,2.33,13.18,16.57-1.16,18.31,18.19,6.2,25.58-2.62,1.65-1.45.99-2.07,2.07-1.45,2.52-1.78,5.98-2.07,8.53-.34,3.08.08,6.73-.52,10.08-1.94,10.77-6.95,11.84-15.24,18.08l-1.55-17.05c-3.47,5.68-.14,14.77-2.84,19.89-.85,1.61-21.27,19.61-21.96,18.34-.52-.95-.16-2.09-.26-3.1l-2.07-16.02c.59-1.72,1.08-3.41,1.55-5.17.54-2,.09-6.09.52-7.49.59-1.91,6.63-6.78,8.27-9.3,1.09-1.69,2.61-7.67,3.1-8.27,1.37-1.66,9.85-4.63,10.85-9.3l-5.94,5.94-4.13,2.07.78-9.56c-.67-.21-.94,1.93-1.03,2.33l-1.03-2.58c3.74-2.34,7.54-3.81,10.33-7.49l2.84-7.49c-1.55,1.56-1.66,4.22-2.84,5.94-4.61,6.68-22.52,15.08-30.49,17.31l-2.07-1.03c2.36-3.69,3.37-9.89,7.23-13.43,4.62-2.09,10.24-3.4,12.4-8.53-3.48,3.64-7.17,6.21-12.4,6.72,2.31-4.5,9.44-16.41,10.33-20.67.06-.28.23-2.12-.52-1.55l-3.88,8.01c-.19.01-.51-1.34-.78-1.55-3.12-2.47-1.93-5.41-5.17-8.27.27-.65.28-1.8,1.03-2.33h-1.03l-5.94,9.04-3.88-4.91c-.11,1.75,2.38,4.29,2.58,5.68.42,2.95.58,20.48,0,23.25-1.94,9.28-9.92,14.42-15.5,20.93l3.62-37.46c.24-1.23-1.5-.66-1.55-.78-2-4.89-.75-8.14-5.68-11.37l-.52-.78c-2.01,7.48-5.98,13.68-3.1,21.44.05.34.36.86.52,1.55-1.63-.33-.19,1.93,0,2.33,1.67,3.38,5.26,8.28,5.68,11.88.35,3-2.54,17.2-6.46,16.79-1.53-.16-11.86-12.77-13.18-14.98.02-1.14-.44-1.92-.52-3.1-.29-4.53,1.24-10.4,3.62-14.21,1.86-2.98,6.99-4.73,6.2-9.3-1.8,3-3.01,5.84-5.94,8.01l-4.39-4.39c3.24,4.62,3.96,7.37.26,12.14l-4.91-4.39,2.07,3.62.52,6.72c1.14-12.6,2.23-1.99,1.03,3.62-.05.24-1.4.4-1.55,1.03-.3,1.28,1.5,1.2,1.55,1.29,6.51,11.68,15.17,16.62,15.5,30.23.09,3.51-.48,6.85-.52,10.33-.53,1.44-10.1-4.09-11.11-4.91-10.44-8.49-8.42-15.41-9.56-26.87-.73-7.31-2.45-6.36-5.43-12.4-1.08-.56-2.42,5.74-4.91,5.68-.5-.68-.68-2.6-2.07-1.81,3.11,3.77,2.91,4.55.26,8.53l-4.91-4.91c2.36,4.86,5.81,5.93,4.91,12.14-3.71-1.43-6.06-4.54-8.53-7.49-.05,3.08,5.82,7.8,8.27,8.01,2.68,6.32,10.95,7.8,14.47,11.37-.57-.08-.42.31-.52.52-.87,1.93,2.36,3.46,3.1,5.43,1.32,3.55.31,8.12,2.58,11.37,2.15,3.06,9.96,6.3,13.43,7.75.61,4.67-.6,9.63-.52,14.21-4.53-2.85-9.21-1.56-12.92,2.07-2.17-.57-1.84-4.1-3.1-5.94-2.94-4.3-8.85-6.25-12.66-9.56-2.51-2.18-4.28-5.61-6.72-7.75-4.43-3.9-14.45-6.28-12.4-14.47-2.56.63-.16,6.09-.52,6.2-4.8-3.88-6.14-9.37-11.37-12.92.21,2.74,3.7,3.75,4.91,5.43.12.17.39,3.32,1.03,4.13,5.08,6.4,22.15,18.05,23.77,24.29s-1.4,6.91-1.55,8.27c-.4,3.59.32,8.17,0,11.88-.68,1.93-8.68-4.67-10.08-5.94-8.53-7.73-10.51-15.94-14.47-26.35-1.26.83-.5,1.36-.26,2.33,1.97,7.82,6.99,17.11,11.88,23.51-.9-.9-2.1-1.78-3.1-2.58-2.6-3.67-4.58-9.71-8.01-12.4-3.67-2.88-9.6-2.85-12.66-6.46-2.78-3.27-2.76-9.51-4.91-13.18l3.1,12.4-12.66-5.94,3.88,3.36c6.34,3.28,21.69,8.17,25.58,13.69,2.31,3.28,3.02,11.38,7.75,11.63,2.25,2.7,6.55,6.38,9.3,8.78l-1.03.52c-7.79-4.55-15.9,5.39-19.63,11.88-8.62-8.44-13.79-20.08-23.51-30.49-4.89-5.24-7.63-10.53-8.53-17.83-2,.27.2,4.36.52,5.43-4.83-1.53-6.51-6.44-9.56-9.82l-2.33,7.75s-.38-.9-.78-1.03c-.87,3.11,4.09,4.41,3.62,7.75-.55.64-5.68.69-6.72.52-1.7-.29-3.82-2.59-5.43-2.33,3.1,5.45,10.42,1.95,12.66,2.33.61.1,7.4,7.79,8.78,8.78-11.77-.68-28.48-2.38-26.87-18.08l-.78,6.46c5.32,15.42,25.43,9.13,35.91,14.73,7.59,4.05,12.94,17.25,15.76,25.06.44,1.21,1.54,3.02,0,3.88-8.72,1.18-6.59,5.67-10.85,10.59s-14.31,6.81-19.63,3.36c1.49.35,5.23.79,5.17-1.03,7.07.71,14.24-2.06,16.02-9.56-6.14,9.01-18.33,10.39-25.32,1.55-3.66-4.63-3.62-8.69-4.13-14.21-.15-1.62.41-2.81-1.55-3.62.38-.95,1.95-2.39,2.58-3.36-.12-2.03-5.35,1.9-6.46,2.33-1.33.51-5.33.86-5.68,1.03-1.77.87-3.86,6.33-6.72,8.27-11.04,7.51-28.54.38-34.88-10.59-10.97-19.01-1.58-43.63,19.12-50.64-31.58-11.11-27.51-50.94-3.88-68.46,8.64-6.41,17.08-8.41,27.64-9.04-30.63-30.86,14.25-87.39,50.9-64.33.33-.28.49-6.52.78-7.75,2.88-.21,1.12,5.24,1.55,6.98.09.35,1.01,1.21,1.03,1.29.12.42,2.48,7.3,3.1,4.39-7.98-25.46,23.23-48.16,45.99-36.69-.56.87-5.2,8.57-3.88,9.04,1.38-3.08,4.65-5.4,6.46-7.75l1.03.52c-.97,1.1-7.75,9.79-5.94,10.85,19.75-34.16,65.53-20.49,69.24,16.53,4.63-13.65-10.59-30.3-21.96-35.65-.61-.97-.97-1.67.52-1.55Z"/>
      <g>
        <path class="cls-6" d="M141.22,260.9c12.66,12.39,22.97,8.86,37.46,14.98,4.59,1.94,8.13,5.78,12.66,7.75.35,1,.94,2.02,1.03,3.1-18.61-14.59-29.68-8.96-45.73-17.57-1.61-.87-5.66-5.9-6.98-3.62-.79-.65-1.51-.88-1.81-2.07-1.63,1.24-2.55.34-3.88.52,1.54-.85.44-2.67,0-3.88-2.82-7.81-8.17-21.01-15.76-25.06-10.48-5.59-30.59.7-35.91-14.73l.78-6.46c-1.62,15.71,15.1,17.4,26.87,18.08-1.38-.99-8.17-8.68-8.78-8.78-2.23-.37-9.55,3.12-12.66-2.33,1.6-.27,3.72,2.03,5.43,2.33,1.03.18,6.17.12,6.72-.52.47-3.34-4.49-4.64-3.62-7.75.4.13.73.99.78,1.03,3.03,2.52,3.91,6.93,6.2,9.56,4.53,5.22,11.57,7.7,17.83,10.08l-8.01-8.01-4.13-9.56c-.32-1.06-2.51-5.16-.52-5.43.9,7.3,3.63,12.59,8.53,17.83,9.72,10.41,14.89,22.04,23.51,30.49Z"/>
        <path class="cls-1" d="M327.23,104.34c-.62-.33-.44-.44-.52-.52-.8-.84-1.45-3.7-2.07-4.39-4-4.51-7.07-4.77-12.92-5.17,5.55-6.44,16.98,2.49,15.5,10.08Z"/>
        <path class="cls-15" d="M226.47,60.94c.17.13.88,3.2,2.33,3.62,1.24.36,12.46-1.35,16.02-1.03.22.02,2.13,1.33,3.1,1.55.17.04.78-1.25,1.55-1.03,3.22.9,4.86,5.56,6.46,7.75-1.6,1.96-6.33,1.49-9.04,1.55l-10.08,3.62c-7.91-4.87-16.41-1.54-19.63,6.98l1.03.52c.51-1.25.73-1.42,1.55-2.33,5.07.8,7.15-4.17,13.18-3.1,2.09.37,4.23,3.98,6.46,3.1,1.14,1.48,2.02,5.01,3.1,4.13.24.87-1.25,1.69,0,2.07,1.22,1.21,10.73-6.92,10.33-1.55-4.56.13-8.42,2.25-11.88,5.17-7.31-1.29-14.16,1.35-18.34,7.23l.78,1.03c-.47.41-1.85,1.78-1.03,2.58-.61.01-1.46-1.01-2.07-1.55-.77-.68-1.79-3.66-3.88-4.13-4.18-.94-6.67,1.65-9.56,3.62-.92-5.77-7.57-8.23-12.92-7.75-7.68-1.77-9.69,7.21-12.66,10.33-1.55,1.63-6.51,3.5-9.04,6.46-2.66,3.1-4.24,7.45-5.94,11.11-10.96-7.55-24.27-5.28-34.36,2.58,2.11-3.53,2.26-7.46,6.98-10.33,4.97-3.03,6.25.7,7.49-5.68.43-2.23.08-4.77,1.03-6.98l2.07,1.03c-.13-1.98.64-4.78,1.55-6.46,4.5-8.32,9.46-7.51,16.79-7.23.89.03,2.04-2.26,4.65.52,3.76-8.82,5.38-18.25,16.02-20.67,1.49-.34,5.84.43,6.72,0,.26-.13,1.55-4.02,2.33-4.91,8-9.18,19.74-9.12,28.94-1.81Z"/>
        <path class="cls-15" d="M172.74,137.41c0,1.61-4.13,2.52-5.17,4.39-.86,1.56-1.71,10.3-2.33,10.59-9.58-2.25-17.37,1.19-17.05,11.88-8.59-3.81-14.54-.06-19.89,6.46-1.54,1.88-3.5,7.4-5.43,8.53-3.63,2.12-7.86.95-12.14,5.94-2.43,2.83-3.88,10.33-4.39,10.59-1.6.82-8.38-.46-12.92,2.58-2.72,1.83-5.26,8.23-6.72,8.78-1.07.4-3.17-.34-5.17.52-1.68.72-3.67,4.52-5.17,5.68-.41.32-3.27.46-4.13,1.03-7.4,4.93-7.46,20.28-11.11,24.54-2.13,2.49-7.17,2.21-10.08,3.88-1.78,1.02-2.69,3.22-4.39,4.13-8.06-12.85-4.19-30.41,7.49-39.79l14.21-6.2c.18,0,.41.05.52,0,1.56-.71.98-1.64,1.55-3.62,9.14,4.27,7.07-2.31,10.33-8.01,1.81-3.17,5.6-5.86,6.2-9.56,2.12-.5,4.53-.3,6.2-2.07.99-.22.44.9,1.29.52s1.13-1.9,2.84-2.58c-2.72,3.07-6.25,8.67-5.68,12.92.08.58-.26,1.69.26,2.07,8.31-2.92,9.33-14.01,20.15-14.47-3.65-1.59.43-.82-2.33-2.58-.74-.47-1.69-.95-2.58-1.03v-1.03c.29-.02,5.21-1.87,5.43-2.07.22-.21,1.85-4.44,2.84-5.43,7.68-7.64,14.59-14.38,26.09-9.56.87-5.13,1.71-11.11,6.2-14.47s12.99-4.07,18.08-2.58c1.26-.63.1-4.72.26-4.91.87-.98,2.29,1.15,2.07-.78,1.75,1.87,2.96,3.82,4.65,5.68Z"/>
        <path class="cls-15" d="M161.37,126.04c2.39,1.22,4.88,3.71,6.72,5.68.22,1.92-1.2-.21-2.07.78-.16.18,1,4.27-.26,4.91-5.1-1.49-13.75-.66-18.08,2.58s-5.33,9.33-6.2,14.47c-11.5-4.82-18.41,1.92-26.09,9.56-.99.99-2.62,5.22-2.84,5.43-.21.2-5.14,2.04-5.43,2.07-.06,0,.27-.46-1.03-.52-.37-13.44,12.62-23.55,25.84-20.93-3.37-2.24-.03-1.11,0-2.07.23-8.53-1.48-11.1,5.94-17.31,5.2-4.35,12.37-6.06,19.12-5.17.25.03,5.11,3.69,4.39.52Z"/>
        <path class="cls-10" d="M281.76,96.07l-2.07-10.08c-2.91-5.87-7.35-9.38-13.18-12.14-1.34-.64-5.47-.65-6.2-1.03-4.17-2.2-5.37-12.59-18.6-13.95-4.75-.49-11.79,2.81-12.4,2.58-.84-.31-.53-1.38-1.29-2.07-7.46-6.72-13.86-8.96-24.03-5.17-5.39,2.01-11.11,10.6-11.88,10.85-1.83.59-4.65-.23-6.72.52-8.14,2.94-13.93,11.93-15.5,20.15-7.76-3.57-15.27-.55-20.41,5.68-4.26,5.16-5.18,9.96-5.17,16.53-4.39.74-9.74,3.93-12.4,7.49-2.15,2.88-2.7,6.64-4.65,9.56-1.89-9.65,7.47-17.11,16.02-19.38-1.77-8.03,3.78-17.69,10.85-21.44,4.05-2.15,11.46-4.96,14.21-.52,1.25-3.08,1.66-6.92,3.36-9.82.91-1.55,7.39-7.85,9.04-8.78,4.33-2.45,8.35-1.58,10.85-2.58.43-.17,3.77-5.71,5.68-7.23,7.36-5.88,19.24-6.97,27.39-2.07,1.63.98,5.28,5.66,5.68,5.68.21.01,2.39-1.9,3.62-2.07,9.24-1.27,18.56,1.68,24.54,9.04.85,1.04,1.95,5.43,2.84,5.94.32.18,5.23.18,7.23,1.03,8.3,3.55,16.41,13.88,13.18,23.25Z"/>
        <path class="cls-10" d="M115.12,52.67c9.5-.94,19.71,2.71,24.03,11.63-28.02-26.76-72.6,14.86-55.8,46.5l12.66,13.69c-35.9-17.13-14.52-68.5,19.12-71.82Z"/>
        <path class="cls-10" d="M68.88,193.21c.6-.09.48.51.52.52-7.73,4.46-18.28-2.42-22.74-9.04-19.96-29.67,16.41-74.73,49.09-57.87-5.06.3-10.11-1.57-15.24-1.29-42.64,2.31-49.72,70.23-11.63,67.69Z"/>
        <path class="cls-16" d="M161.37,126.04c.71,3.18-4.14-.48-4.39-.52-6.75-.89-13.91.82-19.12,5.17-7.43,6.21-5.72,8.78-5.94,17.31-.03.95-3.37-.17,0,2.07-13.22-2.62-26.2,7.49-25.84,20.93-1.54-.07-3.4.16-4.65-1.03,1.61-2.26,1.08-5.43,2.07-8.01,3.45-9.01,13.59-14.99,22.99-14.73.73-8.57,3.14-15.49,10.85-20.15,7.27-4.4,16.45-4.91,24.03-1.03Z"/>
        <path class="cls-17" d="M68.36,200.96l-14.21,6.2c-11.68,9.37-15.55,26.94-7.49,39.79,7.58,12.08,28.59,16.22,34.88,1.03.8,4.73-5.16,10.32-9.3,11.37-36.09,9.13-47.8-56.21-3.88-58.39Z"/>
        <path class="cls-10" d="M172.74,137.41c-1.7-1.87-2.9-3.81-4.65-5.68-1.84-1.97-4.32-4.46-6.72-5.68-7.58-3.87-16.75-3.37-24.03,1.03-7.71,4.67-10.13,11.58-10.85,20.15-9.4-.27-19.55,5.72-22.99,14.73-.99,2.57-.45,5.75-2.07,8.01-.13-.12-.9-.37-1.03-.78-.31-12.23,8.41-20.5,19.38-24.03.61-.2,4.96-.32,5.17-.52.43-.4.38-5.29.78-6.46,5.02-14.79,22.44-21.79,36.43-14.21,3.39,1.84,10.57,9.5,10.59,13.43Z"/>
        <path class="cls-10" d="M233.71,18.05c11.37,5.35,26.59,22,21.96,35.65-3.71-37.02-49.49-50.7-69.24-16.53-1.81-1.06,4.98-9.75,5.94-10.85,10.58-12,26.86-15.08,41.34-8.27Z"/>
        <path class="cls-7" d="M281.76,96.07c-.61,1.78-5.65,6.53-7.49,7.75,7.87-9.69,1.72-23.85-8.78-28.42-3.76-1.64-7.2-.4-9.56-3.62-1.6-2.19-3.24-6.85-6.46-7.75-.77-.21-1.38,1.07-1.55,1.03-.97-.22-2.88-1.53-3.1-1.55-3.56-.32-14.78,1.39-16.02,1.03-1.44-.42-2.16-3.48-2.33-3.62l1.55-1.55c.77.69.45,1.75,1.29,2.07.61.23,7.65-3.07,12.4-2.58,13.23,1.36,14.43,11.75,18.6,13.95.74.39,4.86.4,6.2,1.03,5.83,2.76,10.27,6.28,13.18,12.14l2.07,10.08Z"/>
        <path class="cls-10" d="M276.85,39.75c25.75-1.44,50.71,29.33,34.1,52.7-.55-4.18,3.01-8.46,3.36-13.18,1.88-25.4-27.26-44.18-50.38-32.81-1.43.7-3.71,4.28-4.91,2.84-1.25-5.01,14.38-9.37,17.83-9.56Z"/>
        <path class="cls-16" d="M185.14,162.73c-2.17.73.16,2.5.52,3.1,1.31,2.22,11.64,14.82,13.18,14.98,3.92.41,6.81-13.8,6.46-16.79-.42-3.61-4.01-8.51-5.68-11.88-.19-.39-1.63-2.65,0-2.33.7,3.03,3.94,8.86,6.72,10.59l2.07-21.44c.05.11,1.79-.45,1.55.78l-3.62,37.46c-.11.12-.41.9-.52,1.03-1.55,1.84-2.32,3.8-3.62,5.43-1.01,1.27-2.09.47-2.58,1.03-.83.95,2.41,2.15,0,3.36-.73-2.64-5.33-5.95-4.65-8.01l-11.37-13.18c-.05-.09-1.85-.01-1.55-1.29.15-.64,1.5-.8,1.55-1.03,1.2-5.61.1-16.21-1.03-3.62l-.52-6.72-2.07-3.62,4.91,4.39c3.7-4.77,2.98-7.52-.26-12.14l4.39,4.39c2.94-2.17,4.14-5,5.94-8.01.79,4.57-4.34,6.33-6.2,9.3-2.38,3.81-3.91,9.68-3.62,14.21Z"/>
        <path class="cls-6" d="M264.71,195.28c-10.43,9.14-22.18,17.36-32.55,26.87l-1.03-.52c1.9-3.14.75-4.95,2.07-6.72.09,1.01-.26,2.15.26,3.1.69,1.27,21.11-16.73,21.96-18.34,2.7-5.12-.63-14.22,2.84-19.89l1.55,17.05c8.29-6.24,13.31-7.31,15.24-18.08l.78,3.62c4.08-2.58,7.7-5.07,9.3-9.82l-.52,4.13c6.47-4.02-.11-17.1.26-18.08,3.12,3.54,3.47,7.34,3.88,11.88,4.34-1,8.62-2.6,10.85-6.72,1.15,5.61-9.7,6.28-11.37,7.75-.39.34-1.15,3.73-1.29,3.88-2.29,2.48-8.05,5.1-10.59,7.49-3.93,3.7-6.69,8.07-11.63,12.4Z"/>
        <path class="cls-10" d="M320,185.46c-8.44-5.14-20.28-6.09-28.16,1.03-2.2,1.99-3.1,5.03-4.91,7.23,2.93-15.81,23.74-17.61,35.39-9.82,12.17,8.14,16.44,27.17,4.13,37.2-2.56.34,2.65-4.06,2.84-4.39,6.47-11.36,1.42-24.73-9.3-31.26Z"/>
        <path class="cls-14" d="M287.44,203.03c-.5,2.25-3.1,3.03-3.62,4.39-.24.64-1.84,13.27-1.29,13.69,4.88-2.23,8.64-4.98,12.14-9.04l2.84-4.91c-.37,9.13-11.08,11-15.5,14.98-3.63,3.28-6.47,11.75-13.18,13.18,11.53-.85,26.55-1.96,32.81-13.18,1.9,1.41-2.6,4.32-3.1,5.68l12.14.26c-4.92,7.79-13.29,8.02-21.7,6.46l13.69-.52,5.43-4.91c-3.24.56-7.74-.73-10.59-.26-1.6.26-7.06,4.1-9.04,4.65-7.19,2.01-15.82,2.51-23.25,3.62-2.33.35-4.43-.52-7.75,1.03v-.52c8.07-3.09,15.07-3.21,20.67-11.11,4.42-6.23,4.82-14.2,4.65-21.7l1.29,1.29c1.23-.5,1.88-2.58,2.33-3.1.05-.06.7.03,1.03,0Z"/>
        <path class="cls-5" d="M285.64,253.15l-3.88,5.94c-5.5,24.08,26.84,30.31,24.8,4.13,5.53,10.05-3.32,22.5-15.24,19.89s-16.36-23.23-5.68-29.97Z"/>
        <path class="cls-8" d="M206.32,101.24c-3.61,2.68-2.07-.54-6.46-1.03-4.63-.52-14.83,3.35-16.53,8.27-1.24.05-.81-3.29-.78-4.13,2.36-1.98,3.28-5.47,5.94-7.23,5.92-3.93,14.8-2.83,17.83,4.13Z"/>
        <path class="cls-10" d="M288.99,152.91c-1.35,1.5-2.46,2.45-4.13,3.62v-.52c7.15-5.38,7.41-19.33-.26-24.29-3.03-1.96-5-2.54-6.46.78.02-4.17.46-7.6-1.55-11.37-1.56-2.93-4.54-3.59-5.68-5.17-.18-.24-.58-3.3-2.07-5.17-4.89-6.14-13.18-10.07-20.67-5.94-.24.13-.89.4-1.03.52.1-3.45,9.08-3.39,11.11-3.1,8.32,1.18,9.69,7.1,13.69,12.14,1.29,1.63,4.45,3.19,5.68,5.17,1.39,2.22,2.28,8.44,2.58,8.78.23.27,5,1.71,6.46,2.84,7.34,5.73,5.89,14.42,2.33,21.7Z"/>
        <path class="cls-8" d="M245.07,105.37c-2.42,3.06-9.42-5.24-15.76-3.62-1.67.43-4.34,4.83-5.68,4.65-1.02-.13-4.33-3.56-3.36-5.17.61.54,1.46,1.56,2.07,1.55.38,0,4.89-3.7,6.46-4.13,6.03-1.65,13.94.32,16.28,6.72Z"/>
        <path class="cls-17" d="M95.23,254.7c.52,5.52.48,9.58,4.13,14.21,6.98,8.84,19.18,7.46,25.32-1.55-1.78,7.5-8.95,10.27-16.02,9.56-6.91-.7-13.25-6.89-14.47-13.69-.24-1.36-.62-7.58,1.03-8.53Z"/>
        <path class="cls-15" d="M171.7,73.85c-1.7,2.89-2.1,6.73-3.36,9.82-2.75-4.44-10.16-1.63-14.21.52-.6-.89-1.54-.38-.78-2.07.93-2.04,15.08-8.92,18.34-8.27Z"/>
        <path class="cls-16" d="M131.92,123.46c-1.06,1.77-2.33,3.28-3.88,4.65-1.28-.8-.57-2.04-.78-3.1,1.95-2.92,2.5-6.68,4.65-9.56,2.66-3.57,8.01-6.75,12.4-7.49.11-.02,1.03.88,2.07-.52-1.24,6.39-2.52,2.66-7.49,5.68-4.72,2.87-4.86,6.8-6.98,10.33Z"/>
        <path class="cls-16" d="M232.67,193.73l-1.55.52c1.17-7.31-.45-22.65,1.55-28.16.1-.27.98-2.03,1.55-1.55-1.14,2.12-2.65,19.12-.78,19.38,9.37-6.84,9.32-13.7,11.63-23.77.09-.4.37-2.54,1.03-2.33l-.78,9.56,4.13-2.07,5.94-5.94c-1,4.67-9.48,7.64-10.85,9.3-.49.6-2.01,6.58-3.1,8.27-1.64,2.52-7.68,7.39-8.27,9.3-.43,1.4.02,5.49-.52,7.49Z"/>
        <path class="cls-14" d="M229.06,125.53c-1.25,3.01-6.21,7.64-6.72,10.08s.34,15.5,1.55,16.79c.03.03.61-.07.52.52-1.96,2.02-4.93,11.82-7.75,15.76-2.57,3.59-6.81,7.91-10.85,9.56.11-.13.41-.91.52-1.03,5.58-6.5,13.57-11.65,15.5-20.93.58-2.77.42-20.31,0-23.25-.2-1.39-2.69-3.93-2.58-5.68l3.88,4.91,5.94-9.04h1.03c-.76.52-.76,1.67-1.03,2.33Z"/>
        <path class="cls-16" d="M150.52,236.62c.7.99,1.25,2.11,2.07,3.1-4.73-.25-5.44-8.35-7.75-11.63-3.89-5.52-19.24-10.41-25.58-13.69l-3.88-3.36,12.66,5.94-3.1-12.4c2.15,3.66,2.13,9.91,4.91,13.18,3.06,3.61,8.99,3.57,12.66,6.46,3.43,2.69,5.41,8.73,8.01,12.4Z"/>
        <path class="cls-10" d="M107.11,172.55c.89.09,1.85.56,2.58,1.03-5.2,1.77-9.89,2.3-13.43,6.98-1.87,2.47-2.08,6.44-4.65,8.01-.56-4.24,2.96-9.85,5.68-12.92,3.69-1.47,5.24-3.54,9.82-3.1Z"/>
        <path class="cls-10" d="M206.84,100.72s-.07.18-.52.52c-3.02-6.97-11.9-8.07-17.83-4.13-2.66,1.77-3.58,5.25-5.94,7.23.24-5.69,5.76-10.87,11.37-11.37s12,1.98,12.92,7.75Z"/>
        <path class="cls-9" d="M236.81,76.96c3.88,2.39,4.59,5.33,5.68,9.3-1.08.88-1.96-2.65-3.1-4.13-6.46-8.36-13.33-7.01-19.63,0-.82.91-1.04,1.07-1.55,2.33l-1.03-.52c3.23-8.51,11.72-11.84,19.63-6.98Z"/>
        <path class="cls-15" d="M252.83,86.77c1.59-.04,3.12.15,4.65.52l-.26,2.58c-4.64-3.88-12.51,4.03-13.43,4.13-1,.12-2.67-2.04-2.84-2.07,3.47-2.92,7.32-5.04,11.88-5.17Z"/>
        <path class="cls-16" d="M229.06,151.36c-.38.17-2.82-.33-4.65,1.55.09-.58-.49-.49-.52-.52,6.55-3.83,9.93-11.35,10.33-18.6.27.21.59,1.56.78,1.55l3.88-8.01c.75-.57.58,1.27.52,1.55-.9,4.25-8.02,16.17-10.33,20.67,5.23-.5,8.92-3.08,12.4-6.72-2.16,5.12-7.78,6.43-12.4,8.53Z"/>
        <path class="cls-1" d="M257.48,87.29c-1.53-.36-3.06-.56-4.65-.52.4-5.37-9.12,2.76-10.33,1.55,5.07-6.99,18.06-6,21.7,2.33-2.05-1.32-4.31-2.79-6.72-3.36Z"/>
        <path class="cls-10" d="M93.16,177.71c-1.67,1.77-4.08,1.56-6.2,2.07-5.74,1.36-7.27,1.21-10.85,6.46-.8,1.18-1.6,5.08-2.07,5.68-1.05,1.35-1.1.09-1.55.26.09-3.75,3.27-10.02,6.46-11.88,3.79-2.22,9.56-1.56,14.21-2.58Z"/>
        <path class="cls-6" d="M244.04,157.56c-6.3,3.95-14.86,9.16-22.22,9.04.6-1.07,1.38-.58,2.07-.78,7.97-2.23,25.87-10.63,30.49-17.31,1.19-1.72,1.29-4.38,2.84-5.94l-2.84,7.49c-2.79,3.68-6.6,5.15-10.33,7.49Z"/>
        <path class="cls-1" d="M245.07,105.37c-2.34-6.39-10.25-8.36-16.28-6.72-1.57.43-6.08,4.13-6.46,4.13-.82-.8.56-2.17,1.03-2.58,5.03-4.4,17.3-4.54,21.18,1.29.64.96,1.46,2.68.52,3.88Z"/>
        <path class="cls-7" d="M167.57,168.93c.99,1.34,2.04,2.78,2.58,4.39-4.2-1.77-4.02,6.46-3.1,9.56-.63.23-.69.59-1.55.52-2.44-.21-8.32-4.93-8.27-8.01,2.47,2.95,4.81,6.06,8.53,7.49.9-6.21-2.54-7.28-4.91-12.14l4.91,4.91c2.65-3.97,2.85-4.76-.26-8.53,1.39-.79,1.57,1.13,2.07,1.81Z"/>
        <path class="cls-16" d="M286.67,176.68c-.91,9.26-5.64,21.06-17.05,19.63,1.56-1.8,5.33-.97,7.75-2.07,5.28-2.39,7.16-12.65,9.3-17.57Z"/>
        <path class="cls-15" d="M202.7,127.59c-2.03,6.71-4.62,13.5-3.62,20.67-2.88-7.76,1.09-13.96,3.1-21.44l.52.78Z"/>
        <path class="cls-6" d="M284.86,156.01v.52c-2.4,1.68-4.36,2.88-7.23,3.62.62-1.07-.56-.41,2.07-2.07,1.29-.81,3.94-1.14,5.17-2.07Z"/>
        <path class="cls-9" d="M70.43,197.35c-.57,1.98.01,2.9-1.55,3.62,0-2.29-.38-5.42,2.07-6.72.78,1.94-.09,1.63-.52,3.1Z"/>
        <path class="cls-7" d="M303.46,184.43c-1.8.34-5.61,1.71-7.23,2.58,1.92-1.49,4.89-4.41,7.23-2.58Z"/>
        <path class="cls-7" d="M325.16,192.7l2.84,6.2-2.84-6.2Z"/>
        <path class="cls-7" d="M296.23,187.01c-.63.49-4.06,3.95-4.65,4.65,2.07-2.94,1.14-2.75,4.65-4.65Z"/>
        <path class="cls-7" d="M289.51,196.31c-.35-2.5.88-3.25,2.07-4.65-.62.87-1.18,3.34-2.07,4.65Z"/>
        <path class="cls-7" d="M325.16,192.7l-3.36-3.62,3.36,3.62Z"/>
        <path class="cls-6" d="M185.65,165.83c-.35-.6-2.68-2.37-.52-3.1.08,1.18.54,1.96.52,3.1Z"/>
        <path class="cls-15" d="M146.64,184.95c.14.43.86,1.19.52,1.55-.95.19-1.06-.86-.52-1.55Z"/>
        <path class="cls-16" d="M228.02,59.39l-1.55,1.55c-9.19-7.31-20.93-7.37-28.94,1.81-.78.89-2.06,4.78-2.33,4.91-.88.43-5.23-.34-6.72,0-10.63,2.42-12.26,11.84-16.02,20.67-2.61-2.77-3.76-.48-4.65-.52-7.33-.28-12.3-1.09-16.79,7.23-3.46,1.48.54-2.38-1.55-3.62,5.14-6.24,12.65-9.26,20.41-5.68,1.57-8.22,7.36-17.21,15.5-20.15,2.06-.74,4.89.07,6.72-.52.78-.25,6.49-8.84,11.88-10.85,10.17-3.8,16.57-1.55,24.03,5.17Z"/>
        <path class="cls-15" d="M239.39,82.12c-2.22.88-4.37-2.73-6.46-3.1-6.02-1.07-8.11,3.9-13.18,3.1,6.31-7.01,13.18-8.36,19.63,0Z"/>
        <path class="cls-6" d="M151.03,95.04c-.91,1.68-1.68,4.48-1.55,6.46l-2.07-1.03c-.95,2.2-.6,4.75-1.03,6.98-1.04,1.4-1.96.5-2.07.52-.01-6.57.91-11.37,5.17-16.53,2.09,1.24-1.91,5.1,1.55,3.62Z"/>
        <path class="cls-7" d="M91.61,188.56c2.57-1.57,2.78-5.54,4.65-8.01,3.54-4.67,8.24-5.21,13.43-6.98,2.76,1.76-1.32.99,2.33,2.58-10.83.46-11.84,11.55-20.15,14.47-.51-.37-.18-1.49-.26-2.07Z"/>
        <g>
          <path class="cls-15" d="M86.96,179.78c-.6,3.7-4.39,6.39-6.2,9.56-3.26,5.7-1.19,12.28-10.33,8.01.42-1.47,1.3-1.16.52-3.1-.69-1.72-1.03-.48-1.55-.52-.04,0,.08-.61-.52-.52.55-.04,2.87-.76,3.62-1.03.45-.17.5,1.09,1.55-.26.47-.6,1.27-4.51,2.07-5.68,3.58-5.25,5.11-5.1,10.85-6.46Z"/>
          <path class="cls-1" d="M71.72,193.21c1.85-.28,2.35,1.62.52,1.03-.15-.05-1.02-.77-.52-1.03Z"/>
        </g>
      </g>
    </g>
    <g>
      <g>
        <g>
          <path class="cls-15" d="M381.49,501.17c5.56.28,11.22-.21,16.79,0,2.05.91-.19,10.17-1.03,11.88-11.01-.17-21.85,1.68-32.81,2.07-41.93,1.48-85.49-.11-127.63,0-16.01.04-32.04.03-48.05,0-46.69-.09-94.52,1.39-141.06,0-10.99-.33-21.88-1.06-32.81-2.07-1.68-1.72-1.16-4.07-1.29-6.2h383.65l.52-3.1c-8.68-.77-17.39-.41-26.09-.52-7.16-4.32-4.34-4.12,1.55-7.75l4.91-2.58-1.55,2.58c10.57-2.18,1.8,1.36-1.81,2.84.28.83,7.9-2.7,2.07,2.58,1.48.52,3.12.18,4.65.26Z"/>
          <path class="cls-10" d="M47.69,503.24c24.27-.16,48.58.02,72.86,0,8.43,0,16.89,0,25.32,0,17.04,0,34.11,0,51.15,0,9.12,0,18.27,0,27.39,0,14.11.01,28.26-.02,42.37,0,34.94.04,69.96-.42,104.89,0,8.7.1,17.41-.26,26.09.52l-.52,3.1H13.59c-.07-1.09-.84-.83,0-3.1,11.37-.27,22.73-.44,34.1-.52Z"/>
        </g>
        <g>
          <path class="cls-1" d="M380.97,478.44c-.76.44-4.06,2.79-3.36,4.13,3.27.14,2.45-1.78,2.84-2.33,1.19-1.65.25-1.35.52-1.81,2.54-1.48,6.26-1.37,8.78-3.36,4.2,2.14-5.33,4.28-7.75,4.65,6.45.81,5.12,3.24,0,3.62-.42,1.78,2.94.57,3.1,2.07.15,1.37-8.48,1.69-7.75,4.91-.15.06-1.93,1.81-2.58,2.07.01-.05-.99.17-1.03-.26-.07-.69,3.83-2.03.52-2.84,1.8-.95,4.08-4.08,6.72-4.39-1.47-1.42-4.84.46-6.2,1.29.33-3.6-3.22.09-3.62-.78-.31-.69,2.01-2.68,2.07-2.84.03,1.79.79,1.05,1.55.26,4.1-4.24.22-3.85,0-4.65-.38-1.36,3.32-5.61,2.84.78,4.06-1.33,2.04-6.72,2.33-8.78.16-1.16,0-.98,0-1.03.28-2.69.94-5.12,3.62-6.46l-2.33,13.69c2.13-1.58,3.89-12.48,6.72-12.4,2.62.08-3.26,6.9-2.58,7.75,1.04.36,6.2-6.11,6.46-3.88-3.16,5.24-7.42,4.54-10.85,10.59Z"/>
          <path class="cls-9" d="M372.7,460.87c.86.1,1.44-.59,2.07-1.03,7.93.57,3.95,3.8,2.07,8.53l3.1.78c0,.05.16-.13,0,1.03-3.48,2.49-6.39,4.88-10.85,5.43-.22-.38,6.08-6.16,6.46-5.94.63.37-.37,2.76,1.29,1.81-1.84-3.74.35-5.77,1.55-9.3-1.6-3.57-11.73,6.47-9.56,8.01l6.2-7.23c.56,3.39-1.47,7.73-4.65,8.78-1,.33-.5-1.28-1.55-1.03-.75.18-2.39,4.31-2.84,5.17-.64,1.19-.44,2.96-.52,3.1-.21.39-1.97,1.39-2.58,2.58-4.06-.88,1.92-5.77-1.55-6.2,4.05-6.3,3.03.96,5.17-2.84,1.71-3.04-.14-5.75,0-6.72.17-1.16,1.63,1.68,2.07,0,.62-2.37.16-4.83,1.55-7.75.58-1.23,11.56-16.05,12.4-13.43-2.8,1.85-14.36,16.86-12.92,19.12s2.96-2.61,3.1-2.84Z"/>
          <path class="cls-7" d="M52.86,472.75c-.22,5.22.96,11.7-3.36,15.5-1.87-3.65-2.18-1.07-5.43,0-.77-1.13-5.54-5.04-3.1-6.2,2.48,1.3.8-1.2.52-2.07l1.55-1.03c.6.9,1.15,1.41,1.29,2.58,1.71.76.4-5.89.26-6.2h.52s.27-.2.52.52c.93,2.72,2.62,4.51,3.36,7.23l.26-6.98,3.62-3.36Z"/>
          <path class="cls-12" d="M52.86,454.67c-.08,5.79.24,12.44,0,18.08l-3.62,3.36-.26,6.98c-.74-2.72-2.43-4.52-3.36-7.23l.26-3.62,2.58,5.17c1.7-3.26-1.25-5.39.78-8.01-2.6,1.12-2.53.31-3.62-2.07.23-2.12,1.8,1.02,2.58,0,1.53-1.98-2.98-10.56,2.58-4.65.18-1.56-1.68-2.66-2.07-3.88,1.83-.7.77-3.44,1.03-5.17,1.07,1.9.08,3.77.78,5.68l2.33-4.65Z"/>
          <path class="cls-7" d="M359.78,468.1c.04,3.18-.03,6.37,0,9.56,1.21.21,1.01-1.48,1.55-2.33,3.47.43-2.51,5.32,1.55,6.2-2.64,5.12-4.61,10.52-7.49,15.5-.83-.13.24-12.02.26-13.43,1.04-.09,2.13-.53,2.58-1.55,1.06-2.36.44-10.81.52-13.95h1.03Z"/>
          <path class="cls-1" d="M381.49,501.17c-1.53-.08-3.17.26-4.65-.26,5.84-5.28-1.79-1.76-2.07-2.58,3.61-1.48,12.38-5.02,1.81-2.84l1.55-2.58-4.91,2.58c1.74-1.64,1.33-1.96,1.55-3.1.66-.26,2.43-2.01,2.58-2.07,1.25-.47,12.91-1.38,12.92.26-3.6,1.6-6.52-.77-9.82,2.58,2.07,1.64,3-1.75,4.13,1.03-1.72,2.48-6.46,4.52-3.1,6.98Z"/>
          <path class="cls-9" d="M32.71,462.93c.4.83.48,1.97.52,2.07-7.83-6.28-2.34,1.93-1.29,6.2-2.93-.38-6.27-2.41-5.17-5.68.61-.42,2.19,3.67,2.84,1.29-.53-3.41-4.87-4.03-3.88-6.98,7.16,5.11-3.12-5.55-1.55-7.75,3.11,2.45,3.75,6.08,5.68,9.3l1.29-2.84c-.29,1.79.9,3.03,1.55,4.39Z"/>
          <path class="cls-1" d="M364.18,455.18c2.91-.11,1.02,13.5-2.58,14.98-2.45-4.47,2.68-6.04,2.84-6.46.17-.44-3.47-8.4-.26-8.53Z"/>
          <path class="cls-1" d="M374.77,459.83c-.63.44-1.2,1.13-2.07,1.03,2.42-4.09,3.83-9.34,8.53-11.37l.52,1.03-5.43,5.43,5.17-2.07c-1.71,2.87-4.13,4.11-6.72,5.94Z"/>
          <path class="cls-1" d="M21.6,474.82c.26-.09,4.39,3.08,4.39,3.36-.02,3.1-4.61-.73-4.91-.78-.96-.15-3.03,2.35-4.39.26,1.79-2.72,2.45-1,4.39-1.29.5-.08,0-1.38.52-1.55Z"/>
          <path class="cls-9" d="M45.88,446.92v11.88c-1.06-3.88-2.38-8.23,0-11.88Z"/>
          <path class="cls-1" d="M369.34,450.53c.91-.04.98,8.09-.52,7.75-1.56-2.44-.55-5.39.52-7.75Z"/>
          <path class="cls-1" d="M372.96,446.4c3.37,3.96-3.15,9.3-1.81,2.84.09-.43,2-1.48,1.81-2.84Z"/>
          <path class="cls-1" d="M49.76,453.63c-.26,1.73.8,4.47-1.03,5.17-.72-2.27-1.74-3.75.26-6.2.41.26.55.63.78,1.03Z"/>
          <path class="cls-9" d="M385.88,458.8c1.6-.08.14,5.08-1.03,5.68-1.56.05.48-5.18,1.03-5.68Z"/>
          <path class="cls-10" d="M25.22,469.65l3.36,2.33c-1.84,3.42-5.82-1.79-3.36-2.33Z"/>
          <path class="cls-1" d="M40.2,450.53c.98.01,2.09,3.2.52,3.62-1.67.44-2.23-3.64-.52-3.62Z"/>
          <path class="cls-9" d="M29.87,453.12l.52,3.62c-.8.55-2.16-2.92-.52-3.62Z"/>
          <path class="cls-8" d="M354.1,382.85c.49.89.84,3.04,1.03,4.13,4.07,22.62.8,71.46.52,96.62-.02,1.41-1.09,13.31-.26,13.43,2.88-4.98,4.85-10.38,7.49-15.5.61-1.19,2.37-2.19,2.58-2.58-.74,1.77-1.46,3.6-2.07,5.43,1.28-.39,3.16-2.38,4.13-3.36l1.03,1.03c-2.55,6.44,4.13-1.85,4.91-3.1,1.05.74.07,2.7-.26,3.62-.06.17-2.38,2.16-2.07,2.84.39.87,3.95-2.83,3.62.78-1.57.97-2.75,2.67-4.13,3.88.29.63,3.16-.53,3.62-.78,3.32.82-.59,2.15-.52,2.84.05.43,1.04.21,1.03.26-.22,1.14.19,1.46-1.55,3.1-5.89,3.63-8.71,3.43-1.55,7.75-34.94-.42-69.95.04-104.89,0l3.1-.78-4.65-1.03c.52-.71,2.92-3.13,3.1-3.62,1.22-3.41-.6-5.49,2.07-6.98.05-.03.13,1.11,1.03.26.54-1.46-2.33-4.78-3.62-5.43v-2.07c8.82,4.88,5.86,8.28,7.49,17.05,2.13-6.92.94-12.54-4.65-17.05-.67-.54-4.22-1.34-4.39-1.81-.08-.21.82-2.91.52-4.39,3.45-1.11,5.24,5.17,7.49,5.68.19.04,3.42-1.54,3.62-1.55,3.32-.15,6.77-.11,10.08,0-3.29,3.78-4.73,2.67-7.23,8.27-1.76,3.94-2.03,6.11-2.58,10.59.44,1.29,4.07.66,5.17.78,1.29.14,4.25.68,5.43,0,2.38-1.38,5.06-12.02,10.08-12.92,2.96-.53,8.61,1.71,9.04,1.55,1.61-.59,1.15-6.39,1.29-6.72.15-.35,4.55-5.17,4.91-5.17,1.57.64,1.39,3.31,1.81,3.88,1.17,1.58,1.78.08,2.07.26,3.15,1.89,4.66,2.98,6.98,6.2,1.01.09,1.13-.96,1.81-1.55,8.48-7.43,15.99,5.69,13.95,13.69.84,1.45,1.47.24,1.55.26.77.19,2.64.97,3.1.26-1.83-3.83-1.76-7.96-4.13-11.63-2.05-3.17-6.05-4.42-7.23-5.94-.07-.09-.15-3.11,1.55-1.81,1.05,1.32,7.6,1.39,9.56.52,1.31-.58.44-4.75.26-4.91-.48-.42-10.41-.95-10.85,1.03.94.58.31,1.65.52,2.33-4.09-8.11-12.91-7.37-19.12-13.18,1.57-22.15,1.42-45.08,1.03-67.43,1.04.19,1.58-.41,2.58-.52.5-.05,1.04.02,1.55,0l.78,4.13h24.54c-.06,2.92.05,5.86,0,8.78-2.21.02-3.61-4.25-4.91-4.65-4.09-1.27-15.26.95-20.15,0-.23,1.27,5.33,1.53,5.94,1.55v48.83l-6.2,1.03c1.78,1.91,5.02.2,6.72.26,6.01.21,12.06.53,18.08.78.59,6.75-1.55,14.46,1.81,20.41.5-8.77.23-17.58.26-26.35,4.28-.78,1.61,2.3,3.1,4.39l.52-72.34,2.58-3.36Z"/>
          <g>
            <path class="cls-1" d="M45.11,475.34h-.52c-.96-2.1-4.35-3.63-5.17-1.81-.13.3,3.13,4.7,3.62,5.43l-1.55,1.03c-3.38-10.45-6.26-.94-.52,2.07-2.44,1.16,2.33,5.07,3.1,6.2-.06.02.19.84-.26,1.03-.65.06-6.4-9.11-5.43-3.1-4.75-3.68-5.71.04-6.98,4.65,1.17,0,3.37.09,4.39.52-1.08,2.99,5.72,4.28,5.43,7.75-2.61-2.25-4.82-5.98-8.01-3.88-.49.32.7,1.6.26,1.81-.41.19-3.16-1.78-2.58.52l-5.94-1.55c-.93-2.13,4.53-.36,4.65-.78-2.62-3.83-4.63-.95-7.75-2.07,2.33-2.97,4.96-2.09,8.27-2.58-1.6-.03-4.18-1.74-4.65-3.1-.1-.29,1.06-.72,1.03-.78.72,2.8,2.93.93,5.17.78-1.38-1.81-3.11-1.44-5.17-.78-2.16-4.6-2.36-4.73-7.75-5.43,3.79-2.85,8.95,3.59,12.92,2.07-3.69-.89.03-1.48,0-1.55-.47-1.07-6.66-2.86-5.68-6.2l5.43,4.39-1.29-6.46,3.88,4.39-2.33-4.91c2.89-1,3.07,3.22,4.65,4.65.48-3.32,3.59-3.56.26-6.46-1.29-1.12-5.23-.3-3.62-4.13l2.33,1.29c-.48-1.09-1.67-2.4-2.07-3.36-.04-.1-.12-1.24-.52-2.07.97-1.81,2.98-2.15,3.1-2.33.6-.84-5.87-8.1-4.39-9.56,1.02,1.71,5.93,8.03,5.94,9.56.02,2.18-2.5,1.36-2.07,3.1.08.3,4.32,3.29,4.13,4.65-.08.57-1.52.83-1.55,1.03-.81,5.67,8.75,2.22,1.55-4.13,7.38,2.62-5.76-10.28,4.39-2.84-1.62-1.94-3.06-9.08-.26-4.91,3.49,5.18-.61,7.45,0,13.43.09.88,1.18,3.25,1.55,4.39Z"/>
            <path class="cls-13" d="M44.59,475.34c.14.31,1.45,6.96-.26,6.2-.15-1.17-.69-1.69-1.29-2.58-.49-.72-3.75-5.13-3.62-5.43.82-1.82,4.21-.29,5.17,1.81Z"/>
            <path class="cls-2" d="M41.49,479.99c.28.87,1.97,3.37-.52,2.07-5.74-3.01-2.87-12.52.52-2.07Z"/>
            <path class="cls-2" d="M26.51,486.7c2.05-.67,3.78-1.03,5.17.78-2.24.15-4.45,2.02-5.17-.78Z"/>
            <path class="cls-12" d="M33.48,481.54c.06,0,1.04.75.52,1.03-1.33.71-1.49-.92-.52-1.03Z"/>
          </g>
          <path class="cls-2" d="M379.94,470.17c-.29,2.06,1.74,7.45-2.33,8.78.48-6.38-3.22-2.13-2.84-.78.22.8,4.1.41,0,4.65-.76.79-1.52,1.54-1.55-.26.33-.92,1.31-2.87.26-3.62-.78,1.25-7.46,9.54-4.91,3.1.27-.69,1.46-2.18,2.58-1.81l-1.29-2.33c-.81-.13-1.64,2.41-2.33,3.1-.97.98-2.85,2.97-4.13,3.36.61-1.83,1.33-3.65,2.07-5.43.39-.93,2.25-2.37,1.29-3.62l-.78.52c.46-.85,2.09-4.99,2.84-5.17,1.05-.25.55,1.37,1.55,1.03,3.18-1.06,5.21-5.39,4.65-8.78l-6.2,7.23c-2.17-1.54,7.96-11.58,9.56-8.01-1.2,3.53-3.39,5.56-1.55,9.3-1.66.95-.66-1.44-1.29-1.81-.38-.22-6.68,5.56-6.46,5.94,4.46-.54,7.37-2.94,10.85-5.43Z"/>
          <path class="cls-5" d="M374.25,489.29c-.46.24-3.33,1.41-3.62.78,1.38-1.21,2.57-2.91,4.13-3.88,1.36-.84,4.73-2.72,6.2-1.29-2.64.31-4.91,3.44-6.72,4.39Z"/>
          <path class="cls-13" d="M380.97,478.44c-.26.46.67.16-.52,1.81-.39.55.42,2.46-2.84,2.33-.71-1.35,2.6-3.69,3.36-4.13Z"/>
          <path class="cls-16" d="M365.47,478.95c.08-.14-.12-1.91.52-3.1l.78-.52c.96,1.24-.91,2.69-1.29,3.62Z"/>
          <path class="cls-1" d="M368.57,482.05l-1.03-1.03c.69-.69,1.51-3.23,2.33-3.1l1.29,2.33c-1.13-.37-2.31,1.12-2.58,1.81Z"/>
          <g>
            <path class="cls-7" d="M134.5,384.91c-.36,1.52-.77,1.51,0,3.1-2.09,1.31-2.42,5.69-5.68,4.13-.21-.57-2.95-3.81-3.62-3.62-1.4.41-1.07.98-2.07,1.81v91.97l5.17,3.62c.03-5.08-.04-10.17,0-15.24h1.03c.12,8.36.19,16.72.52,25.06l3.62-1.29c-.4,1.89-.05,4.52-1.03,6.46.2.5,1.12.15,1.55.26s.55-.57,1.03-.52c.74.08,1.61.62,3.1.52,6.85-.49,6.53-2.51,7.49-9.3l3.88.78c-3.79-10.8,2.76-4.22,3.88-4.39,1.4-.21,2.66-8.54,6.98-7.23l.52-5.17c.2-.82.66-1.85,1.03-2.58.46-.88,1.09-2.36,1.55-3.1,4,.56,5.27,3.05,7.23,6.2-1.43,1.82-5.52,5.18-8.01,5.17-.66,1.67-7.75,7.51-8.01,8.01s.22,3.31-.52,4.39c-6.1.52-6.04,3.86-8.27,9.3-8.43,0-16.89,0-25.32,0,.07-.4.35-.65.52-1.03,2.04-.22,3.37-.45,5.17-1.55.91-.56,1.42.8,2.07-2.33s-.54-7.73-2.07-10.33c-1.12-1.91-4.97-3.13-3.62-5.17-1.14-.9-.77.59-1.55.78-.34-.63-.46-.77-.52-1.55-.24-3.35-.29-5.6-2.58-8.27.95-3.64.52-7.64.52-11.37,1.55.22,1-1.38,1.03-2.33.77-22.77-.43-45.76,0-68.46l4.91-6.72,5.17,6.72,4.65-7.75.26,1.03Z"/>
            <g>
              <path class="cls-8" d="M62.68,386.46c.04.07.39,1.19.52,1.55,3.75,10.71.97,68.84,1.03,84.74.04,9.38-.03,18.77,0,28.16,1.66.9.79-1.27,1.03-1.81.03-.06.89.2,1.03-.26.97-3.01-1.2-6.37,3.62-6.46-.39,2.02,1.09,6.42-2.07,8.53.82.92,2.35-.31,2.58-.26.06.01.37.99.78,1.03,1.65.17,8.69.19,9.82-.52,1.53-.96,1.13-3.64,1.81-4.65,2.01-2.99,6.1-7.62,9.82-8.78,1.5-.47,4.18.58,4.39.52.5-.15,5.98-6.66,6.98-7.75,1.3.18,5.19-.16,6.2-.52,1.75.54,2.37,5.69,3.88,5.68,3.28-.01.98-9.01,4.39-8.78.8,1.69,1.25,3.26,1.03,5.17-1.9.78-4.82,3.79-3.62,5.94.15.27,2.05-.66,2.84-.26,7.01,3.51,4.67,9.18,2.33,14.47-.17.38-.45.63-.52,1.03-24.27.02-48.58-.16-72.86,0,1.15-2.44,11.93-.21,12.4-1.81l.52-113.68,2.07-1.29Z"/>
              <path class="cls-15" d="M120.55,482.05c.06.78.18.92.52,1.55-.75.18-1.9-.32-2.58.26,7.56,2.31,9.15,9.72,7.75,16.79-1.8,1.1-3.13,1.33-5.17,1.55,2.34-5.29,4.69-10.96-2.33-14.47-.79-.4-2.69.53-2.84.26-1.2-2.16,1.72-5.16,3.62-5.94.05-.02.19.8,1.03,0Z"/>
              <path class="cls-10" d="M126.23,500.65c1.39-7.07-.19-14.48-7.75-16.79.69-.58,1.83-.08,2.58-.26s.41-1.67,1.55-.78c-1.36,2.04,2.5,3.26,3.62,5.17,1.53,2.61,2.7,7.31,2.07,10.33s-1.16,1.77-2.07,2.33Z"/>
              <path class="cls-4" d="M106.08,469.13c-.24,1.45-.28,3.17-.52,4.65-1.21,1.08-4.7,4.32-5.94,4.65-.18.05-2.67-1.5-3.62-1.03-1.7.85-3.66,8.1-3.36,10.33-3.72,1.16-7.8,5.8-9.82,8.78-3.59-3.97-.8-4.8,0-6.98.04-.1-1.06-1.12-.52-2.07.8-1.4,7.5-8.61,9.3-8.78l-3.1-2.07c.42-1.43,5.8-.92,6.46-1.29.28-.16-.58-1.72-.26-2.58,2.16-5.72,6.38-8.84,11.37-3.62Z"/>
              <path class="cls-6" d="M94.71,472.75c-.32.86.54,2.43.26,2.58-.66.37-6.04-.13-6.46,1.29l3.1,2.07c-1.8.18-8.5,7.38-9.3,8.78-.54.95.55,1.97.52,2.07-.8,2.18-3.59,3,0,6.98-.68,1.01-.27,3.69-1.81,4.65-1.13.7-8.17.69-9.82.52-.4-.04-.71-1.02-.78-1.03.05-.5-.09-1.06,0-1.55,2.87-2.35,1.8-6.88,3.62-10.85,1.35-2.95,3.05-4.75,6.98-3.1.03-2.63,2.52-2.2,3.36-3.36.08-.1-.47-2,0-2.58,2.73-3.37,5.6-6.54,10.33-6.46Z"/>
              <path class="cls-15" d="M107.63,472.24c4.78-.01,8.44-.45,10.85,4.65-3.41-.23-1.11,8.77-4.39,8.78-1.5,0-2.13-5.15-3.88-5.68,3.59-1.27-2.52-5.4-6.2-1.29-.17.19.16,1.63,0,1.81-1,1.09-6.48,7.6-6.98,7.75-.21.06-2.9-.98-4.39-.52-.3-2.24,1.66-9.49,3.36-10.33.94-.47,3.44,1.08,3.62,1.03,1.25-.33,4.73-3.57,5.94-4.65.33-.3,1.75-1.26,2.07-1.55Z"/>
              <path class="cls-6" d="M108.66,469.65c.02.08,1.46-.37,1.03,1.29-2.18-.08-1.72.97-2.07,1.29-.32.29-1.73,1.25-2.07,1.55.23-1.48.27-3.2.52-4.65,0-.06.8.03.52-1.03.68.59,1.11,1.54,2.07,1.55Z"/>
              <g>
                <path class="cls-10" d="M110.73,467.58c.84,3.29,5.25,3.9,7.23,6.2,2.3,2.67,2.35,4.92,2.58,8.27-.85.8-.99-.02-1.03,0,.22-1.91-.23-3.48-1.03-5.17-2.41-5.1-6.07-4.66-10.85-4.65.35-.32-.11-1.37,2.07-1.29.42-1.66-1.01-1.21-1.03-1.29-.82-2.94-1.07-4.38-5.17-3.88,1.13.75,2.07,1.43,3.1,2.33.28,1.07-.51.98-.52,1.03-4.99-5.22-9.21-2.1-11.37,3.62-4.74-.08-7.61,3.09-10.33,6.46-.47.58.08,2.48,0,2.58-.84,1.16-3.33.73-3.36,3.36-3.92-1.65-5.63.15-6.98,3.1-2.95,1.66-3.03,7.5-3.62,10.85-.09.49.05,1.05,0,1.55-.24-.05-1.76,1.17-2.58.26,3.16-2.11,1.67-6.51,2.07-8.53,1.69-8.69,5.21-6.49,9.3-11.11,2.21-2.5,3.68-5.92,7.23-9.56,5.37-.43,7.05-6.63,11.63-7.75,6.4-1.57,8.09,1.05,12.66,3.62Z"/>
                <path class="cls-16" d="M98.07,465c.41-.04,1.16-.13,1.29.26-3.38.38-4.17,5.31-5.94,6.46-1.24.81-3.56.57-5.68,2.07-3.36,2.37-3.34,7.92-6.98,8.01.65-4.72,5.18-7.27,8.53-10.08,1.23-1.03,1.98.06,2.07,0,2.12-1.63,3.75-6.43,6.72-6.72Z"/>
                <path class="cls-16" d="M74.05,488.25c-1.82,3.97-.74,8.51-3.62,10.85.59-3.35.67-9.19,3.62-10.85Z"/>
                <path class="cls-7" d="M108.66,469.65c-.95-.01-1.39-.96-2.07-1.55-1.03-.89-1.97-1.58-3.1-2.33,4.1-.51,4.34.94,5.17,3.88Z"/>
              </g>
              <path class="cls-15" d="M110.21,479.99c-1.01.35-4.9.69-6.2.52.16-.18-.17-1.61,0-1.81,3.68-4.11,9.79.02,6.2,1.29Z"/>
            </g>
            <g>
              <path class="cls-8" d="M191.85,488.77c-3.27,1.74-5.57.82-7.23,4.91l1.29,1.29c5.9-5.59,6.65,2.26,2.58,6.72l8.53,1.55c-17.04,0-34.11,0-51.15,0,2.22-5.44,2.17-8.78,8.27-9.3.06,0,.39,1.03.78,1.03,2.69.06,7.02-6.27,9.3-7.75,3-1.95,5.62-1.8,7.23-2.58.95-.47,2.91-7.79,5.43-8.27,4.57-.87,6.34,4.25,6.46,7.75,1.28-3.49.49-7.01-.78-10.33,3.25,2.09,3.13,7.45,1.55,10.59,3.35-.66,1.11-5.76,2.33-7.49l.26,8.01c2.24-.49-.34-3.55,2.84-2.84-1.44,2.34,3.37,2.85,5.43,5.43,2.17,2.72,4.47,10.68.78,12.66-.12-4.57.16-13.47-6.46-12.66l2.58,1.29Z"/>
              <path class="cls-16" d="M160.34,481.02c-4.32-1.3-5.58,7.02-6.98,7.23-1.11.17-7.67-6.41-3.88,4.39l-3.88-.78c-.96,6.79-.64,8.81-7.49,9.3-1.16-3.07-1.03-7.77,3.1-8.53.65-1.88-2.23-.36-2.07-1.55.42-3.04,5.04-1.27,5.17-1.55s-1.95-2.11-3.36-1.81c-1.88.41-5.78,10.44-5.94,12.92-.48-.05-.61.62-1.03.52.32-5.47,1.73-12.2,6.98-14.98,1.75-.93,4.57.17,5.94-1.81-.77-3.08-2.18,2.04-4.13-.52,3.87-4.94,10.61-10.98,17.05-7.23-1.95,1.73-3.14-1.32-5.68,0,2.69.78,5.19,1.45,6.2,4.39Z"/>
              <path class="cls-15" d="M175.84,473.27l1.03,3.1c-2.51.48-4.47,7.8-5.43,8.27-1.61.79-4.23.63-7.23,2.58-2.28,1.48-6.61,7.81-9.3,7.75-.38,0-.71-1.04-.78-1.03.74-1.08.26-3.89.52-4.39s7.35-6.34,8.01-8.01c2.48.01,6.58-3.35,8.01-5.17,1-1.28,1.17-4.13,1.81-4.13.77,0,.38,3.7,3.36,1.03Z"/>
              <path class="cls-10" d="M160.85,475.85l-.52,5.17c-1.01-2.94-3.51-3.61-6.2-4.39,2.54-1.32,3.73,1.73,5.68,0-6.44-3.74-13.18,2.29-17.05,7.23,1.96,2.55,3.36-2.57,4.13.52-1.37,1.98-4.19.88-5.94,1.81-5.25,2.79-6.65,9.51-6.98,14.98-.43-.11-1.35.24-1.55-.26.98-1.94.64-4.57,1.03-6.46.93-4.45,10.56-15.66,14.47-18.6l12.14-3.1.78,3.1Z"/>
              <path class="cls-16" d="M171.19,465.52c3.66,1.27,2.25,4.48,5.17,5.17.14,1.75,1.15,1.09-.52,2.58-2.98,2.67-2.59-1.04-3.36-1.03-.64,0-.8,2.86-1.81,4.13-1.96-3.15-3.23-5.64-7.23-6.2,2.07-3.35,3.24-6.22,7.75-4.65Z"/>
              <path class="cls-10" d="M170.15,462.93c1.34,1.15,1.65.74,1.03,2.58-4.51-1.57-5.68,1.3-7.75,4.65-.46.74-1.09,2.22-1.55,3.1-2.2-2.77,2.8-6.79,4.39-8.78-4.25-.56-6.33,6.95-7.75,7.75-.55.31-.88-.64-1.29-.52.04-.33-.08-.82,0-1.03,2.61-6.71,6.36-8.18,12.92-7.75Z"/>
              <path class="cls-16" d="M161.89,473.27c-.38.73-.84,1.76-1.03,2.58l-.78-3.1-12.14,3.1c4.11-3.09,4.54-2.74,9.3-4.13.41-.12.74.83,1.29.52,1.42-.8,3.5-8.31,7.75-7.75-1.59,1.99-6.59,6.01-4.39,8.78Z"/>
              <path class="cls-1" d="M138.12,501.17c-1.49.11-2.36-.44-3.1-.52.16-2.48,4.06-12.51,5.94-12.92,1.41-.31,3.49,1.53,3.36,1.81s-4.75-1.49-5.17,1.55c-.16,1.19,2.72-.33,2.07,1.55-4.13.76-4.26,5.46-3.1,8.53Z"/>
              <path class="cls-9" d="M181.52,469.13c.61,3.11,3.9,4.73,5.68,7.23,3.18,4.48,2.83,4.26,6.46,8.27s6.49,8.98,4.91,14.98c-.59,2.23-2.89,2.11-4.65.78,1.87-3.08.73-9.52-2.07-11.63l-2.58-1.29c6.62-.82,6.34,8.09,6.46,12.66,3.7-1.98,1.39-9.94-.78-12.66-2.05-2.58-6.87-3.09-5.43-5.43-3.19-.71-.6,2.35-2.84,2.84l-.26-8.01c-1.22,1.74,1.03,6.83-2.33,7.49,1.58-3.14,1.7-8.51-1.55-10.59-1.9-1.22-2.05-1-4.65-1.29,4.76-3.69.39-1.83,0-2.58-.34-.67-.56-4.09-2.33-4.39-2.53-.44.64,3.48.78,5.17-2.92-.69-1.5-3.89-5.17-5.17.62-1.84.31-1.44-1.03-2.58,9.04.6,6.17,3.88,11.37,6.2Z"/>
              <path class="cls-7" d="M182.55,473.79c1.26,3.33,2.05,6.85.78,10.33-.12-3.5-1.89-8.62-6.46-7.75l-1.03-3.1c1.67-1.49.66-.84.52-2.58s-3.3-5.61-.78-5.17c1.77.31,1.98,3.72,2.33,4.39.39.76,4.76-1.1,0,2.58,2.6.29,2.75.07,4.65,1.29Z"/>
            </g>
            <g>
              <path class="cls-10" d="M316.9,399.9c.39,22.35.54,45.28-1.03,67.43,6.21,5.8,15.03,5.07,19.12,13.18.09.28.37.85.52,1.03-1.7-1.3-1.62,1.71-1.55,1.81,1.18,1.52,5.18,2.77,7.23,5.94l1.03,11.37c-.08-.02-.71,1.19-1.55-.26,2.04-8-5.47-21.13-13.95-13.69.47-.41.46-1.49.52-1.55,1.43-1.62,4.6-1.64,2.07-5.94-1.35-2.3-5.52-3.2-7.75-1.81l-.52-.52c5.71-3.71,9.41,1.63,11.63,6.2.89-8-4.39-6.56-8.27-8.78s-7.77-5.12-11.88-7.23l-1.29.26c3.46,2.59,4.31,4.91,2.84,9.04-.74-3.59.54-7.25-4.39-8.27.61-.71.65-2.47.52-3.62,1.7.1,4.81,3.06,5.68.26.25-25.73-.62-51.83.26-77.25,1.09,0,.75,10.91.78,12.4Z"/>
              <path class="cls-10" d="M295.71,473.79c-3.2.96-4.5,5.31-5.17,8.27-.12.54,1.29,1.02,1.03,1.81-.08.26-3.82,2.65-4.13,3.62,2.04-.35,1.6-1.03,4.13-1.29-2.72,2.37-8.07,4-9.3,7.75-.33-.04-.96.07-1.03,0,.71-4.88,5.65-6.09,8.27-10.59-2.14.56-7.52,4.72-8.27,6.46h-.52c2.5-5.6,3.94-4.49,7.23-8.27,2.24-2.58,4.72-9.14,8.78-9.82.42-.07,1.98-.12,2.07.26l-3.1,1.81Z"/>
              <g>
                <path class="cls-1" d="M319.48,390.6l-5.94-8.27c-.39-.05-4.26,5.82-4.39,6.46-2.42,11.58-.52,62.52,1.03,75.7.14,1.15.09,2.91-.52,3.62-5.03-1.03.26,3.33,1.55,4.91-1.28.33-3.8-2.51-4.91-2.33-.28.05-.59,2.71-3.88,2.84l3.36,1.29c-.27,1.92-3.61-.2-5.68,0-4.2.41-10,5.36-4.39,8.53l-2.33-.78.26,3.88c-.74.67-1.07-.36-2.07-.26-2.53.26-2.1.95-4.13,1.29.32-.97,4.05-3.36,4.13-3.62.25-.79-1.16-1.27-1.03-1.81l5.17-8.27,3.1-1.81c-.09-.37-1.65-.33-2.07-.26.12-1.41,1.12-2.3,1.55-3.1,2.84-1.82,6.06-3.78,7.75-6.2.08-.12,1.38.25,1.55-.26.5-19.89-.44-39.82-.52-59.68,0-1.37,0-2.76,0-4.13,0-8.23-1.79-12.16,5.43-18.08,3.08,2.01,6.38,6.97,6.98,10.33Z"/>
                <path class="cls-10" d="M300.36,472.24l3.62-3.88-1.03-1.29c.28-.25-.82-.63-.26-1.03s6.87-2.66,5.43.26c-3.31.33-6.13,8.07-7.75,5.94Z"/>
                <path class="cls-10" d="M306.05,462.42c-1.7,2.42-4.91,4.38-7.75,6.2.65-1.2.76-2.48,2.07-3.62s4.02-2.03,5.68-2.58Z"/>
                <path class="cls-16" d="M300.36,472.24l-1.03-1.29c1.38-1.04,2.41-2.78,3.62-3.88l1.03,1.29-3.62,3.88Z"/>
                <path class="cls-16" d="M295.71,473.79l-5.17,8.27c.67-2.95,1.96-7.3,5.17-8.27Z"/>
              </g>
              <path class="cls-15" d="M309.15,483.09c-.14.33.32,6.12-1.29,6.72-.43.16-6.09-2.08-9.04-1.55-.44-4.87,2.56-4.3,4.39-7.23l2.58,4.65c1.03.08-.47-5.48,3.36-2.58Z"/>
              <path class="cls-8" d="M321.55,477.4c-2.94,1.84,6.11,3.59,5.68,7.75-.05.06-.04,1.14-.52,1.55-.68.59-.8,1.64-1.81,1.55-2.31-3.22-3.83-4.31-6.98-6.2,2.19-1.44,1.29-3.99,3.1-5.17l.52.52Z"/>
              <path class="cls-1" d="M281.24,489.8c-.52,1.2-1.07,3.09,0,4.13.07.07.71-.04,1.03,0-1.12,3.42.07,4.38,1.03,7.23-1.09-.12-4.73.51-5.17-.78.56-4.48.82-6.65,2.58-10.59h.52Z"/>
              <path class="cls-16" d="M342.22,500.65l-1.03-11.37c2.37,3.67,2.31,7.79,4.13,11.63-.46.71-2.33-.07-3.1-.26Z"/>
              <path class="cls-7" d="M327.23,485.15c.43-4.16-8.63-5.91-5.68-7.75,2.23-1.39,6.4-.49,7.75,1.81,2.53,4.31-.63,4.33-2.07,5.94Z"/>
              <g>
                <path class="cls-4" d="M321.03,476.89c-1.81,1.18-.91,3.73-3.1,5.17-.29-.17-.9,1.33-2.07-.26-.42-.56-.24-3.24-1.81-3.88-.36,0-4.76,4.82-4.91,5.17-3.82-2.89-2.33,2.66-3.36,2.58l-2.58-4.65c-1.83,2.93-4.84,2.37-4.39,7.23-5.02.9-7.7,11.54-10.08,12.92-1.17.68-4.13.14-5.43,0-.97-2.85-2.15-3.82-1.03-7.23,1.23-3.75,6.58-5.38,9.3-7.75.99-.1,1.33.93,2.07.26l-.26-3.88,2.33.78c-5.6-3.17.19-8.11,4.39-8.53,2.07-.2,5.42,1.92,5.68,0l-3.36-1.29c3.29-.13,3.6-2.8,3.88-2.84,1.11-.19,3.63,2.65,4.91,2.33-1.29-1.58-6.58-5.94-1.55-4.91s3.65,4.68,4.39,8.27c1.47-4.14.62-6.45-2.84-9.04l1.29-.26c4.12,2.11,7.9,4.95,11.88,7.23s9.15.79,8.27,8.78c-2.22-4.57-5.92-9.91-11.63-6.2Z"/>
                <path class="cls-1" d="M300.62,477.4c.2.03,3.42,2.14,2.58,3.1l-1.55-1.55-5.94.26c-.2-.69,4.65-1.85,4.91-1.81Z"/>
              </g>
              <path class="cls-16" d="M281.24,493.94c-1.07-1.05-.52-2.93,0-4.13.75-1.74,6.13-5.9,8.27-6.46-2.62,4.5-7.56,5.71-8.27,10.59Z"/>
            </g>
            <g>
              <path class="cls-8" d="M262.13,485.67c3.35-.53,7.74,1.5,8.27,5.17-2.67,1.49-.85,3.56-2.07,6.98-.18.49-2.58,2.9-3.1,3.62l4.65,1.03-3.1.78c-14.11-.02-28.26.01-42.37,0l-3.62-.78c9.08.15,4.78-1.68,6.2-6.2.68-2.14,2.87-4.68,3.62-6.72.06-.17-1.06-1.21-1.03-1.29.37-1.27,4.02-6.49,5.43-6.72,2.96-.48.43,1.89,5.68-1.03.37-.21,1.76.21,2.07,0,1.86-1.26,1.37-3.81,1.81-5.17,2.14.04,1.97,2.28,2.84,3.62,3.56-9.28,12.05-5.06,11.63,3.88-.01.25-1.86,1.64-1.55,4.13,1.67-.05,2.83-.91,4.65-1.29Z"/>
              <path class="cls-7" d="M248.18,465c.06.11,1.54,1.94,1.55,2.07.46,7.31-2.14,2.7-4.39,4.65-1.08.94-.51,2.8-.78,3.62-.44,1.36.05,3.91-1.81,5.17-.31.21-1.7-.21-2.07,0-5.25,2.92-2.73.55-5.68,1.03-1.41.23-5.06,5.44-5.43,6.72-2.73.76-4.15,4.61-5.94,5.68-4.6,2.76-4.45-2.1-5.68,7.75-1.5.71-2.14-.95-2.33-1.03-.81-.39-2.03-.67-2.07-.78-1.04-2.76.82-11.6,5.43-9.04l-1.29-1.55c5.54-3.22,2.12-.63,4.39,0,3.77,1.04,7.34-8.9,2.84-8.78-1.59.04-1.83.05-3.1,2.07-.51-.03-1.04.02-1.55,0,1.71-3.53.91-7.55,7.75-5.68.52.61,1.92,3.72,2.84,3.62,5.35-2.99,2.58-8.25,9.04-8.53-.27-7.64,2.93-4.13,5.43-4.39.22-.02,1.27-3.28,2.84-2.58Z"/>
              <path class="cls-6" d="M217.69,489.29c-4.69,2.73-7.99,5.31-6.2,11.88-.78.01-1.92.14-2.58,0,.76-2.84,1.11-7.07,2.58-9.56,1.31-2.2,5.04-3.83,5.17-4.13.54-1.3-.91-5.63,3.1-5.68-1.66,1.32-2.68,3.33-1.81,5.43-.03-1.92,1.78-3.52,2.33-4.65.51.02,1.04-.03,1.55,0,1.37.09,2.05-1.47,3.1-2.07,4.49-.12.92,9.83-2.84,8.78-2.27-.63,1.15-3.22-4.39,0Z"/>
              <path class="cls-10" d="M228.02,476.89c-6.84-1.87-6.04,2.15-7.75,5.68-.54,1.13-2.36,2.73-2.33,4.65-.88-2.1.14-4.11,1.81-5.43-4.01.05-2.56,4.38-3.1,5.68-.13.31-3.86,1.93-5.17,4.13-1.47,2.49-1.82,6.72-2.58,9.56-.45-.09-1.33.23-1.55-.26.47-1.43.71-2.93,1.03-4.39,1.34-6.07,3.17-6.51,6.2-10.85,1.2-1.71,2.25-4.91,3.1-5.94.26-.31,1.06.39,2.58-1.03,2.44-2.28,1.6-5.66,6.98-3.36,2.25.97.7,1.46.78,1.55Z"/>
              <path class="cls-1" d="M217.69,489.29l1.29,1.55c-4.61-2.56-6.47,6.29-5.43,9.04.04.1,1.25.39,2.07.78-1.27.82-2.74.5-4.13.52-1.79-6.58,1.51-9.15,6.2-11.88Z"/>
              <path class="cls-10" d="M264.71,472.24c.78,2.08,1.53,2.51,2.07,5.17.3,1.48-.59,4.19-.52,4.39.18.47,3.72,1.27,4.39,1.81,5.59,4.51,6.78,10.13,4.65,17.05-1.63-8.77,1.33-12.17-7.49-17.05-1.1-.61-2.86-.41-3.1-.78s1.62-4.83-.52-8.78c-2.57-4.76-8.91-4.77-9.3-5.17-1.3-1.31.33-2.19,1.81-.78,2.17-1.49-.91-3.37-2.33-4.13-1.63-.88-3-.91-4.65-1.55,6.35-2.95,7.03,3.2,9.3,5.43.76.74,1.25-.31,1.29-.26,1.51,1.53,2.81,3.22,4.39,4.65Z"/>
              <path class="cls-4" d="M267.81,485.67c1.28.65,4.16,3.97,3.62,5.43-.9.85-.99-.28-1.03-.26-.53-3.66-4.91-5.7-8.27-5.17,2.69-.56,2.65-1.53,5.68,0Z"/>
              <path class="cls-6" d="M244.04,462.93c.39,0,2.19,1.53,2.33,1.55,1.27.18.49-1.41,1.03-1.55,1.31-.33.72,1.97.78,2.07-1.58-.69-2.63,2.56-2.84,2.58-2.5.26-5.69-3.25-5.43,4.39-6.46.27-3.7,5.54-9.04,8.53-.93.1-2.32-3.01-2.84-3.62-.08-.09,1.48-.58-.78-1.55-5.38-2.3-4.53,1.08-6.98,3.36-1.53,1.43-2.33.72-2.58,1.03-.85,1.03-1.9,4.23-3.1,5.94.37-.95-.5-1.6-.52-2.07,3.91-4.33,5.74-11.54,12.92-9.82,2.14.51,3.29,1.2,4.39,3.1-1.09-4.39,1.93-7.89,6.2-7.23-.98-2.87,2.72-6.77,6.46-6.72Z"/>
              <path class="cls-10" d="M244.56,462.42s.08.61-.52.52c-3.74-.05-7.44,3.85-6.46,6.72-4.28-.66-7.29,2.84-6.2,7.23-1.1-1.9-2.26-2.59-4.39-3.1.99-1.46.42-1.1-.52-2.07.69-.34,1.74-.44,2.58-1.03.78,3.05,3.13-1.06,4.39-2.07.26-.2,1.83.2,2.07,0,1.65-1.42,3.95-9.1,9.04-6.2Z"/>
              <path class="cls-16" d="M242.49,460.87c.89.08,1.5.15,2.33.52,1.41,1.32.43.72-.26,1.03-5.09-2.9-7.4,4.78-9.04,6.2-.24.2-1.81-.2-2.07,0-1.26,1.01-3.62,5.12-4.39,2.07.08-.05.56-1.04,1.03-1.55.39,1.24,1.45-.08,1.81-.52,2.97-3.59,5.09-8.27,10.59-7.75Z"/>
              <path class="cls-1" d="M244.56,459.83c2.15,1.06,3.25,1.84,5.17,2.58,1.65.64,3.02.67,4.65,1.55-3.02,1.01.7,4.38-.78,6.72-.4-1.02-2.28-8.01-3.88-3.62,0-.13-1.49-1.95-1.55-2.07-.05-.1.53-2.4-.78-2.07-.55.14.24,1.73-1.03,1.55-.14-.02-1.93-1.54-2.33-1.55.6.09.48-.5.52-.52.69-.32,1.67.29.26-1.03-.83-.37-1.43-.43-2.33-.52,0-.45.41-.52.52-1.03.45.08,1.28-.13,1.55,0Z"/>
              <path class="cls-9" d="M224.92,480.5c-1.05.6-1.73,2.15-3.1,2.07,1.27-2.01,1.51-2.02,3.1-2.07Z"/>
              <g>
                <path class="cls-15" d="M254.38,463.97c1.41.77,4.49,2.64,2.33,4.13-1.48-1.42-3.11-.53-1.81.78.39.4,6.73.4,9.3,5.17,2.13,3.95.26,8.4.52,8.78s2,.17,3.1.78v2.07c-3.03-1.53-2.99-.56-5.68,0-1.82.38-2.98,1.24-4.65,1.29-.31-2.49,1.54-3.89,1.55-4.13.43-8.93-8.06-13.16-11.63-3.88-.87-1.34-.7-3.58-2.84-3.62.26-.82-.3-2.68.78-3.62,2.25-1.95,4.85,2.66,4.39-4.65,1.6-4.39,3.47,2.6,3.88,3.62,1.47-2.33-2.25-5.71.78-6.72Z"/>
                <path class="cls-6" d="M257.22,471.72c3.2.52,4.5,4.55,5.17,7.23l1.29-3.88c-.15,2.93.83,6.02-1.81,8.01-2.33-1.8-.19-2.95-.26-3.36-.64-3.86-1.92-5.24-4.39-8.01Z"/>
              </g>
            </g>
          </g>
        </g>
      </g>
      <g>
        <path class="cls-15" d="M209.42,389.56c.58.81.84,2.88,2.07,2.84-.65-2.02-.07-3.95,0-5.94,3.37,1.69.65,7.35.52,10.33h-1.03c.2-2.75-3.27-6.83-5.68-8.53l.52,107.47,2.58.78c-.32,1.46-.56,2.96-1.03,4.39.22.49,1.1.17,1.55.26.66.14,1.81.01,2.58,0,1.4-.02,2.86.3,4.13-.52.18.09.82,1.74,2.33,1.03,1.24-9.85,1.08-4.99,5.68-7.75,1.79-1.07,3.21-4.93,5.94-5.68-.02.08,1.09,1.13,1.03,1.29-.75,2.04-2.94,4.57-3.62,6.72-1.42,4.52,2.88,6.35-6.2,6.2l3.62.78c-9.12,0-18.27,0-27.39,0l-8.53-1.55c4.07-4.46,3.31-12.31-2.58-6.72l-1.29-1.29c1.66-4.09,3.96-3.17,7.23-4.91,2.8,2.1,3.94,8.54,2.07,11.63,1.76,1.33,4.06,1.46,4.65-.78l1.55.52c.07.47-.23,1.25.26,1.55,2.23-20.78,1.24-43.19,1.29-64.59.03-11.35,2.72-44.45.52-52.96-.09-.36-2.63-3.83-3.1-4.39-.41-1.03,1-1.46,1.03-1.55,3.33,3.6,6.44,7.37,9.3,11.37Z"/>
        <path class="cls-8" d="M200.64,437.1c-.08,7.14.06,14.3,0,21.44-.36.51-3.82.24-4.65.26.97-23.75.41-47.55,1.03-71.31.06-2.43.92-4.95,0-7.23.37-1.32,4.05,5.06,4.13,5.43,1.83,8.57-.39,40.45-.52,51.41Z"/>
        <path class="cls-16" d="M197.02,387.5l-5.17,1.03c.49-3.01,3.19-5.91,5.17-8.27.92,2.29.06,4.8,0,7.23Z"/>
        <g>
          <path class="cls-9" d="M199.09,379.74c.47.56,3.01,4.04,3.1,4.39,2.21,8.51-.49,41.61-.52,52.96h-1.03c.12-10.97,2.35-42.84.52-51.41-.08-.37-3.77-6.75-4.13-5.43-1.98,2.36-4.67,5.25-5.17,8.27-.56,3.4.18,8.67,0,12.4-.43-.08-1.36.12-1.55,0-5.48-3.58-46.94.99-57.61-1.03-.18-.03-2.6-.85-2.07-1.55l9.04-.78c.4-4.75-3.71-6.54-5.17-9.56-.77-1.59-.36-1.58,0-3.1,1.63,1.01,2.19,3.18,3.1,4.65.6.96.13,1.28,1.55,2.07.33.18.66.44,1.03.52-.59,1.64.1,3.95.26,5.68,21.54,2.28,4.13-8.77,4.91-10.59.34-.38,1.71.1,2.07.26.05.02-.02.8,1.03.52.63,3.92,2.07,2.81,3.1,4.91.31.64-.45,4.28.78,4.91,3.33,1.72,31.81-1.31,37.72,0-.71-8.68,1.6-12.89,6.46-19.63.15.11.72-.67,2.58,1.55Z"/>
          <path class="cls-16" d="M358.23,386.98c.25-.09.59.03.52-.52,0,.13.44,1.66.52,2.58l-1.55-.26c.39,2.79,1.03,6.29,1.03,9.04,0,1.48.52,1.47.52,1.55,0,2.5-1.08,8.3-1.03,12.4.13,12.04.56,24.1.52,36.17l-.52,34.1c-.46,1.02-1.54,1.46-2.58,1.55.29-25.16,3.56-74.01-.52-96.62,1.24-.9,2.25.32,3.1,0Z"/>
          <path class="cls-1" d="M74.56,386.98c-2.37,2.1,2.76,4.13,3.62,6.72.36,1.08-.69,4,.78,4.65.35.16,7.28.14,7.75,0l1.29-.78c-1.08-.75-.18-2.63-.52-3.36l.26-1.55c.47.29.68,1.1.78,1.55.23,1.08-.57,3.54.78,4.13,2.07.92,6.37-.6,8.53-.52.44.02.61.01,1.03,0l9.82-.26c-.08-4.48-2.2-6-4.13-9.56,1.27,1.2,2.65,2.96,4.13,3.62h.52c-.28.86-.09,5.78.26,6.2l9.04-.26c1.03-5-2.22-7.61-5.17-11.11.12-.2.07-2.11.78-2.58l5.43,7.75c-.43,22.7.77,45.69,0,68.46-.03.94.52,2.55-1.03,2.33,0-.68,0-1.38,0-2.07,0-20.23,0-40.48,0-60.71-.67-.8-1.05.31-1.55.26-16.09-1.62-34.35,1.63-50.64-.52-.18-1.51-.08-3.65.26-5.17.48,5.66,6.59,4.69,11.11,3.36.59-5.01-4.6-6.99-5.68-11.63.21-.31.28-1.68,1.29-2.07.83.12.96,2.53,1.29,3.1Z"/>
          <path class="cls-15" d="M359.27,389.05c.13,1.6-.6,7.66.78,8.27h14.47c3.25,19.4-4.89,10.21-15.24,12.92-1,.26-.04,1.42-1.03,1.55-.04-4.1,1.02-9.91,1.03-12.4,4.5.91,12.43-2.33,14.21,2.58,2.67-7.33-10.64-2.97-14.73-4.13,0-2.76-.64-6.26-1.03-9.04l1.55.26Z"/>
          <path class="cls-15" d="M108.66,391.63c-1.49-.66-2.87-2.42-4.13-3.62-.06-.06.03-1.26-.78-1.55-.96.88.71,1.44.78,1.55,1.94,3.56,4.05,5.08,4.13,9.56l-9.82.26c.7-3.83-2.85-5.68-4.13-8.78.59.84,3.04,2.52,3.88,3.62l4.65-7.75,5.43,6.72Z"/>
          <path class="cls-15" d="M147.42,387.5c-.36-.16-1.73-.64-2.07-.26-.78,1.83,16.63,12.87-4.91,10.59-.15-1.74-.84-4.05-.26-5.68.53-1.49,5.62-4.58,4.91-7.75l2.33,3.1Z"/>
          <path class="cls-15" d="M109.18,391.63c.17-.53,3.34-3.91,4.13-5.17,2.95,3.49,6.2,6.11,5.17,11.11l-9.04.26c-.35-.43-.54-5.35-.26-6.2Z"/>
          <path class="cls-4" d="M83.86,383.88c.19,1.83,1.56,8.21,3.88,8.27,1.14.03,2.16-3,2.33-3.1,2.37-1.46,3.23,1.09,4.65,2.58l-6.2,2.58c-.09-.45-.31-1.26-.78-1.55l-.26,1.55c-.11-.24-4.12-3.12-4.39-3.1s-3.33,3.33-4.91,2.58c-.85-2.59-5.99-4.62-3.62-6.72,3.4,5.93,6.32,5.61,7.23-1.55,1.95,1.35.01-1.65,2.07-1.55Z"/>
          <path class="cls-3" d="M359.78,468.1h-1.03c.17-6.69-.02-13.45,0-20.15.04-12.07-.39-24.13-.52-36.17.99-.13.03-1.29,1.03-1.55-.18,19.29.25,38.59.52,57.87Z"/>
          <path class="cls-7" d="M139.15,391.63c-1.42-.79-.95-1.11-1.55-2.07l1.55,2.07Z"/>
          <path class="cls-15" d="M319.48,390.6c.42,2.39-.69,5.41.52,7.75-.85.31-1.37-.38-.52,1.03-1,.11-1.54.7-2.58.52-.03-1.49.31-12.4-.78-12.4-.88,25.42-.01,51.52-.26,77.25-.87,2.8-3.98-.16-5.68-.26-1.56-13.18-3.46-64.11-1.03-75.7.13-.64,4.01-6.51,4.39-6.46l5.94,8.27Z"/>
          <path class="cls-15" d="M213.04,397.83l1.29,2.07c11.66-1.45,87.63,2.32,91.72-1.03.16-.13.76-.45,1.03-.52,0,1.37,0,2.76,0,4.13-1.46-.1-2.26,1.52-3.62,1.55-.18,0-3.12-1.03-3.36-1.03-29.34-.58-58.79.45-88.1,0,.04-1.88-.08-3.8,0-5.68.45-.02.52.44,1.03.52Z"/>
          <path class="cls-1" d="M358.23,386.98c-.85.32-1.86-.9-3.1,0-.2-1.09-.54-3.24-1.03-4.13s-1.14-1.4-1.81-2.07c-.53,1.85-4.08,5.58-4.39,6.98-2.73,12.3.06,51.14,0,66.4-.03,8.77.24,17.58-.26,26.35-3.36-5.95-1.22-13.66-1.81-20.41-6.02-.24-12.07-.56-18.08-.78-.42-1.16.51-1.47.52-1.55.4,1.91,7.86,1.19,8.27.26v-48.83c.33.04.7-.05,1.03,0,.9,5.65-1.49,48.6.78,49.6.47.21,7.28.05,7.49-.26.17-14.89-.22-29.81,0-44.7,0-.08.49-.1.52-1.55.05-2.92-.06-5.87,0-8.78.03-1.47-.53-3.49-.52-4.13,0-.52,0-1.07,0-1.55.12-9.9.18-11.64,6.46-19.63l5.94,8.78Z"/>
          <path class="cls-10" d="M345.83,397.83c0,.48,0,1.03,0,1.55-8.24.26-16.57-.35-24.8,0-.51.02-1.05-.05-1.55,0-.85-1.41-.33-.72.52-1.03,5.96-2.16,19.1.55,25.84-.52Z"/>
          <path class="cls-8" d="M86.45,471.72c-3.56,3.64-5.02,7.06-7.23,9.56-4.09,4.62-7.61,2.42-9.3,11.11-4.82.09-2.64,3.45-3.62,6.46-.15.46-1,.19-1.03.26,0-5.5,0-11.03,0-16.53,5.32-1.19,10.96,1.04,13.43-4.91-.53-1.1-1.64-.57-2.07-.78-.06-.03.19-.92-.26-1.03-2.11-.52-7.75-.02-10.08.52-.06.01.03.8-1.03.52,0-1.37,0-2.76,0-4.13v-3.62h23.51c.38,1.09-1.43,1.67-2.33,2.58Z"/>
          <path class="cls-7" d="M116.93,399.9l.26,3.1h-50.12c-.99-1.2-.63-2.34-.78-3.62,16.29,2.15,34.55-1.1,50.64.52Z"/>
          <path class="cls-8" d="M118.48,460.35c0,.68,0,1.38,0,2.07,0,3.73.43,7.72-.52,11.37-1.98-2.3-6.39-2.91-7.23-6.2,1.76.99,3.22,3.27,5.94,2.07,2.3-1.02-1.07-9.92,1.81-9.3Z"/>
          <g>
            <path class="cls-15" d="M65.78,388.01c-1.22-2.1-4.36-3.84-5.43-6.2-2.87.19-1.69,2.68-1.81,2.84-.7,1.02-4.06,3.85-4.13,4.13-.62,2.34.15,9.08,0,12.14-3.97,1.52-6.38,7.11,0,6.72-.8,23.32-1.77,52.12-.52,75.18.23,4.2.71,8.9,2.07,12.92v-105.41l4.39-6.46c.84.84,1.69,1.56,2.33,2.58l-2.07,1.29-.52,113.68c-.47,1.6-11.25-.63-12.4,1.81-11.38.08-22.74.25-34.1.52.19-.5-.31-1.8.26-2.07l18.08-.52c2.29-1-7.26-3.17-6.98-5.17l5.94,1.55c-.57-2.3,2.17-.32,2.58-.52.45-.21-.75-1.49-.26-1.81,3.19-2.1,5.4,1.63,8.01,3.88.3-3.47-6.51-4.77-5.43-7.75,2,.83,3.61,2.6,5.68,2.84l-7.75-5.68c.48-2.23,6.27,1.55,7.49,1.81-.2-1.97-1.39-3.01-2.84-4.13-.97-6.01,4.78,3.16,5.43,3.1.45-.2.2-1.01.26-1.03,3.24-1.07,3.56-3.65,5.43,0,4.32-3.8,3.14-10.28,3.36-15.5.24-5.65-.08-12.29,0-18.08.2-14.54-.15-29.11,0-43.66l-15.24-.78-.78-12.66,15.24-.26c.2-7.75,3.54-11.22,7.23-17.57l6.46,8.27Z"/>
            <path class="cls-9" d="M65.78,388.01c.81,1.39.26,1.87.52,2.58h-.52c-.09-.85-1.4-3.76-2.58-2.58-.13-.36-.47-1.48-.52-1.55-.64-1.02-1.49-1.74-2.33-2.58l-4.39,6.46v105.41c-1.36-4.02-1.84-8.71-2.07-12.92-1.25-23.06-.28-51.86.52-75.18.08-2.23-.11-4.5,0-6.72.15-3.06-.62-9.8,0-12.14.07-.28,3.44-3.12,4.13-4.13.11-.17-1.07-2.65,1.81-2.84,1.07,2.36,4.2,4.1,5.43,6.2Z"/>
            <path class="cls-10" d="M39.17,397.83c.96-.47,12.69-.1,14.73.78l-14.21.78c-.43.22,1.92,11.21-1.55,8.27-.57-.48-.87-8.89,1.03-9.82Z"/>
            <path class="cls-5" d="M38.39,486.19c1.45,1.13,2.64,2.17,2.84,4.13-1.22-.26-7.02-4.04-7.49-1.81l7.75,5.68c-2.07-.24-3.68-2.02-5.68-2.84-1.02-.42-3.22-.52-4.39-.52,1.27-4.61,2.22-8.33,6.98-4.65Z"/>
          </g>
          <path class="cls-8" d="M54.41,400.93c-.11,2.22.08,4.49,0,6.72-6.38.39-3.97-5.2,0-6.72Z"/>
          <path class="cls-8" d="M125.2,388.53l3.1,4.91c-.17,25.75.22,51.51,0,77.25-.04,5.07.03,10.16,0,15.24l-5.17-3.62v-91.97c1-.83.66-1.4,2.07-1.81Z"/>
          <path class="cls-8" d="M157.23,470.69c-.08.22.04.71,0,1.03-4.76,1.4-5.19,1.05-9.3,4.13s-13.54,14.15-14.47,18.6l-3.62,1.29c-.33-8.34-.39-16.7-.52-25.06,0-.34,0-.69,0-1.03l27.9,1.03Z"/>
          <path class="cls-15" d="M190.3,400.93v2.58c-8.02-2.61-54.91,1.73-58.65-.52-.22-.13-.91-4.22-2.33-4.65-.14-2.17.28-4.03-.52-6.2,3.26,1.55,3.59-2.82,5.68-4.13,1.46,3.02,5.56,4.81,5.17,9.56l-9.04.78c-.53.71,1.89,1.52,2.07,1.55,10.67,2.02,52.13-2.55,57.61,1.03Z"/>
          <path class="cls-14" d="M128.82,392.15c.79,2.17.38,4.03.52,6.2,1.48,22.84-.31,48.12,0,71.31,0,.34,0,.69,0,1.03h-1.03c.22-25.74-.17-51.5,0-77.25l-3.1-4.91c.66-.19,3.41,3.05,3.62,3.62Z"/>
          <path class="cls-15" d="M97.81,397.83c-2.15-.08-6.45,1.43-8.53.52-1.34-.6-.55-3.05-.78-4.13l6.2-2.58c1.93,2.03,3.8,2.69,3.1,6.2Z"/>
          <path class="cls-7" d="M197.02,387.5c-.62,23.76-.07,47.55-1.03,71.31-.88.02-4.75.23-5.17-.26,1.09-19.19.11-38.42,1.03-57.61.18-3.73-.56-9,0-12.4l5.17-1.03Z"/>
          <path class="cls-14" d="M191.85,400.93c-.92,19.19.06,38.43-1.03,57.61.42.49,4.29.28,5.17.26.83-.02,4.29.25,4.65-.26.06-7.15-.08-14.3,0-21.44h1.03c-.05,21.4.94,43.81-1.29,64.59-.49-.3-.19-1.08-.26-1.55-1.89-12.5.61-27.34.52-40.04-.69-.81-10.06.44-10.85-1.03-1.19-2.22.52-43.84.52-50.38v-7.75c.19.12,1.12-.08,1.55,0Z"/>
          <path class="cls-6" d="M358.75,447.95c-.02,6.7.17,13.46,0,20.15-.08,3.14.54,11.59-.52,13.95l.52-34.1Z"/>
          <path class="cls-10" d="M359.27,399.38c0-.08-.52-.07-.52-1.55,4.08,1.16,17.39-3.2,14.73,4.13-1.78-4.92-9.71-1.67-14.21-2.58Z"/>
          <path class="cls-15" d="M87.48,394.21c.33.73-.57,2.61.52,3.36l-1.29.78c-.47.14-7.4.16-7.75,0-1.47-.65-.42-3.57-.78-4.65,1.58.75,4.63-2.57,4.91-2.58s4.28,2.86,4.39,3.1Z"/>
          <path class="cls-8" d="M190.3,403.51v4.13c-12.73-.5-25.54.44-38.24.52-6.63.04-13.47-1.31-20.15-.26l4.39.78c.05,5.52,1.7,47.82.26,49.86-.5.71-3.27-.17-4.13.52,9.78,1.86,20.22-.27,29.97.26,3.44.19,5.41,2.05,8.78,2.07l1.03-52.19c2.73-.01,5.57.03,8.27,0l.26,50.12.78-50.12c2.76,0,5.91-1.06,8.78-.52,0,6.54-1.71,48.16-.52,50.38.79,1.47,10.16.22,10.85,1.03.1,12.71-2.41,27.55-.52,40.04l-1.55-.52c1.58-6.01-1.23-10.92-4.91-14.98s-3.28-3.78-6.46-8.27c7.01.23,13.61,4.66,11.88-6.46-.63-.89-14.82.46-17.57-.78-5.19-2.33-2.32-5.6-11.37-6.2-6.56-.43-10.31,1.04-12.92,7.75l-27.9-1.03c-.31-23.19,1.48-48.47,0-71.31,1.42.43,2.1,4.52,2.33,4.65,3.74,2.25,50.63-2.09,58.65.52Z"/>
          <path class="cls-8" d="M307.08,402.48c.08,19.86,1.02,39.79.52,59.68-.17.51-1.47.14-1.55.26-1.66.55-4.4,1.47-5.68,2.58-1.54-1.91-3.95,4.48-4.39,4.65-4.4,1.73-28.62-1.69-32.04,0-.38.75.43,1.66.78,2.58-1.58-1.43-2.88-3.12-4.39-4.65-.05-.05-.53,1-1.29.26-2.27-2.23-2.95-8.38-9.3-5.43-1.91-.75-3.02-1.52-5.17-2.58v-.52c2.66-.76,5.53-.59,8.27-.52.34,0,.69-.01,1.03,0,1.7.05,7.43,1.08,8.27.52.15-.1.82.23,1.03-.26v-49.86c3.23-.04,7.41.54,8.78.52l-.26,49.6,1.29-49.6c2.39-.04,6.25,0,8.27,0l.26,49.6.78-49.6c1.23,0,6.01-.47,8.78-.52.75,5.34-1.76,49.07.52,50.12,1.42.65,8.7,1.1,9.3-.26l-.52-50.9c2.52-.38,3.65-1.53,3.1-4.13,1.36-.03,2.15-1.65,3.62-1.55Z"/>
          <path class="cls-8" d="M336.53,409.2v48.83c-.41.93-7.87,1.65-8.27-.26,2.04-14.44-1.53-33.62,0-48.57,2.92.1,4.99-.37,8.27,0Z"/>
          <path class="cls-8" d="M345.83,413.85c-.22,14.88.17,29.8,0,44.7-.22.31-7.02.47-7.49.26-2.27-1.01.12-43.95-.78-49.6.12.02,1.04-1.02,2.33-.52s3.86,4.83,5.94,5.17Z"/>
          <path class="cls-7" d="M354.1,382.85l-2.58,3.36-.52,72.34c-1.49-2.1,1.18-5.18-3.1-4.39.06-15.26-2.73-54.09,0-66.4.31-1.4,3.86-5.13,4.39-6.98.67.67,1.34,1.22,1.81,2.07Z"/>
          <path class="cls-15" d="M345.83,399.38c0,.64.55,2.67.52,4.13h-24.54l-.78-4.13c8.23-.35,16.56.26,24.8,0Z"/>
          <path class="cls-1" d="M328.26,409.2c-1.53,14.95,2.04,34.13,0,48.57-.01.08-.93.39-.52,1.55-1.69-.06-4.93,1.65-6.72-.26l6.2-1.03v-48.83c.34.01.69-.01,1.03,0Z"/>
          <path class="cls-7" d="M346.35,412.3c-.02,1.45-.52,1.47-.52,1.55-2.08-.33-4.63-4.65-5.94-5.17s-2.21.53-2.33.52c-.33-.05-.7.04-1.03,0-3.28-.37-5.35.1-8.27,0-.34-.01-.69.01-1.03,0-.61-.02-6.17-.28-5.94-1.55,4.89.95,16.06-1.27,20.15,0,1.3.41,2.7,4.67,4.91,4.65Z"/>
          <path class="cls-8" d="M300.36,465c-1.3,1.13-1.42,2.42-2.07,3.62-.43.8-1.43,1.69-1.55,3.1-4.07.68-6.54,7.24-8.78,9.82-3.3-.11-6.75-.15-10.08,0-.2,0-3.43,1.59-3.62,1.55-2.25-.51-4.04-6.79-7.49-5.68-.54-2.66-1.29-3.09-2.07-5.17-.35-.92-1.16-1.83-.78-2.58,3.41-1.69,27.64,1.73,32.04,0,.44-.17,2.85-6.57,4.39-4.65Z"/>
          <path class="cls-8" d="M335.5,481.54c-.14-.18-.43-.75-.52-1.03-.21-.68.42-1.75-.52-2.33.44-1.98,10.37-1.46,10.85-1.03.18.16,1.05,4.33-.26,4.91-1.96.87-8.51.81-9.56-.52Z"/>
          <path class="cls-8" d="M76.63,476.89c.42.21,1.53-.32,2.07.78-2.48,5.94-8.12,3.72-13.43,4.91,0-1.89,0-3.79,0-5.68,1.06.28.98-.5,1.03-.52,2.61-.55,7.32,1.27,10.33.52Z"/>
          <path class="cls-16" d="M65.26,472.75c0,1.37,0,2.76,0,4.13,0,1.89,0,3.79,0,5.68,0,5.5,0,11.03,0,16.53-.25.54.62,2.71-1.03,1.81-.03-9.39.04-18.78,0-28.16h1.03Z"/>
          <path class="cls-15" d="M76.63,476.89c-3.01.76-7.72-1.06-10.33-.52,2.32-.54,7.97-1.03,10.08-.52.45.11.2,1,.26,1.03Z"/>
          <g>
            <path class="cls-15" d="M66.29,399.38c.15,1.28-.22,2.42.78,3.62h50.12l-.26-3.1c.5.05.88-1.06,1.55-.26,0,20.24,0,40.48,0,60.71-2.88-.62.49,8.28-1.81,9.3-2.72,1.21-4.18-1.08-5.94-2.07-4.57-2.56-6.26-5.19-12.66-3.62-4.58,1.12-6.26,7.32-11.63,7.75.89-.91,2.7-1.49,2.33-2.58h-23.51c0-26.13-.43-52.4.52-78.54h.52c1.8,5.03,4.12-2.38,5.68-4.65,1.09,4.63,6.27,6.61,5.68,11.63-4.52,1.33-10.63,2.3-11.11-3.36-.34,1.51-.44,3.65-.26,5.17Z"/>
            <g>
              <path class="cls-16" d="M75.08,408.16l-1.03,49.86-3.62.26c-1.82-15.32,1.36-34.16,0-49.86.8-1.81,4.16-.22,4.65-.26Z"/>
              <path class="cls-1" d="M75.08,408.16c.17-.01.35.01.52,0v.52l.26,50.12,7.49-.78v-48.83c.33,0,.7,0,1.03,0,0,16.35,0,32.73,0,49.09v1.03c-2.48-.04-11.81,1.17-13.69.52-1.31-.87-.2-1.03-.26-1.55l3.62-.26,1.03-49.86Z"/>
              <path class="cls-1" d="M65.78,390.6c-.95,26.14-.52,52.41-.52,78.54v3.62h-1.03c-.06-15.9,2.72-74.03-1.03-84.74,1.19-1.17,2.49,1.74,2.58,2.58Z"/>
              <path class="cls-9" d="M109.18,409.2l-.52,50.12c-.6.09-.48-.51-.52-.52v-50.12c1.28-.04.98.52,1.03.52Z"/>
              <path class="cls-4" d="M109.18,409.2c-.06,0,.25-.56-1.03-.52-2.66.08-5.34-.06-8.01,0l-.26,1.03c-.57-.33-.36-.36-1.03-.52-2.81-.64-4.94-.5-7.75-.52-2.27-.01-4.58.52-6.72.52-.33,0-.7,0-1.03,0-2.42-.03-5.21-1.04-7.75-.52v-.52c13.85-.82,27.72-.35,41.59-.52-.33,1.29-6.46,1.51-8.01,1.55Z"/>
              <path class="cls-16" d="M91.1,458.8c2.58.02,5.32-.52,7.75-.52.06,0-.26.51,1.03.52,2.41.01,6.09-.35,8.27,0,.04,0-.08.61.52.52-1.52,1.52-20.93.06-24.29,0v-1.03c2.02.9,4.54.5,6.72.52Z"/>
              <path class="cls-8" d="M83.35,409.2v48.83l-7.49.78-.26-50.12c2.54-.53,5.33.49,7.75.52Z"/>
              <path class="cls-15" d="M91.1,408.68v50.12c-2.18-.01-4.7.38-6.72-.52,0-16.35,0-32.73,0-49.09,2.14,0,4.44-.53,6.72-.52Z"/>
              <path class="cls-8" d="M108.15,408.68v50.12c-2.18-.35-5.85.01-8.27,0v-49.09l.26-1.03c2.67-.06,5.35.08,8.01,0Z"/>
              <path class="cls-8" d="M98.85,409.2v49.09c-2.43,0-5.18.53-7.75.52v-50.12c2.81.01,4.94-.13,7.75.52Z"/>
              <path class="cls-1" d="M99.88,409.71v49.09c-1.29,0-.98-.52-1.03-.52v-49.09c.68.16.46.18,1.03.52Z"/>
            </g>
          </g>
          <path class="cls-7" d="M190.3,407.65v1.03c-2.87-.55-6.02.51-8.78.52-.34,0-.69,0-1.03,0-2.7.03-5.54-.01-8.27,0-.34,0-.69,0-1.03,0-2.65.01-5.8-1.4-8.78,0-.2.09-.6-.06-.52.52-.88-2.01-7.51-.64-9.82-1.03v-.52c12.7-.08,25.51-1.01,38.24-.52Z"/>
          <path class="cls-8" d="M233.19,409.71v49.6c-1.32.84-7.46.84-8.78,0v-50.12c4.65-.56,6.25.51,8.78.52Z"/>
          <path class="cls-6" d="M291.58,459.32c.6.09.48-.51.52-.52,1.25-.31,6.72.46,7.23-.26,1.43-2.01-1.11-42.43,0-49.35,0-.06.8.03.52-1.03.17-.02.35.03.52,0l.52,50.9c-.6,1.36-7.89.91-9.3.26Z"/>
          <g>
            <path class="cls-8" d="M210.97,396.8l.52,72.08c1.3-21.91.04-43.94.52-65.88,29.31.45,58.76-.58,88.1,0,.24,0,3.18,1.04,3.36,1.03.55,2.6-.58,3.75-3.1,4.13-.17.03-.35-.02-.52,0l-80.86-.52c0,2.07-4.3,4.89-2.58,6.72.8-1.24,3.54-4.61,4.65-5.17,1.89-.95,2.44.07,2.84,0l.52,50.12c1.33.84,7.46.84,8.78,0,2.31-1.47.38-43.86,1.03-49.6,2.39.04,5.54-.5,8.78-.52-.83,16.39,1.11,33.86,0,50.12-7.69-.67-9.24,5.86-12.92,9.82-.47.51-.96,1.5-1.03,1.55-.85.59-1.9.69-2.58,1.03-4.23,2.09-12.69,4.14-12.4,11.88.02.47.89,1.12.52,2.07-3.03,4.35-4.86,4.78-6.2,10.85l-2.58-.78-.52-107.47c2.41,1.7,5.89,5.78,5.68,8.53Z"/>
            <g>
              <g>
                <path class="cls-10" d="M226.47,471.72c.93.97,1.51.6.52,2.07-7.18-1.72-9.01,5.49-12.92,9.82-.29-7.75,8.17-9.79,12.4-11.88Z"/>
                <path class="cls-10" d="M243.01,459.32c-.01.17.03.36,0,.52-.1.51-.52.59-.52,1.03-5.51-.52-7.63,4.16-10.59,7.75-.36.44-1.42,1.76-1.81.52,3.68-3.96,5.23-10.49,12.92-9.82Z"/>
              </g>
              <g>
                <path class="cls-6" d="M212.01,396.8c0,.17,0,.34,0,.52-.08,1.88.04,3.8,0,5.68-.48,21.94.79,43.97-.52,65.88l-.52-72.08h1.03Z"/>
                <path class="cls-15" d="M299.85,408.16c.28,1.06-.51.98-.52,1.03-1.97-1.48-5.43,0-7.23,0-.34,0-.66,0-1.03,0-2.77.04-7.55.51-8.78.52-.34,0-.69,0-1.03,0-2.02,0-5.88-.04-8.27,0-.34,0-.69,0-1.03,0-1.38.02-5.55-.56-8.78-.52-.34,0-.69,0-1.03,0-2.31.02-5.02-.53-7.49-.52-.21,0-.35,1.55-1.29,1.55-.17,0-.34,0-.52,0-2.79,0-5.87-.53-8.78-.52-.06,0,.26-.52-1.03-.52-3.25.02-6.39.55-8.78.52-.36,0-.7,0-1.03,0-2.53,0-4.13-1.08-8.78-.52-.17.02-.35-.03-.52,0-.4.07-.95-.95-2.84,0-1.11.56-3.85,3.93-4.65,5.17-1.72-1.82,2.58-4.64,2.58-6.72l80.86.52Z"/>
                <path class="cls-6" d="M244.04,409.71l.52,49.6v.52c-.27-.13-1.1.08-1.55,0,.03-.16-.01-.35,0-.52,1.11-16.26-.83-33.73,0-50.12,1.29,0,.98.52,1.03.52Z"/>
                <path class="cls-14" d="M234.22,409.71c-.66,5.74,1.28,48.14-1.03,49.6v-49.6c.34,0,.67,0,1.03,0Z"/>
                <path class="cls-14" d="M224.41,459.32l-.52-50.12c.17-.03.35.02.52,0v50.12Z"/>
                <path class="cls-15" d="M217.95,472.75c.9.27-.8,3.25-2.33,1.81l2.33-1.81Z"/>
              </g>
            </g>
          </g>
          <path class="cls-8" d="M171.19,409.2v52.19c-3.37-.02-5.34-1.88-8.78-2.07v-50.12c2.98-1.4,6.13.01,8.78,0Z"/>
          <path class="cls-8" d="M187.2,476.37c-1.78-2.51-5.07-4.12-5.68-7.23,2.75,1.23,16.94-.11,17.57.78,1.73,11.12-4.87,6.69-11.88,6.46Z"/>
          <path class="cls-6" d="M172.22,409.2l-1.03,52.19v-52.19c.34,0,.69,0,1.03,0Z"/>
          <path class="cls-14" d="M181.52,409.2l-.78,50.12-.26-50.12c.34,0,.69,0,1.03,0Z"/>
          <path class="cls-8" d="M252.83,410.23v48.57c-2.73-.08-5.6-.25-8.27.52l-.52-49.6c2.92-.02,6,.53,8.78.52Z"/>
          <path class="cls-8" d="M262.13,409.2v50.12c-.84.56-6.56-.46-8.27-.52l-.52-48.57c.94,0,1.08-1.55,1.29-1.55,2.47,0,5.18.54,7.49.52Z"/>
          <path class="cls-14" d="M292.1,409.2v49.6s.08.61-.52.52c-2.28-1.05.23-44.78-.52-50.12.38,0,.69,0,1.03,0Z"/>
          <path class="cls-1" d="M272.98,409.71l-1.29,49.6.26-49.6c.34,0,.69,0,1.03,0Z"/>
          <path class="cls-6" d="M263.16,409.2v49.86c-.22.48-.88.16-1.03.26v-50.12c.34,0,.69,0,1.03,0Z"/>
          <path class="cls-1" d="M282.28,409.71l-.78,49.6-.26-49.6c.34,0,.69,0,1.03,0Z"/>
          <path class="cls-14" d="M253.86,458.8c-.34-.01-.69,0-1.03,0v-48.57c.17,0,.34,0,.52,0l.52,48.57Z"/>
          <path class="cls-15" d="M161.89,409.71v48.31l-10.08.78.26-50.12c2.31.4,8.94-.97,9.82,1.03Z"/>
          <path class="cls-8" d="M299.33,409.2c-1.11,6.92,1.43,47.33,0,49.35-.51.72-5.98-.05-7.23.26v-49.6c1.8,0,5.26-1.48,7.23,0Z"/>
          <g>
            <path class="cls-14" d="M152.07,408.16v.52l-.26,50.12,10.08-.78v-48.31c-.08-.57.32-.43.52-.52v50.12c-9.75-.53-20.19,1.6-29.97-.26.87-.69,3.63.19,4.13-.52,1.44-2.04-.2-44.34-.26-49.86l-4.39-.78c6.68-1.05,13.52.3,20.15.26Z"/>
            <path class="cls-8" d="M140.7,457.77v-48.57c2.37-.82,4.82-.68,7.23-.26v49.09c-.51,1.14-5.8.91-6.98.78-.43-.05-.21-1.02-.26-1.03Z"/>
            <path class="cls-9" d="M140.7,409.2v48.57c-.64-.18-.39.76-.78,1.03l-.78-.78c1.46-7.72-2.12-44.69.52-49.09.36-.61.59.41,1.03.26Z"/>
          </g>
        </g>
      </g>
    </g>
  </g>
</svg>