<?xml version="1.0" encoding="UTF-8"?>
<svg id="uuid-0967ebf7-88eb-4726-bfdb-de2903cb52e9" data-name="Laag 2" xmlns="http://www.w3.org/2000/svg" viewBox="0 0 411.57 531.06">
  <defs>
    <style>
      .uuid-ba6c00b6-b1d9-41fa-9803-b14e917c6717 {
        fill: #38bcda;
      }

      .uuid-2fd3fd84-ff33-478c-af13-0b896f094b0b {
        fill: #272350;
      }

      .uuid-c27e605c-0d23-4bb6-b8d7-ce998402a207 {
        fill: #1273b5;
      }

      .uuid-b658b036-5e6e-4a91-829a-30874a94135e {
        fill: #164791;
      }

      .uuid-78c7cead-15dd-4c4d-8e99-e3dca2edf25e {
        fill: #1f183b;
      }

      .uuid-67481ec7-5e6b-43f7-aa55-bb95daeeda90 {
        fill: #1f284e;
      }

      .uuid-c4870829-91c0-4b38-ad44-6d9c1d6bb9b7 {
        fill: #295880;
      }

      .uuid-4420cc4e-faa7-4113-96a5-b20a8de987b6 {
        fill: #203e63;
      }

      .uuid-56d06745-3e6b-4012-87bb-a1dc3b67b9c0 {
        fill: #9dd7eb;
      }

      .uuid-8712425b-db6d-4b20-b322-f351ec1f73c8 {
        fill: #68c6de;
      }

      .uuid-a17692c0-d6b7-4296-8886-799071e53150 {
        fill: #377ea8;
      }

      .uuid-ed373c19-5474-4dbc-a17b-85e455c03159 {
        fill: #243875;
      }

      .uuid-12737ae8-53ed-4d96-8950-44fe0f083810 {
        fill: #b1dde8;
      }

      .uuid-324daec4-0ce1-4c39-960a-f36dbb8706e7 {
        fill: #2b6d92;
      }

      .uuid-06c3ce2f-9f38-4921-8fb5-88def961b98a {
        fill: #30a2d5;
      }

      .uuid-0328af9e-a55a-47a2-9ac8-6a8c9bed7c1c {
        fill: #1392d1;
      }

      .uuid-6a30255a-b768-4694-b9bf-5b8905483d45 {
        fill: #1fadd4;
      }

      .uuid-f42cb1fa-8ae2-46dc-8f9f-c93db0b014c0 {
        fill: #d4ecf3;
      }

      .uuid-53334e5c-9bb0-4a77-9c63-b58f7e398ad3 {
        fill: #3be;
      }

      .uuid-83dfefac-7014-44ca-8550-dba4c8bd25a9 {
        fill: #428bb2;
      }
    </style>
  </defs>
  <g id="uuid-6b0ea0ed-c2ca-48d1-a822-42e3e5cc2521" data-name="Generatief object">
    <g>
      <path class="uuid-8712425b-db6d-4b20-b322-f351ec1f73c8" d="M344.03,363.03l-.15,14.49c1.82.29,1.12,3.4,1.24,3.56.1.14.76,0,1.08.31.12.11.74,2.51,1.08,3.1.89,1.53,2.93,2.06,2.09,4.42l-11.23-.23c-.49-2.05,1.14-2.47,2.01-3.87.46-.75,1.04-3.01,1.24-3.25.34-.42,1.03-.37,1.08-.46.29-.48-.56-3,1.08-3.41l.15-14.64c.1,0,.21,0,.31,0Z"/>
      <g>
        <path class="uuid-4420cc4e-faa7-4113-96a5-b20a8de987b6" d="M343.03,382.25c2.71-.71,2.23,1.23,3.18,2.87l-4.57.08c.38-.8.5-2.71,1.39-2.94Z"/>
        <path class="uuid-4420cc4e-faa7-4113-96a5-b20a8de987b6" d="M342.41,381.47c.25-.05,3.23.07,3.41.15s1.03,3.22,1.47,3.64c-2.53-.37-.36-4.17-4.11-3.33-1.82.41-.86,3.04-2.63,3.56l1.01-3.49c.14-.35.55-.48.85-.54Z"/>
        <path class="uuid-4420cc4e-faa7-4113-96a5-b20a8de987b6" d="M343.8,378.06c1.14,1.15,1.64,3.89-.85,3.02.04-1.06-.07-2.33.85-3.02Z"/>
        <path class="uuid-67481ec7-5e6b-43f7-aa55-bb95daeeda90" d="M338.69,388.13c3.47.15,7.01-.3,10.46.23l-5.35.08-5.11-.31Z"/>
        <path class="uuid-4420cc4e-faa7-4113-96a5-b20a8de987b6" d="M346.82,385.5l-6.35.31c.56-.47,5.78-.66,6.35-.31Z"/>
        <path class="uuid-c4870829-91c0-4b38-ad44-6d9c1d6bb9b7" d="M344.58,378.37c.2.14.35.38.15.62-.05-.19-.34-.41-.15-.62Z"/>
        <g>
          <path class="uuid-4420cc4e-faa7-4113-96a5-b20a8de987b6" d="M346.98,385.97c.11.03.33-.33.46-.08s-.28.85.08,1.16c.19-1.77,1.83.48,1.39.77h-10.23c-.59-.4,1.03-1.32,1.24-1.7l.31.93c.07-.34.11-.59.23-.93,1.94-.2,4.6-.64,6.51-.15Z"/>
          <path class="uuid-06c3ce2f-9f38-4921-8fb5-88def961b98a" d="M346.98,385.97c-1.9-.48-4.57-.05-6.51.15.06-.16-.25-.1,0-.31l6.35-.31c.24.15.15.24.15.46Z"/>
          <path class="uuid-06c3ce2f-9f38-4921-8fb5-88def961b98a" d="M340.08,387.2c.53-.06,8.75-.21,8.75.23l-9.84.08c.17-.13.89-.29,1.08-.31Z"/>
        </g>
      </g>
    </g>
    <g>
      <g>
        <path class="uuid-4420cc4e-faa7-4113-96a5-b20a8de987b6" d="M358.29,455.38c-.04,6.91.22,13.86-.23,20.76h-110.79c-.04-3.44.25-6.95.23-10.38l18.44-.23-18.59-.23c0-.82,0-1.66,0-2.48l12.09-.54-12.09-.54c0-.62-.01-1.24,0-1.86,0-.15,0-.31,0-.46l44-.23-43.85-.23c.02-.51-.41-3.48-.08-3.72l110.86.15Z"/>
        <g>
          <path class="uuid-06c3ce2f-9f38-4921-8fb5-88def961b98a" d="M247.5,465.76s-.16-.02-.15-.46l18.59.23-18.44.23Z"/>
          <path class="uuid-06c3ce2f-9f38-4921-8fb5-88def961b98a" d="M247.35,462.82c0-.35,0-.72,0-1.08l12.09.54-12.09.54Z"/>
          <path class="uuid-06c3ce2f-9f38-4921-8fb5-88def961b98a" d="M307.39,471.65c11.33.15,22.69-.31,34.01.23l-17.12.23-16.89-.46Z"/>
          <path class="uuid-06c3ce2f-9f38-4921-8fb5-88def961b98a" d="M247.35,459.41c.01-.43.15-.44.15-.46l43.85.23-44,.23Z"/>
          <path class="uuid-06c3ce2f-9f38-4921-8fb5-88def961b98a" d="M303.36,458.95c13.35.15,26.72-.31,40.05.23l-20.07.08-19.99-.31Z"/>
          <polygon class="uuid-06c3ce2f-9f38-4921-8fb5-88def961b98a" points="296.54 468.24 323.27 468.63 296.39 468.71 296.54 468.24"/>
          <path class="uuid-06c3ce2f-9f38-4921-8fb5-88def961b98a" d="M259.04,468.24c4.52-.79,16.87-.19,22,0,1.15.04,2.69.1,3.8.39l-26.42.08c-.3-.27.56-.45.62-.46Z"/>
          <polygon class="uuid-06c3ce2f-9f38-4921-8fb5-88def961b98a" points="282.6 462.04 294.99 462.04 307 462.43 294.68 462.51 282.6 462.04"/>
          <path class="uuid-06c3ce2f-9f38-4921-8fb5-88def961b98a" d="M263.54,471.65c6.63.15,13.29-.31,19.91.23l-9.99.23-9.92-.46Z"/>
          <path class="uuid-06c3ce2f-9f38-4921-8fb5-88def961b98a" d="M320.4,462.04c9.06.15,18.15-.31,27.19.23l-13.71.08-13.48-.31Z"/>
          <polygon class="uuid-06c3ce2f-9f38-4921-8fb5-88def961b98a" points="292.82 465.3 301.04 465.3 309.01 465.69 300.73 465.76 292.82 465.3"/>
        </g>
      </g>
      <path class="uuid-4420cc4e-faa7-4113-96a5-b20a8de987b6" d="M312.11,450.42c.27,1.11,1.5,2.8,1.7,3.8.06.29.25.31-.08.54h-39.36l1.94-4.34c10.9-.7,24.88-.65,35.79,0Z"/>
      <g>
        <g>
          <path class="uuid-8712425b-db6d-4b20-b322-f351ec1f73c8" d="M259.9,428.42c0,.1.02.21,0,.31-.13.75-2.28,3.74-2.63,4.73.79-.67,3.26-2.38,4.26-2.09,1.43.41-1.73,4.01-2.09,4.57-.69,1.07-.8,2.29-1.94,3.33-1,.92-1.76.04-1.24,2.63.72-1.31,5.68-6.94,4.57-2.25-.06.26-2.16,4.59-2.32,4.8-.65.87-2.38,1.01-2.48,1.24-.07.16.18,2.31.39,2.4.49.22,2.69-.32,3.02.23.7,1.18-1.81,4.76-1.55,6.35l14.18.08c.13-.7.47-1.35.7-2.01l.15.31c-.07.29-.51,1.55-.46,1.63.53.88,2.1-3.43,2.17-3.8h.15c-.1.17-1.28,3.45-1.24,3.64.06.27.1.32.39.23.23-.07,1.95-3.9,1.94-4.49.58-.13.17.17.46.15l-1.94,4.34h39.36c.33-.24.14-.25.08-.54-.21-1-1.43-2.68-1.7-3.8.3.02-.12-.28.46-.15.2,1.44,1.11,3.21,1.94,4.49.55-.07-.77-3.47-1.01-3.87h.31c.18.92,1.18,3.16,1.78,3.87.32-.04-.59-3.8-.7-4.03h.15l1.32,4.03,8.29-.08v-16.58c-.22-.5-1.76-.03-2.01-.31s-.32-2.52.7-2.56c10.22-.12,20.62-.54,30.76.23v2.48l-2.63.15v16.58l6.82.08c0,.21,0,.41,0,.62l-110.86-.15c-.33.24.1,3.21.08,3.72,0,.02-.14.04-.15.46,0,.15,0,.31,0,.46-.25-1.64-.2-3.38-.15-5.04,0-.11.31-.21.31-.23l6.97.08c-.1-1.6-2.23-4.8-1.7-6.2.33-.89,2.78.03,3.1-.62-.18-.41-.08-2.38-.15-2.48s-1.63-.08-2.09-.23c-1.47-.48-2.87-3.57-3.18-5.04.62.32,1.59.46,2.17.7.14.12,2.13,2.54,2.63,1.78-.74-.84-1.6-1.37-2.63-1.78-1.43-1.2-3.23-2.27-3.87-4.11.33-1.98,6.09,1.66,6.74,2.56l.08-.31c.43-.14,0-.74,0-.77-.28-1.98-.33-.71-1.47-1.7-.71-.62-4.65-5.21-3.25-5.89,1.26-.61,4.32,3.27,4.73,4.42,1.44-2.38-.98-1.98-1.7-3.1-.49-.76-.45-2.74-.93-3.33-.04-.05-.13-.23-.15-.31.58-1.31,2.49,1.19,2.87,1.39.19.1.35.21.39-.08-.55-.75-.96-.71-1.39-1.7s-1.25-4.35.54-4.42c1.36,1.69,1.6,4.04,1.16,6.12.39.25,3.46-3.64,3.56-1.16Z"/>
          <g>
            <g>
              <g>
                <polygon class="uuid-4420cc4e-faa7-4113-96a5-b20a8de987b6" points="326.45 446.24 337.76 446.24 337.83 454.84 326.6 454.92 326.45 446.24"/>
                <polygon class="uuid-4420cc4e-faa7-4113-96a5-b20a8de987b6" points="326.6 437.87 337.76 438.03 337.83 445.7 326.45 445.77 326.6 437.87"/>
                <polygon class="uuid-4420cc4e-faa7-4113-96a5-b20a8de987b6" points="339.31 446.24 349.69 446.24 349.77 454.68 339.31 454.92 339.31 446.24"/>
                <polygon class="uuid-4420cc4e-faa7-4113-96a5-b20a8de987b6" points="339.31 437.87 349.69 438.03 349.77 445.7 339.31 445.77 339.31 437.87"/>
                <path class="uuid-4420cc4e-faa7-4113-96a5-b20a8de987b6" d="M326.91,436.48c8.85-.38,17.8.21,26.65.15.81,1.76-2.38.4-2.71,1.16v16.89h-.62l-.08-17.12h-24.17l-.62,17.35-.31-17.35c-.24-.13-2.98.39-2.09-.85.11-.16,3.42-.21,3.95-.23Z"/>
                <path class="uuid-4420cc4e-faa7-4113-96a5-b20a8de987b6" d="M324.43,435.55c6.1-.74,21.12-.53,27.43,0,.34.03,2.18.14,2.09.54l-30.91.23c-.74-.41,1.23-.75,1.39-.77Z"/>
                <polygon class="uuid-4420cc4e-faa7-4113-96a5-b20a8de987b6" points="338.38 437.87 338.76 446.16 338.69 454.92 338.3 446.16 338.38 437.87"/>
              </g>
              <path class="uuid-4420cc4e-faa7-4113-96a5-b20a8de987b6" d="M314.9,450.73c.11.22,1.01,3.99.7,4.03-.6-.71-1.6-2.95-1.78-3.87-.21-1.07.78-.8,1.08-.15Z"/>
              <path class="uuid-4420cc4e-faa7-4113-96a5-b20a8de987b6" d="M313.51,450.89c.23.4,1.55,3.8,1.01,3.87-.83-1.28-1.74-3.05-1.94-4.49.18.04.62-.05.7,0,.15.1.18.53.23.62Z"/>
              <path class="uuid-4420cc4e-faa7-4113-96a5-b20a8de987b6" d="M275.86,450.27c.01.59-1.7,4.42-1.94,4.49-.29.09-.33.03-.39-.23-.04-.19,1.14-3.48,1.24-3.64.48-.82.38-.47,1.08-.62Z"/>
            </g>
            <g>
              <path class="uuid-4420cc4e-faa7-4113-96a5-b20a8de987b6" d="M253.31,449.96l5.66.39c-.7.48-1.27,4.3-1.47,4.42-.12.07-2.61.16-2.71.08-.2-.16-1.27-4.25-1.47-4.88Z"/>
              <path class="uuid-4420cc4e-faa7-4113-96a5-b20a8de987b6" d="M258.35,436.32l1.16-2.32-1.47,2.48c-.49.12-1.1.38-1.55-.08l4.88-4.42-5.11,4.34c-1.27-1.78,4.5-5.19,5.27-4.65,0,1.45-1.87,4.08-3.18,4.65Z"/>
              <path class="uuid-c4870829-91c0-4b38-ad44-6d9c1d6bb9b7" d="M249.44,437.25c1.98,1.47,4.99,2.8,6.12,5.04-.4-.21-7.15-4.58-6.12-5.04Z"/>
              <path class="uuid-4420cc4e-faa7-4113-96a5-b20a8de987b6" d="M253.16,438.03c1.59.65,2.88,1.68,2.63,3.56-.97-1.41-3.67-1.64-2.63-3.56Z"/>
              <path class="uuid-4420cc4e-faa7-4113-96a5-b20a8de987b6" d="M254.71,423.77c.93-.42,1.78,4.13,1.63,4.42-.4.77-.56-1.65-.7-1.63l-.23,1.16-.39-3.64.31,4.49c-.56-.67-1.5-4.4-.62-4.8Z"/>
              <path class="uuid-4420cc4e-faa7-4113-96a5-b20a8de987b6" d="M249.28,436.48c1.01-.32,4.89,1.09,3.18,2.56-.65-.9-2.51-1.49-3.18-2.09-.18-.17-.32-.36,0-.46Z"/>
              <path class="uuid-4420cc4e-faa7-4113-96a5-b20a8de987b6" d="M259.97,438.18l-3.56,5.11c-1.53.05,3.1-5.15,3.56-5.11Z"/>
              <path class="uuid-4420cc4e-faa7-4113-96a5-b20a8de987b6" d="M254.63,430.74c-.15-.21-1.6-2.4-1.47-2.48,1.47.31,3.2,1.9,2.94,3.56-.74-1.13-1.26-2.55-2.48-3.25.32.39,2.63,3.52,2.17,3.72-.29-.6-.79-1.04-1.16-1.55Z"/>
              <path class="uuid-4420cc4e-faa7-4113-96a5-b20a8de987b6" d="M251.68,441.28c.09.03,1.01,1.2,1.32,1.39.84.54,1.95.49,2.56,1.47.35,1.45-3.06-1.22-3.41-1.63-.19-.22-.35-.96-.77-1.16,0-.09.22-.11.31-.08Z"/>
              <path class="uuid-4420cc4e-faa7-4113-96a5-b20a8de987b6" d="M259.28,449.18c-1.01.16-3,.67-3.1-.77,1.02.01,3.06-.46,3.1.77Z"/>
              <path class="uuid-4420cc4e-faa7-4113-96a5-b20a8de987b6" d="M252.15,442.52c1.07,1.13,1.75,1.88,3.25,2.56-2.25.24-3.45-1.58-4.18-3.41.33.12.67.58.93.85Z"/>
              <path class="uuid-4420cc4e-faa7-4113-96a5-b20a8de987b6" d="M256.02,448.41c.3,1.5-1.94.37-2.79.93l-.08-.93c.95-.01,1.91.02,2.87,0Z"/>
              <path class="uuid-c4870829-91c0-4b38-ad44-6d9c1d6bb9b7" d="M258.89,436.32c-.11,1.21-1.26,2.8-2.48,3.1.62-1.17,1.39-2.31,2.48-3.1Z"/>
              <path class="uuid-ba6c00b6-b1d9-41fa-9803-b14e917c6717" d="M259.28,449.18c0,.17.08.46-.15.46l-6.04-.15c-.03-.18.13-.14.15-.15.85-.56,3.09.57,2.79-.93.05,0,.1,0,.15,0,.1,1.44,2.09.94,3.1.77Z"/>
              <path class="uuid-4420cc4e-faa7-4113-96a5-b20a8de987b6" d="M259.2,427.8c1.97.08-1.7,1.95-2.09,1.78.37-.33,1.66-1.8,2.09-1.78Z"/>
              <path class="uuid-67481ec7-5e6b-43f7-aa55-bb95daeeda90" d="M259.12,449.65c-.26.2-5.09.26-5.66.15-.25-.04-.44.11-.39-.31l6.04.15Z"/>
              <path class="uuid-4420cc4e-faa7-4113-96a5-b20a8de987b6" d="M252.61,440.82c1.03.41,1.9.94,2.63,1.78-.5.76-2.5-1.67-2.63-1.78Z"/>
              <path class="uuid-4420cc4e-faa7-4113-96a5-b20a8de987b6" d="M254.63,442.99c-1.15-.47-2-.77-2.94-1.7-.08-.08-.14-.38-.39-.31l.15-.31c1.12.69,2.11,1.56,3.18,2.32Z"/>
              <path class="uuid-67481ec7-5e6b-43f7-aa55-bb95daeeda90" d="M250.99,430.9c1.13-.06,1.9.86,2.56,1.63l-2.56-1.63Z"/>
              <path class="uuid-4420cc4e-faa7-4113-96a5-b20a8de987b6" d="M258.58,429.2l-1.78,1.94-.23.7c-.33-1.4,1.08-2.04,2.01-2.63Z"/>
              <path class="uuid-4420cc4e-faa7-4113-96a5-b20a8de987b6" d="M257.65,436.79l-1.55,2.48c-.04-1.03.68-1.96,1.55-2.48Z"/>
              <path class="uuid-4420cc4e-faa7-4113-96a5-b20a8de987b6" d="M257.73,431.83c-.45.8-.66,1.73-1.47,2.32-.4-1.11.7-1.34,1.47-2.32Z"/>
              <path class="uuid-4420cc4e-faa7-4113-96a5-b20a8de987b6" d="M256.1,436.79s.84.04.85.08c.02.09-.94,1.22-1.01,1.47-.2-.12.04-1.46.15-1.55Z"/>
              <polygon class="uuid-67481ec7-5e6b-43f7-aa55-bb95daeeda90" points="253.62 429.66 254.86 432.45 254.01 431.6 253.62 429.66"/>
              <path class="uuid-06c3ce2f-9f38-4921-8fb5-88def961b98a" d="M258.35,436.32s0,.08-.31.15l1.47-2.48-1.16,2.32Z"/>
              <path class="uuid-67481ec7-5e6b-43f7-aa55-bb95daeeda90" d="M257.5,431.21c-.01.56-.46,1.32-.93,1.55-.59,0,.78-1.45.93-1.55Z"/>
              <path class="uuid-67481ec7-5e6b-43f7-aa55-bb95daeeda90" d="M254.63,430.74c.16.22.5,1.22.7,1.55l-1.16-1.63c-.07-.42.45.05.46.08Z"/>
              <path class="uuid-67481ec7-5e6b-43f7-aa55-bb95daeeda90" d="M257.73,431.83c.37-.66.38-.92.93-1.7-.34.74-.38,1.01-.93,1.7Z"/>
              <path class="uuid-78c7cead-15dd-4c4d-8e99-e3dca2edf25e" d="M255.64,442.83c.22-.16.57.74.31.93-.22.16-.57-.74-.31-.93Z"/>
              <path class="uuid-2fd3fd84-ff33-478c-af13-0b896f094b0b" d="M256.57,429.97c.41-.16-.12.65-.15.93-.16-.24-.13-.82.15-.93Z"/>
              <path class="uuid-c27e605c-0d23-4bb6-b8d7-ce998402a207" d="M254.63,442.99c.25.1.72-.03.77.54-.27,0-.55-.38-.77-.54Z"/>
              <path class="uuid-67481ec7-5e6b-43f7-aa55-bb95daeeda90" d="M258.66,430.13c.1-.22.09-.6.39-.77.24.34-.29.64-.39.77Z"/>
              <path class="uuid-c4870829-91c0-4b38-ad44-6d9c1d6bb9b7" d="M257.88,430.59s-.01-.37.23-.46c.29.27-.2.42-.23.46Z"/>
              <path class="uuid-b658b036-5e6e-4a91-829a-30874a94135e" d="M257.88,430.59s.01.37-.23.46c-.29-.27.2-.42.23-.46Z"/>
              <g>
                <path class="uuid-c4870829-91c0-4b38-ad44-6d9c1d6bb9b7" d="M255.25,435.86c-.23-.55-.64-.95-1.01-1.39-.33-.07.21.74.23.77l-.31.08c.05.13.3.22.31.23.2.39.32.67.7.93.09,0,.11-.22.08-.31,0,.05.62.13-.08.62-1.14-.06-4.5-4.56-4.11-5.19,2.14.84,3.96,2.03,4.65,4.34.02.41-.32,0-.46-.08Z"/>
                <g>
                  <path class="uuid-4420cc4e-faa7-4113-96a5-b20a8de987b6" d="M255.25,435.86c.03.06-.02.22,0,.31-.02-.05-.65-.51-.77-.62-.02-.02.01-.21,0-.31.09.11.61.52.77.62Z"/>
                  <path class="uuid-ba6c00b6-b1d9-41fa-9803-b14e917c6717" d="M253.54,434.31c-.7-.63-1.77-1.4-2.09-2.32.82.92,1.57,1.2,2.09,2.32Z"/>
                  <path class="uuid-8712425b-db6d-4b20-b322-f351ec1f73c8" d="M255.25,435.86c-.16-.1-.69-.51-.77-.62-.03-.03-.57-.84-.23-.77.37.45.78.85,1.01,1.39Z"/>
                  <path class="uuid-8712425b-db6d-4b20-b322-f351ec1f73c8" d="M255.25,436.17c.03.09,0,.31-.08.31-.37-.26-.49-.54-.7-.93.12.11.76.57.77.62Z"/>
                  <path class="uuid-ba6c00b6-b1d9-41fa-9803-b14e917c6717" d="M253.54,434.31s.52.2.23.46c-.24-.09-.21-.45-.23-.46Z"/>
                  <path class="uuid-8712425b-db6d-4b20-b322-f351ec1f73c8" d="M254.47,435.24c.01.1-.02.29,0,.31,0-.02-.26-.1-.31-.23l.31-.08Z"/>
                </g>
              </g>
              <g>
                <path class="uuid-4420cc4e-faa7-4113-96a5-b20a8de987b6" d="M258.35,441.75c.09-.12.65-.3.39-.62-.31.14-.3.47-.39.62-.79,1-1.28,2.12-2.09,3.1.03-.39-.09-.78.08-1.16.59-1.38,3.36-3.94,4.26-5.35.26.2-.13,1.48-.23,1.78-.25.73-2.93,6.36-4.03,4.96.94-.93,1.38-2.21,2.01-3.33Z"/>
                <path class="uuid-ba6c00b6-b1d9-41fa-9803-b14e917c6717" d="M260.28,439.11c-.41,1.88-1.7,3.86-2.79,5.42.77-1.89,1.93-3.57,2.79-5.42Z"/>
                <path class="uuid-8712425b-db6d-4b20-b322-f351ec1f73c8" d="M258.35,441.75c.09-.15.08-.48.39-.62.26.32-.29.5-.39.62Z"/>
              </g>
            </g>
          </g>
        </g>
        <g>
          <path class="uuid-8712425b-db6d-4b20-b322-f351ec1f73c8" d="M267.95,446.39c.02.96-.39,3.21.62,3.41l51.21.15c1.45-.3.69-1.13.7-2.17h.46c-.02.45.1,1.46,0,1.78-.41,1.3-4.77.38-5.81.7-.13.04-.07.33-.08.46h-.15c-.31-.65-1.29-.92-1.08.15h-.31c-.05-.09-.08-.52-.23-.62-.08-.05-.51.04-.7,0-.59-.13-.17.17-.46.15-10.91-.65-24.89-.7-35.79,0-.29.02.12-.28-.46-.15-.7.15-.61-.2-1.08.62h-.15c.03-.13.22-.55.08-.62-1.14-.59-1.57,1.9-1.78,2.79l-.15-.31c.08-.23.65-2.42.54-2.48-.98-.06-5.33.26-5.66-.7-.14-.41.02-2.52,0-3.18h.31Z"/>
          <path class="uuid-12737ae8-53ed-4d96-8950-44fe0f083810" d="M320.95,447.79h-.46c.03-2.81-.41-7.55,0-10.07,0-.01.18.02.15-.15.09.11.29.46.31.54.32,1.36.1,7.92,0,9.68Z"/>
          <path class="uuid-f42cb1fa-8ae2-46dc-8f9f-c93db0b014c0" d="M270.12,437.1v.31c-.55-.03-2.03.1-2.17.7.21,2.76-.07,5.52,0,8.29h-.31c-.04-1.62-.31-7.26,0-8.44.27-1.04,1.68-.87,2.48-.85Z"/>
          <path class="uuid-4420cc4e-faa7-4113-96a5-b20a8de987b6" d="M274.62,450.89c-.07.36-1.64,4.67-2.17,3.8-.04-.07.4-1.34.46-1.63.21-.89.64-3.38,1.78-2.79.14.07-.05.49-.08.62Z"/>
          <path class="uuid-4420cc4e-faa7-4113-96a5-b20a8de987b6" d="M270.12,437.41c1.72.11,1.7.16,1.86,1.7.13,1.25-.22,7.71,0,8.13l.39.23h39.43l4.34-.23c-.23-1.04-.12-8.03.54-8.29.14-.05,1.4-.02,1.47.08l-.08,9.37h-47.88l-.39-10.61.08,10.92h48.5c-.35-2.43.72-8.78.08-10.77-.24-.75-.33.5-.39.54-.64.45-2.24-.39-1.08-.93.16-.07,2.43,0,2.87,0l.39,11.93-51.67.31c-1.01-.2-.6-2.45-.62-3.41-.07-2.77.21-5.53,0-8.29.14-.6,1.62-.73,2.17-.7Z"/>
          <path class="uuid-4420cc4e-faa7-4113-96a5-b20a8de987b6" d="M272.29,442.99c-.02-1.06-.06-2.2,0-3.25.07-1.19.08-2.38.23-3.56l5.11.15c.52.23.3,5.84,0,6.66h-5.35Z"/>
          <path class="uuid-56d06745-3e6b-4012-87bb-a1dc3b67b9c0" d="M272.29,439.73c-.06,1.05-.02,2.19,0,3.25,0,.26,0,.49,0,.77.03,1.05-.02,2.12,0,3.18.1.22,1.33.35,1.63.39,2.49.31,12.83.38,15.18,0,1.49-.24,1.42-.59,1.32-2.01h.31c.06,1.18-.42,1.75,1.01,2.01l20.07-.15s.01.21,0,.31h-39.43l-.39-.23c-.22-.43.13-6.89,0-8.13l.31.62Z"/>
          <path class="uuid-67481ec7-5e6b-43f7-aa55-bb95daeeda90" d="M320.48,437.72c-.41,2.53.03,7.27,0,10.07-.01,1.04.75,1.87-.7,2.17l-51.21-.15,51.67-.31-.39-11.93c.2,0,.58-.1.62.15Z"/>
          <path class="uuid-4420cc4e-faa7-4113-96a5-b20a8de987b6" d="M312.89,443.92c1.47-.04,1.36,1.01,2.48-.46.18-.24.23-.72.46-.85l-.23,4.42-3.18-.08v-2.94c.27-.39.29-.07.46-.08Z"/>
          <g>
            <path class="uuid-f42cb1fa-8ae2-46dc-8f9f-c93db0b014c0" d="M317.07,436.01c-.02.36-.34.82-.08,1.24.93-.17,3.04-.45,3.64.31.03.18-.15.14-.15.15-.04-.25-.42-.15-.62-.15-.43,0-2.71-.07-2.87,0-1.15.54.45,1.38,1.08.93.06-.04.15-1.29.39-.54.64,1.99-.42,8.33-.08,10.77h-48.5l-.08-10.92.39,10.61h47.88l.08-9.37c-.07-.1-1.33-.13-1.47-.08-.66.26-.77,7.25-.54,8.29l-4.34.23c.01-.1-.03-.27,0-.31.49-.84.52-3.03,0-3.87v-.15c.36.11.71.26,1.08.31-.04.1.26.19,0,.46-.18,0-.2-.31-.46.08v2.94l3.18.08.23-4.42c-.24.13-.29.62-.46.85l-.15-.15c.55-.99-.03-1.67.15-2.4.47-1.85,1.21-2.56,1.39-4.88h.31Z"/>
            <path class="uuid-67481ec7-5e6b-43f7-aa55-bb95daeeda90" d="M315.91,440.2c.19.55-.13,1.15-.15,1.7-.14,0-.15-1.49.15-1.7Z"/>
          </g>
          <g>
            <path class="uuid-8712425b-db6d-4b20-b322-f351ec1f73c8" d="M317.07,436.01h-.31c.02-.22.29-1.53-.08-1.55l-1.39,1.86.77-1.86-5.35-.54c.9,2.17-1.29,5.28-1.24,6.82,0,.1.39,1.94.46,2.01.06.07,1.45.26,1.86.39v.15c-6.94-.43-13.9.07-20.84.15-.48.14-.26,1.25-.23,1.86h-.31c-.02-.22-.17-1.5-.23-1.55-.37-.26-6.53.25-7.51-.08,0-.35,6.39.04,7.05-.08.22-.04.54.08.31-.31l-17.74.46c0-.28,0-.52,0-.77h5.35c.3-.82.52-6.43,0-6.66l-5.11-.15c-.15,1.18-.16,2.38-.23,3.56l-.31-.62c-.16-1.54-.14-1.6-1.86-1.7v-.31l2.01.39c-1.53-5.96,3.57-2.43,5.66-3.49.11-.06-.4-2.02.46-2.32l12.24.15c.71.28.19,1.82.46,2.01s6.24.19,6.51,0c.24-.17-.17-2.27.46-2.63l12.24.15c.62.27-.39,2.84,1.16,2.09l.23-1.63c-.65,3.63,3.82,1.46,5.66,2.71-.09.5-.13.97-.15,1.47Z"/>
            <g>
              <path class="uuid-4420cc4e-faa7-4113-96a5-b20a8de987b6" d="M290.96,436.01l6.74.23-.23,6.74-6.66.15-.15-1.39-.39,1.32c.06-.63-.65-2.2-.62-2.63.05-.83,1.79-3.02,1.32-4.42Z"/>
              <path class="uuid-4420cc4e-faa7-4113-96a5-b20a8de987b6" d="M290.81,434.15h6.66c.1.07.12,1.56.08,1.63-.19.27-6.32.11-6.59-.08-.06-.04-.23-1.51-.15-1.55Z"/>
              <path class="uuid-4420cc4e-faa7-4113-96a5-b20a8de987b6" d="M272.68,434.31c.23-.09,4.73-.1,4.96,0,.32.14.29,1.55.23,1.63-.21.3-4.63-.08-5.35-.08-.44-.36-.29-1.38.15-1.55Z"/>
              <g>
                <path class="uuid-4420cc4e-faa7-4113-96a5-b20a8de987b6" d="M309.71,432.91c1.31,1.24.83,3.81.31,5.42l-.31-5.42Z"/>
                <path class="uuid-4420cc4e-faa7-4113-96a5-b20a8de987b6" d="M309.87,431.52c.31.08.31,1.11.15,1.24-.36.31-.96-1.03-.15-1.24Z"/>
                <g>
                  <path class="uuid-4420cc4e-faa7-4113-96a5-b20a8de987b6" d="M298.09,431.52l11.16.15-1.16.39c.31.21,1.05-.12,1.24.31.13.31.51,6.13.46,6.66-.03.3-.63.81-.62,1.55,0,.2.68,2.08.62,2.17h-1.08c.1-1.82-.34-3.6-1.78-4.73,1.03,1.62,1.65,2.78,1.55,4.8l-10.38.15-.23-10.77c.15.91,1.02,1.82,1.24,2.63.09.33-.28,1.71.31,1.55.34-1.86-1.28-3.12-1.32-4.88Z"/>
                  <g>
                    <path class="uuid-6a30255a-b768-4694-b9bf-5b8905483d45" d="M299.95,432.14c.89-.37,2.4,2.32,2.01,2.48l-1.63-2.25-.31.15v9.61c.11.39,4.04-.02,4.57.08.22.04.54-.08.31.31-1.67-.42-6.46,1.21-5.58-1.7.12,0,.08,1.69.54,1.01l.08-9.68Z"/>
                    <path class="uuid-6a30255a-b768-4694-b9bf-5b8905483d45" d="M306.61,433.22c.09-.01.76-.09.62.15-1.45.57-2.9.53-4.42.23,1.31.07,2.53-.23,3.8-.39Z"/>
                    <path class="uuid-ba6c00b6-b1d9-41fa-9803-b14e917c6717" d="M308.47,432.29c.2.07-1.32,3.78-1.7,3.87l1.7-3.87Z"/>
                    <path class="uuid-06c3ce2f-9f38-4921-8fb5-88def961b98a" d="M301.35,438.49l-.39,1.01.08,2.56c-.43-1.19-.75-2.64.31-3.56Z"/>
                    <path class="uuid-6a30255a-b768-4694-b9bf-5b8905483d45" d="M303.05,441.75l2.25.08c-.47-.08-2.21.51-2.25-.08Z"/>
                  </g>
                </g>
              </g>
              <g>
                <path class="uuid-67481ec7-5e6b-43f7-aa55-bb95daeeda90" d="M279.73,442.52c.57.03,1.15.14,1.7.15.98.03,1.97,0,2.94,0,1.39,0,2.79,0,4.18,0l-10.3.31c-.49-.22-.08-1.42-.08-1.86l.39,1.55c.36.16,1.01-.16,1.16-.15Z"/>
                <path class="uuid-4420cc4e-faa7-4113-96a5-b20a8de987b6" d="M289.88,432.14c.22-.19.6.12.7.39l-.23,5.81c-.26-.75-.77-5.94-.46-6.2Z"/>
                <g>
                  <path class="uuid-4420cc4e-faa7-4113-96a5-b20a8de987b6" d="M288.56,442.68c-1.39,0-2.79,0-4.18,0-.76-.54-1.95-.28-2.94-.46-.32-1.5-.54-2.48.23-3.87-1.2,1.15-.89,2.46-.39,3.87-.1.02-.17,0-.15.15-.33-.05-.69.14-.93-.23l-.08-9.53-.08,9.53c-.61.15-.45-.89-.46-1.24-.73.16-.07,1.18.15,1.63-.15,0-.81.31-1.16.15l-.39-1.55c.04-2.71.05-5.43-.15-8.13l1.24,2.01v2.79c1.35-2.33-1.18-3.84-.7-5.97,3.56.57,7.1.87,10.69.31l.7,10.77c-1.66.55-.72-2.68-1.86-3.72l-.93-.77c.95,1.19,1.84,2.66,1.39,4.26Z"/>
                  <g>
                    <path class="uuid-06c3ce2f-9f38-4921-8fb5-88def961b98a" d="M281.12,442.37c.26.04.36-.05.31.31-.56-.02-1.14-.13-1.7-.15-.22-.45-.89-1.46-.15-1.63.01.35-.14,1.39.46,1.24l.08-9.53.08,9.53c.24.37.6.19.93.23Z"/>
                    <path class="uuid-ba6c00b6-b1d9-41fa-9803-b14e917c6717" d="M280.58,432.6c2.17,1.3,3.86,1.02,6.28,1.16l-4.26.08.15.93c-.47-1.09-1.26-1.52-2.17-2.17Z"/>
                    <polygon class="uuid-6a30255a-b768-4694-b9bf-5b8905483d45" points="287.79 434 289.03 432.84 286.78 436.48 287.79 434"/>
                    <path class="uuid-06c3ce2f-9f38-4921-8fb5-88def961b98a" d="M281.43,442.21s-.12,0-.15,0c-.5-1.41-.82-2.73.39-3.87-.77,1.39-.55,2.38-.23,3.87Z"/>
                    <path class="uuid-a17692c0-d6b7-4296-8886-799071e53150" d="M281.43,442.21c1,.18,2.18-.07,2.94.46-.98,0-1.97.03-2.94,0,.05-.36-.05-.27-.31-.31-.02-.15.05-.13.15-.15.04,0,.11,0,.15,0Z"/>
                    <path class="uuid-6a30255a-b768-4694-b9bf-5b8905483d45" d="M283.53,441.75c.37-.06,1.66-.14,1.94.23l-2.56.08c-.05-.12.59-.3.62-.31Z"/>
                    <polygon class="uuid-83dfefac-7014-44ca-8550-dba4c8bd25a9" points="287.79 434 287.48 433.92 287.55 433.69 287.71 433.84 287.79 434"/>
                  </g>
                </g>
              </g>
            </g>
          </g>
          <g>
            <path class="uuid-4420cc4e-faa7-4113-96a5-b20a8de987b6" d="M311.8,443.3c.52.84.49,3.03,0,3.87l-20.07.15c-1.43-.26-.95-.84-1.01-2.01-.03-.61-.25-1.72.23-1.86,6.94-.09,13.9-.58,20.84-.15Z"/>
            <path class="uuid-6a30255a-b768-4694-b9bf-5b8905483d45" d="M294.68,444.07c3.74.27,7.51.13,11.23.54l-5.66-.08-5.58-.46Z"/>
          </g>
          <g>
            <path class="uuid-4420cc4e-faa7-4113-96a5-b20a8de987b6" d="M290.42,445.31c.1,1.42.17,1.77-1.32,2.01-2.35.38-12.69.31-15.18,0-.29-.04-1.53-.17-1.63-.39-.02-1.06.03-2.12,0-3.18l17.74-.46c.23.39-.09.27-.31.31-.66.12-7.05-.28-7.05.08.99.33,7.15-.18,7.51.08.06.05.22,1.33.23,1.55Z"/>
            <path class="uuid-83dfefac-7014-44ca-8550-dba4c8bd25a9" d="M277.79,444.23l6.43.08c-2.12-.07-4.42.63-6.43-.08Z"/>
            <path class="uuid-a17692c0-d6b7-4296-8886-799071e53150" d="M277.95,443.61c.18-.06,3.8-.11,3.8.08l-3.95.39c-.21-.07.03-.43.15-.46Z"/>
            <path class="uuid-a17692c0-d6b7-4296-8886-799071e53150" d="M274.85,443.92c.22-.04,2.4-.04,2.4.08l-2.87.23c-.07-.12.44-.31.46-.31Z"/>
          </g>
          <g>
            <path class="uuid-4420cc4e-faa7-4113-96a5-b20a8de987b6" d="M316.76,436.01c-.19,2.32-.92,3.03-1.39,4.88-.19.73.4,1.41-.15,2.4-.42.75-1.59.8-1.86.39-.17-.25,1.5-3.26-.23-3.95.64.82.07,1.24.08,1.32s.52-.04.46.93c-.02.38-.67,1.2-.77,1.47-.37-.05-.73-.2-1.08-.31-.41-.13-1.8-.32-1.86-.39-.07-.08-.46-1.91-.46-2.01-.05-1.54,2.14-4.64,1.24-6.82l5.35.54-.77,1.86,1.39-1.86c.37.02.09,1.33.08,1.55Z"/>
            <path class="uuid-ba6c00b6-b1d9-41fa-9803-b14e917c6717" d="M315.21,443.3l.15.15c-1.12,1.47-1.01.43-2.48.46.26-.27-.04-.36,0-.46.1-.27.75-1.09.77-1.47.05-.97-.46-.85-.46-.93s.56-.5-.08-1.32c1.73.69.07,3.7.23,3.95.27.41,1.44.36,1.86-.39Z"/>
            <path class="uuid-6a30255a-b768-4694-b9bf-5b8905483d45" d="M314.67,435.55c.91.29.22,2.99-.31,3.56l.54-2.71c-.48-.89-.96.18-1.39-.31.29.04,1.1-.56,1.16-.54Z"/>
            <polygon class="uuid-a17692c0-d6b7-4296-8886-799071e53150" points="310.18 439.11 310.49 442.68 310.1 441.36 310.18 439.11"/>
            <path class="uuid-ba6c00b6-b1d9-41fa-9803-b14e917c6717" d="M311.42,434.77l2.25.85c-.63.12-1.86-.3-2.25-.85Z"/>
          </g>
        </g>
      </g>
    </g>
    <g>
      <path class="uuid-c4870829-91c0-4b38-ad44-6d9c1d6bb9b7" d="M280.35,396.66c-.04,1.6-.3,7.12,0,8.29.11.44.53.03.46.54-3.15-.07-6.31,0-9.45,0,.06-.66,1.34-.09,1.55-.39.34-.49-.15-10.43-.15-11.85.3,0,.34.15.46.15l.08,11.78,3.18-.08v-11.7c.09,0,.2,0,.31,0,.01,1.44-.34,11.22,0,11.7.14.2,2.71,0,3.18.08l.08-11.85c-.11-.16-.57-.05-.77-.08v-.31c.7-.01,1.48.18,2.01-.31-.23.59-1.02,1.79-1.08,2.09-.14.64.17,1.39.15,1.94Z"/>
      <path class="uuid-4420cc4e-faa7-4113-96a5-b20a8de987b6" d="M286.86,427.65s.39.08.46-.08l-.39-12.94-.08,13.02c-.86.83-1.96.42-3.25.39v-22l1.86-.31c-1.4-.07-2.78-.19-4.18-.23-.15,0-.31,0-.46,0,.06-.51-.35-.1-.46-.54-.3-1.17-.04-6.69,0-8.29,3.03-.38,7.35.5,10.23,0,.14,4.96-.12,9.93-.15,14.87-.04,5.36-.16,10.77.23,16.11.17-5.37.04-10.75.08-16.11.03-4.95.39-9.92,0-14.87,1.32-.41-.04-2.47-.15-3.1.24-.49,2.17-.42,2.32-.08v34.55l-5.81.08-.23-.46Z"/>
      <path class="uuid-4420cc4e-faa7-4113-96a5-b20a8de987b6" d="M290.58,378.37l-.31,14.56c-.71-1-1.15-2.33-1.55-3.49-.22-.63-.29-2.26-.46-2.63-.44-.93-1.12.09-1.24-1.63-.03-.36.25-1,0-1.63-.11-.27-.61-.57-.77-.85v-4.49c1.45.06,2.88.15,4.34.15Z"/>
      <path class="uuid-4420cc4e-faa7-4113-96a5-b20a8de987b6" d="M290.73,392.78l.15-14.41c.29,0,1.64-.39,1.86-.08l.15,14.41c-.25.57-1.88.05-2.17.08Z"/>
      <path class="uuid-324daec4-0ce1-4c39-960a-f36dbb8706e7" d="M290.89,378.37l-.15,14.41c-.24.02-.07.42-.46.31,0-.05,0-.1,0-.15l.31-14.56c.1,0,.21,0,.31,0Z"/>
      <path class="uuid-83dfefac-7014-44ca-8550-dba4c8bd25a9" d="M290.73,411.53h-.31c.04-4.95.29-9.92.15-14.87.05,0,.11.01.15,0,.39,4.95.03,9.92,0,14.87Z"/>
      <path class="uuid-4420cc4e-faa7-4113-96a5-b20a8de987b6" d="M279.27,393.25c.2.03.66-.08.77.08l-.08,11.85c-.47-.07-3.03.13-3.18-.08-.34-.48.01-10.26,0-11.7.75.02,1.65-.28,2.48-.15Z"/>
      <path class="uuid-4420cc4e-faa7-4113-96a5-b20a8de987b6" d="M276.48,393.4v11.7l-3.18.08-.08-11.78c1.08.01,2.15-.02,3.25,0Z"/>
      <path class="uuid-c4870829-91c0-4b38-ad44-6d9c1d6bb9b7" d="M286.86,427.65l.08-13.02.39,12.94c-.08.16-.42.03-.46.08Z"/>
      <path class="uuid-324daec4-0ce1-4c39-960a-f36dbb8706e7" d="M290.73,411.53c-.04,5.37.09,10.75-.08,16.11-.39-5.35-.27-10.75-.23-16.11h.31Z"/>
      <g>
        <path class="uuid-4420cc4e-faa7-4113-96a5-b20a8de987b6" d="M286.55,385.35c-.08,1.34-.59.61-1.78.77-.17-.09.06-.69.08-.93.03-.42.31-2.19,1.01-2.01.52.52.74,1.43.7,2.17Z"/>
        <g>
          <path class="uuid-8712425b-db6d-4b20-b322-f351ec1f73c8" d="M286.08,363.34l-.15,19.29c.05.14.3.06.31.08.16.28.67.58.77.85.25.63-.03,1.27,0,1.63l-.46.15c.05-.74-.18-1.65-.7-2.17-.69-.18-.97,1.59-1.01,2.01h-.46c.17-1.04-.17-2.11,1.24-2.56l.15-19.21.31-.08Z"/>
          <path class="uuid-67481ec7-5e6b-43f7-aa55-bb95daeeda90" d="M286.24,378.06v4.65s-.26.06-.31-.08l.15-19.29c.28,4.89.15,9.82.15,14.72Z"/>
          <path class="uuid-4420cc4e-faa7-4113-96a5-b20a8de987b6" d="M286.47,383.33c.43.39.49,1,.31,1.55l-.31-1.55Z"/>
          <path class="uuid-c4870829-91c0-4b38-ad44-6d9c1d6bb9b7" d="M284.84,383.8c.06-.25-.1-.59.39-.62.07.19-.29.48-.39.62Z"/>
          <path class="uuid-324daec4-0ce1-4c39-960a-f36dbb8706e7" d="M284.84,383.8c-.05.07.08.37-.08.46-.28-.27.07-.44.08-.46Z"/>
        </g>
        <g>
          <path class="uuid-8712425b-db6d-4b20-b322-f351ec1f73c8" d="M284.84,385.19c-.02.24-.25.84-.08.93,1.19-.16,1.7.57,1.78-.77l.46-.15c.12,1.72.8.69,1.24,1.63.18.38.24,2,.46,2.63.4,1.15.84,2.48,1.55,3.49,0,.05,0,.1,0,.15.03.2.27.26.31.46.11.63,1.48,2.68.15,3.1-.04.01-.1,0-.15,0-2.87.5-7.2-.38-10.23,0,.01-.55-.3-1.3-.15-1.94.07-.3.85-1.5,1.08-2.09.77-1.95,1.22-4.04,1.86-5.66.48-1.22.93.11,1.24-1.78h.46Z"/>
          <path class="uuid-4420cc4e-faa7-4113-96a5-b20a8de987b6" d="M289.49,392.47c-2.06,0-1.25-5.15-3.02-5.58-3.39-.83-2.38,3.12-3.64,5.04.11.08.18.3.31.15.42-.48,1.08-4.47,1.24-4.65.2-.23,1.79-.31,2.09-.23.97.26,1.27,4.13,1.94,5.04l-6.51.23c.34-.91.77-1.8,1.08-2.71.19-.57.38-2.65.62-2.94.41-.51,3.23-.1,3.95-.23.49.19.64,2.66.85,3.33.23.73.94,1.91,1.08,2.56Z"/>
          <path class="uuid-4420cc4e-faa7-4113-96a5-b20a8de987b6" d="M289.49,393.09c.08.83.04,1.65-.08,2.48h-8.37c-.58-1.08.52-2.01.7-2.48h7.75Z"/>
          <path class="uuid-4420cc4e-faa7-4113-96a5-b20a8de987b6" d="M290.03,393.4c.65.86.89,1.7.62,2.79-1.21-.22-9.9.36-10.15-.08-.05-.08-.02-.71.08-.85l9.76.62c.6-.52-.38-.16-.54-.39-.06-.09-.08-2.1.23-2.09Z"/>
          <g>
            <path class="uuid-6a30255a-b768-4694-b9bf-5b8905483d45" d="M289.49,392.47c.09.42-.03.34,0,.62h-7.75c.05-.14.04-.31.15-.62l6.51-.23c-.66-.91-.97-4.77-1.94-5.04-.3-.08-1.89,0-2.09.23-.16.18-.82,4.17-1.24,4.65-.13.15-.2-.07-.31-.15,1.27-1.92.26-5.86,3.64-5.04,1.77.43.96,5.59,3.02,5.58Z"/>
            <polygon class="uuid-67481ec7-5e6b-43f7-aa55-bb95daeeda90" points="283.84 392.47 288.72 392.71 281.98 392.94 283.84 392.47"/>
          </g>
        </g>
      </g>
    </g>
    <g>
      <path class="uuid-4420cc4e-faa7-4113-96a5-b20a8de987b6" d="M343.72,363.03l-.15,14.64c-1.65.41-.8,2.93-1.08,3.41-.06.1-.75.05-1.08.46-.2.25-.78,2.51-1.24,3.25-.87,1.41-2.51,1.82-2.01,3.87l11.23.23c.84-2.36-1.2-2.89-2.09-4.42-.35-.59-.97-2.99-1.08-3.1-.32-.31-.98-.17-1.08-.31-.12-.17.58-3.27-1.24-3.56l.15-14.49c4.7.02,9.4-.08,14.1.08-.13,17.07.1,34.15.15,51.21v26.5c0,4.65.03,9.3,0,13.95l-6.82-.08v-16.58l2.63-.15v-2.48c-10.13-.77-20.54-.35-30.76-.23-1.02.03-.96,2.27-.7,2.56s1.79-.19,2.01.31v16.58l-8.29.08-1.32-4.03c.01-.14-.06-.42.08-.46,1.04-.32,5.4.6,5.81-.7.1-.32-.02-1.33,0-1.78.1-1.76.32-8.32,0-9.68-.02-.09-.22-.43-.31-.54-.61-.76-2.71-.48-3.64-.31-.27-.42.06-.88.08-1.24.02-.51.07-.97.15-1.47-1.84-1.25-6.31.92-5.66-2.71l-.23,1.63c-1.56.75-.54-1.82-1.16-2.09l-12.24-.15c-.64.36-.22,2.46-.46,2.63-.27.19-6.24.19-6.51,0s.25-1.74-.46-2.01l-12.24-.15c-.86.31-.35,2.27-.46,2.32-2.09,1.06-7.18-2.47-5.66,3.49l-2.01-.39c-.8-.01-2.21-.19-2.48.85-.31,1.18-.04,6.83,0,8.44.02.66-.14,2.77,0,3.18.32.96,4.68.64,5.66.7.11.06-.47,2.25-.54,2.48-.22.66-.57,1.31-.7,2.01l-14.18-.08c-.26-1.59,2.25-5.17,1.55-6.35-.33-.56-2.53-.01-3.02-.23-.21-.09-.46-2.24-.39-2.4.1-.23,1.83-.37,2.48-1.24.16-.22,2.26-4.54,2.32-4.8,1.11-4.69-3.85.93-4.57,2.25-.52-2.59.24-1.72,1.24-2.63,1.14-1.04,1.25-2.27,1.94-3.33.36-.56,3.52-4.16,2.09-4.57-1-.28-3.47,1.42-4.26,2.09.35-.99,2.51-3.98,2.63-4.73l33.16-.23v-35.02l.62-.31-.62-.46v-14.56l-6.82-.08c0-4.9.13-9.83-.15-14.72l-.31.08-.15,19.21c-1.41.44-1.07,1.52-1.24,2.56-.31,1.9-.76.56-1.24,1.78-.64,1.62-1.09,3.71-1.86,5.66-.53.49-1.31.3-2.01.31-4.42.09-8.97-.15-13.33.08-.05.36,6.24.23,6.82.23,0,1.42.49,11.37.15,11.85-.21.3-1.49-.28-1.55.39h-1.55c0-.22-.11-1.55-.54-1.55.74,2.55-1.88,1.17-3.33,1.63l3.41.46.08,13.25c.4-4.42.16-8.83.08-13.25,0-.11.31-.21.31-.23,3.81.13,7.67-.18,11.47,0,.31.01,1.75-.08,1.86.08-.49,2.63.64,21.25,0,22.16-.19.28-2.29-.16-2.71.23-.15-.1-.07-2.38-.08-2.79-.04-1.6.09-3.21-.08-4.8-.46,1.49-.19,3.25-.23,4.8-.01.4.08,2.52-.08,2.63-.22.15-2.66-.16-3.18.08l-.23-16.35-.08,16.35c-.71.17-3.16.55-3.41-.15-.12-.35.16-6.45.15-7.51-.02-3.97.08-7.96-.08-11.93-.45,3.95-.2,7.97-.23,11.93,0,1.02.18,7.61-.23,7.9h-12.78c-.11-2.48-3.17,1.42-3.56,1.16.43-2.08.19-4.43-1.16-6.12-1.8.07-.99,3.4-.54,4.42s.85.96,1.39,1.7c-.04.28-.2.18-.39.08-.38-.21-2.28-2.71-2.87-1.39-.22-.09-4.37-.07-4.73,0-.28.06-.48-.1-.39.39.05.26,4.72-.15,5.27-.08.48.59.44,2.57.93,3.33.72,1.12,3.14.72,1.7,3.1-.4-1.15-3.46-5.03-4.73-4.42-1.4.68,2.54,5.27,3.25,5.89,1.15,1,1.19-.27,1.47,1.7l-.62-.39.62,1.16-.08.31c-.65-.89-6.41-4.54-6.74-2.56.65,1.83,2.44,2.91,3.87,4.11-.58-.23-1.55-.38-2.17-.7.3,1.46,1.71,4.56,3.18,5.04.46.15,2.02.13,2.09.23s-.03,2.07.15,2.48c-.32.65-2.77-.27-3.1.62-.52,1.39,1.6,4.6,1.7,6.2l-6.97-.08c.16-7.22-.15-14.6-.15-21.85,0-13.17-.02-26.33,0-39.51.02-10.07.05-20.15-.08-30.21,32.15.08,64.3-.11,96.45,0Z"/>
      <g>
        <path class="uuid-12737ae8-53ed-4d96-8950-44fe0f083810" d="M247.35,393.25c-.02,13.18,0,26.34,0,39.51v-39.51Z"/>
        <path class="uuid-12737ae8-53ed-4d96-8950-44fe0f083810" d="M358.29,440.82v-26.5c.03,8.83,0,17.67,0,26.5Z"/>
        <g>
          <path class="uuid-8712425b-db6d-4b20-b322-f351ec1f73c8" d="M331.33,432.14c.22-.22.2-.16.15-.46-.09-.6-.68-.67-.62-.85.1-.31,1.93-.31,1.47-1.16.45.53,1.21-.31.7,1.01,1.24-.13.58.27.62.31,1.23,1.33-.31.45-.46,1.24.69.7.81.94,1.08,2.17-.85-1.2-.47-1.47-2.25-1.47-2.18,0-.59.78-2.01,1.39l.54-1.32c-.07-.16-1.06.42-.93-.46,1.12-.7.83.51,1.7-.39Z"/>
          <g>
            <polygon class="uuid-83dfefac-7014-44ca-8550-dba4c8bd25a9" points="310.33 386.12 310.8 394.8 323.12 394.87 310.33 394.95 310.33 386.12"/>
            <polygon class="uuid-a17692c0-d6b7-4296-8886-799071e53150" points="312.81 388.75 313.12 392.94 321.02 393.09 321.18 389.06 321.41 393.02 312.81 393.25 312.81 388.75"/>
            <path class="uuid-c4870829-91c0-4b38-ad44-6d9c1d6bb9b7" d="M313.74,379.92l1.08.93,4.73-.23c.19.69-4.26.65-4.73.54-.09-.02-1.69-1-1.08-1.24Z"/>
            <path class="uuid-a17692c0-d6b7-4296-8886-799071e53150" d="M315.83,390.61s-.1.24-.31,0c.36-1.63-.46-4.21.23-5.89l.08,5.89Z"/>
            <path class="uuid-83dfefac-7014-44ca-8550-dba4c8bd25a9" d="M323.04,387.2c.13,2.32.13,4.66,0,6.97-.41-2.31-.23-4.66,0-6.97Z"/>
            <path class="uuid-06c3ce2f-9f38-4921-8fb5-88def961b98a" d="M318.54,385.81c.48,1.4.19,3.19.15,4.65-.48-1.4-.19-3.19-.15-4.65Z"/>
            <path class="uuid-83dfefac-7014-44ca-8550-dba4c8bd25a9" d="M312.19,386.59c.24,2.13.05,4.36,0,6.51-.16-2.15-.11-4.35,0-6.51Z"/>
            <path class="uuid-06c3ce2f-9f38-4921-8fb5-88def961b98a" d="M315.83,390.61c.95.17,1.84.13,2.79.23-.39.47-3.56.21-3.56,0,.13-.17.4.05.46-.23.21.24.29,0,.31,0Z"/>
            <path class="uuid-a17692c0-d6b7-4296-8886-799071e53150" d="M315.45,391.7c.1-.02,1.92.16,2.09.39-.35.37-3.28-.11-2.09-.39Z"/>
          </g>
          <path class="uuid-06c3ce2f-9f38-4921-8fb5-88def961b98a" d="M255.56,438.18s.43.63,0,.77l-.62-1.16.62.39Z"/>
          <path class="uuid-06c3ce2f-9f38-4921-8fb5-88def961b98a" d="M331.48,431.67c.04.3.06.24-.15.46-.25-.52-.87-.82.15-.46Z"/>
          <polygon class="uuid-ba6c00b6-b1d9-41fa-9803-b14e917c6717" points="333.42 430.13 333.65 430.2 333.42 430.43 333.34 430.36 333.42 430.13"/>
          <path class="uuid-8712425b-db6d-4b20-b322-f351ec1f73c8" d="M334.04,432.45h.15c.31-.02.31.18,0,.15l-.15-.15Z"/>
          <g>
            <path class="uuid-c4870829-91c0-4b38-ad44-6d9c1d6bb9b7" d="M259.9,428.73c.02-.1,0-.21,0-.31h12.78c.41-.29.22-6.88.23-7.9h.31c0,1.06-.28,7.16-.15,7.51.25.7,2.7.33,3.41.15l.08-16.35.23,16.35c.51-.24,2.96.08,3.18-.08.16-.11.07-2.23.08-2.63h.31c0,.41-.08,2.69.08,2.79.43-.39,2.52.04,2.71-.23.64-.9-.49-19.52,0-22.16-.11-.16-1.55-.06-1.86-.08v-.31c1.4.04,2.78.16,4.18.23l-1.86.31v22c1.3.04,2.39.44,3.25-.39l.23.46,5.81-.08v-34.55c-.15-.34-2.09-.41-2.32.08-.04-.21-.28-.26-.31-.46.39.11.23-.29.46-.31.29-.03,1.92.49,2.17-.08l-.15-14.41c-.22-.31-1.57.08-1.86.08-.1,0-.21,0-.31,0-1.45,0-2.89-.1-4.34-.15v-.15l6.82.08v14.56l.62.46-.62.31v35.02l-33.16.23Z"/>
            <path class="uuid-06c3ce2f-9f38-4921-8fb5-88def961b98a" d="M262.07,377.91v.31c-1.14.04-2.26.14-3.41.15-.05,0-.1,0-.15,0-3.51.05-7.04-.13-10.54.08.21,9.01.2,18.03.15,27.04,0,.1,0,.21,0,.31-.02,5.16.68,15.33-.15,19.91-.04.22.08.54-.31.31v-48.03c4.79-.07,9.62-.17,14.41-.08Z"/>
            <path class="uuid-06c3ce2f-9f38-4921-8fb5-88def961b98a" d="M248.12,405.8c0-.1,0-.21,0-.31,1.12.16,2.31-.15,3.41-.15.05,0,.1,0,.15,0,.87,0,6.56.5,6.82-.08.02-3.95-.02-7.9,0-11.85,0-.21,0-.41,0-.62.01-2.99,0-5.99,0-8.99h.15c.03,7.2.23,14.4.15,21.62h3.25l.15-8.83v23.4l-.15-14.1h-3.25l-.23,15.73-.08-15.57-10.38-.23Z"/>
            <path class="uuid-c4870829-91c0-4b38-ad44-6d9c1d6bb9b7" d="M269.81,405.49c0,.1,0,.21,0,.31,0,.02-.31.12-.31.23.08,4.42.33,8.83-.08,13.25l-.08-13.25-3.41-.46c1.46-.46,4.07.93,3.33-1.63.44,0,.54,1.33.54,1.55Z"/>
            <path class="uuid-83dfefac-7014-44ca-8550-dba4c8bd25a9" d="M255.02,408.43c.49,4.56.18,9.21.15,13.79-.49-4.56-.18-9.21-.15-13.79Z"/>
            <path class="uuid-06c3ce2f-9f38-4921-8fb5-88def961b98a" d="M251.45,410.29c.49,4.51.18,9.11.15,13.64-.49-4.51-.18-9.11-.15-13.64Z"/>
            <path class="uuid-a17692c0-d6b7-4296-8886-799071e53150" d="M279.27,392.94v.31c-.83-.12-1.73.18-2.48.15-.11,0-.22,0-.31,0-1.1-.02-2.17.01-3.25,0-.12,0-.17-.15-.46-.15-.57,0-6.87.12-6.82-.23,4.35-.22,8.91.02,13.33-.08Z"/>
            <path class="uuid-83dfefac-7014-44ca-8550-dba4c8bd25a9" d="M273.22,420.52h-.31c.03-3.96-.22-7.98.23-11.93.16,3.97.05,7.96.08,11.93Z"/>
            <path class="uuid-83dfefac-7014-44ca-8550-dba4c8bd25a9" d="M280.81,405.49c.15,0,.31,0,.46,0v.31c-3.79-.18-7.66.13-11.47,0,0-.1,0-.21,0-.31h1.55c3.15,0,6.3-.07,9.45,0Z"/>
            <path class="uuid-324daec4-0ce1-4c39-960a-f36dbb8706e7" d="M265.71,430.74c.13,6.24.13,12.5,0,18.75-.13-6.24-.13-12.5,0-18.75Z"/>
            <path class="uuid-83dfefac-7014-44ca-8550-dba4c8bd25a9" d="M252.77,428.27c.02.08.12.26.15.31-.55-.07-5.22.34-5.27.08-.09-.49.11-.33.39-.39.36-.07,4.51-.09,4.73,0Z"/>
            <path class="uuid-06c3ce2f-9f38-4921-8fb5-88def961b98a" d="M280.35,425.48h-.31c.04-1.55-.22-3.31.23-4.8.17,1.59.04,3.21.08,4.8Z"/>
            <path class="uuid-06c3ce2f-9f38-4921-8fb5-88def961b98a" d="M280.12,413.24c.48,1.46.19,3.29.15,4.8-.48-1.47-.19-3.28-.15-4.8Z"/>
            <path class="uuid-a17692c0-d6b7-4296-8886-799071e53150" d="M262.07,378.22v-.31c.87.02,1.77-.08,2.63.08-.64.65-1.95.21-2.63.23Z"/>
            <path class="uuid-c4870829-91c0-4b38-ad44-6d9c1d6bb9b7" d="M258.66,383.8h-.15v-5.42c.05,0,.1,0,.15,0,0,1.81,0,3.62,0,5.42Z"/>
            <path class="uuid-4420cc4e-faa7-4113-96a5-b20a8de987b6" d="M258.5,378.37v5.42c0,2.99.01,5.99,0,8.99l-6.59.15-.39-5.5v17.9c-1.1,0-2.29.32-3.41.15.04-9.01.06-18.03-.15-27.04,3.5-.21,7.03-.03,10.54-.08Z"/>
            <path class="uuid-4420cc4e-faa7-4113-96a5-b20a8de987b6" d="M258.5,393.4c-.02,3.95.02,7.9,0,11.85-.25.57-5.95.08-6.82.08l.15-12.01,6.66.08Z"/>
            <path class="uuid-83dfefac-7014-44ca-8550-dba4c8bd25a9" d="M258.5,392.78c0,.21,0,.41,0,.62l-6.66-.08-.15,12.01c-.05,0-.1,0-.15,0v-17.9l.39,5.5,6.59-.15Z"/>
          </g>
          <g>
            <polygon class="uuid-8712425b-db6d-4b20-b322-f351ec1f73c8" points="337.29 426.25 346.28 426.25 346.51 434.08 337.29 434.15 337.29 426.25"/>
            <polygon class="uuid-4420cc4e-faa7-4113-96a5-b20a8de987b6" points="337.6 426.56 345.97 426.56 346.2 433.61 337.6 433.84 337.6 426.56"/>
            <g>
              <path class="uuid-8712425b-db6d-4b20-b322-f351ec1f73c8" d="M345.43,433.38l-.08-5.73-.15,5.27-6.43.08c1.93.18,3.88.02,5.81.08.28,0,.77-.16.7.31-.46.1-6.88.15-7.21,0l-.23-6.12,7.67-.23c.33.78.46,6.11-.08,6.35Z"/>
              <path class="uuid-a17692c0-d6b7-4296-8886-799071e53150" d="M345.43,433.38s-.1-.01-.15,0c.07-.47-.41-.3-.7-.31-1.93-.06-3.88.11-5.81-.08l6.43-.08.15-5.27.08,5.73Z"/>
              <polygon class="uuid-4420cc4e-faa7-4113-96a5-b20a8de987b6" points="339.15 428.27 344.58 428.27 344.65 432.22 339.15 432.29 339.15 428.27"/>
              <path class="uuid-a17692c0-d6b7-4296-8886-799071e53150" d="M338.3,432.6h-.15c-.17-1.71.06-3.55.08-5.27.24,1.46.49,3.88.08,5.27Z"/>
              <path class="uuid-ed373c19-5474-4dbc-a17b-85e455c03159" d="M338.14,432.6h.15c-.04.14.08.35-.08.46-.13,0-.06-.33-.08-.46Z"/>
            </g>
          </g>
          <g>
            <polygon class="uuid-8712425b-db6d-4b20-b322-f351ec1f73c8" points="328.15 401.31 348.76 401.46 348.99 419.82 327.38 420.05 326.99 401.54 328.15 401.31"/>
            <polygon class="uuid-67481ec7-5e6b-43f7-aa55-bb95daeeda90" points="327.53 401.77 348.45 401.77 348.68 419.51 327.53 419.74 327.53 401.77"/>
            <polygon class="uuid-8712425b-db6d-4b20-b322-f351ec1f73c8" points="327.84 402.23 347.98 402.39 348.06 419.2 327.84 419.43 327.84 402.23"/>
            <g>
              <polygon class="uuid-c4870829-91c0-4b38-ad44-6d9c1d6bb9b7" points="328.15 402.54 347.52 402.54 347.91 418.89 328.15 419.12 328.15 402.54"/>
              <g>
                <path class="uuid-8712425b-db6d-4b20-b322-f351ec1f73c8" d="M344.03,405.33c.12,4.3-.09,8.63,0,12.94.05.15,2.41.25,2.56.08.58-.65.02-13.4.23-15.18.03,0-.07-.57.46-.23l-.08,15.88-18.52-.15c.19-.28.78-.15,1.08-.15.88,0,1.78-.15,2.63-.15.56,0,1.14,0,1.7,0,.98,0,1.95.02,2.94,0,.26,0,.91.17,1.39.15.39,0,.29-.15.31-.15.69-.02.88.19,1.86,0,.02,0-.01.24.31.15l.15-.15c.23.13.23.17.46,0,.62-.47-.15-13.71.15-15.49.37.01,2.21-.09,2.32.08.02.8-.02,1.6,0,2.4Z"/>
                <path class="uuid-0328af9e-a55a-47a2-9ac8-6a8c9bed7c1c" d="M340.62,402.85v15.49c-.97.19-1.17-.02-1.86,0l.23-15.49c.54-.04,1.1.05,1.63,0Z"/>
                <path class="uuid-53334e5c-9bb0-4a77-9c63-b58f7e398ad3" d="M329.78,418.5c-.31,0-.9-.12-1.08.15l-.46-.08c.31-1.8-.41-15.27.23-15.73.05-.04,1.09-.03,1.16.08l.15,15.57Z"/>
                <path class="uuid-83dfefac-7014-44ca-8550-dba4c8bd25a9" d="M338.61,406.57c.08,3.96-.21,7.97-.15,11.93-.49.01-1.14-.16-1.39-.15.02-1.29-.1-2.58-.15-3.87l1.08-11.23c.88.47-.25,2.74.62,3.33Z"/>
                <path class="uuid-53334e5c-9bb0-4a77-9c63-b58f7e398ad3" d="M341.55,402.85v15.49c-.23.17-.23.13-.46,0l-.15-14.64v14.8c-.32.09-.29-.16-.31-.15v-15.49c.33-.03.62,0,.93,0Z"/>
                <path class="uuid-0328af9e-a55a-47a2-9ac8-6a8c9bed7c1c" d="M338.61,406.57c-.87-.59.26-2.86-.62-3.33l-1.08,11.23c-.16-3.86.2-7.68.15-11.54h1.55c.02,1.21-.02,2.43,0,3.64Z"/>
                <path class="uuid-0328af9e-a55a-47a2-9ac8-6a8c9bed7c1c" d="M341.55,418.35v-15.49c.05,0,.1,0,.15,0-.31,1.78.46,15.03-.15,15.49Z"/>
                <polygon class="uuid-0328af9e-a55a-47a2-9ac8-6a8c9bed7c1c" points="341.09 418.35 340.93 418.5 340.93 403.71 341.09 418.35"/>
                <g>
                  <path class="uuid-a17692c0-d6b7-4296-8886-799071e53150" d="M346.82,403.16c-.21,1.79.35,14.53-.23,15.18-.15.17-2.5.08-2.56-.08-.09-4.31.12-8.63,0-12.94l.54,3.87-.08-6.12c.78-.63,1.71-.07,2.32.08Z"/>
                  <path class="uuid-06c3ce2f-9f38-4921-8fb5-88def961b98a" d="M344.73,411.07c.16,0,.1,2.81,0,3.1-.11-1.05-.36-2.07,0-3.1Z"/>
                </g>
                <g>
                  <path class="uuid-06c3ce2f-9f38-4921-8fb5-88def961b98a" d="M334.12,418.35c-.56,0-1.14,0-1.7,0v-15.26l1.78-.23-.08,15.49Z"/>
                  <path class="uuid-a17692c0-d6b7-4296-8886-799071e53150" d="M333.42,408.59c.12,0,.12.78,0,.77-.13-.13-.11-.77,0-.77Z"/>
                </g>
              </g>
            </g>
          </g>
        </g>
      </g>
    </g>
  </g>
</svg>